  0
SECTION
  2
HEADER
  9
$ACADVER
  1
AC1024
  9
$ACADMAINTVER
 70
6
  9
$DWGCODEPAGE
  3
ANSI_1252
  9
$LASTSAVEDBY
  1
ezdxf
  9
$INSBASE
 10
0.0
 20
0.0
 30
0.0
  9
$EXTMIN
 10
1e+20
 20
1e+20
 30
1e+20
  9
$EXTMAX
 10
-1e+20
 20
-1e+20
 30
-1e+20
  9
$LIMMIN
 10
0.0
 20
0.0
  9
$LIMMAX
 10
420.0
 20
297.0
  9
$ORTHOMODE
 70
0
  9
$REGENMODE
 70
1
  9
$FILLMODE
 70
1
  9
$QTEXTMODE
 70
0
  9
$MIRRTEXT
 70
1
  9
$LTSCALE
 40
1.0
  9
$ATTMODE
 70
1
  9
$TEXTSIZE
 40
2.5
  9
$TRACEWID
 40
1.0
  9
$TEXTSTYLE
  7
Standard
  9
$CLAYER
  8
0
  9
$CELTYPE
  6
ByLayer
  9
$CECOLOR
 62
256
  9
$CELTSCALE
 40
1.0
  9
$DISPSILH
 70
0
  9
$DIMSCALE
 40
1.0
  9
$DIMASZ
 40
2.5
  9
$DIMEXO
 40
0.625
  9
$DIMDLI
 40
3.75
  9
$DIMRND
 40
0.0
  9
$DIMDLE
 40
0.0
  9
$DIMEXE
 40
1.25
  9
$DIMTP
 40
0.0
  9
$DIMTM
 40
0.0
  9
$DIMTXT
 40
2.5
  9
$DIMCEN
 40
2.5
  9
$DIMTSZ
 40
0.0
  9
$DIMTOL
 70
0
  9
$DIMLIM
 70
0
  9
$DIMTIH
 70
0
  9
$DIMTOH
 70
0
  9
$DIMSE1
 70
0
  9
$DIMSE2
 70
0
  9
$DIMTAD
 70
1
  9
$DIMZIN
 70
8
  9
$DIMBLK
  1

  9
$DIMASO
 70
1
  9
$DIMSHO
 70
1
  9
$DIMPOST
  1

  9
$DIMAPOST
  1

  9
$DIMALT
 70
0
  9
$DIMALTD
 70
3
  9
$DIMALTF
 40
0.03937007874
  9
$DIMLFAC
 40
1.0
  9
$DIMTOFL
 70
1
  9
$DIMTVP
 40
0.0
  9
$DIMTIX
 70
0
  9
$DIMSOXD
 70
0
  9
$DIMSAH
 70
0
  9
$DIMBLK1
  1

  9
$DIMBLK2
  1

  9
$DIMSTYLE
  2
ISO-25
  9
$DIMCLRD
 70
0
  9
$DIMCLRE
 70
0
  9
$DIMCLRT
 70
0
  9
$DIMTFAC
 40
1.0
  9
$DIMGAP
 40
0.625
  9
$DIMJUST
 70
0
  9
$DIMSD1
 70
0
  9
$DIMSD2
 70
0
  9
$DIMTOLJ
 70
0
  9
$DIMTZIN
 70
8
  9
$DIMALTZ
 70
0
  9
$DIMALTTZ
 70
0
  9
$DIMUPT
 70
0
  9
$DIMDEC
 70
2
  9
$DIMTDEC
 70
2
  9
$DIMALTU
 70
2
  9
$DIMALTTD
 70
3
  9
$DIMTXSTY
  7
Standard
  9
$DIMAUNIT
 70
0
  9
$DIMADEC
 70
0
  9
$DIMALTRND
 40
0.0
  9
$DIMAZIN
 70
0
  9
$DIMDSEP
 70
44
  9
$DIMATFIT
 70
3
  9
$DIMFRAC
 70
0
  9
$DIMLDRBLK
  1

  9
$DIMLUNIT
 70
2
  9
$DIMLWD
 70
-2
  9
$DIMLWE
 70
-2
  9
$DIMTMOVE
 70
0
  9
$DIMFXL
 40
1.0
  9
$DIMFXLON
 70
0
  9
$DIMJOGANG
 40
0.785398163397
  9
$DIMTFILL
 70
0
  9
$DIMTFILLCLR
 70
0
  9
$DIMARCSYM
 70
0
  9
$DIMLTYPE
  6

  9
$DIMLTEX1
  6

  9
$DIMLTEX2
  6

  9
$DIMTXTDIRECTION
 70
0
  9
$LUNITS
 70
2
  9
$LUPREC
 70
4
  9
$SKETCHINC
 40
1.0
  9
$FILLETRAD
 40
10.0
  9
$AUNITS
 70
0
  9
$AUPREC
 70
2
  9
$MENU
  1
.
  9
$ELEVATION
 40
0.0
  9
$PELEVATION
 40
0.0
  9
$THICKNESS
 40
0.0
  9
$LIMCHECK
 70
0
  9
$CHAMFERA
 40
0.0
  9
$CHAMFERB
 40
0.0
  9
$CHAMFERC
 40
0.0
  9
$CHAMFERD
 40
0.0
  9
$SKPOLY
 70
0
  9
$TDCREATE
 40
2461250.3950578705
  9
$TDUCREATE
 40
2458532.153996898
  9
$TDUPDATE
 40
2461250.3950578705
  9
$TDUUPDATE
 40
2458532.1544311
  9
$TDINDWG
 40
0.0
  9
$TDUSRTIMER
 40
0.0
  9
$USRTIMER
 70
1
  9
$ANGBASE
 50
0.0
  9
$ANGDIR
 70
0
  9
$PDMODE
 70
0
  9
$PDSIZE
 40
0.0
  9
$PLINEWID
 40
0.0
  9
$SPLFRAME
 70
0
  9
$SPLINETYPE
 70
6
  9
$SPLINESEGS
 70
8
  9
$HANDSEED
  5
233
  9
$SURFTAB1
 70
6
  9
$SURFTAB2
 70
6
  9
$SURFTYPE
 70
6
  9
$SURFU
 70
6
  9
$SURFV
 70
6
  9
$UCSBASE
  2

  9
$UCSNAME
  2

  9
$UCSORG
 10
0.0
 20
0.0
 30
0.0
  9
$UCSXDIR
 10
1.0
 20
0.0
 30
0.0
  9
$UCSYDIR
 10
0.0
 20
1.0
 30
0.0
  9
$UCSORTHOREF
  2

  9
$UCSORTHOVIEW
 70
0
  9
$UCSORGTOP
 10
0.0
 20
0.0
 30
0.0
  9
$UCSORGBOTTOM
 10
0.0
 20
0.0
 30
0.0
  9
$UCSORGLEFT
 10
0.0
 20
0.0
 30
0.0
  9
$UCSORGRIGHT
 10
0.0
 20
0.0
 30
0.0
  9
$UCSORGFRONT
 10
0.0
 20
0.0
 30
0.0
  9
$UCSORGBACK
 10
0.0
 20
0.0
 30
0.0
  9
$PUCSBASE
  2

  9
$PUCSNAME
  2

  9
$PUCSORG
 10
0.0
 20
0.0
 30
0.0
  9
$PUCSXDIR
 10
1.0
 20
0.0
 30
0.0
  9
$PUCSYDIR
 10
0.0
 20
1.0
 30
0.0
  9
$PUCSORTHOREF
  2

  9
$PUCSORTHOVIEW
 70
0
  9
$PUCSORGTOP
 10
0.0
 20
0.0
 30
0.0
  9
$PUCSORGBOTTOM
 10
0.0
 20
0.0
 30
0.0
  9
$PUCSORGLEFT
 10
0.0
 20
0.0
 30
0.0
  9
$PUCSORGRIGHT
 10
0.0
 20
0.0
 30
0.0
  9
$PUCSORGFRONT
 10
0.0
 20
0.0
 30
0.0
  9
$PUCSORGBACK
 10
0.0
 20
0.0
 30
0.0
  9
$USERI1
 70
0
  9
$USERI2
 70
0
  9
$USERI3
 70
0
  9
$USERI4
 70
0
  9
$USERI5
 70
0
  9
$USERR1
 40
0.0
  9
$USERR2
 40
0.0
  9
$USERR3
 40
0.0
  9
$USERR4
 40
0.0
  9
$USERR5
 40
0.0
  9
$WORLDVIEW
 70
1
  9
$SHADEDGE
 70
3
  9
$SHADEDIF
 70
70
  9
$TILEMODE
 70
1
  9
$MAXACTVP
 70
64
  9
$PINSBASE
 10
0.0
 20
0.0
 30
0.0
  9
$PLIMCHECK
 70
0
  9
$PEXTMIN
 10
1e+20
 20
1e+20
 30
1e+20
  9
$PEXTMAX
 10
-1e+20
 20
-1e+20
 30
-1e+20
  9
$PLIMMIN
 10
0.0
 20
0.0
  9
$PLIMMAX
 10
420.0
 20
297.0
  9
$UNITMODE
 70
0
  9
$VISRETAIN
 70
1
  9
$PLINEGEN
 70
0
  9
$PSLTSCALE
 70
1
  9
$TREEDEPTH
 70
3020
  9
$CMLSTYLE
  2
Standard
  9
$CMLJUST
 70
0
  9
$CMLSCALE
 40
20.0
  9
$PROXYGRAPHICS
 70
1
  9
$MEASUREMENT
 70
1
  9
$CELWEIGHT
370
-1
  9
$ENDCAPS
280
0
  9
$JOINSTYLE
280
0
  9
$LWDISPLAY
290
0
  9
$INSUNITS
 70
6
  9
$HYPERLINKBASE
  1

  9
$STYLESHEET
  1

  9
$XEDIT
290
1
  9
$CEPSNTYPE
380
0
  9
$PSTYLEMODE
290
1
  9
$FINGERPRINTGUID
  2
{3C283ED2-064C-41FA-9CC9-09AB6BEC1FA4}
  9
$VERSIONGUID
  2
{32C27EE2-F288-4711-85B2-1556F1732149}
  9
$EXTNAMES
290
1
  9
$PSVPSCALE
 40
0.0
  9
$OLESTARTUP
290
0
  9
$SORTENTS
280
127
  9
$INDEXCTL
280
0
  9
$HIDETEXT
280
1
  9
$XCLIPFRAME
280
1
  9
$HALOGAP
280
0
  9
$OBSCOLOR
 70
257
  9
$OBSLTYPE
280
0
  9
$INTERSECTIONDISPLAY
280
0
  9
$INTERSECTIONCOLOR
 70
257
  9
$DIMASSOC
280
2
  9
$PROJECTNAME
  1

  9
$CAMERADISPLAY
290
0
  9
$LENSLENGTH
 40
50.0
  9
$CAMERAHEIGHT
 40
0.0
  9
$STEPSPERSEC
 40
24.0
  9
$STEPSIZE
 40
100.0
  9
$3DDWFPREC
 40
2.0
  9
$PSOLWIDTH
 40
0.005
  9
$PSOLHEIGHT
 40
0.08
  9
$LOFTANG1
 40
1.570796326795
  9
$LOFTANG2
 40
1.570796326795
  9
$LOFTMAG1
 40
0.0
  9
$LOFTMAG2
 40
0.0
  9
$LOFTPARAM
 70
7
  9
$LOFTNORMALS
280
1
  9
$LATITUDE
 40
37.795
  9
$LONGITUDE
 40
-122.394
  9
$NORTHDIRECTION
 40
0.0
  9
$TIMEZONE
 70
-8000
  9
$LIGHTGLYPHDISPLAY
280
1
  9
$TILEMODELIGHTSYNCH
280
1
  9
$CMATERIAL
347
20
  9
$SOLIDHIST
280
0
  9
$SHOWHIST
280
1
  9
$DWFFRAME
280
2
  9
$DGNFRAME
280
2
  9
$REALWORLDSCALE
290
1
  9
$INTERFERECOLOR
 62
256
  9
$CSHADOW
280
0
  9
$SHADOWPLANELOCATION
 40
0.0
  0
ENDSEC
  0
SECTION
  2
CLASSES
  0
CLASS
  1
ACDBDICTIONARYWDFLT
  2
AcDbDictionaryWithDefault
  3
ObjectDBX Classes
 90
0
 91
0
280
0
281
0
  0
CLASS
  1
SUN
  2
AcDbSun
  3
SCENEOE
 90
1153
 91
0
280
0
281
0
  0
CLASS
  1
VISUALSTYLE
  2
AcDbVisualStyle
  3
ObjectDBX Classes
 90
4095
 91
0
280
0
281
0
  0
CLASS
  1
MATERIAL
  2
AcDbMaterial
  3
ObjectDBX Classes
 90
1153
 91
0
280
0
281
0
  0
CLASS
  1
SCALE
  2
AcDbScale
  3
ObjectDBX Classes
 90
1153
 91
0
280
0
281
0
  0
CLASS
  1
TABLESTYLE
  2
AcDbTableStyle
  3
ObjectDBX Classes
 90
4095
 91
0
280
0
281
0
  0
CLASS
  1
MLEADERSTYLE
  2
AcDbMLeaderStyle
  3
ACDB_MLEADERSTYLE_CLASS
 90
4095
 91
0
280
0
281
0
  0
CLASS
  1
DICTIONARYVAR
  2
AcDbDictionaryVar
  3
ObjectDBX Classes
 90
0
 91
0
280
0
281
0
  0
CLASS
  1
CELLSTYLEMAP
  2
AcDbCellStyleMap
  3
ObjectDBX Classes
 90
1152
 91
0
280
0
281
0
  0
CLASS
  1
MENTALRAYRENDERSETTINGS
  2
AcDbMentalRayRenderSettings
  3
SCENEOE
 90
1024
 91
0
280
0
281
0
  0
CLASS
  1
ACDBDETAILVIEWSTYLE
  2
AcDbDetailViewStyle
  3
ObjectDBX Classes
 90
1025
 91
0
280
0
281
0
  0
CLASS
  1
ACDBSECTIONVIEWSTYLE
  2
AcDbSectionViewStyle
  3
ObjectDBX Classes
 90
1025
 91
0
280
0
281
0
  0
CLASS
  1
RASTERVARIABLES
  2
AcDbRasterVariables
  3
ISM
 90
0
 91
0
280
0
281
0
  0
CLASS
  1
LAYOUT
  2
AcDbLayout
  3
ObjectDBX Classes
 90
0
 91
0
280
0
281
0
  0
CLASS
  1
ACDBPLACEHOLDER
  2
AcDbPlaceHolder
  3
ObjectDBX Classes
 90
0
 91
0
280
0
281
0
  0
ENDSEC
  0
SECTION
  2
TABLES
  0
TABLE
  2
VPORT
  5
8
330
0
100
AcDbSymbolTable
 70
1
  0
VPORT
  5
23
330
8
100
AcDbSymbolTableRecord
100
AcDbViewportTableRecord
  2
*Active
 70
0
 10
0.0
 20
0.0
 11
1.0
 21
1.0
 12
0.0
 22
0.0
 13
0.0
 23
0.0
 14
0.5
 24
0.5
 15
0.5
 25
0.5
 16
0.0
 26
0.0
 36
1.0
 17
0.0
 27
0.0
 37
0.0
 40
1000.0
 41
1.34
 42
50.0
 43
0.0
 44
0.0
 50
0.0
 51
0.0
 71
0
 72
1000
 73
1
 74
3
 75
0
 76
0
 77
0
 78
0
281
0
 65
0
146
0.0
  0
ENDTAB
  0
TABLE
  2
LTYPE
  5
2
330
0
100
AcDbSymbolTable
 70
3
  0
LTYPE
  5
24
330
2
100
AcDbSymbolTableRecord
100
AcDbLinetypeTableRecord
  2
ByBlock
 70
0
  3

 72
65
 73
0
 40
0.0
  0
LTYPE
  5
25
330
2
100
AcDbSymbolTableRecord
100
AcDbLinetypeTableRecord
  2
ByLayer
 70
0
  3

 72
65
 73
0
 40
0.0
  0
LTYPE
  5
26
330
2
100
AcDbSymbolTableRecord
100
AcDbLinetypeTableRecord
  2
Continuous
 70
0
  3

 72
65
 73
0
 40
0.0
  0
ENDTAB
  0
TABLE
  2
LAYER
  5
1
330
0
100
AcDbSymbolTable
 70
5
  0
LAYER
  5
27
330
1
100
AcDbSymbolTableRecord
100
AcDbLayerTableRecord
  2
0
 70
0
 62
7
  6
Continuous
370
-3
390
13
347
21
  0
LAYER
  5
28
330
1
100
AcDbSymbolTableRecord
100
AcDbLayerTableRecord
  2
Defpoints
 70
0
 62
7
  6
Continuous
290
0
370
-3
390
13
347
21
  0
LAYER
  5
22D
330
1
100
AcDbSymbolTableRecord
100
AcDbLayerTableRecord
  2
keypoints
 70
0
 62
1
  6
Continuous
370
-3
390
13
347
21
  0
LAYER
  5
22E
330
1
100
AcDbSymbolTableRecord
100
AcDbLayerTableRecord
  2
lines
 70
0
 62
2
  6
Continuous
370
-3
390
13
347
21
  0
LAYER
  5
22F
330
1
100
AcDbSymbolTableRecord
100
AcDbLayerTableRecord
  2
mesh
 70
0
 62
5
  6
Continuous
370
-3
390
13
347
21
  0
ENDTAB
  0
TABLE
  2
STYLE
  5
5
330
0
100
AcDbSymbolTable
 70
1
  0
STYLE
  5
29
330
5
100
AcDbSymbolTableRecord
100
AcDbTextStyleTableRecord
  2
Standard
 70
0
 40
0.0
 41
1.0
 50
0.0
 71
0
 42
2.5
  3
txt
  4

  0
ENDTAB
  0
TABLE
  2
VIEW
  5
7
330
0
100
AcDbSymbolTable
 70
0
  0
ENDTAB
  0
TABLE
  2
UCS
  5
6
330
0
100
AcDbSymbolTable
 70
0
  0
ENDTAB
  0
TABLE
  2
APPID
  5
3
330
0
100
AcDbSymbolTable
 70
3
  0
APPID
  5
2A
330
3
100
AcDbSymbolTableRecord
100
AcDbRegAppTableRecord
  2
ACAD
 70
0
  0
APPID
  5
230
330
3
100
AcDbSymbolTableRecord
100
AcDbRegAppTableRecord
  2
HATCHBACKGROUNDCOLOR
 70
0
  0
APPID
  5
231
330
3
100
AcDbSymbolTableRecord
100
AcDbRegAppTableRecord
  2
EZDXF
 70
0
  0
ENDTAB
  0
TABLE
  2
DIMSTYLE
  5
4
330
0
100
AcDbSymbolTable
 70
1
100
AcDbDimStyleTable
  0
DIMSTYLE
105
2B
330
4
100
AcDbSymbolTableRecord
100
AcDbDimStyleTableRecord
  2
Standard
 70
0
 40
1.0
 41
2.5
 42
0.625
 43
3.75
 44
1.25
 45
0.0
 46
0.0
 47
0.0
 48
0.0
 49
2.5
140
2.5
141
2.5
142
0.0
143
0.03937007874
144
1.0
145
0.0
146
1.0
147
0.625
148
0.0
 69
0
 70
0
 71
0
 72
0
 73
0
 74
0
 75
0
 76
0
 77
1
 78
8
 79
3
170
0
171
3
172
1
173
0
174
0
175
0
176
0
177
0
178
0
179
2
271
2
272
2
273
2
274
3
275
0
276
0
277
2
278
44
279
0
280
0
281
0
282
0
283
0
284
8
285
0
286
0
288
0
289
3
290
0
371
-2
372
-2
  0
ENDTAB
  0
TABLE
  2
BLOCK_RECORD
  5
9
330
0
100
AcDbSymbolTable
 70
2
  0
BLOCK_RECORD
  5
17
330
9
100
AcDbSymbolTableRecord
100
AcDbBlockTableRecord
  2
*Model_Space
340
1A
 70
0
280
1
281
0
  0
BLOCK_RECORD
  5
1B
330
9
100
AcDbSymbolTableRecord
100
AcDbBlockTableRecord
  2
*Paper_Space
340
1E
 70
0
280
1
281
0
  0
ENDTAB
  0
ENDSEC
  0
SECTION
  2
BLOCKS
  0
BLOCK
  5
18
330
17
100
AcDbEntity
  8
0
100
AcDbBlockBegin
  2
*Model_Space
 70
0
 10
0.0
 20
0.0
 30
0.0
  3
*Model_Space
  1

  0
ENDBLK
  5
19
330
17
100
AcDbEntity
  8
0
100
AcDbBlockEnd
  0
BLOCK
  5
1C
330
1B
100
AcDbEntity
  8
0
100
AcDbBlockBegin
  2
*Paper_Space
 70
0
 10
0.0
 20
0.0
 30
0.0
  3
*Paper_Space
  1

  0
ENDBLK
  5
1D
330
1B
100
AcDbEntity
  8
0
100
AcDbBlockEnd
  0
ENDSEC
  0
SECTION
  2
ENTITIES
  0
POINT
  5
2F
330
17
100
AcDbEntity
  8
0
100
AcDbPoint
 10
-2.0511422434948594
 20
0.06108915566529327
 30
2.8218019159313896
  0
CIRCLE
  5
30
330
17
100
AcDbEntity
  8
keypoints
100
AcDbCircle
 10
-2.0511422434948594
 20
0.06108915566529327
 30
2.8218019159313896
 40
0.05
  0
POINT
  5
31
330
17
100
AcDbEntity
  8
0
100
AcDbPoint
 10
3.4571546589840807
 20
2.2094487396615903
 30
2.7807199772426006
  0
CIRCLE
  5
32
330
17
100
AcDbEntity
  8
keypoints
100
AcDbCircle
 10
3.4571546589840807
 20
2.2094487396615903
 30
2.7807199772426006
 40
0.05
  0
POINT
  5
33
330
17
100
AcDbEntity
  8
0
100
AcDbPoint
 10
1.097510277266173
 20
-3.240286209461966
 30
2.851408449086552
  0
CIRCLE
  5
34
330
17
100
AcDbEntity
  8
keypoints
100
AcDbCircle
 10
1.097510277266173
 20
-3.240286209461966
 30
2.851408449086552
 40
0.05
  0
POINT
  5
35
330
17
100
AcDbEntity
  8
0
100
AcDbPoint
 10
-0.6543185311643074
 20
3.81253093739329
 30
2.8318434327258193
  0
CIRCLE
  5
36
330
17
100
AcDbEntity
  8
keypoints
100
AcDbCircle
 10
-0.6543185311643074
 20
3.81253093739329
 30
2.8318434327258193
 40
0.05
  0
POINT
  5
37
330
17
100
AcDbEntity
  8
0
100
AcDbPoint
 10
2.1497123046062474
 20
-1.0267470731876005
 30
2.8013072458450075
  0
CIRCLE
  5
38
330
17
100
AcDbEntity
  8
keypoints
100
AcDbCircle
 10
2.1497123046062474
 20
-1.0267470731876005
 30
2.8013072458450075
 40
0.05
  0
POINT
  5
39
330
17
100
AcDbEntity
  8
0
100
AcDbPoint
 10
3.3503535882980953
 20
1.7678107409595727
 30
2.814354680777332
  0
CIRCLE
  5
3A
330
17
100
AcDbEntity
  8
keypoints
100
AcDbCircle
 10
3.3503535882980953
 20
1.7678107409595727
 30
2.814354680777332
 40
0.05
  0
POINT
  5
3B
330
17
100
AcDbEntity
  8
0
100
AcDbPoint
 10
3.8557017371545523
 20
3.0544845535626157
 30
2.841147604471198
  0
CIRCLE
  5
3C
330
17
100
AcDbEntity
  8
keypoints
100
AcDbCircle
 10
3.8557017371545523
 20
3.0544845535626157
 30
2.841147604471198
 40
0.05
  0
POINT
  5
3D
330
17
100
AcDbEntity
  8
0
100
AcDbPoint
 10
2.9091438337928803
 20
0.131292326334844
 30
2.8062395418521295
  0
CIRCLE
  5
3E
330
17
100
AcDbEntity
  8
keypoints
100
AcDbCircle
 10
2.9091438337928803
 20
0.131292326334844
 30
2.8062395418521295
 40
0.05
  0
POINT
  5
3F
330
17
100
AcDbEntity
  8
0
100
AcDbPoint
 10
2.8884039497927168
 20
-0.4228789735366598
 30
2.83699444138836
  0
CIRCLE
  5
40
330
17
100
AcDbEntity
  8
keypoints
100
AcDbCircle
 10
2.8884039497927168
 20
-0.4228789735366598
 30
2.83699444138836
 40
0.05
  0
POINT
  5
41
330
17
100
AcDbEntity
  8
0
100
AcDbPoint
 10
-1.3811006019911451
 20
-1.2669227694002247
 30
2.819612683596595
  0
CIRCLE
  5
42
330
17
100
AcDbEntity
  8
keypoints
100
AcDbCircle
 10
-1.3811006019911451
 20
-1.2669227694002247
 30
2.819612683596595
 40
0.05
  0
POINT
  5
43
330
17
100
AcDbEntity
  8
0
100
AcDbPoint
 10
1.6782232563773751
 20
-3.4087426101564215
 30
2.793059378117511
  0
CIRCLE
  5
44
330
17
100
AcDbEntity
  8
keypoints
100
AcDbCircle
 10
1.6782232563773751
 20
-3.4087426101564215
 30
2.793059378117511
 40
0.05
  0
POINT
  5
45
330
17
100
AcDbEntity
  8
0
100
AcDbPoint
 10
-1.3585432169048475
 20
-0.5891182413180054
 30
2.7856747775096338
  0
CIRCLE
  5
46
330
17
100
AcDbEntity
  8
keypoints
100
AcDbCircle
 10
-1.3585432169048475
 20
-0.5891182413180054
 30
2.7856747775096338
 40
0.05
  0
POINT
  5
47
330
17
100
AcDbEntity
  8
0
100
AcDbPoint
 10
5.234309165063994
 20
-1.7161904137077875
 30
2.8471039292937204
  0
CIRCLE
  5
48
330
17
100
AcDbEntity
  8
keypoints
100
AcDbCircle
 10
5.234309165063994
 20
-1.7161904137077875
 30
2.8471039292937204
 40
0.05
  0
POINT
  5
49
330
17
100
AcDbEntity
  8
0
100
AcDbPoint
 10
-5.0528116165838135
 20
0.40512084725532715
 30
2.7654667811629206
  0
CIRCLE
  5
4A
330
17
100
AcDbEntity
  8
keypoints
100
AcDbCircle
 10
-5.0528116165838135
 20
0.40512084725532715
 30
2.7654667811629206
 40
0.05
  0
POINT
  5
4B
330
17
100
AcDbEntity
  8
0
100
AcDbPoint
 10
-1.9661426459512137
 20
0.6372521348779132
 30
2.8177991002869733
  0
CIRCLE
  5
4C
330
17
100
AcDbEntity
  8
keypoints
100
AcDbCircle
 10
-1.9661426459512137
 20
0.6372521348779132
 30
2.8177991002869733
 40
0.05
  0
POINT
  5
4D
330
17
100
AcDbEntity
  8
0
100
AcDbPoint
 10
4.943445272138453
 20
-3.43196280040891
 30
2.841816444260282
  0
CIRCLE
  5
4E
330
17
100
AcDbEntity
  8
keypoints
100
AcDbCircle
 10
4.943445272138453
 20
-3.43196280040891
 30
2.841816444260282
 40
0.05
  0
POINT
  5
4F
330
17
100
AcDbEntity
  8
0
100
AcDbPoint
 10
4.692563664476755
 20
-3.4594343719560277
 30
2.8077886862276404
  0
CIRCLE
  5
50
330
17
100
AcDbEntity
  8
keypoints
100
AcDbCircle
 10
4.692563664476755
 20
-3.4594343719560277
 30
2.8077886862276404
 40
0.05
  0
POINT
  5
51
330
17
100
AcDbEntity
  8
0
100
AcDbPoint
 10
4.34688977299085
 20
-3.0327365375118474
 30
2.8401027363069122
  0
CIRCLE
  5
52
330
17
100
AcDbEntity
  8
keypoints
100
AcDbCircle
 10
4.34688977299085
 20
-3.0327365375118474
 30
2.8401027363069122
 40
0.05
  0
POINT
  5
53
330
17
100
AcDbEntity
  8
0
100
AcDbPoint
 10
4.117398201686658
 20
-3.0022206339972612
 30
2.8347267820975763
  0
CIRCLE
  5
54
330
17
100
AcDbEntity
  8
keypoints
100
AcDbCircle
 10
4.117398201686658
 20
-3.0022206339972612
 30
2.8347267820975763
 40
0.05
  0
POINT
  5
55
330
17
100
AcDbEntity
  8
0
100
AcDbPoint
 10
4.786417239671757
 20
-1.7371316619772574
 30
2.8346116037911724
  0
CIRCLE
  5
56
330
17
100
AcDbEntity
  8
keypoints
100
AcDbCircle
 10
4.786417239671757
 20
-1.7371316619772574
 30
2.8346116037911724
 40
0.05
  0
POINT
  5
57
330
17
100
AcDbEntity
  8
0
100
AcDbPoint
 10
4.267995574979243
 20
-2.8164825521081296
 30
2.840123684628515
  0
CIRCLE
  5
58
330
17
100
AcDbEntity
  8
keypoints
100
AcDbCircle
 10
4.267995574979243
 20
-2.8164825521081296
 30
2.840123684628515
 40
0.05
  0
POINT
  5
59
330
17
100
AcDbEntity
  8
0
100
AcDbPoint
 10
4.526124951875578
 20
-1.6654837904666258
 30
2.7720603115999634
  0
CIRCLE
  5
5A
330
17
100
AcDbEntity
  8
keypoints
100
AcDbCircle
 10
4.526124951875578
 20
-1.6654837904666258
 30
2.7720603115999634
 40
0.05
  0
POINT
  5
5B
330
17
100
AcDbEntity
  8
0
100
AcDbPoint
 10
2.335545943792441
 20
-3.171378732494995
 30
2.7592274426806416
  0
CIRCLE
  5
5C
330
17
100
AcDbEntity
  8
keypoints
100
AcDbCircle
 10
2.335545943792441
 20
-3.171378732494995
 30
2.7592274426806416
 40
0.05
  0
POINT
  5
5D
330
17
100
AcDbEntity
  8
0
100
AcDbPoint
 10
2.0278556315168874
 20
-3.1650815154686285
 30
2.753745477515322
  0
CIRCLE
  5
5E
330
17
100
AcDbEntity
  8
keypoints
100
AcDbCircle
 10
2.0278556315168874
 20
-3.1650815154686285
 30
2.753745477515322
 40
0.05
  0
POINT
  5
5F
330
17
100
AcDbEntity
  8
0
100
AcDbPoint
 10
3.898592356161303
 20
1.3477416322823519
 30
2.773841664121248
  0
CIRCLE
  5
60
330
17
100
AcDbEntity
  8
keypoints
100
AcDbCircle
 10
3.898592356161303
 20
1.3477416322823519
 30
2.773841664121248
 40
0.05
  0
POINT
  5
61
330
17
100
AcDbEntity
  8
0
100
AcDbPoint
 10
3.698690759810575
 20
2.672405507765321
 30
2.8297682320995303
  0
CIRCLE
  5
62
330
17
100
AcDbEntity
  8
keypoints
100
AcDbCircle
 10
3.698690759810575
 20
2.672405507765321
 30
2.8297682320995303
 40
0.05
  0
POINT
  5
63
330
17
100
AcDbEntity
  8
0
100
AcDbPoint
 10
2.7415652264557018
 20
0.10877700726160455
 30
2.82297982204376
  0
CIRCLE
  5
64
330
17
100
AcDbEntity
  8
keypoints
100
AcDbCircle
 10
2.7415652264557018
 20
0.10877700726160455
 30
2.82297982204376
 40
0.05
  0
POINT
  5
65
330
17
100
AcDbEntity
  8
0
100
AcDbPoint
 10
2.2146452051899805
 20
-3.6710955787296635
 30
2.80229419232983
  0
CIRCLE
  5
66
330
17
100
AcDbEntity
  8
keypoints
100
AcDbCircle
 10
2.2146452051899805
 20
-3.6710955787296635
 30
2.80229419232983
 40
0.05
  0
POINT
  5
67
330
17
100
AcDbEntity
  8
0
100
AcDbPoint
 10
4.069976991203977
 20
-3.344595364030706
 30
2.764014512058662
  0
CIRCLE
  5
68
330
17
100
AcDbEntity
  8
keypoints
100
AcDbCircle
 10
4.069976991203977
 20
-3.344595364030706
 30
2.764014512058662
 40
0.05
  0
POINT
  5
69
330
17
100
AcDbEntity
  8
0
100
AcDbPoint
 10
2.2731393879461157
 20
-0.26116770020746194
 30
2.799689932608805
  0
CIRCLE
  5
6A
330
17
100
AcDbEntity
  8
keypoints
100
AcDbCircle
 10
2.2731393879461157
 20
-0.26116770020746194
 30
2.799689932608805
 40
0.05
  0
POINT
  5
6B
330
17
100
AcDbEntity
  8
0
100
AcDbPoint
 10
2.662010709190859
 20
1.9284345728061658
 30
2.7956070717710118
  0
CIRCLE
  5
6C
330
17
100
AcDbEntity
  8
keypoints
100
AcDbCircle
 10
2.662010709190859
 20
1.9284345728061658
 30
2.7956070717710118
 40
0.05
  0
POINT
  5
6D
330
17
100
AcDbEntity
  8
0
100
AcDbPoint
 10
0.32971702776260275
 20
-3.591746665597201
 30
2.7951198618704773
  0
CIRCLE
  5
6E
330
17
100
AcDbEntity
  8
keypoints
100
AcDbCircle
 10
0.32971702776260275
 20
-3.591746665597201
 30
2.7951198618704773
 40
0.05
  0
POINT
  5
6F
330
17
100
AcDbEntity
  8
0
100
AcDbPoint
 10
2.1508374139378788
 20
-1.2176605383265262
 30
2.81786423966689
  0
CIRCLE
  5
70
330
17
100
AcDbEntity
  8
keypoints
100
AcDbCircle
 10
2.1508374139378788
 20
-1.2176605383265262
 30
2.81786423966689
 40
0.05
  0
POINT
  5
71
330
17
100
AcDbEntity
  8
0
100
AcDbPoint
 10
-2.326077205516301
 20
-0.7409998412459633
 30
2.7904189025865187
  0
CIRCLE
  5
72
330
17
100
AcDbEntity
  8
keypoints
100
AcDbCircle
 10
-2.326077205516301
 20
-0.7409998412459633
 30
2.7904189025865187
 40
0.05
  0
POINT
  5
73
330
17
100
AcDbEntity
  8
0
100
AcDbPoint
 10
-1.3776828160013392
 20
0.9046454232791061
 30
2.8397319862537884
  0
CIRCLE
  5
74
330
17
100
AcDbEntity
  8
keypoints
100
AcDbCircle
 10
-1.3776828160013392
 20
0.9046454232791061
 30
2.8397319862537884
 40
0.05
  0
POINT
  5
75
330
17
100
AcDbEntity
  8
0
100
AcDbPoint
 10
-1.005628015818467
 20
2.63541639556298
 30
2.8164866008993856
  0
CIRCLE
  5
76
330
17
100
AcDbEntity
  8
keypoints
100
AcDbCircle
 10
-1.005628015818467
 20
2.63541639556298
 30
2.8164866008993856
 40
0.05
  0
POINT
  5
77
330
17
100
AcDbEntity
  8
0
100
AcDbPoint
 10
-1.4779652942066983
 20
1.9761909219066465
 30
2.849528391518383
  0
CIRCLE
  5
78
330
17
100
AcDbEntity
  8
keypoints
100
AcDbCircle
 10
-1.4779652942066983
 20
1.9761909219066465
 30
2.849528391518383
 40
0.05
  0
POINT
  5
79
330
17
100
AcDbEntity
  8
0
100
AcDbPoint
 10
4.301522658598847
 20
-3.5701938513771205
 30
2.7645741978987735
  0
CIRCLE
  5
7A
330
17
100
AcDbEntity
  8
keypoints
100
AcDbCircle
 10
4.301522658598847
 20
-3.5701938513771205
 30
2.7645741978987735
 40
0.05
  0
POINT
  5
7B
330
17
100
AcDbEntity
  8
0
100
AcDbPoint
 10
-3.5266175165323883
 20
-0.5922717676746532
 30
2.8008413434243558
  0
CIRCLE
  5
7C
330
17
100
AcDbEntity
  8
keypoints
100
AcDbCircle
 10
-3.5266175165323883
 20
-0.5922717676746532
 30
2.8008413434243558
 40
0.05
  0
POINT
  5
7D
330
17
100
AcDbEntity
  8
0
100
AcDbPoint
 10
4.985975700106077
 20
-1.8030566732341298
 30
2.7780398790374847
  0
CIRCLE
  5
7E
330
17
100
AcDbEntity
  8
keypoints
100
AcDbCircle
 10
4.985975700106077
 20
-1.8030566732341298
 30
2.7780398790374847
 40
0.05
  0
POINT
  5
7F
330
17
100
AcDbEntity
  8
0
100
AcDbPoint
 10
2.9400932524897323
 20
0.6420532085265591
 30
2.835321971000725
  0
CIRCLE
  5
80
330
17
100
AcDbEntity
  8
keypoints
100
AcDbCircle
 10
2.9400932524897323
 20
0.6420532085265591
 30
2.835321971000725
 40
0.05
  0
POINT
  5
81
330
17
100
AcDbEntity
  8
0
100
AcDbPoint
 10
2.891889082379253
 20
4.489117275463391
 30
2.77484613080462
  0
CIRCLE
  5
82
330
17
100
AcDbEntity
  8
keypoints
100
AcDbCircle
 10
2.891889082379253
 20
4.489117275463391
 30
2.77484613080462
 40
0.05
  0
POINT
  5
83
330
17
100
AcDbEntity
  8
0
100
AcDbPoint
 10
1.4682917975664427
 20
5.46502857742786
 30
2.7748767380953914
  0
CIRCLE
  5
84
330
17
100
AcDbEntity
  8
keypoints
100
AcDbCircle
 10
1.4682917975664427
 20
5.46502857742786
 30
2.7748767380953914
 40
0.05
  0
POINT
  5
85
330
17
100
AcDbEntity
  8
0
100
AcDbPoint
 10
-0.8218476209978978
 20
3.3284361544304115
 30
2.837026790056817
  0
CIRCLE
  5
86
330
17
100
AcDbEntity
  8
keypoints
100
AcDbCircle
 10
-0.8218476209978978
 20
3.3284361544304115
 30
2.837026790056817
 40
0.05
  0
POINT
  5
87
330
17
100
AcDbEntity
  8
0
100
AcDbPoint
 10
-0.8584135172064953
 20
4.138476653349722
 30
2.7935042657036613
  0
CIRCLE
  5
88
330
17
100
AcDbEntity
  8
keypoints
100
AcDbCircle
 10
-0.8584135172064953
 20
4.138476653349722
 30
2.7935042657036613
 40
0.05
  0
POINT
  5
89
330
17
100
AcDbEntity
  8
0
100
AcDbPoint
 10
-1.5242653924625698
 20
0.9204645417428446
 30
2.7845272706898863
  0
CIRCLE
  5
8A
330
17
100
AcDbEntity
  8
keypoints
100
AcDbCircle
 10
-1.5242653924625698
 20
0.9204645417428446
 30
2.7845272706898863
 40
0.05
  0
POINT
  5
8B
330
17
100
AcDbEntity
  8
0
100
AcDbPoint
 10
4.4652091055077365
 20
-2.0151803573697773
 30
2.755787870684055
  0
CIRCLE
  5
8C
330
17
100
AcDbEntity
  8
keypoints
100
AcDbCircle
 10
4.4652091055077365
 20
-2.0151803573697773
 30
2.755787870684055
 40
0.05
  0
POINT
  5
8D
330
17
100
AcDbEntity
  8
0
100
AcDbPoint
 10
4.254688807596787
 20
-2.330134822940808
 30
2.808057056051864
  0
CIRCLE
  5
8E
330
17
100
AcDbEntity
  8
keypoints
100
AcDbCircle
 10
4.254688807596787
 20
-2.330134822940808
 30
2.808057056051864
 40
0.05
  0
POINT
  5
8F
330
17
100
AcDbEntity
  8
0
100
AcDbPoint
 10
4.509945973915371
 20
-2.274994239628394
 30
2.8001521263893627
  0
CIRCLE
  5
90
330
17
100
AcDbEntity
  8
keypoints
100
AcDbCircle
 10
4.509945973915371
 20
-2.274994239628394
 30
2.8001521263893627
 40
0.05
  0
POINT
  5
91
330
17
100
AcDbEntity
  8
0
100
AcDbPoint
 10
2.696412151434354
 20
2.9863567217300484
 30
2.7534138322863706
  0
CIRCLE
  5
92
330
17
100
AcDbEntity
  8
keypoints
100
AcDbCircle
 10
2.696412151434354
 20
2.9863567217300484
 30
2.7534138322863706
 40
0.05
  0
POINT
  5
93
330
17
100
AcDbEntity
  8
0
100
AcDbPoint
 10
2.7819488788295814
 20
-1.6117046698140711
 30
2.7576177017432317
  0
CIRCLE
  5
94
330
17
100
AcDbEntity
  8
keypoints
100
AcDbCircle
 10
2.7819488788295814
 20
-1.6117046698140711
 30
2.7576177017432317
 40
0.05
  0
POINT
  5
95
330
17
100
AcDbEntity
  8
0
100
AcDbPoint
 10
2.8335179538321316
 20
-1.4138944604211459
 30
2.7525681901139194
  0
CIRCLE
  5
96
330
17
100
AcDbEntity
  8
keypoints
100
AcDbCircle
 10
2.8335179538321316
 20
-1.4138944604211459
 30
2.7525681901139194
 40
0.05
  0
POINT
  5
97
330
17
100
AcDbEntity
  8
0
100
AcDbPoint
 10
2.4211942560445907
 20
-1.712608530314874
 30
2.8453528779711785
  0
CIRCLE
  5
98
330
17
100
AcDbEntity
  8
keypoints
100
AcDbCircle
 10
2.4211942560445907
 20
-1.712608530314874
 30
2.8453528779711785
 40
0.05
  0
POINT
  5
99
330
17
100
AcDbEntity
  8
0
100
AcDbPoint
 10
2.2263636676445344
 20
-2.24728726124348
 30
2.7635912048825277
  0
CIRCLE
  5
9A
330
17
100
AcDbEntity
  8
keypoints
100
AcDbCircle
 10
2.2263636676445344
 20
-2.24728726124348
 30
2.7635912048825277
 40
0.05
  0
POINT
  5
9B
330
17
100
AcDbEntity
  8
0
100
AcDbPoint
 10
2.957372642403032
 20
1.0666852584030537
 30
2.8154614971524987
  0
CIRCLE
  5
9C
330
17
100
AcDbEntity
  8
keypoints
100
AcDbCircle
 10
2.957372642403032
 20
1.0666852584030537
 30
2.8154614971524987
 40
0.05
  0
POINT
  5
9D
330
17
100
AcDbEntity
  8
0
100
AcDbPoint
 10
2.747630081482913
 20
-0.8201333929239392
 30
2.78018762861067
  0
CIRCLE
  5
9E
330
17
100
AcDbEntity
  8
keypoints
100
AcDbCircle
 10
2.747630081482913
 20
-0.8201333929239392
 30
2.78018762861067
 40
0.05
  0
POINT
  5
9F
330
17
100
AcDbEntity
  8
0
100
AcDbPoint
 10
2.648876285147337
 20
2.3549280236075285
 30
2.779524464202328
  0
CIRCLE
  5
A0
330
17
100
AcDbEntity
  8
keypoints
100
AcDbCircle
 10
2.648876285147337
 20
2.3549280236075285
 30
2.779524464202328
 40
0.05
  0
POINT
  5
A1
330
17
100
AcDbEntity
  8
0
100
AcDbPoint
 10
-0.8542107559177863
 20
-3.4174572243701515
 30
2.761060143072984
  0
CIRCLE
  5
A2
330
17
100
AcDbEntity
  8
keypoints
100
AcDbCircle
 10
-0.8542107559177863
 20
-3.4174572243701515
 30
2.761060143072984
 40
0.05
  0
POINT
  5
A3
330
17
100
AcDbEntity
  8
0
100
AcDbPoint
 10
-1.1815021307417326
 20
0.18064092129443376
 30
2.7832995658775945
  0
CIRCLE
  5
A4
330
17
100
AcDbEntity
  8
keypoints
100
AcDbCircle
 10
-1.1815021307417326
 20
0.18064092129443376
 30
2.7832995658775945
 40
0.05
  0
POINT
  5
A5
330
17
100
AcDbEntity
  8
0
100
AcDbPoint
 10
2.7389445535408448
 20
-2.1187892463803086
 30
2.756209601091456
  0
CIRCLE
  5
A6
330
17
100
AcDbEntity
  8
keypoints
100
AcDbCircle
 10
2.7389445535408448
 20
-2.1187892463803086
 30
2.756209601091456
 40
0.05
  0
POINT
  5
A7
330
17
100
AcDbEntity
  8
0
100
AcDbPoint
 10
-5.048989591203598
 20
0.24803303518201525
 30
2.809505818433547
  0
CIRCLE
  5
A8
330
17
100
AcDbEntity
  8
keypoints
100
AcDbCircle
 10
-5.048989591203598
 20
0.24803303518201525
 30
2.809505818433547
 40
0.05
  0
POINT
  5
A9
330
17
100
AcDbEntity
  8
0
100
AcDbPoint
 10
-2.373241034498304
 20
5.03834661001611
 30
2.8043279243044257
  0
CIRCLE
  5
AA
330
17
100
AcDbEntity
  8
keypoints
100
AcDbCircle
 10
-2.373241034498304
 20
5.03834661001611
 30
2.8043279243044257
 40
0.05
  0
POINT
  5
AB
330
17
100
AcDbEntity
  8
0
100
AcDbPoint
 10
-0.2837218839698266
 20
0.17551860016659382
 30
2.814903556637374
  0
CIRCLE
  5
AC
330
17
100
AcDbEntity
  8
keypoints
100
AcDbCircle
 10
-0.2837218839698266
 20
0.17551860016659382
 30
2.814903556637374
 40
0.05
  0
POINT
  5
AD
330
17
100
AcDbEntity
  8
0
100
AcDbPoint
 10
-1.023200959808448
 20
0.8444506262509281
 30
2.754075121753748
  0
CIRCLE
  5
AE
330
17
100
AcDbEntity
  8
keypoints
100
AcDbCircle
 10
-1.023200959808448
 20
0.8444506262509281
 30
2.754075121753748
 40
0.05
  0
POINT
  5
AF
330
17
100
AcDbEntity
  8
0
100
AcDbPoint
 10
-1.3149347028337113
 20
-0.01500186880949328
 30
2.8325845558649463
  0
CIRCLE
  5
B0
330
17
100
AcDbEntity
  8
keypoints
100
AcDbCircle
 10
-1.3149347028337113
 20
-0.01500186880949328
 30
2.8325845558649463
 40
0.05
  0
POINT
  5
B1
330
17
100
AcDbEntity
  8
0
100
AcDbPoint
 10
1.7806194305438927
 20
-3.6193106441281113
 30
2.8426344846765117
  0
CIRCLE
  5
B2
330
17
100
AcDbEntity
  8
keypoints
100
AcDbCircle
 10
1.7806194305438927
 20
-3.6193106441281113
 30
2.8426344846765117
 40
0.05
  0
POINT
  5
B3
330
17
100
AcDbEntity
  8
0
100
AcDbPoint
 10
2.524601159101632
 20
-1.5139578546277377
 30
2.8463948433681567
  0
CIRCLE
  5
B4
330
17
100
AcDbEntity
  8
keypoints
100
AcDbCircle
 10
2.524601159101632
 20
-1.5139578546277377
 30
2.8463948433681567
 40
0.05
  0
POINT
  5
B5
330
17
100
AcDbEntity
  8
0
100
AcDbPoint
 10
-0.8261521192033294
 20
2.5008843978314936
 30
2.8270856462375664
  0
CIRCLE
  5
B6
330
17
100
AcDbEntity
  8
keypoints
100
AcDbCircle
 10
-0.8261521192033294
 20
2.5008843978314936
 30
2.8270856462375664
 40
0.05
  0
POINT
  5
B7
330
17
100
AcDbEntity
  8
0
100
AcDbPoint
 10
-1.7788903557114213
 20
2.8863642098313083
 30
2.7988901181859904
  0
CIRCLE
  5
B8
330
17
100
AcDbEntity
  8
keypoints
100
AcDbCircle
 10
-1.7788903557114213
 20
2.8863642098313083
 30
2.7988901181859904
 40
0.05
  0
POINT
  5
B9
330
17
100
AcDbEntity
  8
0
100
AcDbPoint
 10
-1.724160340881109
 20
0.8793478193302667
 30
2.8286456728101186
  0
CIRCLE
  5
BA
330
17
100
AcDbEntity
  8
keypoints
100
AcDbCircle
 10
-1.724160340881109
 20
0.8793478193302667
 30
2.8286456728101186
 40
0.05
  0
POINT
  5
BB
330
17
100
AcDbEntity
  8
0
100
AcDbPoint
 10
-4.7227072959406415
 20
-0.45040635184867495
 30
2.762849663746896
  0
CIRCLE
  5
BC
330
17
100
AcDbEntity
  8
keypoints
100
AcDbCircle
 10
-4.7227072959406415
 20
-0.45040635184867495
 30
2.762849663746896
 40
0.05
  0
POINT
  5
BD
330
17
100
AcDbEntity
  8
0
100
AcDbPoint
 10
-5.089761123685031
 20
-0.21237090094818778
 30
2.7529099038569553
  0
CIRCLE
  5
BE
330
17
100
AcDbEntity
  8
keypoints
100
AcDbCircle
 10
-5.089761123685031
 20
-0.21237090094818778
 30
2.7529099038569553
 40
0.05
  0
POINT
  5
BF
330
17
100
AcDbEntity
  8
0
100
AcDbPoint
 10
-5.307809183269161
 20
2.4285526536235222
 30
2.7851494818672564
  0
CIRCLE
  5
C0
330
17
100
AcDbEntity
  8
keypoints
100
AcDbCircle
 10
-5.307809183269161
 20
2.4285526536235222
 30
2.7851494818672564
 40
0.05
  0
POINT
  5
C1
330
17
100
AcDbEntity
  8
0
100
AcDbPoint
 10
-5.17935340088458
 20
2.5901030773353497
 30
2.7803937752076346
  0
CIRCLE
  5
C2
330
17
100
AcDbEntity
  8
keypoints
100
AcDbCircle
 10
-5.17935340088458
 20
2.5901030773353497
 30
2.7803937752076346
 40
0.05
  0
POINT
  5
C3
330
17
100
AcDbEntity
  8
0
100
AcDbPoint
 10
-3.8787997669571306
 20
-0.552483676711675
 30
2.8449754230905575
  0
CIRCLE
  5
C4
330
17
100
AcDbEntity
  8
keypoints
100
AcDbCircle
 10
-3.8787997669571306
 20
-0.552483676711675
 30
2.8449754230905575
 40
0.05
  0
POINT
  5
C5
330
17
100
AcDbEntity
  8
0
100
AcDbPoint
 10
2.9158343091806045
 20
4.723418276535169
 30
2.8256822960096883
  0
CIRCLE
  5
C6
330
17
100
AcDbEntity
  8
keypoints
100
AcDbCircle
 10
2.9158343091806045
 20
4.723418276535169
 30
2.8256822960096883
 40
0.05
  0
POINT
  5
C7
330
17
100
AcDbEntity
  8
0
100
AcDbPoint
 10
-3.325838501968102
 20
5.04421447889184
 30
2.7711051174262273
  0
CIRCLE
  5
C8
330
17
100
AcDbEntity
  8
keypoints
100
AcDbCircle
 10
-3.325838501968102
 20
5.04421447889184
 30
2.7711051174262273
 40
0.05
  0
POINT
  5
C9
330
17
100
AcDbEntity
  8
0
100
AcDbPoint
 10
4.443081433491886
 20
5.782833118265754
 30
2.790758379725802
  0
CIRCLE
  5
CA
330
17
100
AcDbEntity
  8
keypoints
100
AcDbCircle
 10
4.443081433491886
 20
5.782833118265754
 30
2.790758379725802
 40
0.05
  0
POINT
  5
CB
330
17
100
AcDbEntity
  8
0
100
AcDbPoint
 10
4.382174563335718
 20
5.491520306487587
 30
2.7824812581552276
  0
CIRCLE
  5
CC
330
17
100
AcDbEntity
  8
keypoints
100
AcDbCircle
 10
4.382174563335718
 20
5.491520306487587
 30
2.7824812581552276
 40
0.05
  0
POINT
  5
CD
330
17
100
AcDbEntity
  8
0
100
AcDbPoint
 10
4.674201971541496
 20
6.736657042824976
 30
2.7590084976376557
  0
CIRCLE
  5
CE
330
17
100
AcDbEntity
  8
keypoints
100
AcDbCircle
 10
4.674201971541496
 20
6.736657042824976
 30
2.7590084976376557
 40
0.05
  0
POINT
  5
CF
330
17
100
AcDbEntity
  8
0
100
AcDbPoint
 10
2.6741616090431806
 20
4.746583898975369
 30
2.8181555413578545
  0
CIRCLE
  5
D0
330
17
100
AcDbEntity
  8
keypoints
100
AcDbCircle
 10
2.6741616090431806
 20
4.746583898975369
 30
2.8181555413578545
 40
0.05
  0
POINT
  5
D1
330
17
100
AcDbEntity
  8
0
100
AcDbPoint
 10
-0.5967933661862388
 20
3.410065207448935
 30
2.8474354130915955
  0
CIRCLE
  5
D2
330
17
100
AcDbEntity
  8
keypoints
100
AcDbCircle
 10
-0.5967933661862388
 20
3.410065207448935
 30
2.8474354130915955
 40
0.05
  0
POINT
  5
D3
330
17
100
AcDbEntity
  8
0
100
AcDbPoint
 10
-3.1222003658540523
 20
-0.6753106265329307
 30
2.765573607445825
  0
CIRCLE
  5
D4
330
17
100
AcDbEntity
  8
keypoints
100
AcDbCircle
 10
-3.1222003658540523
 20
-0.6753106265329307
 30
2.765573607445825
 40
0.05
  0
POINT
  5
D5
330
17
100
AcDbEntity
  8
0
100
AcDbPoint
 10
-0.24750523793257184
 20
5.155101686218434
 30
2.7913155816166606
  0
CIRCLE
  5
D6
330
17
100
AcDbEntity
  8
keypoints
100
AcDbCircle
 10
-0.24750523793257184
 20
5.155101686218434
 30
2.7913155816166606
 40
0.05
  0
POINT
  5
D7
330
17
100
AcDbEntity
  8
0
100
AcDbPoint
 10
-0.5754876536171877
 20
4.7976915353606415
 30
2.8114632260379073
  0
CIRCLE
  5
D8
330
17
100
AcDbEntity
  8
keypoints
100
AcDbCircle
 10
-0.5754876536171877
 20
4.7976915353606415
 30
2.8114632260379073
 40
0.05
  0
POINT
  5
D9
330
17
100
AcDbEntity
  8
0
100
AcDbPoint
 10
4.073055831588599
 20
-2.834308471554916
 30
2.76519698873748
  0
CIRCLE
  5
DA
330
17
100
AcDbEntity
  8
keypoints
100
AcDbCircle
 10
4.073055831588599
 20
-2.834308471554916
 30
2.76519698873748
 40
0.05
  0
POINT
  5
DB
330
17
100
AcDbEntity
  8
0
100
AcDbPoint
 10
-0.0643593294906111
 20
5.1598817991139585
 30
2.833591418884291
  0
CIRCLE
  5
DC
330
17
100
AcDbEntity
  8
keypoints
100
AcDbCircle
 10
-0.0643593294906111
 20
5.1598817991139585
 30
2.833591418884291
 40
0.05
  0
POINT
  5
DD
330
17
100
AcDbEntity
  8
0
100
AcDbPoint
 10
-1.827010412566772
 20
4.931250139284802
 30
2.8218305285894902
  0
CIRCLE
  5
DE
330
17
100
AcDbEntity
  8
keypoints
100
AcDbCircle
 10
-1.827010412566772
 20
4.931250139284802
 30
2.8218305285894902
 40
0.05
  0
POINT
  5
DF
330
17
100
AcDbEntity
  8
0
100
AcDbPoint
 10
-1.8244542207672234
 20
2.537190048702826
 30
2.793721085332688
  0
CIRCLE
  5
E0
330
17
100
AcDbEntity
  8
keypoints
100
AcDbCircle
 10
-1.8244542207672234
 20
2.537190048702826
 30
2.793721085332688
 40
0.05
  0
POINT
  5
E1
330
17
100
AcDbEntity
  8
0
100
AcDbPoint
 10
-1.5864504522257001
 20
4.822183620722605
 30
2.77257887393388
  0
CIRCLE
  5
E2
330
17
100
AcDbEntity
  8
keypoints
100
AcDbCircle
 10
-1.5864504522257001
 20
4.822183620722605
 30
2.77257887393388
 40
0.05
  0
POINT
  5
E3
330
17
100
AcDbEntity
  8
0
100
AcDbPoint
 10
-5.3248605568113465
 20
1.4427383633930528
 30
2.824868756142721
  0
CIRCLE
  5
E4
330
17
100
AcDbEntity
  8
keypoints
100
AcDbCircle
 10
-5.3248605568113465
 20
1.4427383633930528
 30
2.824868756142721
 40
0.05
  0
POINT
  5
E5
330
17
100
AcDbEntity
  8
0
100
AcDbPoint
 10
4.480578950330151
 20
-2.1151130591735914
 30
2.849770882102892
  0
CIRCLE
  5
E6
330
17
100
AcDbEntity
  8
keypoints
100
AcDbCircle
 10
4.480578950330151
 20
-2.1151130591735914
 30
2.849770882102892
 40
0.05
  0
POINT
  5
E7
330
17
100
AcDbEntity
  8
0
100
AcDbPoint
 10
2.0948540876415493
 20
-1.4674913592124563
 30
2.837885325737806
  0
CIRCLE
  5
E8
330
17
100
AcDbEntity
  8
keypoints
100
AcDbCircle
 10
2.0948540876415493
 20
-1.4674913592124563
 30
2.837885325737806
 40
0.05
  0
POINT
  5
E9
330
17
100
AcDbEntity
  8
0
100
AcDbPoint
 10
-4.774862436367599
 20
3.1868687855901023
 30
2.8516025730114736
  0
CIRCLE
  5
EA
330
17
100
AcDbEntity
  8
keypoints
100
AcDbCircle
 10
-4.774862436367599
 20
3.1868687855901023
 30
2.8516025730114736
 40
0.05
  0
POINT
  5
EB
330
17
100
AcDbEntity
  8
0
100
AcDbPoint
 10
1.2356697291489473
 20
5.460895033674594
 30
2.830781348637582
  0
CIRCLE
  5
EC
330
17
100
AcDbEntity
  8
keypoints
100
AcDbCircle
 10
1.2356697291489473
 20
5.460895033674594
 30
2.830781348637582
 40
0.05
  0
POINT
  5
ED
330
17
100
AcDbEntity
  8
0
100
AcDbPoint
 10
4.731996442541311
 20
-3.8982820199904094
 30
2.824195414672307
  0
CIRCLE
  5
EE
330
17
100
AcDbEntity
  8
keypoints
100
AcDbCircle
 10
4.731996442541311
 20
-3.8982820199904094
 30
2.824195414672307
 40
0.05
  0
POINT
  5
EF
330
17
100
AcDbEntity
  8
0
100
AcDbPoint
 10
0.9253201724013913
 20
5.523911216172646
 30
2.818814215333984
  0
CIRCLE
  5
F0
330
17
100
AcDbEntity
  8
keypoints
100
AcDbCircle
 10
0.9253201724013913
 20
5.523911216172646
 30
2.818814215333984
 40
0.05
  0
POINT
  5
F1
330
17
100
AcDbEntity
  8
0
100
AcDbPoint
 10
-3.8342275657120477
 20
5.06612986055298
 30
2.8061424116073734
  0
CIRCLE
  5
F2
330
17
100
AcDbEntity
  8
keypoints
100
AcDbCircle
 10
-3.8342275657120477
 20
5.06612986055298
 30
2.8061424116073734
 40
0.05
  0
POINT
  5
F3
330
17
100
AcDbEntity
  8
0
100
AcDbPoint
 10
-4.852589891997577
 20
3.6453160175435784
 30
2.7938286884548034
  0
CIRCLE
  5
F4
330
17
100
AcDbEntity
  8
keypoints
100
AcDbCircle
 10
-4.852589891997577
 20
3.6453160175435784
 30
2.7938286884548034
 40
0.05
  0
POINT
  5
F5
330
17
100
AcDbEntity
  8
0
100
AcDbPoint
 10
-4.376253605400242
 20
5.048208972616967
 30
2.834440457844921
  0
CIRCLE
  5
F6
330
17
100
AcDbEntity
  8
keypoints
100
AcDbCircle
 10
-4.376253605400242
 20
5.048208972616967
 30
2.834440457844921
 40
0.05
  0
POINT
  5
F7
330
17
100
AcDbEntity
  8
0
100
AcDbPoint
 10
-4.586816571905364
 20
4.980372820363325
 30
2.8384253547205485
  0
CIRCLE
  5
F8
330
17
100
AcDbEntity
  8
keypoints
100
AcDbCircle
 10
-4.586816571905364
 20
4.980372820363325
 30
2.8384253547205485
 40
0.05
  0
POINT
  5
F9
330
17
100
AcDbEntity
  8
0
100
AcDbPoint
 10
3.762933553886741
 20
2.8908658210905434
 30
2.8363500685638607
  0
CIRCLE
  5
FA
330
17
100
AcDbEntity
  8
keypoints
100
AcDbCircle
 10
3.762933553886741
 20
2.8908658210905434
 30
2.8363500685638607
 40
0.05
  0
POINT
  5
FB
330
17
100
AcDbEntity
  8
0
100
AcDbPoint
 10
4.205774567569468
 20
4.653255446964525
 30
2.7526796550590977
  0
CIRCLE
  5
FC
330
17
100
AcDbEntity
  8
keypoints
100
AcDbCircle
 10
4.205774567569468
 20
4.653255446964525
 30
2.7526796550590977
 40
0.05
  0
POINT
  5
FD
330
17
100
AcDbEntity
  8
0
100
AcDbPoint
 10
-0.012971858063734215
 20
-0.270348650152864
 30
2.8105980996038227
  0
CIRCLE
  5
FE
330
17
100
AcDbEntity
  8
keypoints
100
AcDbCircle
 10
-0.012971858063734215
 20
-0.270348650152864
 30
2.8105980996038227
 40
0.05
  0
POINT
  5
FF
330
17
100
AcDbEntity
  8
0
100
AcDbPoint
 10
-0.0027450957634644058
 20
-0.2664879893843968
 30
2.7809374314285726
  0
CIRCLE
  5
100
330
17
100
AcDbEntity
  8
keypoints
100
AcDbCircle
 10
-0.0027450957634644058
 20
-0.2664879893843968
 30
2.7809374314285726
 40
0.05
  0
POINT
  5
101
330
17
100
AcDbEntity
  8
0
100
AcDbPoint
 10
4.7588425502641725
 20
7.095107275959589
 30
2.797136650817897
  0
CIRCLE
  5
102
330
17
100
AcDbEntity
  8
keypoints
100
AcDbCircle
 10
4.7588425502641725
 20
7.095107275959589
 30
2.797136650817897
 40
0.05
  0
POINT
  5
103
330
17
100
AcDbEntity
  8
0
100
AcDbPoint
 10
4.622986405828031
 20
6.489894583110178
 30
2.851328609059025
  0
CIRCLE
  5
104
330
17
100
AcDbEntity
  8
keypoints
100
AcDbCircle
 10
4.622986405828031
 20
6.489894583110178
 30
2.851328609059025
 40
0.05
  0
POINT
  5
105
330
17
100
AcDbEntity
  8
0
100
AcDbPoint
 10
0.7154971429822437
 20
-3.279247508348302
 30
2.849740940736628
  0
CIRCLE
  5
106
330
17
100
AcDbEntity
  8
keypoints
100
AcDbCircle
 10
0.7154971429822437
 20
-3.279247508348302
 30
2.849740940736628
 40
0.05
  0
POINT
  5
107
330
17
100
AcDbEntity
  8
0
100
AcDbPoint
 10
4.1866045528708735
 20
-3.4428038104013927
 30
2.814498929754046
  0
CIRCLE
  5
108
330
17
100
AcDbEntity
  8
keypoints
100
AcDbCircle
 10
4.1866045528708735
 20
-3.4428038104013927
 30
2.814498929754046
 40
0.05
  0
POINT
  5
109
330
17
100
AcDbEntity
  8
0
100
AcDbPoint
 10
4.993326791079343
 20
-2.520439919675515
 30
2.8428364548199743
  0
CIRCLE
  5
10A
330
17
100
AcDbEntity
  8
keypoints
100
AcDbCircle
 10
4.993326791079343
 20
-2.520439919675515
 30
2.8428364548199743
 40
0.05
  0
POINT
  5
10B
330
17
100
AcDbEntity
  8
0
100
AcDbPoint
 10
2.0816911507110176
 20
-2.1477111768594614
 30
2.762696414428865
  0
CIRCLE
  5
10C
330
17
100
AcDbEntity
  8
keypoints
100
AcDbCircle
 10
2.0816911507110176
 20
-2.1477111768594614
 30
2.762696414428865
 40
0.05
  0
POINT
  5
10D
330
17
100
AcDbEntity
  8
0
100
AcDbPoint
 10
-4.923062212634773
 20
-0.41019304586678973
 30
2.756418662169859
  0
CIRCLE
  5
10E
330
17
100
AcDbEntity
  8
keypoints
100
AcDbCircle
 10
-4.923062212634773
 20
-0.41019304586678973
 30
2.756418662169859
 40
0.05
  0
POINT
  5
10F
330
17
100
AcDbEntity
  8
0
100
AcDbPoint
 10
3.667381818137623
 20
1.3828576659707486
 30
2.818612115414886
  0
CIRCLE
  5
110
330
17
100
AcDbEntity
  8
keypoints
100
AcDbCircle
 10
3.667381818137623
 20
1.3828576659707486
 30
2.818612115414886
 40
0.05
  0
POINT
  5
111
330
17
100
AcDbEntity
  8
0
100
AcDbPoint
 10
3.4096081973243892
 20
1.9494350601168984
 30
2.767754555034467
  0
CIRCLE
  5
112
330
17
100
AcDbEntity
  8
keypoints
100
AcDbCircle
 10
3.4096081973243892
 20
1.9494350601168984
 30
2.767754555034467
 40
0.05
  0
POINT
  5
113
330
17
100
AcDbEntity
  8
0
100
AcDbPoint
 10
-1.7554880474471934
 20
2.198272966742924
 30
2.7903639029780662
  0
CIRCLE
  5
114
330
17
100
AcDbEntity
  8
keypoints
100
AcDbCircle
 10
-1.7554880474471934
 20
2.198272966742924
 30
2.7903639029780662
 40
0.05
  0
POINT
  5
115
330
17
100
AcDbEntity
  8
0
100
AcDbPoint
 10
-1.6231522460618755
 20
-1.8118753065157664
 30
2.8015054734974134
  0
CIRCLE
  5
116
330
17
100
AcDbEntity
  8
keypoints
100
AcDbCircle
 10
-1.6231522460618755
 20
-1.8118753065157664
 30
2.8015054734974134
 40
0.05
  0
POINT
  5
117
330
17
100
AcDbEntity
  8
0
100
AcDbPoint
 10
4.240118837740273
 20
4.887131244477879
 30
2.7750631186490335
  0
CIRCLE
  5
118
330
17
100
AcDbEntity
  8
keypoints
100
AcDbCircle
 10
4.240118837740273
 20
4.887131244477879
 30
2.7750631186490335
 40
0.05
  0
POINT
  5
119
330
17
100
AcDbEntity
  8
0
100
AcDbPoint
 10
-0.8862308571552042
 20
0.589812280905613
 30
2.755908582865121
  0
CIRCLE
  5
11A
330
17
100
AcDbEntity
  8
keypoints
100
AcDbCircle
 10
-0.8862308571552042
 20
0.589812280905613
 30
2.755908582865121
 40
0.05
  0
POINT
  5
11B
330
17
100
AcDbEntity
  8
0
100
AcDbPoint
 10
-2.0097766891081075
 20
0.3878069134014399
 30
2.7634914602825864
  0
CIRCLE
  5
11C
330
17
100
AcDbEntity
  8
keypoints
100
AcDbCircle
 10
-2.0097766891081075
 20
0.3878069134014399
 30
2.7634914602825864
 40
0.05
  0
POINT
  5
11D
330
17
100
AcDbEntity
  8
0
100
AcDbPoint
 10
2.204451375804841
 20
-0.8037917318365821
 30
2.7891808516360954
  0
CIRCLE
  5
11E
330
17
100
AcDbEntity
  8
keypoints
100
AcDbCircle
 10
2.204451375804841
 20
-0.8037917318365821
 30
2.7891808516360954
 40
0.05
  0
POINT
  5
11F
330
17
100
AcDbEntity
  8
0
100
AcDbPoint
 10
-1.6144232220005297
 20
-2.2611433660071505
 30
2.8474197276703896
  0
CIRCLE
  5
120
330
17
100
AcDbEntity
  8
keypoints
100
AcDbCircle
 10
-1.6144232220005297
 20
-2.2611433660071505
 30
2.8474197276703896
 40
0.05
  0
POINT
  5
121
330
17
100
AcDbEntity
  8
0
100
AcDbPoint
 10
2.131617706952985
 20
5.189933226611882
 30
2.8056383126793247
  0
CIRCLE
  5
122
330
17
100
AcDbEntity
  8
keypoints
100
AcDbCircle
 10
2.131617706952985
 20
5.189933226611882
 30
2.8056383126793247
 40
0.05
  0
POINT
  5
123
330
17
100
AcDbEntity
  8
0
100
AcDbPoint
 10
-1.6723019148061786
 20
-2.4120444776813406
 30
2.794899100883415
  0
CIRCLE
  5
124
330
17
100
AcDbEntity
  8
keypoints
100
AcDbCircle
 10
-1.6723019148061786
 20
-2.4120444776813406
 30
2.794899100883415
 40
0.05
  0
POINT
  5
125
330
17
100
AcDbEntity
  8
0
100
AcDbPoint
 10
-1.6435868555351263
 20
3.3880282618905238
 30
2.8087651303245167
  0
CIRCLE
  5
126
330
17
100
AcDbEntity
  8
keypoints
100
AcDbCircle
 10
-1.6435868555351263
 20
3.3880282618905238
 30
2.8087651303245167
 40
0.05
  0
POINT
  5
127
330
17
100
AcDbEntity
  8
0
100
AcDbPoint
 10
-1.975258346594233
 20
4.976993928838514
 30
2.7663719048122597
  0
CIRCLE
  5
128
330
17
100
AcDbEntity
  8
keypoints
100
AcDbCircle
 10
-1.975258346594233
 20
4.976993928838514
 30
2.7663719048122597
 40
0.05
  0
POINT
  5
129
330
17
100
AcDbEntity
  8
0
100
AcDbPoint
 10
4.243735846323779
 20
-1.3837509292824401
 30
2.766544591637719
  0
CIRCLE
  5
12A
330
17
100
AcDbEntity
  8
keypoints
100
AcDbCircle
 10
4.243735846323779
 20
-1.3837509292824401
 30
2.766544591637719
 40
0.05
  0
POINT
  5
12B
330
17
100
AcDbEntity
  8
0
100
AcDbPoint
 10
2.291091132595049
 20
4.898464343037764
 30
2.8066018705377718
  0
CIRCLE
  5
12C
330
17
100
AcDbEntity
  8
keypoints
100
AcDbCircle
 10
2.291091132595049
 20
4.898464343037764
 30
2.8066018705377718
 40
0.05
  0
POINT
  5
12D
330
17
100
AcDbEntity
  8
0
100
AcDbPoint
 10
4.070955399687924
 20
4.040165489243212
 30
2.759426365183618
  0
CIRCLE
  5
12E
330
17
100
AcDbEntity
  8
keypoints
100
AcDbCircle
 10
4.070955399687924
 20
4.040165489243212
 30
2.759426365183618
 40
0.05
  0
POINT
  5
12F
330
17
100
AcDbEntity
  8
0
100
AcDbPoint
 10
-1.6227303449835397
 20
-2.112756956205028
 30
2.797094644468713
  0
CIRCLE
  5
130
330
17
100
AcDbEntity
  8
keypoints
100
AcDbCircle
 10
-1.6227303449835397
 20
-2.112756956205028
 30
2.797094644468713
 40
0.05
  0
POINT
  5
131
330
17
100
AcDbEntity
  8
0
100
AcDbPoint
 10
-0.285990537485611
 20
0.19991235845720734
 30
2.777901290556024
  0
CIRCLE
  5
132
330
17
100
AcDbEntity
  8
keypoints
100
AcDbCircle
 10
-0.285990537485611
 20
0.19991235845720734
 30
2.777901290556024
 40
0.05
  0
POINT
  5
133
330
17
100
AcDbEntity
  8
0
100
AcDbPoint
 10
-5.429128256567735
 20
2.4249495416119533
 30
2.8414065759222757
  0
CIRCLE
  5
134
330
17
100
AcDbEntity
  8
keypoints
100
AcDbCircle
 10
-5.429128256567735
 20
2.4249495416119533
 30
2.8414065759222757
 40
0.05
  0
POINT
  5
135
330
17
100
AcDbEntity
  8
0
100
AcDbPoint
 10
2.1992800774181043
 20
-0.6230359532046996
 30
2.8485586288413125
  0
CIRCLE
  5
136
330
17
100
AcDbEntity
  8
keypoints
100
AcDbCircle
 10
2.1992800774181043
 20
-0.6230359532046996
 30
2.8485586288413125
 40
0.05
  0
POINT
  5
137
330
17
100
AcDbEntity
  8
0
100
AcDbPoint
 10
2.969255773087753
 20
1.4221618140559962
 30
2.841825534624589
  0
CIRCLE
  5
138
330
17
100
AcDbEntity
  8
keypoints
100
AcDbCircle
 10
2.969255773087753
 20
1.4221618140559962
 30
2.841825534624589
 40
0.05
  0
POINT
  5
139
330
17
100
AcDbEntity
  8
0
100
AcDbPoint
 10
-0.789787275000118
 20
4.487479502764983
 30
2.796176311194581
  0
CIRCLE
  5
13A
330
17
100
AcDbEntity
  8
keypoints
100
AcDbCircle
 10
-0.789787275000118
 20
4.487479502764983
 30
2.796176311194581
 40
0.05
  0
POINT
  5
13B
330
17
100
AcDbEntity
  8
0
100
AcDbPoint
 10
-1.6247677064665527
 20
2.045839138763984
 30
2.795222553613606
  0
CIRCLE
  5
13C
330
17
100
AcDbEntity
  8
keypoints
100
AcDbCircle
 10
-1.6247677064665527
 20
2.045839138763984
 30
2.795222553613606
 40
0.05
  0
POINT
  5
13D
330
17
100
AcDbEntity
  8
0
100
AcDbPoint
 10
4.050500798723779
 20
3.832314176096671
 30
2.757210191903506
  0
CIRCLE
  5
13E
330
17
100
AcDbEntity
  8
keypoints
100
AcDbCircle
 10
4.050500798723779
 20
3.832314176096671
 30
2.757210191903506
 40
0.05
  0
POINT
  5
13F
330
17
100
AcDbEntity
  8
0
100
AcDbPoint
 10
-2.1312398198028024
 20
-0.5618077793524952
 30
2.7982192136023243
  0
CIRCLE
  5
140
330
17
100
AcDbEntity
  8
keypoints
100
AcDbCircle
 10
-2.1312398198028024
 20
-0.5618077793524952
 30
2.7982192136023243
 40
0.05
  0
POINT
  5
141
330
17
100
AcDbEntity
  8
0
100
AcDbPoint
 10
-4.812104761350761
 20
2.78700311286799
 30
2.795610618388296
  0
CIRCLE
  5
142
330
17
100
AcDbEntity
  8
keypoints
100
AcDbCircle
 10
-4.812104761350761
 20
2.78700311286799
 30
2.795610618388296
 40
0.05
  0
POINT
  5
143
330
17
100
AcDbEntity
  8
0
100
AcDbPoint
 10
3.9478997940140674
 20
3.388106299212447
 30
2.7970590366002184
  0
CIRCLE
  5
144
330
17
100
AcDbEntity
  8
keypoints
100
AcDbCircle
 10
3.9478997940140674
 20
3.388106299212447
 30
2.7970590366002184
 40
0.05
  0
POINT
  5
145
330
17
100
AcDbEntity
  8
0
100
AcDbPoint
 10
-4.991564687884066
 20
0.7873642610276598
 30
2.767464342819486
  0
CIRCLE
  5
146
330
17
100
AcDbEntity
  8
keypoints
100
AcDbCircle
 10
-4.991564687884066
 20
0.7873642610276598
 30
2.767464342819486
 40
0.05
  0
POINT
  5
147
330
17
100
AcDbEntity
  8
0
100
AcDbPoint
 10
-5.284460924754137
 20
1.9377827879353156
 30
2.7688681865646556
  0
CIRCLE
  5
148
330
17
100
AcDbEntity
  8
keypoints
100
AcDbCircle
 10
-5.284460924754137
 20
1.9377827879353156
 30
2.7688681865646556
 40
0.05
  0
POINT
  5
149
330
17
100
AcDbEntity
  8
0
100
AcDbPoint
 10
0.5266972652903492
 20
-3.413160114396228
 30
2.8065911332640967
  0
CIRCLE
  5
14A
330
17
100
AcDbEntity
  8
keypoints
100
AcDbCircle
 10
0.5266972652903492
 20
-3.413160114396228
 30
2.8065911332640967
 40
0.05
  0
POINT
  5
14B
330
17
100
AcDbEntity
  8
0
100
AcDbPoint
 10
0.5264825001753248
 20
5.137019890768
 30
2.8012024216086546
  0
CIRCLE
  5
14C
330
17
100
AcDbEntity
  8
keypoints
100
AcDbCircle
 10
0.5264825001753248
 20
5.137019890768
 30
2.8012024216086546
 40
0.05
  0
POINT
  5
14D
330
17
100
AcDbEntity
  8
0
100
AcDbPoint
 10
-2.0197851099945607
 20
0.2366480203095196
 30
2.8110977543654143
  0
CIRCLE
  5
14E
330
17
100
AcDbEntity
  8
keypoints
100
AcDbCircle
 10
-2.0197851099945607
 20
0.2366480203095196
 30
2.8110977543654143
 40
0.05
  0
POINT
  5
14F
330
17
100
AcDbEntity
  8
0
100
AcDbPoint
 10
3.3294216899890503
 20
1.6385711071642028
 30
2.8056859630707383
  0
CIRCLE
  5
150
330
17
100
AcDbEntity
  8
keypoints
100
AcDbCircle
 10
3.3294216899890503
 20
1.6385711071642028
 30
2.8056859630707383
 40
0.05
  0
POINT
  5
151
330
17
100
AcDbEntity
  8
0
100
AcDbPoint
 10
2.5206933976777792
 20
4.7585332191640495
 30
2.847945720552021
  0
CIRCLE
  5
152
330
17
100
AcDbEntity
  8
keypoints
100
AcDbCircle
 10
2.5206933976777792
 20
4.7585332191640495
 30
2.847945720552021
 40
0.05
  0
POINT
  5
153
330
17
100
AcDbEntity
  8
0
100
AcDbPoint
 10
4.577904025949339
 20
-1.911115267211079
 30
2.809368498406653
  0
CIRCLE
  5
154
330
17
100
AcDbEntity
  8
keypoints
100
AcDbCircle
 10
4.577904025949339
 20
-1.911115267211079
 30
2.809368498406653
 40
0.05
  0
POINT
  5
155
330
17
100
AcDbEntity
  8
0
100
AcDbPoint
 10
-5.264637755452588
 20
1.2382598529967863
 30
2.76561136754624
  0
CIRCLE
  5
156
330
17
100
AcDbEntity
  8
keypoints
100
AcDbCircle
 10
-5.264637755452588
 20
1.2382598529967863
 30
2.76561136754624
 40
0.05
  0
POINT
  5
157
330
17
100
AcDbEntity
  8
0
100
AcDbPoint
 10
4.230042029623738
 20
-2.457930086896485
 30
2.793711137959468
  0
CIRCLE
  5
158
330
17
100
AcDbEntity
  8
keypoints
100
AcDbCircle
 10
4.230042029623738
 20
-2.457930086896485
 30
2.793711137959468
 40
0.05
  0
POINT
  5
159
330
17
100
AcDbEntity
  8
0
100
AcDbPoint
 10
4.119322053818216
 20
4.340651490997863
 30
2.7632711515440262
  0
CIRCLE
  5
15A
330
17
100
AcDbEntity
  8
keypoints
100
AcDbCircle
 10
4.119322053818216
 20
4.340651490997863
 30
2.7632711515440262
 40
0.05
  0
POINT
  5
15B
330
17
100
AcDbEntity
  8
0
100
AcDbPoint
 10
2.7553971133689523
 20
-1.1691570582037347
 30
2.7839640852300778
  0
CIRCLE
  5
15C
330
17
100
AcDbEntity
  8
keypoints
100
AcDbCircle
 10
2.7553971133689523
 20
-1.1691570582037347
 30
2.7839640852300778
 40
0.05
  0
POINT
  5
15D
330
17
100
AcDbEntity
  8
0
100
AcDbPoint
 10
1.9260992322529817
 20
5.3755964554032465
 30
2.800949950345751
  0
CIRCLE
  5
15E
330
17
100
AcDbEntity
  8
keypoints
100
AcDbCircle
 10
1.9260992322529817
 20
5.3755964554032465
 30
2.800949950345751
 40
0.05
  0
POINT
  5
15F
330
17
100
AcDbEntity
  8
0
100
AcDbPoint
 10
0.17394735495573588
 20
-3.564942571324756
 30
2.842920958811618
  0
CIRCLE
  5
160
330
17
100
AcDbEntity
  8
keypoints
100
AcDbCircle
 10
0.17394735495573588
 20
-3.564942571324756
 30
2.842920958811618
 40
0.05
  0
POINT
  5
161
330
17
100
AcDbEntity
  8
0
100
AcDbPoint
 10
-1.6110630286821792
 20
3.6396645538644257
 30
2.8124373060249614
  0
CIRCLE
  5
162
330
17
100
AcDbEntity
  8
keypoints
100
AcDbCircle
 10
-1.6110630286821792
 20
3.6396645538644257
 30
2.8124373060249614
 40
0.05
  0
POINT
  5
163
330
17
100
AcDbEntity
  8
0
100
AcDbPoint
 10
4.189157482206261
 20
-2.7070168618737718
 30
2.852141623926257
  0
CIRCLE
  5
164
330
17
100
AcDbEntity
  8
keypoints
100
AcDbCircle
 10
4.189157482206261
 20
-2.7070168618737718
 30
2.852141623926257
 40
0.05
  0
POINT
  5
165
330
17
100
AcDbEntity
  8
0
100
AcDbPoint
 10
4.520286743266905
 20
5.988288692325193
 30
2.7947250868594633
  0
CIRCLE
  5
166
330
17
100
AcDbEntity
  8
keypoints
100
AcDbCircle
 10
4.520286743266905
 20
5.988288692325193
 30
2.7947250868594633
 40
0.05
  0
POINT
  5
167
330
17
100
AcDbEntity
  8
0
100
AcDbPoint
 10
2.5776668148604007
 20
-3.763486098459527
 30
2.7649252316661395
  0
CIRCLE
  5
168
330
17
100
AcDbEntity
  8
keypoints
100
AcDbCircle
 10
2.5776668148604007
 20
-3.763486098459527
 30
2.7649252316661395
 40
0.05
  0
POINT
  5
169
330
17
100
AcDbEntity
  8
0
100
AcDbPoint
 10
2.5233652299567164
 20
4.757833533202067
 30
2.8127747407771198
  0
CIRCLE
  5
16A
330
17
100
AcDbEntity
  8
keypoints
100
AcDbCircle
 10
2.5233652299567164
 20
4.757833533202067
 30
2.8127747407771198
 40
0.05
  0
POINT
  5
16B
330
17
100
AcDbEntity
  8
0
100
AcDbPoint
 10
-0.4368234514008718
 20
-3.483552965963013
 30
2.772907837078346
  0
CIRCLE
  5
16C
330
17
100
AcDbEntity
  8
keypoints
100
AcDbCircle
 10
-0.4368234514008718
 20
-3.483552965963013
 30
2.772907837078346
 40
0.05
  0
POINT
  5
16D
330
17
100
AcDbEntity
  8
0
100
AcDbPoint
 10
-1.7129689381855104
 20
3.0185397837499046
 30
2.7572355617478235
  0
CIRCLE
  5
16E
330
17
100
AcDbEntity
  8
keypoints
100
AcDbCircle
 10
-1.7129689381855104
 20
3.0185397837499046
 30
2.7572355617478235
 40
0.05
  0
POINT
  5
16F
330
17
100
AcDbEntity
  8
0
100
AcDbPoint
 10
-0.6773468838980343
 20
-3.492121621807615
 30
2.812499109857163
  0
CIRCLE
  5
170
330
17
100
AcDbEntity
  8
keypoints
100
AcDbCircle
 10
-0.6773468838980343
 20
-3.492121621807615
 30
2.812499109857163
 40
0.05
  0
POINT
  5
171
330
17
100
AcDbEntity
  8
0
100
AcDbPoint
 10
3.3325449672321232
 20
1.638008943544124
 30
2.756095831870155
  0
CIRCLE
  5
172
330
17
100
AcDbEntity
  8
keypoints
100
AcDbCircle
 10
3.3325449672321232
 20
1.638008943544124
 30
2.756095831870155
 40
0.05
  0
POINT
  5
173
330
17
100
AcDbEntity
  8
0
100
AcDbPoint
 10
-5.36728992658622
 20
2.240342555388164
 30
2.830696590228985
  0
CIRCLE
  5
174
330
17
100
AcDbEntity
  8
keypoints
100
AcDbCircle
 10
-5.36728992658622
 20
2.240342555388164
 30
2.830696590228985
 40
0.05
  0
POINT
  5
175
330
17
100
AcDbEntity
  8
0
100
AcDbPoint
 10
2.2281886147923657
 20
-2.8631422463972616
 30
2.7616611495514776
  0
CIRCLE
  5
176
330
17
100
AcDbEntity
  8
keypoints
100
AcDbCircle
 10
2.2281886147923657
 20
-2.8631422463972616
 30
2.7616611495514776
 40
0.05
  0
POINT
  5
177
330
17
100
AcDbEntity
  8
0
100
AcDbPoint
 10
4.503254466898733
 20
-3.231753663599716
 30
2.763305592932383
  0
CIRCLE
  5
178
330
17
100
AcDbEntity
  8
keypoints
100
AcDbCircle
 10
4.503254466898733
 20
-3.231753663599716
 30
2.763305592932383
 40
0.05
  0
POINT
  5
179
330
17
100
AcDbEntity
  8
0
100
AcDbPoint
 10
-0.1759632422958862
 20
-3.562401417794698
 30
2.7824756325053874
  0
CIRCLE
  5
17A
330
17
100
AcDbEntity
  8
keypoints
100
AcDbCircle
 10
-0.1759632422958862
 20
-3.562401417794698
 30
2.7824756325053874
 40
0.05
  0
POINT
  5
17B
330
17
100
AcDbEntity
  8
0
100
AcDbPoint
 10
2.3500528169098325
 20
-0.027925057069057013
 30
2.7580112384064126
  0
CIRCLE
  5
17C
330
17
100
AcDbEntity
  8
keypoints
100
AcDbCircle
 10
2.3500528169098325
 20
-0.027925057069057013
 30
2.7580112384064126
 40
0.05
  0
POINT
  5
17D
330
17
100
AcDbEntity
  8
0
100
AcDbPoint
 10
-3.677327719027082
 20
5.04256424200871
 30
2.8089782483147405
  0
CIRCLE
  5
17E
330
17
100
AcDbEntity
  8
keypoints
100
AcDbCircle
 10
-3.677327719027082
 20
5.04256424200871
 30
2.8089782483147405
 40
0.05
  0
LINE
  5
17F
330
17
100
AcDbEntity
  8
lines
100
AcDbLine
 10
-2.0511422434948594
 20
0.06108915566529327
 30
2.8218019159313896
 11
-2.0197851099945607
 21
0.2366480203095196
 31
2.8110977543654143
  0
LINE
  5
180
330
17
100
AcDbEntity
  8
lines
100
AcDbLine
 10
-2.0511422434948594
 20
0.06108915566529327
 30
2.8218019159313896
 11
-2.0097766891081075
 21
0.3878069134014399
 31
2.7634914602825864
  0
LINE
  5
181
330
17
100
AcDbEntity
  8
lines
100
AcDbLine
 10
3.4571546589840807
 20
2.2094487396615903
 30
2.7807199772426006
 11
3.4096081973243892
 21
1.9494350601168984
 31
2.767754555034467
  0
LINE
  5
182
330
17
100
AcDbEntity
  8
lines
100
AcDbLine
 10
3.4571546589840807
 20
2.2094487396615903
 30
2.7807199772426006
 11
3.3503535882980953
 21
1.7678107409595727
 31
2.814354680777332
  0
LINE
  5
183
330
17
100
AcDbEntity
  8
lines
100
AcDbLine
 10
1.097510277266173
 20
-3.240286209461966
 30
2.851408449086552
 11
0.7154971429822437
 21
-3.279247508348302
 31
2.849740940736628
  0
LINE
  5
184
330
17
100
AcDbEntity
  8
lines
100
AcDbLine
 10
1.097510277266173
 20
-3.240286209461966
 30
2.851408449086552
 11
0.5266972652903492
 21
-3.413160114396228
 31
2.8065911332640967
  0
LINE
  5
185
330
17
100
AcDbEntity
  8
lines
100
AcDbLine
 10
-0.6543185311643074
 20
3.81253093739329
 30
2.8318434327258193
 11
-0.8584135172064953
 21
4.138476653349722
 31
2.7935042657036613
  0
LINE
  5
186
330
17
100
AcDbEntity
  8
lines
100
AcDbLine
 10
-0.6543185311643074
 20
3.81253093739329
 30
2.8318434327258193
 11
-0.5967933661862388
 21
3.410065207448935
 31
2.8474354130915955
  0
LINE
  5
187
330
17
100
AcDbEntity
  8
lines
100
AcDbLine
 10
2.1497123046062474
 20
-1.0267470731876005
 30
2.8013072458450075
 11
2.1508374139378788
 21
-1.2176605383265262
 31
2.81786423966689
  0
LINE
  5
188
330
17
100
AcDbEntity
  8
lines
100
AcDbLine
 10
2.1497123046062474
 20
-1.0267470731876005
 30
2.8013072458450075
 11
2.204451375804841
 21
-0.8037917318365821
 31
2.7891808516360954
  0
LINE
  5
189
330
17
100
AcDbEntity
  8
lines
100
AcDbLine
 10
3.3503535882980953
 20
1.7678107409595727
 30
2.814354680777332
 11
3.3294216899890503
 21
1.6385711071642028
 31
2.8056859630707383
  0
LINE
  5
18A
330
17
100
AcDbEntity
  8
lines
100
AcDbLine
 10
3.3503535882980953
 20
1.7678107409595727
 30
2.814354680777332
 11
3.3325449672321232
 21
1.638008943544124
 31
2.756095831870155
  0
LINE
  5
18B
330
17
100
AcDbEntity
  8
lines
100
AcDbLine
 10
3.8557017371545523
 20
3.0544845535626157
 30
2.841147604471198
 11
3.762933553886741
 21
2.8908658210905434
 31
2.8363500685638607
  0
LINE
  5
18C
330
17
100
AcDbEntity
  8
lines
100
AcDbLine
 10
3.8557017371545523
 20
3.0544845535626157
 30
2.841147604471198
 11
3.9478997940140674
 21
3.388106299212447
 31
2.7970590366002184
  0
LINE
  5
18D
330
17
100
AcDbEntity
  8
lines
100
AcDbLine
 10
2.9091438337928803
 20
0.131292326334844
 30
2.8062395418521295
 11
2.7415652264557018
 21
0.10877700726160455
 31
2.82297982204376
  0
LINE
  5
18E
330
17
100
AcDbEntity
  8
lines
100
AcDbLine
 10
2.9091438337928803
 20
0.131292326334844
 30
2.8062395418521295
 11
2.9400932524897323
 21
0.6420532085265591
 31
2.835321971000725
  0
LINE
  5
18F
330
17
100
AcDbEntity
  8
lines
100
AcDbLine
 10
2.8884039497927168
 20
-0.4228789735366598
 30
2.83699444138836
 11
2.747630081482913
 21
-0.8201333929239392
 31
2.78018762861067
  0
LINE
  5
190
330
17
100
AcDbEntity
  8
lines
100
AcDbLine
 10
2.8884039497927168
 20
-0.4228789735366598
 30
2.83699444138836
 11
2.7415652264557018
 21
0.10877700726160455
 31
2.82297982204376
  0
LINE
  5
191
330
17
100
AcDbEntity
  8
lines
100
AcDbLine
 10
-1.3811006019911451
 20
-1.2669227694002247
 30
2.819612683596595
 11
-1.6231522460618755
 21
-1.8118753065157664
 31
2.8015054734974134
  0
LINE
  5
192
330
17
100
AcDbEntity
  8
lines
100
AcDbLine
 10
-1.3811006019911451
 20
-1.2669227694002247
 30
2.819612683596595
 11
-1.3585432169048475
 21
-0.5891182413180054
 31
2.7856747775096338
  0
LINE
  5
193
330
17
100
AcDbEntity
  8
lines
100
AcDbLine
 10
1.6782232563773751
 20
-3.4087426101564215
 30
2.793059378117511
 11
1.7806194305438927
 21
-3.6193106441281113
 31
2.8426344846765117
  0
LINE
  5
194
330
17
100
AcDbEntity
  8
lines
100
AcDbLine
 10
1.6782232563773751
 20
-3.4087426101564215
 30
2.793059378117511
 11
2.0278556315168874
 21
-3.1650815154686285
 31
2.753745477515322
  0
LINE
  5
195
330
17
100
AcDbEntity
  8
lines
100
AcDbLine
 10
-1.3585432169048475
 20
-0.5891182413180054
 30
2.7856747775096338
 11
-1.3149347028337113
 21
-0.01500186880949328
 31
2.8325845558649463
  0
LINE
  5
196
330
17
100
AcDbEntity
  8
lines
100
AcDbLine
 10
5.234309165063994
 20
-1.7161904137077875
 30
2.8471039292937204
 11
4.985975700106077
 21
-1.8030566732341298
 31
2.7780398790374847
  0
LINE
  5
197
330
17
100
AcDbEntity
  8
lines
100
AcDbLine
 10
5.234309165063994
 20
-1.7161904137077875
 30
2.8471039292937204
 11
4.786417239671757
 21
-1.7371316619772574
 31
2.8346116037911724
  0
LINE
  5
198
330
17
100
AcDbEntity
  8
lines
100
AcDbLine
 10
-5.0528116165838135
 20
0.40512084725532715
 30
2.7654667811629206
 11
-5.048989591203598
 21
0.24803303518201525
 31
2.809505818433547
  0
LINE
  5
199
330
17
100
AcDbEntity
  8
lines
100
AcDbLine
 10
-5.0528116165838135
 20
0.40512084725532715
 30
2.7654667811629206
 11
-4.991564687884066
 21
0.7873642610276598
 31
2.767464342819486
  0
LINE
  5
19A
330
17
100
AcDbEntity
  8
lines
100
AcDbLine
 10
-1.9661426459512137
 20
0.6372521348779132
 30
2.8177991002869733
 11
-2.0097766891081075
 21
0.3878069134014399
 31
2.7634914602825864
  0
LINE
  5
19B
330
17
100
AcDbEntity
  8
lines
100
AcDbLine
 10
-1.9661426459512137
 20
0.6372521348779132
 30
2.8177991002869733
 11
-1.724160340881109
 21
0.8793478193302667
 31
2.8286456728101186
  0
LINE
  5
19C
330
17
100
AcDbEntity
  8
lines
100
AcDbLine
 10
4.943445272138453
 20
-3.43196280040891
 30
2.841816444260282
 11
4.692563664476755
 21
-3.4594343719560277
 31
2.8077886862276404
  0
LINE
  5
19D
330
17
100
AcDbEntity
  8
lines
100
AcDbLine
 10
4.943445272138453
 20
-3.43196280040891
 30
2.841816444260282
 11
4.503254466898733
 21
-3.231753663599716
 31
2.763305592932383
  0
LINE
  5
19E
330
17
100
AcDbEntity
  8
lines
100
AcDbLine
 10
4.692563664476755
 20
-3.4594343719560277
 30
2.8077886862276404
 11
4.503254466898733
 21
-3.231753663599716
 31
2.763305592932383
  0
LINE
  5
19F
330
17
100
AcDbEntity
  8
lines
100
AcDbLine
 10
4.34688977299085
 20
-3.0327365375118474
 30
2.8401027363069122
 11
4.267995574979243
 21
-2.8164825521081296
 31
2.840123684628515
  0
LINE
  5
1A0
330
17
100
AcDbEntity
  8
lines
100
AcDbLine
 10
4.34688977299085
 20
-3.0327365375118474
 30
2.8401027363069122
 11
4.117398201686658
 21
-3.0022206339972612
 31
2.8347267820975763
  0
LINE
  5
1A1
330
17
100
AcDbEntity
  8
lines
100
AcDbLine
 10
4.117398201686658
 20
-3.0022206339972612
 30
2.8347267820975763
 11
4.073055831588599
 21
-2.834308471554916
 31
2.76519698873748
  0
LINE
  5
1A2
330
17
100
AcDbEntity
  8
lines
100
AcDbLine
 10
4.786417239671757
 20
-1.7371316619772574
 30
2.8346116037911724
 11
4.985975700106077
 21
-1.8030566732341298
 31
2.7780398790374847
  0
LINE
  5
1A3
330
17
100
AcDbEntity
  8
lines
100
AcDbLine
 10
4.786417239671757
 20
-1.7371316619772574
 30
2.8346116037911724
 11
4.577904025949339
 21
-1.911115267211079
 31
2.809368498406653
  0
LINE
  5
1A4
330
17
100
AcDbEntity
  8
lines
100
AcDbLine
 10
4.267995574979243
 20
-2.8164825521081296
 30
2.840123684628515
 11
4.189157482206261
 21
-2.7070168618737718
 31
2.852141623926257
  0
LINE
  5
1A5
330
17
100
AcDbEntity
  8
lines
100
AcDbLine
 10
4.267995574979243
 20
-2.8164825521081296
 30
2.840123684628515
 11
4.073055831588599
 21
-2.834308471554916
 31
2.76519698873748
  0
LINE
  5
1A6
330
17
100
AcDbEntity
  8
lines
100
AcDbLine
 10
4.526124951875578
 20
-1.6654837904666258
 30
2.7720603115999634
 11
4.577904025949339
 21
-1.911115267211079
 31
2.809368498406653
  0
LINE
  5
1A7
330
17
100
AcDbEntity
  8
lines
100
AcDbLine
 10
2.335545943792441
 20
-3.171378732494995
 30
2.7592274426806416
 11
2.0278556315168874
 21
-3.1650815154686285
 31
2.753745477515322
  0
LINE
  5
1A8
330
17
100
AcDbEntity
  8
lines
100
AcDbLine
 10
2.335545943792441
 20
-3.171378732494995
 30
2.7592274426806416
 11
2.2281886147923657
 21
-2.8631422463972616
 31
2.7616611495514776
  0
LINE
  5
1A9
330
17
100
AcDbEntity
  8
lines
100
AcDbLine
 10
2.0278556315168874
 20
-3.1650815154686285
 30
2.753745477515322
 11
2.2281886147923657
 21
-2.8631422463972616
 31
2.7616611495514776
  0
LINE
  5
1AA
330
17
100
AcDbEntity
  8
lines
100
AcDbLine
 10
3.898592356161303
 20
1.3477416322823519
 30
2.773841664121248
 11
3.667381818137623
 21
1.3828576659707486
 31
2.818612115414886
  0
LINE
  5
1AB
330
17
100
AcDbEntity
  8
lines
100
AcDbLine
 10
3.898592356161303
 20
1.3477416322823519
 30
2.773841664121248
 11
3.3325449672321232
 21
1.638008943544124
 31
2.756095831870155
  0
LINE
  5
1AC
330
17
100
AcDbEntity
  8
lines
100
AcDbLine
 10
3.698690759810575
 20
2.672405507765321
 30
2.8297682320995303
 11
3.762933553886741
 21
2.8908658210905434
 31
2.8363500685638607
  0
LINE
  5
1AD
330
17
100
AcDbEntity
  8
lines
100
AcDbLine
 10
2.7415652264557018
 20
0.10877700726160455
 30
2.82297982204376
 11
2.3500528169098325
 21
-0.027925057069057013
 31
2.7580112384064126
  0
LINE
  5
1AE
330
17
100
AcDbEntity
  8
lines
100
AcDbLine
 10
2.2146452051899805
 20
-3.6710955787296635
 30
2.80229419232983
 11
2.5776668148604007
 21
-3.763486098459527
 31
2.7649252316661395
  0
LINE
  5
1AF
330
17
100
AcDbEntity
  8
lines
100
AcDbLine
 10
2.2146452051899805
 20
-3.6710955787296635
 30
2.80229419232983
 11
1.7806194305438927
 21
-3.6193106441281113
 31
2.8426344846765117
  0
LINE
  5
1B0
330
17
100
AcDbEntity
  8
lines
100
AcDbLine
 10
4.069976991203977
 20
-3.344595364030706
 30
2.764014512058662
 11
4.1866045528708735
 21
-3.4428038104013927
 31
2.814498929754046
  0
LINE
  5
1B1
330
17
100
AcDbEntity
  8
lines
100
AcDbLine
 10
4.069976991203977
 20
-3.344595364030706
 30
2.764014512058662
 11
4.301522658598847
 21
-3.5701938513771205
 31
2.7645741978987735
  0
LINE
  5
1B2
330
17
100
AcDbEntity
  8
lines
100
AcDbLine
 10
2.2731393879461157
 20
-0.26116770020746194
 30
2.799689932608805
 11
2.3500528169098325
 21
-0.027925057069057013
 31
2.7580112384064126
  0
LINE
  5
1B3
330
17
100
AcDbEntity
  8
lines
100
AcDbLine
 10
2.2731393879461157
 20
-0.26116770020746194
 30
2.799689932608805
 11
2.1992800774181043
 21
-0.6230359532046996
 31
2.8485586288413125
  0
LINE
  5
1B4
330
17
100
AcDbEntity
  8
lines
100
AcDbLine
 10
2.662010709190859
 20
1.9284345728061658
 30
2.7956070717710118
 11
2.648876285147337
 21
2.3549280236075285
 31
2.779524464202328
  0
LINE
  5
1B5
330
17
100
AcDbEntity
  8
lines
100
AcDbLine
 10
2.662010709190859
 20
1.9284345728061658
 30
2.7956070717710118
 11
2.969255773087753
 21
1.4221618140559962
 31
2.841825534624589
  0
LINE
  5
1B6
330
17
100
AcDbEntity
  8
lines
100
AcDbLine
 10
0.32971702776260275
 20
-3.591746665597201
 30
2.7951198618704773
 11
0.17394735495573588
 21
-3.564942571324756
 31
2.842920958811618
  0
LINE
  5
1B7
330
17
100
AcDbEntity
  8
lines
100
AcDbLine
 10
0.32971702776260275
 20
-3.591746665597201
 30
2.7951198618704773
 11
0.5266972652903492
 21
-3.413160114396228
 31
2.8065911332640967
  0
LINE
  5
1B8
330
17
100
AcDbEntity
  8
lines
100
AcDbLine
 10
2.1508374139378788
 20
-1.2176605383265262
 30
2.81786423966689
 11
2.0948540876415493
 21
-1.4674913592124563
 31
2.837885325737806
  0
LINE
  5
1B9
330
17
100
AcDbEntity
  8
lines
100
AcDbLine
 10
-2.326077205516301
 20
-0.7409998412459633
 30
2.7904189025865187
 11
-2.1312398198028024
 21
-0.5618077793524952
 31
2.7982192136023243
  0
LINE
  5
1BA
330
17
100
AcDbEntity
  8
lines
100
AcDbLine
 10
-2.326077205516301
 20
-0.7409998412459633
 30
2.7904189025865187
 11
-3.1222003658540523
 21
-0.6753106265329307
 31
2.765573607445825
  0
LINE
  5
1BB
330
17
100
AcDbEntity
  8
lines
100
AcDbLine
 10
-1.3776828160013392
 20
0.9046454232791061
 30
2.8397319862537884
 11
-1.5242653924625698
 21
0.9204645417428446
 31
2.7845272706898863
  0
LINE
  5
1BC
330
17
100
AcDbEntity
  8
lines
100
AcDbLine
 10
-1.3776828160013392
 20
0.9046454232791061
 30
2.8397319862537884
 11
-1.724160340881109
 21
0.8793478193302667
 31
2.8286456728101186
  0
LINE
  5
1BD
330
17
100
AcDbEntity
  8
lines
100
AcDbLine
 10
-1.005628015818467
 20
2.63541639556298
 30
2.8164866008993856
 11
-0.8261521192033294
 21
2.5008843978314936
 31
2.8270856462375664
  0
LINE
  5
1BE
330
17
100
AcDbEntity
  8
lines
100
AcDbLine
 10
-1.005628015818467
 20
2.63541639556298
 30
2.8164866008993856
 11
-0.8218476209978978
 21
3.3284361544304115
 31
2.837026790056817
  0
LINE
  5
1BF
330
17
100
AcDbEntity
  8
lines
100
AcDbLine
 10
-1.4779652942066983
 20
1.9761909219066465
 30
2.849528391518383
 11
-1.6247677064665527
 21
2.045839138763984
 31
2.795222553613606
  0
LINE
  5
1C0
330
17
100
AcDbEntity
  8
lines
100
AcDbLine
 10
-1.4779652942066983
 20
1.9761909219066465
 30
2.849528391518383
 11
-1.7554880474471934
 21
2.198272966742924
 31
2.7903639029780662
  0
LINE
  5
1C1
330
17
100
AcDbEntity
  8
lines
100
AcDbLine
 10
4.301522658598847
 20
-3.5701938513771205
 30
2.7645741978987735
 11
4.1866045528708735
 21
-3.4428038104013927
 31
2.814498929754046
  0
LINE
  5
1C2
330
17
100
AcDbEntity
  8
lines
100
AcDbLine
 10
-3.5266175165323883
 20
-0.5922717676746532
 30
2.8008413434243558
 11
-3.8787997669571306
 21
-0.552483676711675
 31
2.8449754230905575
  0
LINE
  5
1C3
330
17
100
AcDbEntity
  8
lines
100
AcDbLine
 10
-3.5266175165323883
 20
-0.5922717676746532
 30
2.8008413434243558
 11
-3.1222003658540523
 21
-0.6753106265329307
 31
2.765573607445825
  0
LINE
  5
1C4
330
17
100
AcDbEntity
  8
lines
100
AcDbLine
 10
2.9400932524897323
 20
0.6420532085265591
 30
2.835321971000725
 11
2.957372642403032
 21
1.0666852584030537
 31
2.8154614971524987
  0
LINE
  5
1C5
330
17
100
AcDbEntity
  8
lines
100
AcDbLine
 10
2.891889082379253
 20
4.489117275463391
 30
2.77484613080462
 11
2.9158343091806045
 21
4.723418276535169
 31
2.8256822960096883
  0
LINE
  5
1C6
330
17
100
AcDbEntity
  8
lines
100
AcDbLine
 10
2.891889082379253
 20
4.489117275463391
 30
2.77484613080462
 11
2.6741616090431806
 21
4.746583898975369
 31
2.8181555413578545
  0
LINE
  5
1C7
330
17
100
AcDbEntity
  8
lines
100
AcDbLine
 10
1.4682917975664427
 20
5.46502857742786
 30
2.7748767380953914
 11
1.2356697291489473
 21
5.460895033674594
 31
2.830781348637582
  0
LINE
  5
1C8
330
17
100
AcDbEntity
  8
lines
100
AcDbLine
 10
1.4682917975664427
 20
5.46502857742786
 30
2.7748767380953914
 11
1.9260992322529817
 21
5.3755964554032465
 31
2.800949950345751
  0
LINE
  5
1C9
330
17
100
AcDbEntity
  8
lines
100
AcDbLine
 10
-0.8218476209978978
 20
3.3284361544304115
 30
2.837026790056817
 11
-0.5967933661862388
 21
3.410065207448935
 31
2.8474354130915955
  0
LINE
  5
1CA
330
17
100
AcDbEntity
  8
lines
100
AcDbLine
 10
-0.8584135172064953
 20
4.138476653349722
 30
2.7935042657036613
 11
-0.789787275000118
 21
4.487479502764983
 31
2.796176311194581
  0
LINE
  5
1CB
330
17
100
AcDbEntity
  8
lines
100
AcDbLine
 10
-1.5242653924625698
 20
0.9204645417428446
 30
2.7845272706898863
 11
-1.724160340881109
 21
0.8793478193302667
 31
2.8286456728101186
  0
LINE
  5
1CC
330
17
100
AcDbEntity
  8
lines
100
AcDbLine
 10
4.4652091055077365
 20
-2.0151803573697773
 30
2.755787870684055
 11
4.480578950330151
 21
-2.1151130591735914
 31
2.849770882102892
  0
LINE
  5
1CD
330
17
100
AcDbEntity
  8
lines
100
AcDbLine
 10
4.4652091055077365
 20
-2.0151803573697773
 30
2.755787870684055
 11
4.577904025949339
 21
-1.911115267211079
 31
2.809368498406653
  0
LINE
  5
1CE
330
17
100
AcDbEntity
  8
lines
100
AcDbLine
 10
4.254688807596787
 20
-2.330134822940808
 30
2.808057056051864
 11
4.230042029623738
 21
-2.457930086896485
 31
2.793711137959468
  0
LINE
  5
1CF
330
17
100
AcDbEntity
  8
lines
100
AcDbLine
 10
4.254688807596787
 20
-2.330134822940808
 30
2.808057056051864
 11
4.509945973915371
 21
-2.274994239628394
 31
2.8001521263893627
  0
LINE
  5
1D0
330
17
100
AcDbEntity
  8
lines
100
AcDbLine
 10
4.509945973915371
 20
-2.274994239628394
 30
2.8001521263893627
 11
4.480578950330151
 21
-2.1151130591735914
 31
2.849770882102892
  0
LINE
  5
1D1
330
17
100
AcDbEntity
  8
lines
100
AcDbLine
 10
2.696412151434354
 20
2.9863567217300484
 30
2.7534138322863706
 11
2.648876285147337
 21
2.3549280236075285
 31
2.779524464202328
  0
LINE
  5
1D2
330
17
100
AcDbEntity
  8
lines
100
AcDbLine
 10
2.7819488788295814
 20
-1.6117046698140711
 30
2.7576177017432317
 11
2.8335179538321316
 21
-1.4138944604211459
 31
2.7525681901139194
  0
LINE
  5
1D3
330
17
100
AcDbEntity
  8
lines
100
AcDbLine
 10
2.7819488788295814
 20
-1.6117046698140711
 30
2.7576177017432317
 11
2.524601159101632
 21
-1.5139578546277377
 31
2.8463948433681567
  0
LINE
  5
1D4
330
17
100
AcDbEntity
  8
lines
100
AcDbLine
 10
2.8335179538321316
 20
-1.4138944604211459
 30
2.7525681901139194
 11
2.7553971133689523
 21
-1.1691570582037347
 31
2.7839640852300778
  0
LINE
  5
1D5
330
17
100
AcDbEntity
  8
lines
100
AcDbLine
 10
2.4211942560445907
 20
-1.712608530314874
 30
2.8453528779711785
 11
2.524601159101632
 21
-1.5139578546277377
 31
2.8463948433681567
  0
LINE
  5
1D6
330
17
100
AcDbEntity
  8
lines
100
AcDbLine
 10
2.2263636676445344
 20
-2.24728726124348
 30
2.7635912048825277
 11
2.0816911507110176
 21
-2.1477111768594614
 31
2.762696414428865
  0
LINE
  5
1D7
330
17
100
AcDbEntity
  8
lines
100
AcDbLine
 10
2.2263636676445344
 20
-2.24728726124348
 30
2.7635912048825277
 11
2.7389445535408448
 21
-2.1187892463803086
 31
2.756209601091456
  0
LINE
  5
1D8
330
17
100
AcDbEntity
  8
lines
100
AcDbLine
 10
2.957372642403032
 20
1.0666852584030537
 30
2.8154614971524987
 11
2.969255773087753
 21
1.4221618140559962
 31
2.841825534624589
  0
LINE
  5
1D9
330
17
100
AcDbEntity
  8
lines
100
AcDbLine
 10
2.747630081482913
 20
-0.8201333929239392
 30
2.78018762861067
 11
2.7553971133689523
 21
-1.1691570582037347
 31
2.7839640852300778
  0
LINE
  5
1DA
330
17
100
AcDbEntity
  8
lines
100
AcDbLine
 10
-0.8542107559177863
 20
-3.4174572243701515
 30
2.761060143072984
 11
-0.6773468838980343
 21
-3.492121621807615
 31
2.812499109857163
  0
LINE
  5
1DB
330
17
100
AcDbEntity
  8
lines
100
AcDbLine
 10
-0.8542107559177863
 20
-3.4174572243701515
 30
2.761060143072984
 11
-0.4368234514008718
 21
-3.483552965963013
 31
2.772907837078346
  0
LINE
  5
1DC
330
17
100
AcDbEntity
  8
lines
100
AcDbLine
 10
-1.1815021307417326
 20
0.18064092129443376
 30
2.7832995658775945
 11
-1.3149347028337113
 21
-0.01500186880949328
 31
2.8325845558649463
  0
LINE
  5
1DD
330
17
100
AcDbEntity
  8
lines
100
AcDbLine
 10
-1.1815021307417326
 20
0.18064092129443376
 30
2.7832995658775945
 11
-0.8862308571552042
 21
0.589812280905613
 31
2.755908582865121
  0
LINE
  5
1DE
330
17
100
AcDbEntity
  8
lines
100
AcDbLine
 10
-5.048989591203598
 20
0.24803303518201525
 30
2.809505818433547
 11
-5.089761123685031
 21
-0.21237090094818778
 31
2.7529099038569553
  0
LINE
  5
1DF
330
17
100
AcDbEntity
  8
lines
100
AcDbLine
 10
-2.373241034498304
 20
5.03834661001611
 30
2.8043279243044257
 11
-1.975258346594233
 21
4.976993928838514
 31
2.7663719048122597
  0
LINE
  5
1E0
330
17
100
AcDbEntity
  8
lines
100
AcDbLine
 10
-2.373241034498304
 20
5.03834661001611
 30
2.8043279243044257
 11
-1.827010412566772
 21
4.931250139284802
 31
2.8218305285894902
  0
LINE
  5
1E1
330
17
100
AcDbEntity
  8
lines
100
AcDbLine
 10
-0.2837218839698266
 20
0.17551860016659382
 30
2.814903556637374
 11
-0.285990537485611
 21
0.19991235845720734
 31
2.777901290556024
  0
LINE
  5
1E2
330
17
100
AcDbEntity
  8
lines
100
AcDbLine
 10
-0.2837218839698266
 20
0.17551860016659382
 30
2.814903556637374
 11
-0.012971858063734215
 21
-0.270348650152864
 31
2.8105980996038227
  0
LINE
  5
1E3
330
17
100
AcDbEntity
  8
lines
100
AcDbLine
 10
-1.023200959808448
 20
0.8444506262509281
 30
2.754075121753748
 11
-0.8862308571552042
 21
0.589812280905613
 31
2.755908582865121
  0
LINE
  5
1E4
330
17
100
AcDbEntity
  8
lines
100
AcDbLine
 10
-1.7788903557114213
 20
2.8863642098313083
 30
2.7988901181859904
 11
-1.7129689381855104
 21
3.0185397837499046
 31
2.7572355617478235
  0
LINE
  5
1E5
330
17
100
AcDbEntity
  8
lines
100
AcDbLine
 10
-1.7788903557114213
 20
2.8863642098313083
 30
2.7988901181859904
 11
-1.8244542207672234
 21
2.537190048702826
 31
2.793721085332688
  0
LINE
  5
1E6
330
17
100
AcDbEntity
  8
lines
100
AcDbLine
 10
-4.7227072959406415
 20
-0.45040635184867495
 30
2.762849663746896
 11
-4.923062212634773
 21
-0.41019304586678973
 31
2.756418662169859
  0
LINE
  5
1E7
330
17
100
AcDbEntity
  8
lines
100
AcDbLine
 10
-4.7227072959406415
 20
-0.45040635184867495
 30
2.762849663746896
 11
-5.089761123685031
 21
-0.21237090094818778
 31
2.7529099038569553
  0
LINE
  5
1E8
330
17
100
AcDbEntity
  8
lines
100
AcDbLine
 10
-5.089761123685031
 20
-0.21237090094818778
 30
2.7529099038569553
 11
-4.923062212634773
 21
-0.41019304586678973
 31
2.756418662169859
  0
LINE
  5
1E9
330
17
100
AcDbEntity
  8
lines
100
AcDbLine
 10
-5.307809183269161
 20
2.4285526536235222
 30
2.7851494818672564
 11
-5.429128256567735
 21
2.4249495416119533
 31
2.8414065759222757
  0
LINE
  5
1EA
330
17
100
AcDbEntity
  8
lines
100
AcDbLine
 10
-5.307809183269161
 20
2.4285526536235222
 30
2.7851494818672564
 11
-5.36728992658622
 21
2.240342555388164
 31
2.830696590228985
  0
LINE
  5
1EB
330
17
100
AcDbEntity
  8
lines
100
AcDbLine
 10
-5.17935340088458
 20
2.5901030773353497
 30
2.7803937752076346
 11
-5.429128256567735
 21
2.4249495416119533
 31
2.8414065759222757
  0
LINE
  5
1EC
330
17
100
AcDbEntity
  8
lines
100
AcDbLine
 10
-3.8787997669571306
 20
-0.552483676711675
 30
2.8449754230905575
 11
-3.1222003658540523
 21
-0.6753106265329307
 31
2.765573607445825
  0
LINE
  5
1ED
330
17
100
AcDbEntity
  8
lines
100
AcDbLine
 10
2.9158343091806045
 20
4.723418276535169
 30
2.8256822960096883
 11
2.6741616090431806
 21
4.746583898975369
 31
2.8181555413578545
  0
LINE
  5
1EE
330
17
100
AcDbEntity
  8
lines
100
AcDbLine
 10
-3.325838501968102
 20
5.04421447889184
 30
2.7711051174262273
 11
-3.677327719027082
 21
5.04256424200871
 31
2.8089782483147405
  0
LINE
  5
1EF
330
17
100
AcDbEntity
  8
lines
100
AcDbLine
 10
-3.325838501968102
 20
5.04421447889184
 30
2.7711051174262273
 11
-3.8342275657120477
 21
5.06612986055298
 31
2.8061424116073734
  0
LINE
  5
1F0
330
17
100
AcDbEntity
  8
lines
100
AcDbLine
 10
4.443081433491886
 20
5.782833118265754
 30
2.790758379725802
 11
4.520286743266905
 21
5.988288692325193
 31
2.7947250868594633
  0
LINE
  5
1F1
330
17
100
AcDbEntity
  8
lines
100
AcDbLine
 10
4.443081433491886
 20
5.782833118265754
 30
2.790758379725802
 11
4.382174563335718
 21
5.491520306487587
 31
2.7824812581552276
  0
LINE
  5
1F2
330
17
100
AcDbEntity
  8
lines
100
AcDbLine
 10
4.382174563335718
 20
5.491520306487587
 30
2.7824812581552276
 11
4.520286743266905
 21
5.988288692325193
 31
2.7947250868594633
  0
LINE
  5
1F3
330
17
100
AcDbEntity
  8
lines
100
AcDbLine
 10
4.674201971541496
 20
6.736657042824976
 30
2.7590084976376557
 11
4.622986405828031
 21
6.489894583110178
 31
2.851328609059025
  0
LINE
  5
1F4
330
17
100
AcDbEntity
  8
lines
100
AcDbLine
 10
4.674201971541496
 20
6.736657042824976
 30
2.7590084976376557
 11
4.7588425502641725
 21
7.095107275959589
 31
2.797136650817897
  0
LINE
  5
1F5
330
17
100
AcDbEntity
  8
lines
100
AcDbLine
 10
2.6741616090431806
 20
4.746583898975369
 30
2.8181555413578545
 11
2.5233652299567164
 21
4.757833533202067
 31
2.8127747407771198
  0
LINE
  5
1F6
330
17
100
AcDbEntity
  8
lines
100
AcDbLine
 10
2.6741616090431806
 20
4.746583898975369
 30
2.8181555413578545
 11
2.5206933976777792
 21
4.7585332191640495
 31
2.847945720552021
  0
LINE
  5
1F7
330
17
100
AcDbEntity
  8
lines
100
AcDbLine
 10
-0.24750523793257184
 20
5.155101686218434
 30
2.7913155816166606
 11
-0.0643593294906111
 21
5.1598817991139585
 31
2.833591418884291
  0
LINE
  5
1F8
330
17
100
AcDbEntity
  8
lines
100
AcDbLine
 10
-0.24750523793257184
 20
5.155101686218434
 30
2.7913155816166606
 11
-0.5754876536171877
 21
4.7976915353606415
 31
2.8114632260379073
  0
LINE
  5
1F9
330
17
100
AcDbEntity
  8
lines
100
AcDbLine
 10
-0.5754876536171877
 20
4.7976915353606415
 30
2.8114632260379073
 11
-0.789787275000118
 21
4.487479502764983
 31
2.796176311194581
  0
LINE
  5
1FA
330
17
100
AcDbEntity
  8
lines
100
AcDbLine
 10
4.073055831588599
 20
-2.834308471554916
 30
2.76519698873748
 11
4.189157482206261
 21
-2.7070168618737718
 31
2.852141623926257
  0
LINE
  5
1FB
330
17
100
AcDbEntity
  8
lines
100
AcDbLine
 10
-0.0643593294906111
 20
5.1598817991139585
 30
2.833591418884291
 11
0.5264825001753248
 21
5.137019890768
 31
2.8012024216086546
  0
LINE
  5
1FC
330
17
100
AcDbEntity
  8
lines
100
AcDbLine
 10
-1.827010412566772
 20
4.931250139284802
 30
2.8218305285894902
 11
-1.975258346594233
 21
4.976993928838514
 31
2.7663719048122597
  0
LINE
  5
1FD
330
17
100
AcDbEntity
  8
lines
100
AcDbLine
 10
-1.827010412566772
 20
4.931250139284802
 30
2.8218305285894902
 11
-1.5864504522257001
 21
4.822183620722605
 31
2.77257887393388
  0
LINE
  5
1FE
330
17
100
AcDbEntity
  8
lines
100
AcDbLine
 10
-1.8244542207672234
 20
2.537190048702826
 30
2.793721085332688
 11
-1.7554880474471934
 21
2.198272966742924
 31
2.7903639029780662
  0
LINE
  5
1FF
330
17
100
AcDbEntity
  8
lines
100
AcDbLine
 10
-1.5864504522257001
 20
4.822183620722605
 30
2.77257887393388
 11
-1.975258346594233
 21
4.976993928838514
 31
2.7663719048122597
  0
LINE
  5
200
330
17
100
AcDbEntity
  8
lines
100
AcDbLine
 10
-5.3248605568113465
 20
1.4427383633930528
 30
2.824868756142721
 11
-5.264637755452588
 21
1.2382598529967863
 31
2.76561136754624
  0
LINE
  5
201
330
17
100
AcDbEntity
  8
lines
100
AcDbLine
 10
-5.3248605568113465
 20
1.4427383633930528
 30
2.824868756142721
 11
-5.284460924754137
 21
1.9377827879353156
 31
2.7688681865646556
  0
LINE
  5
202
330
17
100
AcDbEntity
  8
lines
100
AcDbLine
 10
-4.774862436367599
 20
3.1868687855901023
 30
2.8516025730114736
 11
-4.812104761350761
 21
2.78700311286799
 31
2.795610618388296
  0
LINE
  5
203
330
17
100
AcDbEntity
  8
lines
100
AcDbLine
 10
-4.774862436367599
 20
3.1868687855901023
 30
2.8516025730114736
 11
-4.852589891997577
 21
3.6453160175435784
 31
2.7938286884548034
  0
LINE
  5
204
330
17
100
AcDbEntity
  8
lines
100
AcDbLine
 10
1.2356697291489473
 20
5.460895033674594
 30
2.830781348637582
 11
0.9253201724013913
 21
5.523911216172646
 31
2.818814215333984
  0
LINE
  5
205
330
17
100
AcDbEntity
  8
lines
100
AcDbLine
 10
-3.8342275657120477
 20
5.06612986055298
 30
2.8061424116073734
 11
-3.677327719027082
 21
5.04256424200871
 31
2.8089782483147405
  0
LINE
  5
206
330
17
100
AcDbEntity
  8
lines
100
AcDbLine
 10
-4.852589891997577
 20
3.6453160175435784
 30
2.7938286884548034
 11
-4.812104761350761
 21
2.78700311286799
 31
2.795610618388296
  0
LINE
  5
207
330
17
100
AcDbEntity
  8
lines
100
AcDbLine
 10
-4.376253605400242
 20
5.048208972616967
 30
2.834440457844921
 11
-4.586816571905364
 21
4.980372820363325
 31
2.8384253547205485
  0
LINE
  5
208
330
17
100
AcDbEntity
  8
lines
100
AcDbLine
 10
4.205774567569468
 20
4.653255446964525
 30
2.7526796550590977
 11
4.240118837740273
 21
4.887131244477879
 31
2.7750631186490335
  0
LINE
  5
209
330
17
100
AcDbEntity
  8
lines
100
AcDbLine
 10
4.205774567569468
 20
4.653255446964525
 30
2.7526796550590977
 11
4.119322053818216
 21
4.340651490997863
 31
2.7632711515440262
  0
LINE
  5
20A
330
17
100
AcDbEntity
  8
lines
100
AcDbLine
 10
-0.012971858063734215
 20
-0.270348650152864
 30
2.8105980996038227
 11
-0.0027450957634644058
 21
-0.2664879893843968
 31
2.7809374314285726
  0
LINE
  5
20B
330
17
100
AcDbEntity
  8
lines
100
AcDbLine
 10
4.7588425502641725
 20
7.095107275959589
 30
2.797136650817897
 11
4.622986405828031
 21
6.489894583110178
 31
2.851328609059025
  0
LINE
  5
20C
330
17
100
AcDbEntity
  8
lines
100
AcDbLine
 10
4.622986405828031
 20
6.489894583110178
 30
2.851328609059025
 11
4.520286743266905
 21
5.988288692325193
 31
2.7947250868594633
  0
LINE
  5
20D
330
17
100
AcDbEntity
  8
lines
100
AcDbLine
 10
0.7154971429822437
 20
-3.279247508348302
 30
2.849740940736628
 11
0.5266972652903492
 21
-3.413160114396228
 31
2.8065911332640967
  0
LINE
  5
20E
330
17
100
AcDbEntity
  8
lines
100
AcDbLine
 10
3.667381818137623
 20
1.3828576659707486
 30
2.818612115414886
 11
3.3294216899890503
 21
1.6385711071642028
 31
2.8056859630707383
  0
LINE
  5
20F
330
17
100
AcDbEntity
  8
lines
100
AcDbLine
 10
-1.7554880474471934
 20
2.198272966742924
 30
2.7903639029780662
 11
-1.6247677064665527
 21
2.045839138763984
 31
2.795222553613606
  0
LINE
  5
210
330
17
100
AcDbEntity
  8
lines
100
AcDbLine
 10
-1.6231522460618755
 20
-1.8118753065157664
 30
2.8015054734974134
 11
-1.6227303449835397
 21
-2.112756956205028
 31
2.797094644468713
  0
LINE
  5
211
330
17
100
AcDbEntity
  8
lines
100
AcDbLine
 10
-1.6231522460618755
 20
-1.8118753065157664
 30
2.8015054734974134
 11
-1.6144232220005297
 21
-2.2611433660071505
 31
2.8474197276703896
  0
LINE
  5
212
330
17
100
AcDbEntity
  8
lines
100
AcDbLine
 10
4.240118837740273
 20
4.887131244477879
 30
2.7750631186490335
 11
4.119322053818216
 21
4.340651490997863
 31
2.7632711515440262
  0
LINE
  5
213
330
17
100
AcDbEntity
  8
lines
100
AcDbLine
 10
-2.0097766891081075
 20
0.3878069134014399
 30
2.7634914602825864
 11
-2.0197851099945607
 21
0.2366480203095196
 31
2.8110977543654143
  0
LINE
  5
214
330
17
100
AcDbEntity
  8
lines
100
AcDbLine
 10
2.204451375804841
 20
-0.8037917318365821
 30
2.7891808516360954
 11
2.1992800774181043
 21
-0.6230359532046996
 31
2.8485586288413125
  0
LINE
  5
215
330
17
100
AcDbEntity
  8
lines
100
AcDbLine
 10
-1.6144232220005297
 20
-2.2611433660071505
 30
2.8474197276703896
 11
-1.6227303449835397
 21
-2.112756956205028
 31
2.797094644468713
  0
LINE
  5
216
330
17
100
AcDbEntity
  8
lines
100
AcDbLine
 10
-1.6144232220005297
 20
-2.2611433660071505
 30
2.8474197276703896
 11
-1.6723019148061786
 21
-2.4120444776813406
 31
2.794899100883415
  0
LINE
  5
217
330
17
100
AcDbEntity
  8
lines
100
AcDbLine
 10
2.131617706952985
 20
5.189933226611882
 30
2.8056383126793247
 11
1.9260992322529817
 21
5.3755964554032465
 31
2.800949950345751
  0
LINE
  5
218
330
17
100
AcDbEntity
  8
lines
100
AcDbLine
 10
2.131617706952985
 20
5.189933226611882
 30
2.8056383126793247
 11
2.291091132595049
 21
4.898464343037764
 31
2.8066018705377718
  0
LINE
  5
219
330
17
100
AcDbEntity
  8
lines
100
AcDbLine
 10
-1.6723019148061786
 20
-2.4120444776813406
 30
2.794899100883415
 11
-1.6227303449835397
 21
-2.112756956205028
 31
2.797094644468713
  0
LINE
  5
21A
330
17
100
AcDbEntity
  8
lines
100
AcDbLine
 10
-1.6435868555351263
 20
3.3880282618905238
 30
2.8087651303245167
 11
-1.6110630286821792
 21
3.6396645538644257
 31
2.8124373060249614
  0
LINE
  5
21B
330
17
100
AcDbEntity
  8
lines
100
AcDbLine
 10
-1.6435868555351263
 20
3.3880282618905238
 30
2.8087651303245167
 11
-1.7129689381855104
 21
3.0185397837499046
 31
2.7572355617478235
  0
LINE
  5
21C
330
17
100
AcDbEntity
  8
lines
100
AcDbLine
 10
4.243735846323779
 20
-1.3837509292824401
 30
2.766544591637719
 11
4.577904025949339
 21
-1.911115267211079
 31
2.809368498406653
  0
LINE
  5
21D
330
17
100
AcDbEntity
  8
lines
100
AcDbLine
 10
2.291091132595049
 20
4.898464343037764
 30
2.8066018705377718
 11
2.5233652299567164
 21
4.757833533202067
 31
2.8127747407771198
  0
LINE
  5
21E
330
17
100
AcDbEntity
  8
lines
100
AcDbLine
 10
2.291091132595049
 20
4.898464343037764
 30
2.8066018705377718
 11
2.5206933976777792
 21
4.7585332191640495
 31
2.847945720552021
  0
LINE
  5
21F
330
17
100
AcDbEntity
  8
lines
100
AcDbLine
 10
4.070955399687924
 20
4.040165489243212
 30
2.759426365183618
 11
4.050500798723779
 21
3.832314176096671
 31
2.757210191903506
  0
LINE
  5
220
330
17
100
AcDbEntity
  8
lines
100
AcDbLine
 10
4.070955399687924
 20
4.040165489243212
 30
2.759426365183618
 11
4.119322053818216
 21
4.340651490997863
 31
2.7632711515440262
  0
LINE
  5
221
330
17
100
AcDbEntity
  8
lines
100
AcDbLine
 10
-5.429128256567735
 20
2.4249495416119533
 30
2.8414065759222757
 11
-5.36728992658622
 21
2.240342555388164
 31
2.830696590228985
  0
LINE
  5
222
330
17
100
AcDbEntity
  8
lines
100
AcDbLine
 10
2.969255773087753
 20
1.4221618140559962
 30
2.841825534624589
 11
3.3294216899890503
 21
1.6385711071642028
 31
2.8056859630707383
  0
LINE
  5
223
330
17
100
AcDbEntity
  8
lines
100
AcDbLine
 10
4.050500798723779
 20
3.832314176096671
 30
2.757210191903506
 11
3.9478997940140674
 21
3.388106299212447
 31
2.7970590366002184
  0
LINE
  5
224
330
17
100
AcDbEntity
  8
lines
100
AcDbLine
 10
-4.991564687884066
 20
0.7873642610276598
 30
2.767464342819486
 11
-5.264637755452588
 21
1.2382598529967863
 31
2.76561136754624
  0
LINE
  5
225
330
17
100
AcDbEntity
  8
lines
100
AcDbLine
 10
-5.284460924754137
 20
1.9377827879353156
 30
2.7688681865646556
 11
-5.36728992658622
 21
2.240342555388164
 31
2.830696590228985
  0
LINE
  5
226
330
17
100
AcDbEntity
  8
lines
100
AcDbLine
 10
3.3294216899890503
 20
1.6385711071642028
 30
2.8056859630707383
 11
3.3325449672321232
 21
1.638008943544124
 31
2.756095831870155
  0
LINE
  5
227
330
17
100
AcDbEntity
  8
lines
100
AcDbLine
 10
2.5206933976777792
 20
4.7585332191640495
 30
2.847945720552021
 11
2.5233652299567164
 21
4.757833533202067
 31
2.8127747407771198
  0
LINE
  5
228
330
17
100
AcDbEntity
  8
lines
100
AcDbLine
 10
4.230042029623738
 20
-2.457930086896485
 30
2.793711137959468
 11
4.189157482206261
 21
-2.7070168618737718
 31
2.852141623926257
  0
LINE
  5
229
330
17
100
AcDbEntity
  8
lines
100
AcDbLine
 10
0.17394735495573588
 20
-3.564942571324756
 30
2.842920958811618
 11
-0.1759632422958862
 21
-3.562401417794698
 31
2.7824756325053874
  0
LINE
  5
22A
330
17
100
AcDbEntity
  8
lines
100
AcDbLine
 10
-1.6110630286821792
 20
3.6396645538644257
 30
2.8124373060249614
 11
-1.7129689381855104
 21
3.0185397837499046
 31
2.7572355617478235
  0
LINE
  5
22B
330
17
100
AcDbEntity
  8
lines
100
AcDbLine
 10
-0.4368234514008718
 20
-3.483552965963013
 30
2.772907837078346
 11
-0.6773468838980343
 21
-3.492121621807615
 31
2.812499109857163
  0
LINE
  5
22C
330
17
100
AcDbEntity
  8
lines
100
AcDbLine
 10
-0.4368234514008718
 20
-3.483552965963013
 30
2.772907837078346
 11
-0.1759632422958862
 21
-3.562401417794698
 31
2.7824756325053874
  0
ENDSEC
  0
SECTION
  2
OBJECTS
  0
DICTIONARY
  5
A
330
0
100
AcDbDictionary
281
1
  3
ACAD_COLOR
350
B
  3
ACAD_GROUP
350
C
  3
ACAD_LAYOUT
350
D
  3
ACAD_MATERIAL
350
E
  3
ACAD_MLEADERSTYLE
350
F
  3
ACAD_MLINESTYLE
350
10
  3
ACAD_PLOTSETTINGS
350
11
  3
ACAD_PLOTSTYLENAME
350
12
  3
ACAD_SCALELIST
350
14
  3
ACAD_TABLESTYLE
350
15
  3
ACAD_VISUALSTYLE
350
16
  3
EZDXF_META
350
2D
  0
DICTIONARY
  5
B
330
A
100
AcDbDictionary
281
1
  0
DICTIONARY
  5
C
330
A
100
AcDbDictionary
281
1
  0
DICTIONARY
  5
D
330
A
100
AcDbDictionary
281
1
  3
Model
350
1A
  3
Layout1
350
1E
  0
DICTIONARY
  5
E
330
A
100
AcDbDictionary
281
1
  3
ByBlock
350
1F
  3
ByLayer
350
20
  3
Global
350
21
  0
DICTIONARY
  5
F
330
A
100
AcDbDictionary
281
1
  3
Standard
350
2C
  0
DICTIONARY
  5
10
330
A
100
AcDbDictionary
281
1
  3
Standard
350
22
  0
DICTIONARY
  5
11
330
A
100
AcDbDictionary
281
1
  0
ACDBDICTIONARYWDFLT
  5
12
330
A
100
AcDbDictionary
281
1
  3
Normal
350
13
100
AcDbDictionaryWithDefault
340
13
  0
ACDBPLACEHOLDER
  5
13
330
12
  0
DICTIONARY
  5
14
330
A
100
AcDbDictionary
281
1
  0
DICTIONARY
  5
15
330
A
100
AcDbDictionary
281
1
  0
DICTIONARY
  5
16
330
A
100
AcDbDictionary
281
1
  0
LAYOUT
  5
1A
330
D
100
AcDbPlotSettings
  1

  4
A3
  6

 40
7.5
 41
20.0
 42
7.5
 43
20.0
 44
420.0
 45
297.0
 46
0.0
 47
0.0
 48
0.0
 49
0.0
140
0.0
141
0.0
142
1.0
143
1.0
 70
1024
 72
1
 73
0
 74
5
  7

 75
16
 76
0
 77
2
 78
300
147
1.0
148
0.0
149
0.0
100
AcDbLayout
  1
Model
 70
1
 71
0
 10
0.0
 20
0.0
 11
420.0
 21
297.0
 12
0.0
 22
0.0
 32
0.0
 14
1e+20
 24
1e+20
 34
1e+20
 15
-1e+20
 25
-1e+20
 35
-1e+20
146
0.0
 13
0.0
 23
0.0
 33
0.0
 16
1.0
 26
0.0
 36
0.0
 17
0.0
 27
1.0
 37
0.0
 76
1
330
17
  0
LAYOUT
  5
1E
330
D
100
AcDbPlotSettings
  1

  4
A3
  6

 40
7.5
 41
20.0
 42
7.5
 43
20.0
 44
420.0
 45
297.0
 46
0.0
 47
0.0
 48
0.0
 49
0.0
140
0.0
141
0.0
142
1.0
143
1.0
 70
0
 72
1
 73
0
 74
5
  7

 75
16
 76
0
 77
2
 78
300
147
1.0
148
0.0
149
0.0
100
AcDbLayout
  1
Layout1
 70
1
 71
1
 10
0.0
 20
0.0
 11
420.0
 21
297.0
 12
0.0
 22
0.0
 32
0.0
 14
1e+20
 24
1e+20
 34
1e+20
 15
-1e+20
 25
-1e+20
 35
-1e+20
146
0.0
 13
0.0
 23
0.0
 33
0.0
 16
1.0
 26
0.0
 36
0.0
 17
0.0
 27
1.0
 37
0.0
 76
1
330
1B
  0
MATERIAL
  5
1F
102
{ACAD_REACTORS
330
E
102
}
330
E
100
AcDbMaterial
  1
ByBlock
  2

 70
0
 40
1.0
 71
1
 41
1.0
 91
-1023410177
 42
1.0
 72
1
  3

 73
1
 74
1
 75
1
 44
0.5
 73
0
 45
1.0
 46
1.0
 77
1
  4

 78
1
 79
1
170
1
 48
1.0
171
1
  6

172
1
173
1
174
1
140
1.0
141
1.0
175
1
  7

176
1
177
1
178
1
143
1.0
179
1
  8

270
1
271
1
272
1
145
1.0
146
1.0
273
1
  9

274
1
275
1
276
1
 42
1.0
 72
1
  3

 73
1
 74
1
 75
1
 94
63
  0
MATERIAL
  5
20
102
{ACAD_REACTORS
330
E
102
}
330
E
100
AcDbMaterial
  1
ByLayer
  2

 70
0
 40
1.0
 71
1
 41
1.0
 91
-1023410177
 42
1.0
 72
1
  3

 73
1
 74
1
 75
1
 44
0.5
 73
0
 45
1.0
 46
1.0
 77
1
  4

 78
1
 79
1
170
1
 48
1.0
171
1
  6

172
1
173
1
174
1
140
1.0
141
1.0
175
1
  7

176
1
177
1
178
1
143
1.0
179
1
  8

270
1
271
1
272
1
145
1.0
146
1.0
273
1
  9

274
1
275
1
276
1
 42
1.0
 72
1
  3

 73
1
 74
1
 75
1
 94
63
  0
MATERIAL
  5
21
102
{ACAD_REACTORS
330
E
102
}
330
E
100
AcDbMaterial
  1
Global
  2

 70
0
 40
1.0
 71
1
 41
1.0
 91
-1023410177
 42
1.0
 72
1
  3

 73
1
 74
1
 75
1
 44
0.5
 73
0
 45
1.0
 46
1.0
 77
1
  4

 78
1
 79
1
170
1
 48
1.0
171
1
  6

172
1
173
1
174
1
140
1.0
141
1.0
175
1
  7

176
1
177
1
178
1
143
1.0
179
1
  8

270
1
271
1
272
1
145
1.0
146
1.0
273
1
  9

274
1
275
1
276
1
 42
1.0
 72
1
  3

 73
1
 74
1
 75
1
 94
63
  0
MLINESTYLE
  5
22
102
{ACAD_REACTORS
330
10
102
}
330
10
100
AcDbMlineStyle
  2
Standard
 70
0
  3

 62
256
 51
90.0
 52
90.0
 71
2
 49
0.5
 62
256
  6
BYLAYER
 49
-0.5
 62
256
  6
BYLAYER
  0
MLEADERSTYLE
  5
2C
102
{ACAD_REACTORS
330
F
102
}
330
F
100
AcDbMLeaderStyle
179
2
170
2
171
1
172
0
 90
2
 40
0.0
 41
0.0
173
1
 91
-1056964608
 92
-2
290
1
 42
2.0
291
1
 43
8.0
  3
Standard
 44
4.0
300

342
29
174
1
175
1
176
0
178
1
 93
-1056964608
 45
4.0
292
0
297
0
 46
4.0
 94
-1056964608
 47
1.0
 49
1.0
140
1.0
294
1
141
0.0
177
0
142
1.0
295
0
296
0
143
3.75
271
0
272
9
273
9
  0
DICTIONARY
  5
2D
330
A
100
AcDbDictionary
280
1
281
1
  3
CREATED_BY_EZDXF
350
2E
  3
WRITTEN_BY_EZDXF
350
232
  0
DICTIONARYVAR
  5
2E
330
2D
100
DictionaryVariables
280
0
  1
1.4.3 @ 2026-07-28T07:28:53.437720+00:00
  0
DICTIONARYVAR
  5
232
330
2D
100
DictionaryVariables
280
0
  1
1.4.3 @ 2026-07-28T07:28:53.443784+00:00
  0
ENDSEC
  0
EOF
