  0
SECTION
  2
HEADER
  9
$ACADVER
  1
AC1024
  9
$ACADMAINTVER
 70
6
  9
$DWGCODEPAGE
  3
ANSI_1252
  9
$LASTSAVEDBY
  1
ezdxf
  9
$INSBASE
 10
0.0
 20
0.0
 30
0.0
  9
$EXTMIN
 10
1e+20
 20
1e+20
 30
1e+20
  9
$EXTMAX
 10
-1e+20
 20
-1e+20
 30
-1e+20
  9
$LIMMIN
 10
0.0
 20
0.0
  9
$LIMMAX
 10
420.0
 20
297.0
  9
$ORTHOMODE
 70
0
  9
$REGENMODE
 70
1
  9
$FILLMODE
 70
1
  9
$QTEXTMODE
 70
0
  9
$MIRRTEXT
 70
1
  9
$LTSCALE
 40
1.0
  9
$ATTMODE
 70
1
  9
$TEXTSIZE
 40
2.5
  9
$TRACEWID
 40
1.0
  9
$TEXTSTYLE
  7
Standard
  9
$CLAYER
  8
0
  9
$CELTYPE
  6
ByLayer
  9
$CECOLOR
 62
256
  9
$CELTSCALE
 40
1.0
  9
$DISPSILH
 70
0
  9
$DIMSCALE
 40
1.0
  9
$DIMASZ
 40
2.5
  9
$DIMEXO
 40
0.625
  9
$DIMDLI
 40
3.75
  9
$DIMRND
 40
0.0
  9
$DIMDLE
 40
0.0
  9
$DIMEXE
 40
1.25
  9
$DIMTP
 40
0.0
  9
$DIMTM
 40
0.0
  9
$DIMTXT
 40
2.5
  9
$DIMCEN
 40
2.5
  9
$DIMTSZ
 40
0.0
  9
$DIMTOL
 70
0
  9
$DIMLIM
 70
0
  9
$DIMTIH
 70
0
  9
$DIMTOH
 70
0
  9
$DIMSE1
 70
0
  9
$DIMSE2
 70
0
  9
$DIMTAD
 70
1
  9
$DIMZIN
 70
8
  9
$DIMBLK
  1

  9
$DIMASO
 70
1
  9
$DIMSHO
 70
1
  9
$DIMPOST
  1

  9
$DIMAPOST
  1

  9
$DIMALT
 70
0
  9
$DIMALTD
 70
3
  9
$DIMALTF
 40
0.03937007874
  9
$DIMLFAC
 40
1.0
  9
$DIMTOFL
 70
1
  9
$DIMTVP
 40
0.0
  9
$DIMTIX
 70
0
  9
$DIMSOXD
 70
0
  9
$DIMSAH
 70
0
  9
$DIMBLK1
  1

  9
$DIMBLK2
  1

  9
$DIMSTYLE
  2
ISO-25
  9
$DIMCLRD
 70
0
  9
$DIMCLRE
 70
0
  9
$DIMCLRT
 70
0
  9
$DIMTFAC
 40
1.0
  9
$DIMGAP
 40
0.625
  9
$DIMJUST
 70
0
  9
$DIMSD1
 70
0
  9
$DIMSD2
 70
0
  9
$DIMTOLJ
 70
0
  9
$DIMTZIN
 70
8
  9
$DIMALTZ
 70
0
  9
$DIMALTTZ
 70
0
  9
$DIMUPT
 70
0
  9
$DIMDEC
 70
2
  9
$DIMTDEC
 70
2
  9
$DIMALTU
 70
2
  9
$DIMALTTD
 70
3
  9
$DIMTXSTY
  7
Standard
  9
$DIMAUNIT
 70
0
  9
$DIMADEC
 70
0
  9
$DIMALTRND
 40
0.0
  9
$DIMAZIN
 70
0
  9
$DIMDSEP
 70
44
  9
$DIMATFIT
 70
3
  9
$DIMFRAC
 70
0
  9
$DIMLDRBLK
  1

  9
$DIMLUNIT
 70
2
  9
$DIMLWD
 70
-2
  9
$DIMLWE
 70
-2
  9
$DIMTMOVE
 70
0
  9
$DIMFXL
 40
1.0
  9
$DIMFXLON
 70
0
  9
$DIMJOGANG
 40
0.785398163397
  9
$DIMTFILL
 70
0
  9
$DIMTFILLCLR
 70
0
  9
$DIMARCSYM
 70
0
  9
$DIMLTYPE
  6

  9
$DIMLTEX1
  6

  9
$DIMLTEX2
  6

  9
$DIMTXTDIRECTION
 70
0
  9
$LUNITS
 70
2
  9
$LUPREC
 70
4
  9
$SKETCHINC
 40
1.0
  9
$FILLETRAD
 40
10.0
  9
$AUNITS
 70
0
  9
$AUPREC
 70
2
  9
$MENU
  1
.
  9
$ELEVATION
 40
0.0
  9
$PELEVATION
 40
0.0
  9
$THICKNESS
 40
0.0
  9
$LIMCHECK
 70
0
  9
$CHAMFERA
 40
0.0
  9
$CHAMFERB
 40
0.0
  9
$CHAMFERC
 40
0.0
  9
$CHAMFERD
 40
0.0
  9
$SKPOLY
 70
0
  9
$TDCREATE
 40
2461250.3950578705
  9
$TDUCREATE
 40
2458532.153996898
  9
$TDUPDATE
 40
2461250.3950578705
  9
$TDUUPDATE
 40
2458532.1544311
  9
$TDINDWG
 40
0.0
  9
$TDUSRTIMER
 40
0.0
  9
$USRTIMER
 70
1
  9
$ANGBASE
 50
0.0
  9
$ANGDIR
 70
0
  9
$PDMODE
 70
0
  9
$PDSIZE
 40
0.0
  9
$PLINEWID
 40
0.0
  9
$SPLFRAME
 70
0
  9
$SPLINETYPE
 70
6
  9
$SPLINESEGS
 70
8
  9
$HANDSEED
  5
18C
  9
$SURFTAB1
 70
6
  9
$SURFTAB2
 70
6
  9
$SURFTYPE
 70
6
  9
$SURFU
 70
6
  9
$SURFV
 70
6
  9
$UCSBASE
  2

  9
$UCSNAME
  2

  9
$UCSORG
 10
0.0
 20
0.0
 30
0.0
  9
$UCSXDIR
 10
1.0
 20
0.0
 30
0.0
  9
$UCSYDIR
 10
0.0
 20
1.0
 30
0.0
  9
$UCSORTHOREF
  2

  9
$UCSORTHOVIEW
 70
0
  9
$UCSORGTOP
 10
0.0
 20
0.0
 30
0.0
  9
$UCSORGBOTTOM
 10
0.0
 20
0.0
 30
0.0
  9
$UCSORGLEFT
 10
0.0
 20
0.0
 30
0.0
  9
$UCSORGRIGHT
 10
0.0
 20
0.0
 30
0.0
  9
$UCSORGFRONT
 10
0.0
 20
0.0
 30
0.0
  9
$UCSORGBACK
 10
0.0
 20
0.0
 30
0.0
  9
$PUCSBASE
  2

  9
$PUCSNAME
  2

  9
$PUCSORG
 10
0.0
 20
0.0
 30
0.0
  9
$PUCSXDIR
 10
1.0
 20
0.0
 30
0.0
  9
$PUCSYDIR
 10
0.0
 20
1.0
 30
0.0
  9
$PUCSORTHOREF
  2

  9
$PUCSORTHOVIEW
 70
0
  9
$PUCSORGTOP
 10
0.0
 20
0.0
 30
0.0
  9
$PUCSORGBOTTOM
 10
0.0
 20
0.0
 30
0.0
  9
$PUCSORGLEFT
 10
0.0
 20
0.0
 30
0.0
  9
$PUCSORGRIGHT
 10
0.0
 20
0.0
 30
0.0
  9
$PUCSORGFRONT
 10
0.0
 20
0.0
 30
0.0
  9
$PUCSORGBACK
 10
0.0
 20
0.0
 30
0.0
  9
$USERI1
 70
0
  9
$USERI2
 70
0
  9
$USERI3
 70
0
  9
$USERI4
 70
0
  9
$USERI5
 70
0
  9
$USERR1
 40
0.0
  9
$USERR2
 40
0.0
  9
$USERR3
 40
0.0
  9
$USERR4
 40
0.0
  9
$USERR5
 40
0.0
  9
$WORLDVIEW
 70
1
  9
$SHADEDGE
 70
3
  9
$SHADEDIF
 70
70
  9
$TILEMODE
 70
1
  9
$MAXACTVP
 70
64
  9
$PINSBASE
 10
0.0
 20
0.0
 30
0.0
  9
$PLIMCHECK
 70
0
  9
$PEXTMIN
 10
1e+20
 20
1e+20
 30
1e+20
  9
$PEXTMAX
 10
-1e+20
 20
-1e+20
 30
-1e+20
  9
$PLIMMIN
 10
0.0
 20
0.0
  9
$PLIMMAX
 10
420.0
 20
297.0
  9
$UNITMODE
 70
0
  9
$VISRETAIN
 70
1
  9
$PLINEGEN
 70
0
  9
$PSLTSCALE
 70
1
  9
$TREEDEPTH
 70
3020
  9
$CMLSTYLE
  2
Standard
  9
$CMLJUST
 70
0
  9
$CMLSCALE
 40
20.0
  9
$PROXYGRAPHICS
 70
1
  9
$MEASUREMENT
 70
1
  9
$CELWEIGHT
370
-1
  9
$ENDCAPS
280
0
  9
$JOINSTYLE
280
0
  9
$LWDISPLAY
290
0
  9
$INSUNITS
 70
6
  9
$HYPERLINKBASE
  1

  9
$STYLESHEET
  1

  9
$XEDIT
290
1
  9
$CEPSNTYPE
380
0
  9
$PSTYLEMODE
290
1
  9
$FINGERPRINTGUID
  2
{4D422D50-C897-445D-81D8-92BA888998DF}
  9
$VERSIONGUID
  2
{EA814928-8FAE-43CB-BE95-32EEB48C6CC9}
  9
$EXTNAMES
290
1
  9
$PSVPSCALE
 40
0.0
  9
$OLESTARTUP
290
0
  9
$SORTENTS
280
127
  9
$INDEXCTL
280
0
  9
$HIDETEXT
280
1
  9
$XCLIPFRAME
280
1
  9
$HALOGAP
280
0
  9
$OBSCOLOR
 70
257
  9
$OBSLTYPE
280
0
  9
$INTERSECTIONDISPLAY
280
0
  9
$INTERSECTIONCOLOR
 70
257
  9
$DIMASSOC
280
2
  9
$PROJECTNAME
  1

  9
$CAMERADISPLAY
290
0
  9
$LENSLENGTH
 40
50.0
  9
$CAMERAHEIGHT
 40
0.0
  9
$STEPSPERSEC
 40
24.0
  9
$STEPSIZE
 40
100.0
  9
$3DDWFPREC
 40
2.0
  9
$PSOLWIDTH
 40
0.005
  9
$PSOLHEIGHT
 40
0.08
  9
$LOFTANG1
 40
1.570796326795
  9
$LOFTANG2
 40
1.570796326795
  9
$LOFTMAG1
 40
0.0
  9
$LOFTMAG2
 40
0.0
  9
$LOFTPARAM
 70
7
  9
$LOFTNORMALS
280
1
  9
$LATITUDE
 40
37.795
  9
$LONGITUDE
 40
-122.394
  9
$NORTHDIRECTION
 40
0.0
  9
$TIMEZONE
 70
-8000
  9
$LIGHTGLYPHDISPLAY
280
1
  9
$TILEMODELIGHTSYNCH
280
1
  9
$CMATERIAL
347
20
  9
$SOLIDHIST
280
0
  9
$SHOWHIST
280
1
  9
$DWFFRAME
280
2
  9
$DGNFRAME
280
2
  9
$REALWORLDSCALE
290
1
  9
$INTERFERECOLOR
 62
256
  9
$CSHADOW
280
0
  9
$SHADOWPLANELOCATION
 40
0.0
  0
ENDSEC
  0
SECTION
  2
CLASSES
  0
CLASS
  1
ACDBDICTIONARYWDFLT
  2
AcDbDictionaryWithDefault
  3
ObjectDBX Classes
 90
0
 91
0
280
0
281
0
  0
CLASS
  1
SUN
  2
AcDbSun
  3
SCENEOE
 90
1153
 91
0
280
0
281
0
  0
CLASS
  1
VISUALSTYLE
  2
AcDbVisualStyle
  3
ObjectDBX Classes
 90
4095
 91
0
280
0
281
0
  0
CLASS
  1
MATERIAL
  2
AcDbMaterial
  3
ObjectDBX Classes
 90
1153
 91
0
280
0
281
0
  0
CLASS
  1
SCALE
  2
AcDbScale
  3
ObjectDBX Classes
 90
1153
 91
0
280
0
281
0
  0
CLASS
  1
TABLESTYLE
  2
AcDbTableStyle
  3
ObjectDBX Classes
 90
4095
 91
0
280
0
281
0
  0
CLASS
  1
MLEADERSTYLE
  2
AcDbMLeaderStyle
  3
ACDB_MLEADERSTYLE_CLASS
 90
4095
 91
0
280
0
281
0
  0
CLASS
  1
DICTIONARYVAR
  2
AcDbDictionaryVar
  3
ObjectDBX Classes
 90
0
 91
0
280
0
281
0
  0
CLASS
  1
CELLSTYLEMAP
  2
AcDbCellStyleMap
  3
ObjectDBX Classes
 90
1152
 91
0
280
0
281
0
  0
CLASS
  1
MENTALRAYRENDERSETTINGS
  2
AcDbMentalRayRenderSettings
  3
SCENEOE
 90
1024
 91
0
280
0
281
0
  0
CLASS
  1
ACDBDETAILVIEWSTYLE
  2
AcDbDetailViewStyle
  3
ObjectDBX Classes
 90
1025
 91
0
280
0
281
0
  0
CLASS
  1
ACDBSECTIONVIEWSTYLE
  2
AcDbSectionViewStyle
  3
ObjectDBX Classes
 90
1025
 91
0
280
0
281
0
  0
CLASS
  1
RASTERVARIABLES
  2
AcDbRasterVariables
  3
ISM
 90
0
 91
0
280
0
281
0
  0
CLASS
  1
LAYOUT
  2
AcDbLayout
  3
ObjectDBX Classes
 90
0
 91
0
280
0
281
0
  0
CLASS
  1
ACDBPLACEHOLDER
  2
AcDbPlaceHolder
  3
ObjectDBX Classes
 90
0
 91
0
280
0
281
0
  0
ENDSEC
  0
SECTION
  2
TABLES
  0
TABLE
  2
VPORT
  5
8
330
0
100
AcDbSymbolTable
 70
1
  0
VPORT
  5
23
330
8
100
AcDbSymbolTableRecord
100
AcDbViewportTableRecord
  2
*Active
 70
0
 10
0.0
 20
0.0
 11
1.0
 21
1.0
 12
0.0
 22
0.0
 13
0.0
 23
0.0
 14
0.5
 24
0.5
 15
0.5
 25
0.5
 16
0.0
 26
0.0
 36
1.0
 17
0.0
 27
0.0
 37
0.0
 40
1000.0
 41
1.34
 42
50.0
 43
0.0
 44
0.0
 50
0.0
 51
0.0
 71
0
 72
1000
 73
1
 74
3
 75
0
 76
0
 77
0
 78
0
281
0
 65
0
146
0.0
  0
ENDTAB
  0
TABLE
  2
LTYPE
  5
2
330
0
100
AcDbSymbolTable
 70
3
  0
LTYPE
  5
24
330
2
100
AcDbSymbolTableRecord
100
AcDbLinetypeTableRecord
  2
ByBlock
 70
0
  3

 72
65
 73
0
 40
0.0
  0
LTYPE
  5
25
330
2
100
AcDbSymbolTableRecord
100
AcDbLinetypeTableRecord
  2
ByLayer
 70
0
  3

 72
65
 73
0
 40
0.0
  0
LTYPE
  5
26
330
2
100
AcDbSymbolTableRecord
100
AcDbLinetypeTableRecord
  2
Continuous
 70
0
  3

 72
65
 73
0
 40
0.0
  0
ENDTAB
  0
TABLE
  2
LAYER
  5
1
330
0
100
AcDbSymbolTable
 70
5
  0
LAYER
  5
27
330
1
100
AcDbSymbolTableRecord
100
AcDbLayerTableRecord
  2
0
 70
0
 62
7
  6
Continuous
370
-3
390
13
347
21
  0
LAYER
  5
28
330
1
100
AcDbSymbolTableRecord
100
AcDbLayerTableRecord
  2
Defpoints
 70
0
 62
7
  6
Continuous
290
0
370
-3
390
13
347
21
  0
LAYER
  5
186
330
1
100
AcDbSymbolTableRecord
100
AcDbLayerTableRecord
  2
keypoints
 70
0
 62
1
  6
Continuous
370
-3
390
13
347
21
  0
LAYER
  5
187
330
1
100
AcDbSymbolTableRecord
100
AcDbLayerTableRecord
  2
lines
 70
0
 62
2
  6
Continuous
370
-3
390
13
347
21
  0
LAYER
  5
188
330
1
100
AcDbSymbolTableRecord
100
AcDbLayerTableRecord
  2
mesh
 70
0
 62
5
  6
Continuous
370
-3
390
13
347
21
  0
ENDTAB
  0
TABLE
  2
STYLE
  5
5
330
0
100
AcDbSymbolTable
 70
1
  0
STYLE
  5
29
330
5
100
AcDbSymbolTableRecord
100
AcDbTextStyleTableRecord
  2
Standard
 70
0
 40
0.0
 41
1.0
 50
0.0
 71
0
 42
2.5
  3
txt
  4

  0
ENDTAB
  0
TABLE
  2
VIEW
  5
7
330
0
100
AcDbSymbolTable
 70
0
  0
ENDTAB
  0
TABLE
  2
UCS
  5
6
330
0
100
AcDbSymbolTable
 70
0
  0
ENDTAB
  0
TABLE
  2
APPID
  5
3
330
0
100
AcDbSymbolTable
 70
3
  0
APPID
  5
2A
330
3
100
AcDbSymbolTableRecord
100
AcDbRegAppTableRecord
  2
ACAD
 70
0
  0
APPID
  5
189
330
3
100
AcDbSymbolTableRecord
100
AcDbRegAppTableRecord
  2
HATCHBACKGROUNDCOLOR
 70
0
  0
APPID
  5
18A
330
3
100
AcDbSymbolTableRecord
100
AcDbRegAppTableRecord
  2
EZDXF
 70
0
  0
ENDTAB
  0
TABLE
  2
DIMSTYLE
  5
4
330
0
100
AcDbSymbolTable
 70
1
100
AcDbDimStyleTable
  0
DIMSTYLE
105
2B
330
4
100
AcDbSymbolTableRecord
100
AcDbDimStyleTableRecord
  2
Standard
 70
0
 40
1.0
 41
2.5
 42
0.625
 43
3.75
 44
1.25
 45
0.0
 46
0.0
 47
0.0
 48
0.0
 49
2.5
140
2.5
141
2.5
142
0.0
143
0.03937007874
144
1.0
145
0.0
146
1.0
147
0.625
148
0.0
 69
0
 70
0
 71
0
 72
0
 73
0
 74
0
 75
0
 76
0
 77
1
 78
8
 79
3
170
0
171
3
172
1
173
0
174
0
175
0
176
0
177
0
178
0
179
2
271
2
272
2
273
2
274
3
275
0
276
0
277
2
278
44
279
0
280
0
281
0
282
0
283
0
284
8
285
0
286
0
288
0
289
3
290
0
371
-2
372
-2
  0
ENDTAB
  0
TABLE
  2
BLOCK_RECORD
  5
9
330
0
100
AcDbSymbolTable
 70
2
  0
BLOCK_RECORD
  5
17
330
9
100
AcDbSymbolTableRecord
100
AcDbBlockTableRecord
  2
*Model_Space
340
1A
 70
0
280
1
281
0
  0
BLOCK_RECORD
  5
1B
330
9
100
AcDbSymbolTableRecord
100
AcDbBlockTableRecord
  2
*Paper_Space
340
1E
 70
0
280
1
281
0
  0
ENDTAB
  0
ENDSEC
  0
SECTION
  2
BLOCKS
  0
BLOCK
  5
18
330
17
100
AcDbEntity
  8
0
100
AcDbBlockBegin
  2
*Model_Space
 70
0
 10
0.0
 20
0.0
 30
0.0
  3
*Model_Space
  1

  0
ENDBLK
  5
19
330
17
100
AcDbEntity
  8
0
100
AcDbBlockEnd
  0
BLOCK
  5
1C
330
1B
100
AcDbEntity
  8
0
100
AcDbBlockBegin
  2
*Paper_Space
 70
0
 10
0.0
 20
0.0
 30
0.0
  3
*Paper_Space
  1

  0
ENDBLK
  5
1D
330
1B
100
AcDbEntity
  8
0
100
AcDbBlockEnd
  0
ENDSEC
  0
SECTION
  2
ENTITIES
  0
POINT
  5
2F
330
17
100
AcDbEntity
  8
0
100
AcDbPoint
 10
0.8123273878237787
 20
-3.6230941778461156
 30
3.8307627886941353
  0
CIRCLE
  5
30
330
17
100
AcDbEntity
  8
keypoints
100
AcDbCircle
 10
0.8123273878237787
 20
-3.6230941778461156
 30
3.8307627886941353
 40
0.05
  0
POINT
  5
31
330
17
100
AcDbEntity
  8
0
100
AcDbPoint
 10
-2.3172455513455223
 20
-0.7008932717563938
 30
3.8742372585663887
  0
CIRCLE
  5
32
330
17
100
AcDbEntity
  8
keypoints
100
AcDbCircle
 10
-2.3172455513455223
 20
-0.7008932717563938
 30
3.8742372585663887
 40
0.05
  0
POINT
  5
33
330
17
100
AcDbEntity
  8
0
100
AcDbPoint
 10
-2.035280997259416
 20
0.04008587292246513
 30
3.887384798402535
  0
CIRCLE
  5
34
330
17
100
AcDbEntity
  8
keypoints
100
AcDbCircle
 10
-2.035280997259416
 20
0.04008587292246513
 30
3.887384798402535
 40
0.05
  0
POINT
  5
35
330
17
100
AcDbEntity
  8
0
100
AcDbPoint
 10
-3.989074762543357
 20
-0.601531909843412
 30
3.845784033926619
  0
CIRCLE
  5
36
330
17
100
AcDbEntity
  8
keypoints
100
AcDbCircle
 10
-3.989074762543357
 20
-0.601531909843412
 30
3.845784033926619
 40
0.05
  0
POINT
  5
37
330
17
100
AcDbEntity
  8
0
100
AcDbPoint
 10
-5.137708408617717
 20
-0.17500748654248888
 30
3.8288492143008415
  0
CIRCLE
  5
38
330
17
100
AcDbEntity
  8
keypoints
100
AcDbCircle
 10
-5.137708408617717
 20
-0.17500748654248888
 30
3.8288492143008415
 40
0.05
  0
POINT
  5
39
330
17
100
AcDbEntity
  8
0
100
AcDbPoint
 10
0.22316095602140862
 20
5.204874042872265
 30
3.8695602915989795
  0
CIRCLE
  5
3A
330
17
100
AcDbEntity
  8
keypoints
100
AcDbCircle
 10
0.22316095602140862
 20
5.204874042872265
 30
3.8695602915989795
 40
0.05
  0
POINT
  5
3B
330
17
100
AcDbEntity
  8
0
100
AcDbPoint
 10
-2.483750258589039
 20
5.002708635233753
 30
3.8354327509682147
  0
CIRCLE
  5
3C
330
17
100
AcDbEntity
  8
keypoints
100
AcDbCircle
 10
-2.483750258589039
 20
5.002708635233753
 30
3.8354327509682147
 40
0.05
  0
POINT
  5
3D
330
17
100
AcDbEntity
  8
0
100
AcDbPoint
 10
2.7180905481918787
 20
-0.9685664840540487
 30
3.8214504991523155
  0
CIRCLE
  5
3E
330
17
100
AcDbEntity
  8
keypoints
100
AcDbCircle
 10
2.7180905481918787
 20
-0.9685664840540487
 30
3.8214504991523155
 40
0.05
  0
POINT
  5
3F
330
17
100
AcDbEntity
  8
0
100
AcDbPoint
 10
2.154783714130198
 20
-0.9253629005517354
 30
3.840870404805964
  0
CIRCLE
  5
40
330
17
100
AcDbEntity
  8
keypoints
100
AcDbCircle
 10
2.154783714130198
 20
-0.9253629005517354
 30
3.840870404805964
 40
0.05
  0
POINT
  5
41
330
17
100
AcDbEntity
  8
0
100
AcDbPoint
 10
-1.4776116578975522
 20
2.0106646216621713
 30
3.889140838744091
  0
CIRCLE
  5
42
330
17
100
AcDbEntity
  8
keypoints
100
AcDbCircle
 10
-1.4776116578975522
 20
2.0106646216621713
 30
3.889140838744091
 40
0.05
  0
POINT
  5
43
330
17
100
AcDbEntity
  8
0
100
AcDbPoint
 10
-1.7426152570180071
 20
2.184512806618919
 30
3.8425798926554826
  0
CIRCLE
  5
44
330
17
100
AcDbEntity
  8
keypoints
100
AcDbCircle
 10
-1.7426152570180071
 20
2.184512806618919
 30
3.8425798926554826
 40
0.05
  0
POINT
  5
45
330
17
100
AcDbEntity
  8
0
100
AcDbPoint
 10
-5.559521558087245
 20
2.6632317587289096
 30
3.868747181564327
  0
CIRCLE
  5
46
330
17
100
AcDbEntity
  8
keypoints
100
AcDbCircle
 10
-5.559521558087245
 20
2.6632317587289096
 30
3.868747181564327
 40
0.05
  0
POINT
  5
47
330
17
100
AcDbEntity
  8
0
100
AcDbPoint
 10
3.676959405574532
 20
2.3772586623115477
 30
3.8770770253479485
  0
CIRCLE
  5
48
330
17
100
AcDbEntity
  8
keypoints
100
AcDbCircle
 10
3.676959405574532
 20
2.3772586623115477
 30
3.8770770253479485
 40
0.05
  0
POINT
  5
49
330
17
100
AcDbEntity
  8
0
100
AcDbPoint
 10
0.2273784034685501
 20
-3.6066150869063573
 30
3.8767340353231012
  0
CIRCLE
  5
4A
330
17
100
AcDbEntity
  8
keypoints
100
AcDbCircle
 10
0.2273784034685501
 20
-3.6066150869063573
 30
3.8767340353231012
 40
0.05
  0
POINT
  5
4B
330
17
100
AcDbEntity
  8
0
100
AcDbPoint
 10
-1.6069259295516338
 20
-1.5870337041929103
 30
3.8864645156603417
  0
CIRCLE
  5
4C
330
17
100
AcDbEntity
  8
keypoints
100
AcDbCircle
 10
-1.6069259295516338
 20
-1.5870337041929103
 30
3.8864645156603417
 40
0.05
  0
POINT
  5
4D
330
17
100
AcDbEntity
  8
0
100
AcDbPoint
 10
-2.111630313167859
 20
-0.37560574293842586
 30
3.8539414006589703
  0
CIRCLE
  5
4E
330
17
100
AcDbEntity
  8
keypoints
100
AcDbCircle
 10
-2.111630313167859
 20
-0.37560574293842586
 30
3.8539414006589703
 40
0.05
  0
POINT
  5
4F
330
17
100
AcDbEntity
  8
0
100
AcDbPoint
 10
1.695406678511369
 20
5.3457156109462645
 30
3.7942113612276556
  0
CIRCLE
  5
50
330
17
100
AcDbEntity
  8
keypoints
100
AcDbCircle
 10
1.695406678511369
 20
5.3457156109462645
 30
3.7942113612276556
 40
0.05
  0
POINT
  5
51
330
17
100
AcDbEntity
  8
0
100
AcDbPoint
 10
-2.90404739815277
 20
-0.651918014007036
 30
3.8656760581974856
  0
CIRCLE
  5
52
330
17
100
AcDbEntity
  8
keypoints
100
AcDbCircle
 10
-2.90404739815277
 20
-0.651918014007036
 30
3.8656760581974856
 40
0.05
  0
POINT
  5
53
330
17
100
AcDbEntity
  8
0
100
AcDbPoint
 10
-5.262807279809244
 20
2.590281487871348
 30
3.827101447663011
  0
CIRCLE
  5
54
330
17
100
AcDbEntity
  8
keypoints
100
AcDbCircle
 10
-5.262807279809244
 20
2.590281487871348
 30
3.827101447663011
 40
0.05
  0
POINT
  5
55
330
17
100
AcDbEntity
  8
0
100
AcDbPoint
 10
2.187095546215306
 20
-0.723670467251021
 30
3.7930500406537466
  0
CIRCLE
  5
56
330
17
100
AcDbEntity
  8
keypoints
100
AcDbCircle
 10
2.187095546215306
 20
-0.723670467251021
 30
3.7930500406537466
 40
0.05
  0
POINT
  5
57
330
17
100
AcDbEntity
  8
0
100
AcDbPoint
 10
2.365090809283071
 20
4.942598514901655
 30
3.8827834432114527
  0
CIRCLE
  5
58
330
17
100
AcDbEntity
  8
keypoints
100
AcDbCircle
 10
2.365090809283071
 20
4.942598514901655
 30
3.8827834432114527
 40
0.05
  0
POINT
  5
59
330
17
100
AcDbEntity
  8
0
100
AcDbPoint
 10
-4.674333261826317
 20
4.99016567676091
 30
3.825715868518127
  0
CIRCLE
  5
5A
330
17
100
AcDbEntity
  8
keypoints
100
AcDbCircle
 10
-4.674333261826317
 20
4.99016567676091
 30
3.825715868518127
 40
0.05
  0
POINT
  5
5B
330
17
100
AcDbEntity
  8
0
100
AcDbPoint
 10
3.553094414040409
 20
1.3651890717103
 30
3.8204389874129543
  0
CIRCLE
  5
5C
330
17
100
AcDbEntity
  8
keypoints
100
AcDbCircle
 10
3.553094414040409
 20
1.3651890717103
 30
3.8204389874129543
 40
0.05
  0
POINT
  5
5D
330
17
100
AcDbEntity
  8
0
100
AcDbPoint
 10
2.684274131974759
 20
0.04796276619723483
 30
3.818157868008512
  0
CIRCLE
  5
5E
330
17
100
AcDbEntity
  8
keypoints
100
AcDbCircle
 10
2.684274131974759
 20
0.04796276619723483
 30
3.818157868008512
 40
0.05
  0
POINT
  5
5F
330
17
100
AcDbEntity
  8
0
100
AcDbPoint
 10
-1.4029994023242007
 20
-1.2590676612170537
 30
3.8530661085372326
  0
CIRCLE
  5
60
330
17
100
AcDbEntity
  8
keypoints
100
AcDbCircle
 10
-1.4029994023242007
 20
-1.2590676612170537
 30
3.8530661085372326
 40
0.05
  0
POINT
  5
61
330
17
100
AcDbEntity
  8
0
100
AcDbPoint
 10
-5.089114719717695
 20
0.5459358407912482
 30
3.849257077926123
  0
CIRCLE
  5
62
330
17
100
AcDbEntity
  8
keypoints
100
AcDbCircle
 10
-5.089114719717695
 20
0.5459358407912482
 30
3.849257077926123
 40
0.05
  0
POINT
  5
63
330
17
100
AcDbEntity
  8
0
100
AcDbPoint
 10
-5.865309640551681
 20
2.376291952438023
 30
3.856946539721148
  0
CIRCLE
  5
64
330
17
100
AcDbEntity
  8
keypoints
100
AcDbCircle
 10
-5.865309640551681
 20
2.376291952438023
 30
3.856946539721148
 40
0.05
  0
POINT
  5
65
330
17
100
AcDbEntity
  8
0
100
AcDbPoint
 10
4.282497952895848
 20
5.128259971647645
 30
3.830316313116752
  0
CIRCLE
  5
66
330
17
100
AcDbEntity
  8
keypoints
100
AcDbCircle
 10
4.282497952895848
 20
5.128259971647645
 30
3.830316313116752
 40
0.05
  0
POINT
  5
67
330
17
100
AcDbEntity
  8
0
100
AcDbPoint
 10
-0.7629479825098442
 20
3.3054177808748335
 30
3.8395551933613987
  0
CIRCLE
  5
68
330
17
100
AcDbEntity
  8
keypoints
100
AcDbCircle
 10
-0.7629479825098442
 20
3.3054177808748335
 30
3.8395551933613987
 40
0.05
  0
POINT
  5
69
330
17
100
AcDbEntity
  8
0
100
AcDbPoint
 10
4.161927848008721
 20
1.335092447443297
 30
3.8308759413420175
  0
CIRCLE
  5
6A
330
17
100
AcDbEntity
  8
keypoints
100
AcDbCircle
 10
4.161927848008721
 20
1.335092447443297
 30
3.8308759413420175
 40
0.05
  0
POINT
  5
6B
330
17
100
AcDbEntity
  8
0
100
AcDbPoint
 10
-1.7294509485143679
 20
0.7978478587080484
 30
3.8843613669782506
  0
CIRCLE
  5
6C
330
17
100
AcDbEntity
  8
keypoints
100
AcDbCircle
 10
-1.7294509485143679
 20
0.7978478587080484
 30
3.8843613669782506
 40
0.05
  0
POINT
  5
6D
330
17
100
AcDbEntity
  8
0
100
AcDbPoint
 10
3.4418895021900937
 20
2.075731343719892
 30
3.8643120900113686
  0
CIRCLE
  5
6E
330
17
100
AcDbEntity
  8
keypoints
100
AcDbCircle
 10
3.4418895021900937
 20
2.075731343719892
 30
3.8643120900113686
 40
0.05
  0
POINT
  5
6F
330
17
100
AcDbEntity
  8
0
100
AcDbPoint
 10
2.6185244881273064
 20
2.5829450782228562
 30
3.8481003603621993
  0
CIRCLE
  5
70
330
17
100
AcDbEntity
  8
keypoints
100
AcDbCircle
 10
2.6185244881273064
 20
2.5829450782228562
 30
3.8481003603621993
 40
0.05
  0
POINT
  5
71
330
17
100
AcDbEntity
  8
0
100
AcDbPoint
 10
0.8241878551324624
 20
-3.6246287849419403
 30
3.811152839526298
  0
CIRCLE
  5
72
330
17
100
AcDbEntity
  8
keypoints
100
AcDbCircle
 10
0.8241878551324624
 20
-3.6246287849419403
 30
3.811152839526298
 40
0.05
  0
POINT
  5
73
330
17
100
AcDbEntity
  8
0
100
AcDbPoint
 10
0.0882554974244894
 20
-3.5765771899584093
 30
3.891419152242705
  0
CIRCLE
  5
74
330
17
100
AcDbEntity
  8
keypoints
100
AcDbCircle
 10
0.0882554974244894
 20
-3.5765771899584093
 30
3.891419152242705
 40
0.05
  0
POINT
  5
75
330
17
100
AcDbEntity
  8
0
100
AcDbPoint
 10
-0.4610570683101928
 20
-3.4634431800348455
 30
3.8723580707791414
  0
CIRCLE
  5
76
330
17
100
AcDbEntity
  8
keypoints
100
AcDbCircle
 10
-0.4610570683101928
 20
-3.4634431800348455
 30
3.8723580707791414
 40
0.05
  0
POINT
  5
77
330
17
100
AcDbEntity
  8
0
100
AcDbPoint
 10
-2.8116765506175367
 20
5.022381599690692
 30
3.889456947974863
  0
CIRCLE
  5
78
330
17
100
AcDbEntity
  8
keypoints
100
AcDbCircle
 10
-2.8116765506175367
 20
5.022381599690692
 30
3.889456947974863
 40
0.05
  0
POINT
  5
79
330
17
100
AcDbEntity
  8
0
100
AcDbPoint
 10
-1.5196826613757124
 20
-1.4712031143766888
 30
3.8104424982474945
  0
CIRCLE
  5
7A
330
17
100
AcDbEntity
  8
keypoints
100
AcDbCircle
 10
-1.5196826613757124
 20
-1.4712031143766888
 30
3.8104424982474945
 40
0.05
  0
POINT
  5
7B
330
17
100
AcDbEntity
  8
0
100
AcDbPoint
 10
4.3230973918234845
 20
1.336388130071024
 30
3.8880482681135726
  0
CIRCLE
  5
7C
330
17
100
AcDbEntity
  8
keypoints
100
AcDbCircle
 10
4.3230973918234845
 20
1.336388130071024
 30
3.8880482681135726
 40
0.05
  0
POINT
  5
7D
330
17
100
AcDbEntity
  8
0
100
AcDbPoint
 10
-1.2843844875903145
 20
-0.21256209497649703
 30
3.8872909254941197
  0
CIRCLE
  5
7E
330
17
100
AcDbEntity
  8
keypoints
100
AcDbCircle
 10
-1.2843844875903145
 20
-0.21256209497649703
 30
3.8872909254941197
 40
0.05
  0
POINT
  5
7F
330
17
100
AcDbEntity
  8
0
100
AcDbPoint
 10
2.261936435981891
 20
-0.3794973687711034
 30
3.84616389687163
  0
CIRCLE
  5
80
330
17
100
AcDbEntity
  8
keypoints
100
AcDbCircle
 10
2.261936435981891
 20
-0.3794973687711034
 30
3.84616389687163
 40
0.05
  0
POINT
  5
81
330
17
100
AcDbEntity
  8
0
100
AcDbPoint
 10
-5.5616257693154285
 20
2.636148950379874
 30
3.8682891620467954
  0
CIRCLE
  5
82
330
17
100
AcDbEntity
  8
keypoints
100
AcDbCircle
 10
-5.5616257693154285
 20
2.636148950379874
 30
3.8682891620467954
 40
0.05
  0
POINT
  5
83
330
17
100
AcDbEntity
  8
0
100
AcDbPoint
 10
-1.2493317634371155
 20
0.1610010948539422
 30
3.8465686255426537
  0
CIRCLE
  5
84
330
17
100
AcDbEntity
  8
keypoints
100
AcDbCircle
 10
-1.2493317634371155
 20
0.1610010948539422
 30
3.8465686255426537
 40
0.05
  0
POINT
  5
85
330
17
100
AcDbEntity
  8
0
100
AcDbPoint
 10
0.5140206411811972
 20
5.205500715036347
 30
3.791813863540201
  0
CIRCLE
  5
86
330
17
100
AcDbEntity
  8
keypoints
100
AcDbCircle
 10
0.5140206411811972
 20
5.205500715036347
 30
3.791813863540201
 40
0.05
  0
POINT
  5
87
330
17
100
AcDbEntity
  8
0
100
AcDbPoint
 10
4.651188604101114
 20
6.873613719695211
 30
3.8210586474403367
  0
CIRCLE
  5
88
330
17
100
AcDbEntity
  8
keypoints
100
AcDbCircle
 10
4.651188604101114
 20
6.873613719695211
 30
3.8210586474403367
 40
0.05
  0
POINT
  5
89
330
17
100
AcDbEntity
  8
0
100
AcDbPoint
 10
2.7927822178252284
 20
-0.04318532775106099
 30
3.8363860687005564
  0
CIRCLE
  5
8A
330
17
100
AcDbEntity
  8
keypoints
100
AcDbCircle
 10
2.7927822178252284
 20
-0.04318532775106099
 30
3.8363860687005564
 40
0.05
  0
POINT
  5
8B
330
17
100
AcDbEntity
  8
0
100
AcDbPoint
 10
1.9343435436476069
 20
5.306551261630353
 30
3.815606176926644
  0
CIRCLE
  5
8C
330
17
100
AcDbEntity
  8
keypoints
100
AcDbCircle
 10
1.9343435436476069
 20
5.306551261630353
 30
3.815606176926644
 40
0.05
  0
POINT
  5
8D
330
17
100
AcDbEntity
  8
0
100
AcDbPoint
 10
-1.8084243864158087
 20
4.844304915526969
 30
3.871811536385011
  0
CIRCLE
  5
8E
330
17
100
AcDbEntity
  8
keypoints
100
AcDbCircle
 10
-1.8084243864158087
 20
4.844304915526969
 30
3.871811536385011
 40
0.05
  0
POINT
  5
8F
330
17
100
AcDbEntity
  8
0
100
AcDbPoint
 10
2.811085990620402
 20
4.5170155924786775
 30
3.8238887289456605
  0
CIRCLE
  5
90
330
17
100
AcDbEntity
  8
keypoints
100
AcDbCircle
 10
2.811085990620402
 20
4.5170155924786775
 30
3.8238887289456605
 40
0.05
  0
POINT
  5
91
330
17
100
AcDbEntity
  8
0
100
AcDbPoint
 10
2.8314229669841477
 20
-0.7723930883897878
 30
3.862965670322455
  0
CIRCLE
  5
92
330
17
100
AcDbEntity
  8
keypoints
100
AcDbCircle
 10
2.8314229669841477
 20
-0.7723930883897878
 30
3.862965670322455
 40
0.05
  0
POINT
  5
93
330
17
100
AcDbEntity
  8
0
100
AcDbPoint
 10
-0.7515093803072297
 20
-3.407711301001771
 30
3.8148422810460705
  0
CIRCLE
  5
94
330
17
100
AcDbEntity
  8
keypoints
100
AcDbCircle
 10
-0.7515093803072297
 20
-3.407711301001771
 30
3.8148422810460705
 40
0.05
  0
POINT
  5
95
330
17
100
AcDbEntity
  8
0
100
AcDbPoint
 10
4.178398665751434
 20
4.67400413426711
 30
3.867363678990514
  0
CIRCLE
  5
96
330
17
100
AcDbEntity
  8
keypoints
100
AcDbCircle
 10
4.178398665751434
 20
4.67400413426711
 30
3.867363678990514
 40
0.05
  0
POINT
  5
97
330
17
100
AcDbEntity
  8
0
100
AcDbPoint
 10
-0.32430078330474255
 20
4.974808719149887
 30
3.822836888575793
  0
CIRCLE
  5
98
330
17
100
AcDbEntity
  8
keypoints
100
AcDbCircle
 10
-0.32430078330474255
 20
4.974808719149887
 30
3.822836888575793
 40
0.05
  0
POINT
  5
99
330
17
100
AcDbEntity
  8
0
100
AcDbPoint
 10
-1.6954287564932657
 20
3.316505456670024
 30
3.861423293869051
  0
CIRCLE
  5
9A
330
17
100
AcDbEntity
  8
keypoints
100
AcDbCircle
 10
-1.6954287564932657
 20
3.316505456670024
 30
3.861423293869051
 40
0.05
  0
POINT
  5
9B
330
17
100
AcDbEntity
  8
0
100
AcDbPoint
 10
-5.659654449409249
 20
1.1798496707095825
 30
3.799027237554745
  0
CIRCLE
  5
9C
330
17
100
AcDbEntity
  8
keypoints
100
AcDbCircle
 10
-5.659654449409249
 20
1.1798496707095825
 30
3.799027237554745
 40
0.05
  0
POINT
  5
9D
330
17
100
AcDbEntity
  8
0
100
AcDbPoint
 10
1.3909580361898148
 20
5.388774670965114
 30
3.8349188394961975
  0
CIRCLE
  5
9E
330
17
100
AcDbEntity
  8
keypoints
100
AcDbCircle
 10
1.3909580361898148
 20
5.388774670965114
 30
3.8349188394961975
 40
0.05
  0
POINT
  5
9F
330
17
100
AcDbEntity
  8
0
100
AcDbPoint
 10
-4.833821333614085
 20
2.882244843169202
 30
3.8616979944705374
  0
CIRCLE
  5
A0
330
17
100
AcDbEntity
  8
keypoints
100
AcDbCircle
 10
-4.833821333614085
 20
2.882244843169202
 30
3.8616979944705374
 40
0.05
  0
POINT
  5
A1
330
17
100
AcDbEntity
  8
0
100
AcDbPoint
 10
-4.833363234476268
 20
3.0308738649009674
 30
3.8450024858619463
  0
CIRCLE
  5
A2
330
17
100
AcDbEntity
  8
keypoints
100
AcDbCircle
 10
-4.833363234476268
 20
3.0308738649009674
 30
3.8450024858619463
 40
0.05
  0
POINT
  5
A3
330
17
100
AcDbEntity
  8
0
100
AcDbPoint
 10
-3.695333416518396
 20
5.046605847848367
 30
3.8532971841778267
  0
CIRCLE
  5
A4
330
17
100
AcDbEntity
  8
keypoints
100
AcDbCircle
 10
-3.695333416518396
 20
5.046605847848367
 30
3.8532971841778267
 40
0.05
  0
POINT
  5
A5
330
17
100
AcDbEntity
  8
0
100
AcDbPoint
 10
-4.10700157694749
 20
5.053382490666613
 30
3.8072706900724866
  0
CIRCLE
  5
A6
330
17
100
AcDbEntity
  8
keypoints
100
AcDbCircle
 10
-4.10700157694749
 20
5.053382490666613
 30
3.8072706900724866
 40
0.05
  0
POINT
  5
A7
330
17
100
AcDbEntity
  8
0
100
AcDbPoint
 10
-4.262566097216554
 20
5.0298056616474245
 30
3.8406716853457774
  0
CIRCLE
  5
A8
330
17
100
AcDbEntity
  8
keypoints
100
AcDbCircle
 10
-4.262566097216554
 20
5.0298056616474245
 30
3.8406716853457774
 40
0.05
  0
POINT
  5
A9
330
17
100
AcDbEntity
  8
0
100
AcDbPoint
 10
2.9501597956485943
 20
1.2364410814573157
 30
3.8775667647581007
  0
CIRCLE
  5
AA
330
17
100
AcDbEntity
  8
keypoints
100
AcDbCircle
 10
2.9501597956485943
 20
1.2364410814573157
 30
3.8775667647581007
 40
0.05
  0
POINT
  5
AB
330
17
100
AcDbEntity
  8
0
100
AcDbPoint
 10
2.1725185945485643
 20
-0.9266255447488587
 30
3.8400735283615837
  0
CIRCLE
  5
AC
330
17
100
AcDbEntity
  8
keypoints
100
AcDbCircle
 10
2.1725185945485643
 20
-0.9266255447488587
 30
3.8400735283615837
 40
0.05
  0
POINT
  5
AD
330
17
100
AcDbEntity
  8
0
100
AcDbPoint
 10
4.518549306834491
 20
6.161468900886084
 30
3.83407241834533
  0
CIRCLE
  5
AE
330
17
100
AcDbEntity
  8
keypoints
100
AcDbCircle
 10
4.518549306834491
 20
6.161468900886084
 30
3.83407241834533
 40
0.05
  0
POINT
  5
AF
330
17
100
AcDbEntity
  8
0
100
AcDbPoint
 10
-1.6110504581430254
 20
-2.2738208158976505
 30
3.7967762501073166
  0
CIRCLE
  5
B0
330
17
100
AcDbEntity
  8
keypoints
100
AcDbCircle
 10
-1.6110504581430254
 20
-2.2738208158976505
 30
3.7967762501073166
 40
0.05
  0
POINT
  5
B1
330
17
100
AcDbEntity
  8
0
100
AcDbPoint
 10
3.247011077084558
 20
1.5260291633272833
 30
3.852724734197346
  0
CIRCLE
  5
B2
330
17
100
AcDbEntity
  8
keypoints
100
AcDbCircle
 10
3.247011077084558
 20
1.5260291633272833
 30
3.852724734197346
 40
0.05
  0
POINT
  5
B3
330
17
100
AcDbEntity
  8
0
100
AcDbPoint
 10
4.453709313293803
 20
5.974290315650964
 30
3.8538891921737437
  0
CIRCLE
  5
B4
330
17
100
AcDbEntity
  8
keypoints
100
AcDbCircle
 10
4.453709313293803
 20
5.974290315650964
 30
3.8538891921737437
 40
0.05
  0
POINT
  5
B5
330
17
100
AcDbEntity
  8
0
100
AcDbPoint
 10
2.384973007234267
 20
-1.2835097856741162
 30
3.7948237667959575
  0
CIRCLE
  5
B6
330
17
100
AcDbEntity
  8
keypoints
100
AcDbCircle
 10
2.384973007234267
 20
-1.2835097856741162
 30
3.7948237667959575
 40
0.05
  0
POINT
  5
B7
330
17
100
AcDbEntity
  8
0
100
AcDbPoint
 10
-1.7784125988192456
 20
2.3210130635314856
 30
3.797226975988453
  0
CIRCLE
  5
B8
330
17
100
AcDbEntity
  8
keypoints
100
AcDbCircle
 10
-1.7784125988192456
 20
2.3210130635314856
 30
3.797226975988453
 40
0.05
  0
POINT
  5
B9
330
17
100
AcDbEntity
  8
0
100
AcDbPoint
 10
0.23675924033741963
 20
-3.613864657423334
 30
3.8424173754498705
  0
CIRCLE
  5
BA
330
17
100
AcDbEntity
  8
keypoints
100
AcDbCircle
 10
0.23675924033741963
 20
-3.613864657423334
 30
3.8424173754498705
 40
0.05
  0
POINT
  5
BB
330
17
100
AcDbEntity
  8
0
100
AcDbPoint
 10
-0.25835982106280486
 20
-3.52096214380101
 30
3.82802280323992
  0
CIRCLE
  5
BC
330
17
100
AcDbEntity
  8
keypoints
100
AcDbCircle
 10
-0.25835982106280486
 20
-3.52096214380101
 30
3.82802280323992
 40
0.05
  0
POINT
  5
BD
330
17
100
AcDbEntity
  8
0
100
AcDbPoint
 10
-1.7987530132665133
 20
2.7741984758269327
 30
3.7965932883490665
  0
CIRCLE
  5
BE
330
17
100
AcDbEntity
  8
keypoints
100
AcDbCircle
 10
-1.7987530132665133
 20
2.7741984758269327
 30
3.7965932883490665
 40
0.05
  0
POINT
  5
BF
330
17
100
AcDbEntity
  8
0
100
AcDbPoint
 10
4.314728670034042
 20
1.3225179759471652
 30
3.8904808450598876
  0
CIRCLE
  5
C0
330
17
100
AcDbEntity
  8
keypoints
100
AcDbCircle
 10
4.314728670034042
 20
1.3225179759471652
 30
3.8904808450598876
 40
0.05
  0
POINT
  5
C1
330
17
100
AcDbEntity
  8
0
100
AcDbPoint
 10
-2.660339800798744
 20
-0.6571588830077151
 30
3.8293022432838333
  0
CIRCLE
  5
C2
330
17
100
AcDbEntity
  8
keypoints
100
AcDbCircle
 10
-2.660339800798744
 20
-0.6571588830077151
 30
3.8293022432838333
 40
0.05
  0
POINT
  5
C3
330
17
100
AcDbEntity
  8
0
100
AcDbPoint
 10
2.591135477695834
 20
2.075359936252083
 30
3.8871147664684376
  0
CIRCLE
  5
C4
330
17
100
AcDbEntity
  8
keypoints
100
AcDbCircle
 10
2.591135477695834
 20
2.075359936252083
 30
3.8871147664684376
 40
0.05
  0
POINT
  5
C5
330
17
100
AcDbEntity
  8
0
100
AcDbPoint
 10
-4.66263084300939
 20
-0.41120143020998623
 30
3.867181369929169
  0
CIRCLE
  5
C6
330
17
100
AcDbEntity
  8
keypoints
100
AcDbCircle
 10
-4.66263084300939
 20
-0.41120143020998623
 30
3.867181369929169
 40
0.05
  0
POINT
  5
C7
330
17
100
AcDbEntity
  8
0
100
AcDbPoint
 10
4.113179680361151
 20
4.272491726897838
 30
3.861524455805343
  0
CIRCLE
  5
C8
330
17
100
AcDbEntity
  8
keypoints
100
AcDbCircle
 10
4.113179680361151
 20
4.272491726897838
 30
3.861524455805343
 40
0.05
  0
POINT
  5
C9
330
17
100
AcDbEntity
  8
0
100
AcDbPoint
 10
-2.1592467963204642
 20
4.921806684603233
 30
3.8080609020034193
  0
CIRCLE
  5
CA
330
17
100
AcDbEntity
  8
keypoints
100
AcDbCircle
 10
-2.1592467963204642
 20
4.921806684603233
 30
3.8080609020034193
 40
0.05
  0
POINT
  5
CB
330
17
100
AcDbEntity
  8
0
100
AcDbPoint
 10
4.035020528194891
 20
3.927583854251492
 30
3.856835668086177
  0
CIRCLE
  5
CC
330
17
100
AcDbEntity
  8
keypoints
100
AcDbCircle
 10
4.035020528194891
 20
3.927583854251492
 30
3.856835668086177
 40
0.05
  0
POINT
  5
CD
330
17
100
AcDbEntity
  8
0
100
AcDbPoint
 10
-5.925135858042298
 20
1.3748022226454988
 30
3.843884405519404
  0
CIRCLE
  5
CE
330
17
100
AcDbEntity
  8
keypoints
100
AcDbCircle
 10
-5.925135858042298
 20
1.3748022226454988
 30
3.843884405519404
 40
0.05
  0
POINT
  5
CF
330
17
100
AcDbEntity
  8
0
100
AcDbPoint
 10
-5.132745746869212
 20
0.2856500082846207
 30
3.810554553764482
  0
CIRCLE
  5
D0
330
17
100
AcDbEntity
  8
keypoints
100
AcDbCircle
 10
-5.132745746869212
 20
0.2856500082846207
 30
3.810554553764482
 40
0.05
  0
POINT
  5
D1
330
17
100
AcDbEntity
  8
0
100
AcDbPoint
 10
2.699043578901023
 20
4.671870786996299
 30
3.864071649736314
  0
CIRCLE
  5
D2
330
17
100
AcDbEntity
  8
keypoints
100
AcDbCircle
 10
2.699043578901023
 20
4.671870786996299
 30
3.864071649736314
 40
0.05
  0
POINT
  5
D3
330
17
100
AcDbEntity
  8
0
100
AcDbPoint
 10
3.7394162421015724
 20
2.7297719084699317
 30
3.8880336665882247
  0
CIRCLE
  5
D4
330
17
100
AcDbEntity
  8
keypoints
100
AcDbCircle
 10
3.7394162421015724
 20
2.7297719084699317
 30
3.8880336665882247
 40
0.05
  0
POINT
  5
D5
330
17
100
AcDbEntity
  8
0
100
AcDbPoint
 10
-3.1603934387060937
 20
5.017130705865866
 30
3.827215549095654
  0
CIRCLE
  5
D6
330
17
100
AcDbEntity
  8
keypoints
100
AcDbCircle
 10
-3.1603934387060937
 20
5.017130705865866
 30
3.827215549095654
 40
0.05
  0
POINT
  5
D7
330
17
100
AcDbEntity
  8
0
100
AcDbPoint
 10
-1.3632287243820458
 20
-1.0846126332429187
 30
3.8673631851671693
  0
CIRCLE
  5
D8
330
17
100
AcDbEntity
  8
keypoints
100
AcDbCircle
 10
-1.3632287243820458
 20
-1.0846126332429187
 30
3.8673631851671693
 40
0.05
  0
POINT
  5
D9
330
17
100
AcDbEntity
  8
0
100
AcDbPoint
 10
-4.90048806104429
 20
2.722388168846899
 30
3.841479326806393
  0
CIRCLE
  5
DA
330
17
100
AcDbEntity
  8
keypoints
100
AcDbCircle
 10
-4.90048806104429
 20
2.722388168846899
 30
3.841479326806393
 40
0.05
  0
POINT
  5
DB
330
17
100
AcDbEntity
  8
0
100
AcDbPoint
 10
-3.410923985382806
 20
-0.6236117833105272
 30
3.8560229585825394
  0
CIRCLE
  5
DC
330
17
100
AcDbEntity
  8
keypoints
100
AcDbCircle
 10
-3.410923985382806
 20
-0.6236117833105272
 30
3.8560229585825394
 40
0.05
  0
POINT
  5
DD
330
17
100
AcDbEntity
  8
0
100
AcDbPoint
 10
2.5803326338920316
 20
-1.2206149490887557
 30
3.8472445300150664
  0
CIRCLE
  5
DE
330
17
100
AcDbEntity
  8
keypoints
100
AcDbCircle
 10
2.5803326338920316
 20
-1.2206149490887557
 30
3.8472445300150664
 40
0.05
  0
POINT
  5
DF
330
17
100
AcDbEntity
  8
0
100
AcDbPoint
 10
0.7486380667587487
 20
-3.423980594221966
 30
3.815581400836316
  0
CIRCLE
  5
E0
330
17
100
AcDbEntity
  8
keypoints
100
AcDbCircle
 10
0.7486380667587487
 20
-3.423980594221966
 30
3.815581400836316
 40
0.05
  0
POINT
  5
E1
330
17
100
AcDbEntity
  8
0
100
AcDbPoint
 10
-1.294093037009532
 20
-0.02253295938434241
 30
3.834751499693377
  0
CIRCLE
  5
E2
330
17
100
AcDbEntity
  8
keypoints
100
AcDbCircle
 10
-1.294093037009532
 20
-0.02253295938434241
 30
3.834751499693377
 40
0.05
  0
POINT
  5
E3
330
17
100
AcDbEntity
  8
0
100
AcDbPoint
 10
4.734269279387545
 20
7.234066641428635
 30
3.868749103438046
  0
CIRCLE
  5
E4
330
17
100
AcDbEntity
  8
keypoints
100
AcDbCircle
 10
4.734269279387545
 20
7.234066641428635
 30
3.868749103438046
 40
0.05
  0
POINT
  5
E5
330
17
100
AcDbEntity
  8
0
100
AcDbPoint
 10
-1.0755139716736626
 20
-0.8241483553895608
 30
3.831915081378277
  0
CIRCLE
  5
E6
330
17
100
AcDbEntity
  8
keypoints
100
AcDbCircle
 10
-1.0755139716736626
 20
-0.8241483553895608
 30
3.831915081378277
 40
0.05
  0
POINT
  5
E7
330
17
100
AcDbEntity
  8
0
100
AcDbPoint
 10
-1.5730760916530475
 20
-1.7235559709306842
 30
3.8542978040194456
  0
CIRCLE
  5
E8
330
17
100
AcDbEntity
  8
keypoints
100
AcDbCircle
 10
-1.5730760916530475
 20
-1.7235559709306842
 30
3.8542978040194456
 40
0.05
  0
POINT
  5
E9
330
17
100
AcDbEntity
  8
0
100
AcDbPoint
 10
-3.7611860741574015
 20
-0.5736424723974827
 30
3.844014081484236
  0
CIRCLE
  5
EA
330
17
100
AcDbEntity
  8
keypoints
100
AcDbCircle
 10
-3.7611860741574015
 20
-0.5736424723974827
 30
3.844014081484236
 40
0.05
  0
POINT
  5
EB
330
17
100
AcDbEntity
  8
0
100
AcDbPoint
 10
2.1224394960058555
 20
5.20791200104301
 30
3.8079919796760473
  0
CIRCLE
  5
EC
330
17
100
AcDbEntity
  8
keypoints
100
AcDbCircle
 10
2.1224394960058555
 20
5.20791200104301
 30
3.8079919796760473
 40
0.05
  0
POINT
  5
ED
330
17
100
AcDbEntity
  8
0
100
AcDbPoint
 10
-4.849126069165815
 20
3.67800538159554
 30
3.8031504499721054
  0
CIRCLE
  5
EE
330
17
100
AcDbEntity
  8
keypoints
100
AcDbCircle
 10
-4.849126069165815
 20
3.67800538159554
 30
3.8031504499721054
 40
0.05
  0
POINT
  5
EF
330
17
100
AcDbEntity
  8
0
100
AcDbPoint
 10
-0.6490928564307965
 20
3.776531114553353
 30
3.798205248912187
  0
CIRCLE
  5
F0
330
17
100
AcDbEntity
  8
keypoints
100
AcDbCircle
 10
-0.6490928564307965
 20
3.776531114553353
 30
3.798205248912187
 40
0.05
  0
POINT
  5
F1
330
17
100
AcDbEntity
  8
0
100
AcDbPoint
 10
-1.4123586293519743
 20
0.8846844784046808
 30
3.888050085921951
  0
CIRCLE
  5
F2
330
17
100
AcDbEntity
  8
keypoints
100
AcDbCircle
 10
-1.4123586293519743
 20
0.8846844784046808
 30
3.888050085921951
 40
0.05
  0
POINT
  5
F3
330
17
100
AcDbEntity
  8
0
100
AcDbPoint
 10
3.969834353091562
 20
3.6963295576557034
 30
3.86721480595935
  0
CIRCLE
  5
F4
330
17
100
AcDbEntity
  8
keypoints
100
AcDbCircle
 10
3.969834353091562
 20
3.6963295576557034
 30
3.86721480595935
 40
0.05
  0
POINT
  5
F5
330
17
100
AcDbEntity
  8
0
100
AcDbPoint
 10
2.7978260929228247
 20
0.22315109581741277
 30
3.8730736390931786
  0
CIRCLE
  5
F6
330
17
100
AcDbEntity
  8
keypoints
100
AcDbCircle
 10
2.7978260929228247
 20
0.22315109581741277
 30
3.8730736390931786
 40
0.05
  0
POINT
  5
F7
330
17
100
AcDbEntity
  8
0
100
AcDbPoint
 10
-4.961615602244279
 20
-0.37421402859109176
 30
3.8566579811550477
  0
CIRCLE
  5
F8
330
17
100
AcDbEntity
  8
keypoints
100
AcDbCircle
 10
-4.961615602244279
 20
-0.37421402859109176
 30
3.8566579811550477
 40
0.05
  0
POINT
  5
F9
330
17
100
AcDbEntity
  8
0
100
AcDbPoint
 10
3.932079269758165
 20
3.478826663155832
 30
3.7961592853050905
  0
CIRCLE
  5
FA
330
17
100
AcDbEntity
  8
keypoints
100
AcDbCircle
 10
3.932079269758165
 20
3.478826663155832
 30
3.7961592853050905
 40
0.05
  0
POINT
  5
FB
330
17
100
AcDbEntity
  8
0
100
AcDbPoint
 10
-1.9321513113586875
 20
0.4412850488327187
 30
3.81602627513996
  0
CIRCLE
  5
FC
330
17
100
AcDbEntity
  8
keypoints
100
AcDbCircle
 10
-1.9321513113586875
 20
0.4412850488327187
 30
3.81602627513996
 40
0.05
  0
POINT
  5
FD
330
17
100
AcDbEntity
  8
0
100
AcDbPoint
 10
-0.10666224764152347
 20
5.164334089478708
 30
3.8306476701758863
  0
CIRCLE
  5
FE
330
17
100
AcDbEntity
  8
keypoints
100
AcDbCircle
 10
-0.10666224764152347
 20
5.164334089478708
 30
3.8306476701758863
 40
0.05
  0
POINT
  5
FF
330
17
100
AcDbEntity
  8
0
100
AcDbPoint
 10
3.3740910409789273
 20
1.8864323938680303
 30
3.865082973190602
  0
CIRCLE
  5
100
330
17
100
AcDbEntity
  8
keypoints
100
AcDbCircle
 10
3.3740910409789273
 20
1.8864323938680303
 30
3.865082973190602
 40
0.05
  0
POINT
  5
101
330
17
100
AcDbEntity
  8
0
100
AcDbPoint
 10
-2.124700204654136
 20
-0.5230865019314666
 30
3.851129178933828
  0
CIRCLE
  5
102
330
17
100
AcDbEntity
  8
keypoints
100
AcDbCircle
 10
-2.124700204654136
 20
-0.5230865019314666
 30
3.851129178933828
 40
0.05
  0
POINT
  5
103
330
17
100
AcDbEntity
  8
0
100
AcDbPoint
 10
0.5733654534910906
 20
-3.361147216333764
 30
3.805470150379726
  0
CIRCLE
  5
104
330
17
100
AcDbEntity
  8
keypoints
100
AcDbCircle
 10
0.5733654534910906
 20
-3.361147216333764
 30
3.805470150379726
 40
0.05
  0
POINT
  5
105
330
17
100
AcDbEntity
  8
0
100
AcDbPoint
 10
-0.9185701743921508
 20
0.6279675870568149
 30
3.8533749814547766
  0
CIRCLE
  5
106
330
17
100
AcDbEntity
  8
keypoints
100
AcDbCircle
 10
-0.9185701743921508
 20
0.6279675870568149
 30
3.8533749814547766
 40
0.05
  0
POINT
  5
107
330
17
100
AcDbEntity
  8
0
100
AcDbPoint
 10
2.9541130643048903
 20
0.5769259687577384
 30
3.8344287852168897
  0
CIRCLE
  5
108
330
17
100
AcDbEntity
  8
keypoints
100
AcDbCircle
 10
2.9541130643048903
 20
0.5769259687577384
 30
3.8344287852168897
 40
0.05
  0
POINT
  5
109
330
17
100
AcDbEntity
  8
0
100
AcDbPoint
 10
-4.363720965475783
 20
-0.48159861436152895
 30
3.823644811523173
  0
CIRCLE
  5
10A
330
17
100
AcDbEntity
  8
keypoints
100
AcDbCircle
 10
-4.363720965475783
 20
-0.48159861436152895
 30
3.823644811523173
 40
0.05
  0
POINT
  5
10B
330
17
100
AcDbEntity
  8
0
100
AcDbPoint
 10
-0.854939678067149
 20
3.2178305179693316
 30
3.8906386772101293
  0
CIRCLE
  5
10C
330
17
100
AcDbEntity
  8
keypoints
100
AcDbCircle
 10
-0.854939678067149
 20
3.2178305179693316
 30
3.8906386772101293
 40
0.05
  0
POINT
  5
10D
330
17
100
AcDbEntity
  8
0
100
AcDbPoint
 10
-5.412864326689884
 20
2.622476354499626
 30
3.8244620488953487
  0
CIRCLE
  5
10E
330
17
100
AcDbEntity
  8
keypoints
100
AcDbCircle
 10
-5.412864326689884
 20
2.622476354499626
 30
3.8244620488953487
 40
0.05
  0
POINT
  5
10F
330
17
100
AcDbEntity
  8
0
100
AcDbPoint
 10
4.37170832322135
 20
5.477810618685707
 30
3.8154288466569533
  0
CIRCLE
  5
110
330
17
100
AcDbEntity
  8
keypoints
100
AcDbCircle
 10
4.37170832322135
 20
5.477810618685707
 30
3.8154288466569533
 40
0.05
  0
POINT
  5
111
330
17
100
AcDbEntity
  8
0
100
AcDbPoint
 10
2.892555166453944
 20
-0.574965111999626
 30
3.8750222345731964
  0
CIRCLE
  5
112
330
17
100
AcDbEntity
  8
keypoints
100
AcDbCircle
 10
2.892555166453944
 20
-0.574965111999626
 30
3.8750222345731964
 40
0.05
  0
POINT
  5
113
330
17
100
AcDbEntity
  8
0
100
AcDbPoint
 10
-0.7239703780568127
 20
4.334677562148128
 30
3.8573272650437116
  0
CIRCLE
  5
114
330
17
100
AcDbEntity
  8
keypoints
100
AcDbCircle
 10
-0.7239703780568127
 20
4.334677562148128
 30
3.8573272650437116
 40
0.05
  0
POINT
  5
115
330
17
100
AcDbEntity
  8
0
100
AcDbPoint
 10
-0.7966374147268378
 20
1.9111027410941652
 30
3.874658119656501
  0
CIRCLE
  5
116
330
17
100
AcDbEntity
  8
keypoints
100
AcDbCircle
 10
-0.7966374147268378
 20
1.9111027410941652
 30
3.874658119656501
 40
0.05
  0
POINT
  5
117
330
17
100
AcDbEntity
  8
0
100
AcDbPoint
 10
3.7905667959512646
 20
2.880187773974934
 30
3.836854787345197
  0
CIRCLE
  5
118
330
17
100
AcDbEntity
  8
keypoints
100
AcDbCircle
 10
3.7905667959512646
 20
2.880187773974934
 30
3.836854787345197
 40
0.05
  0
LINE
  5
119
330
17
100
AcDbEntity
  8
lines
100
AcDbLine
 10
0.8123273878237787
 20
-3.6230941778461156
 30
3.8307627886941353
 11
0.8241878551324624
 21
-3.6246287849419403
 31
3.811152839526298
  0
LINE
  5
11A
330
17
100
AcDbEntity
  8
lines
100
AcDbLine
 10
0.8123273878237787
 20
-3.6230941778461156
 30
3.8307627886941353
 11
0.7486380667587487
 21
-3.423980594221966
 31
3.815581400836316
  0
LINE
  5
11B
330
17
100
AcDbEntity
  8
lines
100
AcDbLine
 10
-2.3172455513455223
 20
-0.7008932717563938
 30
3.8742372585663887
 11
-2.124700204654136
 21
-0.5230865019314666
 31
3.851129178933828
  0
LINE
  5
11C
330
17
100
AcDbEntity
  8
lines
100
AcDbLine
 10
-2.3172455513455223
 20
-0.7008932717563938
 30
3.8742372585663887
 11
-2.660339800798744
 21
-0.6571588830077151
 31
3.8293022432838333
  0
LINE
  5
11D
330
17
100
AcDbEntity
  8
lines
100
AcDbLine
 10
-2.035280997259416
 20
0.04008587292246513
 30
3.887384798402535
 11
-1.9321513113586875
 21
0.4412850488327187
 31
3.81602627513996
  0
LINE
  5
11E
330
17
100
AcDbEntity
  8
lines
100
AcDbLine
 10
-2.035280997259416
 20
0.04008587292246513
 30
3.887384798402535
 11
-2.111630313167859
 21
-0.37560574293842586
 31
3.8539414006589703
  0
LINE
  5
11F
330
17
100
AcDbEntity
  8
lines
100
AcDbLine
 10
-3.989074762543357
 20
-0.601531909843412
 30
3.845784033926619
 11
-3.7611860741574015
 21
-0.5736424723974827
 31
3.844014081484236
  0
LINE
  5
120
330
17
100
AcDbEntity
  8
lines
100
AcDbLine
 10
-3.989074762543357
 20
-0.601531909843412
 30
3.845784033926619
 11
-4.363720965475783
 21
-0.48159861436152895
 31
3.823644811523173
  0
LINE
  5
121
330
17
100
AcDbEntity
  8
lines
100
AcDbLine
 10
-5.137708408617717
 20
-0.17500748654248888
 30
3.8288492143008415
 11
-4.961615602244279
 21
-0.37421402859109176
 31
3.8566579811550477
  0
LINE
  5
122
330
17
100
AcDbEntity
  8
lines
100
AcDbLine
 10
-5.137708408617717
 20
-0.17500748654248888
 30
3.8288492143008415
 11
-5.132745746869212
 21
0.2856500082846207
 31
3.810554553764482
  0
LINE
  5
123
330
17
100
AcDbEntity
  8
lines
100
AcDbLine
 10
0.22316095602140862
 20
5.204874042872265
 30
3.8695602915989795
 11
0.5140206411811972
 21
5.205500715036347
 31
3.791813863540201
  0
LINE
  5
124
330
17
100
AcDbEntity
  8
lines
100
AcDbLine
 10
0.22316095602140862
 20
5.204874042872265
 30
3.8695602915989795
 11
-0.10666224764152347
 21
5.164334089478708
 31
3.8306476701758863
  0
LINE
  5
125
330
17
100
AcDbEntity
  8
lines
100
AcDbLine
 10
-2.483750258589039
 20
5.002708635233753
 30
3.8354327509682147
 11
-2.8116765506175367
 21
5.022381599690692
 31
3.889456947974863
  0
LINE
  5
126
330
17
100
AcDbEntity
  8
lines
100
AcDbLine
 10
-2.483750258589039
 20
5.002708635233753
 30
3.8354327509682147
 11
-2.1592467963204642
 21
4.921806684603233
 31
3.8080609020034193
  0
LINE
  5
127
330
17
100
AcDbEntity
  8
lines
100
AcDbLine
 10
2.7180905481918787
 20
-0.9685664840540487
 30
3.8214504991523155
 11
2.8314229669841477
 21
-0.7723930883897878
 31
3.862965670322455
  0
LINE
  5
128
330
17
100
AcDbEntity
  8
lines
100
AcDbLine
 10
2.7180905481918787
 20
-0.9685664840540487
 30
3.8214504991523155
 11
2.5803326338920316
 21
-1.2206149490887557
 31
3.8472445300150664
  0
LINE
  5
129
330
17
100
AcDbEntity
  8
lines
100
AcDbLine
 10
2.154783714130198
 20
-0.9253629005517354
 30
3.840870404805964
 11
2.1725185945485643
 21
-0.9266255447488587
 31
3.8400735283615837
  0
LINE
  5
12A
330
17
100
AcDbEntity
  8
lines
100
AcDbLine
 10
2.154783714130198
 20
-0.9253629005517354
 30
3.840870404805964
 11
2.187095546215306
 21
-0.723670467251021
 31
3.7930500406537466
  0
LINE
  5
12B
330
17
100
AcDbEntity
  8
lines
100
AcDbLine
 10
-1.4776116578975522
 20
2.0106646216621713
 30
3.889140838744091
 11
-1.7426152570180071
 21
2.184512806618919
 31
3.8425798926554826
  0
LINE
  5
12C
330
17
100
AcDbEntity
  8
lines
100
AcDbLine
 10
-1.4776116578975522
 20
2.0106646216621713
 30
3.889140838744091
 11
-1.7784125988192456
 21
2.3210130635314856
 31
3.797226975988453
  0
LINE
  5
12D
330
17
100
AcDbEntity
  8
lines
100
AcDbLine
 10
-1.7426152570180071
 20
2.184512806618919
 30
3.8425798926554826
 11
-1.7784125988192456
 21
2.3210130635314856
 31
3.797226975988453
  0
LINE
  5
12E
330
17
100
AcDbEntity
  8
lines
100
AcDbLine
 10
-5.559521558087245
 20
2.6632317587289096
 30
3.868747181564327
 11
-5.5616257693154285
 21
2.636148950379874
 31
3.8682891620467954
  0
LINE
  5
12F
330
17
100
AcDbEntity
  8
lines
100
AcDbLine
 10
-5.559521558087245
 20
2.6632317587289096
 30
3.868747181564327
 11
-5.412864326689884
 21
2.622476354499626
 31
3.8244620488953487
  0
LINE
  5
130
330
17
100
AcDbEntity
  8
lines
100
AcDbLine
 10
3.676959405574532
 20
2.3772586623115477
 30
3.8770770253479485
 11
3.7394162421015724
 21
2.7297719084699317
 31
3.8880336665882247
  0
LINE
  5
131
330
17
100
AcDbEntity
  8
lines
100
AcDbLine
 10
3.676959405574532
 20
2.3772586623115477
 30
3.8770770253479485
 11
3.4418895021900937
 21
2.075731343719892
 31
3.8643120900113686
  0
LINE
  5
132
330
17
100
AcDbEntity
  8
lines
100
AcDbLine
 10
0.2273784034685501
 20
-3.6066150869063573
 30
3.8767340353231012
 11
0.23675924033741963
 21
-3.613864657423334
 31
3.8424173754498705
  0
LINE
  5
133
330
17
100
AcDbEntity
  8
lines
100
AcDbLine
 10
0.2273784034685501
 20
-3.6066150869063573
 30
3.8767340353231012
 11
0.0882554974244894
 21
-3.5765771899584093
 31
3.891419152242705
  0
LINE
  5
134
330
17
100
AcDbEntity
  8
lines
100
AcDbLine
 10
-1.6069259295516338
 20
-1.5870337041929103
 30
3.8864645156603417
 11
-1.5730760916530475
 21
-1.7235559709306842
 31
3.8542978040194456
  0
LINE
  5
135
330
17
100
AcDbEntity
  8
lines
100
AcDbLine
 10
-1.6069259295516338
 20
-1.5870337041929103
 30
3.8864645156603417
 11
-1.5196826613757124
 21
-1.4712031143766888
 31
3.8104424982474945
  0
LINE
  5
136
330
17
100
AcDbEntity
  8
lines
100
AcDbLine
 10
-2.111630313167859
 20
-0.37560574293842586
 30
3.8539414006589703
 11
-2.124700204654136
 21
-0.5230865019314666
 31
3.851129178933828
  0
LINE
  5
137
330
17
100
AcDbEntity
  8
lines
100
AcDbLine
 10
1.695406678511369
 20
5.3457156109462645
 30
3.7942113612276556
 11
1.9343435436476069
 21
5.306551261630353
 31
3.815606176926644
  0
LINE
  5
138
330
17
100
AcDbEntity
  8
lines
100
AcDbLine
 10
1.695406678511369
 20
5.3457156109462645
 30
3.7942113612276556
 11
1.3909580361898148
 21
5.388774670965114
 31
3.8349188394961975
  0
LINE
  5
139
330
17
100
AcDbEntity
  8
lines
100
AcDbLine
 10
-2.90404739815277
 20
-0.651918014007036
 30
3.8656760581974856
 11
-2.660339800798744
 21
-0.6571588830077151
 31
3.8293022432838333
  0
LINE
  5
13A
330
17
100
AcDbEntity
  8
lines
100
AcDbLine
 10
-2.90404739815277
 20
-0.651918014007036
 30
3.8656760581974856
 11
-3.410923985382806
 21
-0.6236117833105272
 31
3.8560229585825394
  0
LINE
  5
13B
330
17
100
AcDbEntity
  8
lines
100
AcDbLine
 10
-5.262807279809244
 20
2.590281487871348
 30
3.827101447663011
 11
-5.412864326689884
 21
2.622476354499626
 31
3.8244620488953487
  0
LINE
  5
13C
330
17
100
AcDbEntity
  8
lines
100
AcDbLine
 10
-5.262807279809244
 20
2.590281487871348
 30
3.827101447663011
 11
-5.5616257693154285
 21
2.636148950379874
 31
3.8682891620467954
  0
LINE
  5
13D
330
17
100
AcDbEntity
  8
lines
100
AcDbLine
 10
2.187095546215306
 20
-0.723670467251021
 30
3.7930500406537466
 11
2.1725185945485643
 21
-0.9266255447488587
 31
3.8400735283615837
  0
LINE
  5
13E
330
17
100
AcDbEntity
  8
lines
100
AcDbLine
 10
2.365090809283071
 20
4.942598514901655
 30
3.8827834432114527
 11
2.1224394960058555
 21
5.20791200104301
 31
3.8079919796760473
  0
LINE
  5
13F
330
17
100
AcDbEntity
  8
lines
100
AcDbLine
 10
2.365090809283071
 20
4.942598514901655
 30
3.8827834432114527
 11
2.699043578901023
 21
4.671870786996299
 31
3.864071649736314
  0
LINE
  5
140
330
17
100
AcDbEntity
  8
lines
100
AcDbLine
 10
-4.674333261826317
 20
4.99016567676091
 30
3.825715868518127
 11
-4.262566097216554
 21
5.0298056616474245
 31
3.8406716853457774
  0
LINE
  5
141
330
17
100
AcDbEntity
  8
lines
100
AcDbLine
 10
-4.674333261826317
 20
4.99016567676091
 30
3.825715868518127
 11
-4.10700157694749
 21
5.053382490666613
 31
3.8072706900724866
  0
LINE
  5
142
330
17
100
AcDbEntity
  8
lines
100
AcDbLine
 10
3.553094414040409
 20
1.3651890717103
 30
3.8204389874129543
 11
3.247011077084558
 21
1.5260291633272833
 31
3.852724734197346
  0
LINE
  5
143
330
17
100
AcDbEntity
  8
lines
100
AcDbLine
 10
3.553094414040409
 20
1.3651890717103
 30
3.8204389874129543
 11
3.3740910409789273
 21
1.8864323938680303
 31
3.865082973190602
  0
LINE
  5
144
330
17
100
AcDbEntity
  8
lines
100
AcDbLine
 10
2.684274131974759
 20
0.04796276619723483
 30
3.818157868008512
 11
2.7927822178252284
 21
-0.04318532775106099
 31
3.8363860687005564
  0
LINE
  5
145
330
17
100
AcDbEntity
  8
lines
100
AcDbLine
 10
2.684274131974759
 20
0.04796276619723483
 30
3.818157868008512
 11
2.7978260929228247
 21
0.22315109581741277
 31
3.8730736390931786
  0
LINE
  5
146
330
17
100
AcDbEntity
  8
lines
100
AcDbLine
 10
-1.4029994023242007
 20
-1.2590676612170537
 30
3.8530661085372326
 11
-1.3632287243820458
 21
-1.0846126332429187
 31
3.8673631851671693
  0
LINE
  5
147
330
17
100
AcDbEntity
  8
lines
100
AcDbLine
 10
-1.4029994023242007
 20
-1.2590676612170537
 30
3.8530661085372326
 11
-1.5196826613757124
 21
-1.4712031143766888
 31
3.8104424982474945
  0
LINE
  5
148
330
17
100
AcDbEntity
  8
lines
100
AcDbLine
 10
-5.089114719717695
 20
0.5459358407912482
 30
3.849257077926123
 11
-5.132745746869212
 21
0.2856500082846207
 31
3.810554553764482
  0
LINE
  5
149
330
17
100
AcDbEntity
  8
lines
100
AcDbLine
 10
-5.865309640551681
 20
2.376291952438023
 30
3.856946539721148
 11
-5.5616257693154285
 21
2.636148950379874
 31
3.8682891620467954
  0
LINE
  5
14A
330
17
100
AcDbEntity
  8
lines
100
AcDbLine
 10
4.282497952895848
 20
5.128259971647645
 30
3.830316313116752
 11
4.37170832322135
 21
5.477810618685707
 31
3.8154288466569533
  0
LINE
  5
14B
330
17
100
AcDbEntity
  8
lines
100
AcDbLine
 10
4.282497952895848
 20
5.128259971647645
 30
3.830316313116752
 11
4.178398665751434
 21
4.67400413426711
 31
3.867363678990514
  0
LINE
  5
14C
330
17
100
AcDbEntity
  8
lines
100
AcDbLine
 10
-0.7629479825098442
 20
3.3054177808748335
 30
3.8395551933613987
 11
-0.854939678067149
 21
3.2178305179693316
 31
3.8906386772101293
  0
LINE
  5
14D
330
17
100
AcDbEntity
  8
lines
100
AcDbLine
 10
-0.7629479825098442
 20
3.3054177808748335
 30
3.8395551933613987
 11
-0.6490928564307965
 21
3.776531114553353
 31
3.798205248912187
  0
LINE
  5
14E
330
17
100
AcDbEntity
  8
lines
100
AcDbLine
 10
4.161927848008721
 20
1.335092447443297
 30
3.8308759413420175
 11
4.314728670034042
 21
1.3225179759471652
 31
3.8904808450598876
  0
LINE
  5
14F
330
17
100
AcDbEntity
  8
lines
100
AcDbLine
 10
4.161927848008721
 20
1.335092447443297
 30
3.8308759413420175
 11
4.3230973918234845
 21
1.336388130071024
 31
3.8880482681135726
  0
LINE
  5
150
330
17
100
AcDbEntity
  8
lines
100
AcDbLine
 10
-1.7294509485143679
 20
0.7978478587080484
 30
3.8843613669782506
 11
-1.4123586293519743
 21
0.8846844784046808
 31
3.888050085921951
  0
LINE
  5
151
330
17
100
AcDbEntity
  8
lines
100
AcDbLine
 10
-1.7294509485143679
 20
0.7978478587080484
 30
3.8843613669782506
 11
-1.9321513113586875
 21
0.4412850488327187
 31
3.81602627513996
  0
LINE
  5
152
330
17
100
AcDbEntity
  8
lines
100
AcDbLine
 10
3.4418895021900937
 20
2.075731343719892
 30
3.8643120900113686
 11
3.3740910409789273
 21
1.8864323938680303
 31
3.865082973190602
  0
LINE
  5
153
330
17
100
AcDbEntity
  8
lines
100
AcDbLine
 10
2.6185244881273064
 20
2.5829450782228562
 30
3.8481003603621993
 11
2.591135477695834
 21
2.075359936252083
 31
3.8871147664684376
  0
LINE
  5
154
330
17
100
AcDbEntity
  8
lines
100
AcDbLine
 10
0.8241878551324624
 20
-3.6246287849419403
 30
3.811152839526298
 11
0.7486380667587487
 21
-3.423980594221966
 31
3.815581400836316
  0
LINE
  5
155
330
17
100
AcDbEntity
  8
lines
100
AcDbLine
 10
0.0882554974244894
 20
-3.5765771899584093
 30
3.891419152242705
 11
0.23675924033741963
 21
-3.613864657423334
 31
3.8424173754498705
  0
LINE
  5
156
330
17
100
AcDbEntity
  8
lines
100
AcDbLine
 10
-0.4610570683101928
 20
-3.4634431800348455
 30
3.8723580707791414
 11
-0.25835982106280486
 21
-3.52096214380101
 31
3.82802280323992
  0
LINE
  5
157
330
17
100
AcDbEntity
  8
lines
100
AcDbLine
 10
-0.4610570683101928
 20
-3.4634431800348455
 30
3.8723580707791414
 11
-0.7515093803072297
 21
-3.407711301001771
 31
3.8148422810460705
  0
LINE
  5
158
330
17
100
AcDbEntity
  8
lines
100
AcDbLine
 10
-2.8116765506175367
 20
5.022381599690692
 30
3.889456947974863
 11
-3.1603934387060937
 21
5.017130705865866
 31
3.827215549095654
  0
LINE
  5
159
330
17
100
AcDbEntity
  8
lines
100
AcDbLine
 10
4.3230973918234845
 20
1.336388130071024
 30
3.8880482681135726
 11
4.314728670034042
 21
1.3225179759471652
 31
3.8904808450598876
  0
LINE
  5
15A
330
17
100
AcDbEntity
  8
lines
100
AcDbLine
 10
-1.2843844875903145
 20
-0.21256209497649703
 30
3.8872909254941197
 11
-1.294093037009532
 21
-0.02253295938434241
 31
3.834751499693377
  0
LINE
  5
15B
330
17
100
AcDbEntity
  8
lines
100
AcDbLine
 10
-1.2843844875903145
 20
-0.21256209497649703
 30
3.8872909254941197
 11
-1.2493317634371155
 21
0.1610010948539422
 31
3.8465686255426537
  0
LINE
  5
15C
330
17
100
AcDbEntity
  8
lines
100
AcDbLine
 10
2.261936435981891
 20
-0.3794973687711034
 30
3.84616389687163
 11
2.1725185945485643
 21
-0.9266255447488587
 31
3.8400735283615837
  0
LINE
  5
15D
330
17
100
AcDbEntity
  8
lines
100
AcDbLine
 10
-5.5616257693154285
 20
2.636148950379874
 30
3.8682891620467954
 11
-5.412864326689884
 21
2.622476354499626
 31
3.8244620488953487
  0
LINE
  5
15E
330
17
100
AcDbEntity
  8
lines
100
AcDbLine
 10
-1.2493317634371155
 20
0.1610010948539422
 30
3.8465686255426537
 11
-1.294093037009532
 21
-0.02253295938434241
 31
3.834751499693377
  0
LINE
  5
15F
330
17
100
AcDbEntity
  8
lines
100
AcDbLine
 10
0.5140206411811972
 20
5.205500715036347
 30
3.791813863540201
 11
-0.10666224764152347
 21
5.164334089478708
 31
3.8306476701758863
  0
LINE
  5
160
330
17
100
AcDbEntity
  8
lines
100
AcDbLine
 10
4.651188604101114
 20
6.873613719695211
 30
3.8210586474403367
 11
4.734269279387545
 21
7.234066641428635
 31
3.868749103438046
  0
LINE
  5
161
330
17
100
AcDbEntity
  8
lines
100
AcDbLine
 10
4.651188604101114
 20
6.873613719695211
 30
3.8210586474403367
 11
4.518549306834491
 21
6.161468900886084
 31
3.83407241834533
  0
LINE
  5
162
330
17
100
AcDbEntity
  8
lines
100
AcDbLine
 10
2.7927822178252284
 20
-0.04318532775106099
 30
3.8363860687005564
 11
2.7978260929228247
 21
0.22315109581741277
 31
3.8730736390931786
  0
LINE
  5
163
330
17
100
AcDbEntity
  8
lines
100
AcDbLine
 10
1.9343435436476069
 20
5.306551261630353
 30
3.815606176926644
 11
2.1224394960058555
 21
5.20791200104301
 31
3.8079919796760473
  0
LINE
  5
164
330
17
100
AcDbEntity
  8
lines
100
AcDbLine
 10
-1.8084243864158087
 20
4.844304915526969
 30
3.871811536385011
 11
-2.1592467963204642
 21
4.921806684603233
 31
3.8080609020034193
  0
LINE
  5
165
330
17
100
AcDbEntity
  8
lines
100
AcDbLine
 10
2.811085990620402
 20
4.5170155924786775
 30
3.8238887289456605
 11
2.699043578901023
 21
4.671870786996299
 31
3.864071649736314
  0
LINE
  5
166
330
17
100
AcDbEntity
  8
lines
100
AcDbLine
 10
2.8314229669841477
 20
-0.7723930883897878
 30
3.862965670322455
 11
2.892555166453944
 21
-0.574965111999626
 31
3.8750222345731964
  0
LINE
  5
167
330
17
100
AcDbEntity
  8
lines
100
AcDbLine
 10
-0.7515093803072297
 20
-3.407711301001771
 30
3.8148422810460705
 11
-0.25835982106280486
 21
-3.52096214380101
 31
3.82802280323992
  0
LINE
  5
168
330
17
100
AcDbEntity
  8
lines
100
AcDbLine
 10
4.178398665751434
 20
4.67400413426711
 30
3.867363678990514
 11
4.113179680361151
 21
4.272491726897838
 31
3.861524455805343
  0
LINE
  5
169
330
17
100
AcDbEntity
  8
lines
100
AcDbLine
 10
-0.32430078330474255
 20
4.974808719149887
 30
3.822836888575793
 11
-0.10666224764152347
 21
5.164334089478708
 31
3.8306476701758863
  0
LINE
  5
16A
330
17
100
AcDbEntity
  8
lines
100
AcDbLine
 10
-1.6954287564932657
 20
3.316505456670024
 30
3.861423293869051
 11
-1.7987530132665133
 21
2.7741984758269327
 31
3.7965932883490665
  0
LINE
  5
16B
330
17
100
AcDbEntity
  8
lines
100
AcDbLine
 10
-1.6954287564932657
 20
3.316505456670024
 30
3.861423293869051
 11
-0.854939678067149
 21
3.2178305179693316
 31
3.8906386772101293
  0
LINE
  5
16C
330
17
100
AcDbEntity
  8
lines
100
AcDbLine
 10
-5.659654449409249
 20
1.1798496707095825
 30
3.799027237554745
 11
-5.925135858042298
 21
1.3748022226454988
 31
3.843884405519404
  0
LINE
  5
16D
330
17
100
AcDbEntity
  8
lines
100
AcDbLine
 10
-4.833821333614085
 20
2.882244843169202
 30
3.8616979944705374
 11
-4.833363234476268
 21
3.0308738649009674
 31
3.8450024858619463
  0
LINE
  5
16E
330
17
100
AcDbEntity
  8
lines
100
AcDbLine
 10
-4.833821333614085
 20
2.882244843169202
 30
3.8616979944705374
 11
-4.90048806104429
 21
2.722388168846899
 31
3.841479326806393
  0
LINE
  5
16F
330
17
100
AcDbEntity
  8
lines
100
AcDbLine
 10
-4.833363234476268
 20
3.0308738649009674
 30
3.8450024858619463
 11
-4.90048806104429
 21
2.722388168846899
 31
3.841479326806393
  0
LINE
  5
170
330
17
100
AcDbEntity
  8
lines
100
AcDbLine
 10
-3.695333416518396
 20
5.046605847848367
 30
3.8532971841778267
 11
-4.10700157694749
 21
5.053382490666613
 31
3.8072706900724866
  0
LINE
  5
171
330
17
100
AcDbEntity
  8
lines
100
AcDbLine
 10
-3.695333416518396
 20
5.046605847848367
 30
3.8532971841778267
 11
-3.1603934387060937
 21
5.017130705865866
 31
3.827215549095654
  0
LINE
  5
172
330
17
100
AcDbEntity
  8
lines
100
AcDbLine
 10
-4.10700157694749
 20
5.053382490666613
 30
3.8072706900724866
 11
-4.262566097216554
 21
5.0298056616474245
 31
3.8406716853457774
  0
LINE
  5
173
330
17
100
AcDbEntity
  8
lines
100
AcDbLine
 10
2.9501597956485943
 20
1.2364410814573157
 30
3.8775667647581007
 11
3.247011077084558
 21
1.5260291633272833
 31
3.852724734197346
  0
LINE
  5
174
330
17
100
AcDbEntity
  8
lines
100
AcDbLine
 10
4.518549306834491
 20
6.161468900886084
 30
3.83407241834533
 11
4.453709313293803
 21
5.974290315650964
 31
3.8538891921737437
  0
LINE
  5
175
330
17
100
AcDbEntity
  8
lines
100
AcDbLine
 10
4.518549306834491
 20
6.161468900886084
 30
3.83407241834533
 11
4.37170832322135
 21
5.477810618685707
 31
3.8154288466569533
  0
LINE
  5
176
330
17
100
AcDbEntity
  8
lines
100
AcDbLine
 10
-1.6110504581430254
 20
-2.2738208158976505
 30
3.7967762501073166
 11
-1.5730760916530475
 21
-1.7235559709306842
 31
3.8542978040194456
  0
LINE
  5
177
330
17
100
AcDbEntity
  8
lines
100
AcDbLine
 10
3.247011077084558
 20
1.5260291633272833
 30
3.852724734197346
 11
3.3740910409789273
 21
1.8864323938680303
 31
3.865082973190602
  0
LINE
  5
178
330
17
100
AcDbEntity
  8
lines
100
AcDbLine
 10
4.453709313293803
 20
5.974290315650964
 30
3.8538891921737437
 11
4.37170832322135
 21
5.477810618685707
 31
3.8154288466569533
  0
LINE
  5
179
330
17
100
AcDbEntity
  8
lines
100
AcDbLine
 10
2.384973007234267
 20
-1.2835097856741162
 30
3.7948237667959575
 11
2.5803326338920316
 21
-1.2206149490887557
 31
3.8472445300150664
  0
LINE
  5
17A
330
17
100
AcDbEntity
  8
lines
100
AcDbLine
 10
2.591135477695834
 20
2.075359936252083
 30
3.8871147664684376
 11
3.3740910409789273
 21
1.8864323938680303
 31
3.865082973190602
  0
LINE
  5
17B
330
17
100
AcDbEntity
  8
lines
100
AcDbLine
 10
-4.66263084300939
 20
-0.41120143020998623
 30
3.867181369929169
 11
-4.961615602244279
 21
-0.37421402859109176
 31
3.8566579811550477
  0
LINE
  5
17C
330
17
100
AcDbEntity
  8
lines
100
AcDbLine
 10
-4.66263084300939
 20
-0.41120143020998623
 30
3.867181369929169
 11
-4.363720965475783
 21
-0.48159861436152895
 31
3.823644811523173
  0
LINE
  5
17D
330
17
100
AcDbEntity
  8
lines
100
AcDbLine
 10
4.113179680361151
 20
4.272491726897838
 30
3.861524455805343
 11
4.035020528194891
 21
3.927583854251492
 31
3.856835668086177
  0
LINE
  5
17E
330
17
100
AcDbEntity
  8
lines
100
AcDbLine
 10
4.035020528194891
 20
3.927583854251492
 30
3.856835668086177
 11
3.969834353091562
 21
3.6963295576557034
 31
3.86721480595935
  0
LINE
  5
17F
330
17
100
AcDbEntity
  8
lines
100
AcDbLine
 10
3.7394162421015724
 20
2.7297719084699317
 30
3.8880336665882247
 11
3.7905667959512646
 21
2.880187773974934
 31
3.836854787345197
  0
LINE
  5
180
330
17
100
AcDbEntity
  8
lines
100
AcDbLine
 10
-1.3632287243820458
 20
-1.0846126332429187
 30
3.8673631851671693
 11
-1.0755139716736626
 21
-0.8241483553895608
 31
3.831915081378277
  0
LINE
  5
181
330
17
100
AcDbEntity
  8
lines
100
AcDbLine
 10
-3.410923985382806
 20
-0.6236117833105272
 30
3.8560229585825394
 11
-3.7611860741574015
 21
-0.5736424723974827
 31
3.844014081484236
  0
LINE
  5
182
330
17
100
AcDbEntity
  8
lines
100
AcDbLine
 10
0.7486380667587487
 20
-3.423980594221966
 30
3.815581400836316
 11
0.5733654534910906
 21
-3.361147216333764
 31
3.805470150379726
  0
LINE
  5
183
330
17
100
AcDbEntity
  8
lines
100
AcDbLine
 10
-0.6490928564307965
 20
3.776531114553353
 30
3.798205248912187
 11
-0.7239703780568127
 21
4.334677562148128
 31
3.8573272650437116
  0
LINE
  5
184
330
17
100
AcDbEntity
  8
lines
100
AcDbLine
 10
-1.4123586293519743
 20
0.8846844784046808
 30
3.888050085921951
 11
-0.9185701743921508
 21
0.6279675870568149
 31
3.8533749814547766
  0
LINE
  5
185
330
17
100
AcDbEntity
  8
lines
100
AcDbLine
 10
3.969834353091562
 20
3.6963295576557034
 30
3.86721480595935
 11
3.932079269758165
 21
3.478826663155832
 31
3.7961592853050905
  0
ENDSEC
  0
SECTION
  2
OBJECTS
  0
DICTIONARY
  5
A
330
0
100
AcDbDictionary
281
1
  3
ACAD_COLOR
350
B
  3
ACAD_GROUP
350
C
  3
ACAD_LAYOUT
350
D
  3
ACAD_MATERIAL
350
E
  3
ACAD_MLEADERSTYLE
350
F
  3
ACAD_MLINESTYLE
350
10
  3
ACAD_PLOTSETTINGS
350
11
  3
ACAD_PLOTSTYLENAME
350
12
  3
ACAD_SCALELIST
350
14
  3
ACAD_TABLESTYLE
350
15
  3
ACAD_VISUALSTYLE
350
16
  3
EZDXF_META
350
2D
  0
DICTIONARY
  5
B
330
A
100
AcDbDictionary
281
1
  0
DICTIONARY
  5
C
330
A
100
AcDbDictionary
281
1
  0
DICTIONARY
  5
D
330
A
100
AcDbDictionary
281
1
  3
Model
350
1A
  3
Layout1
350
1E
  0
DICTIONARY
  5
E
330
A
100
AcDbDictionary
281
1
  3
ByBlock
350
1F
  3
ByLayer
350
20
  3
Global
350
21
  0
DICTIONARY
  5
F
330
A
100
AcDbDictionary
281
1
  3
Standard
350
2C
  0
DICTIONARY
  5
10
330
A
100
AcDbDictionary
281
1
  3
Standard
350
22
  0
DICTIONARY
  5
11
330
A
100
AcDbDictionary
281
1
  0
ACDBDICTIONARYWDFLT
  5
12
330
A
100
AcDbDictionary
281
1
  3
Normal
350
13
100
AcDbDictionaryWithDefault
340
13
  0
ACDBPLACEHOLDER
  5
13
330
12
  0
DICTIONARY
  5
14
330
A
100
AcDbDictionary
281
1
  0
DICTIONARY
  5
15
330
A
100
AcDbDictionary
281
1
  0
DICTIONARY
  5
16
330
A
100
AcDbDictionary
281
1
  0
LAYOUT
  5
1A
330
D
100
AcDbPlotSettings
  1

  4
A3
  6

 40
7.5
 41
20.0
 42
7.5
 43
20.0
 44
420.0
 45
297.0
 46
0.0
 47
0.0
 48
0.0
 49
0.0
140
0.0
141
0.0
142
1.0
143
1.0
 70
1024
 72
1
 73
0
 74
5
  7

 75
16
 76
0
 77
2
 78
300
147
1.0
148
0.0
149
0.0
100
AcDbLayout
  1
Model
 70
1
 71
0
 10
0.0
 20
0.0
 11
420.0
 21
297.0
 12
0.0
 22
0.0
 32
0.0
 14
1e+20
 24
1e+20
 34
1e+20
 15
-1e+20
 25
-1e+20
 35
-1e+20
146
0.0
 13
0.0
 23
0.0
 33
0.0
 16
1.0
 26
0.0
 36
0.0
 17
0.0
 27
1.0
 37
0.0
 76
1
330
17
  0
LAYOUT
  5
1E
330
D
100
AcDbPlotSettings
  1

  4
A3
  6

 40
7.5
 41
20.0
 42
7.5
 43
20.0
 44
420.0
 45
297.0
 46
0.0
 47
0.0
 48
0.0
 49
0.0
140
0.0
141
0.0
142
1.0
143
1.0
 70
0
 72
1
 73
0
 74
5
  7

 75
16
 76
0
 77
2
 78
300
147
1.0
148
0.0
149
0.0
100
AcDbLayout
  1
Layout1
 70
1
 71
1
 10
0.0
 20
0.0
 11
420.0
 21
297.0
 12
0.0
 22
0.0
 32
0.0
 14
1e+20
 24
1e+20
 34
1e+20
 15
-1e+20
 25
-1e+20
 35
-1e+20
146
0.0
 13
0.0
 23
0.0
 33
0.0
 16
1.0
 26
0.0
 36
0.0
 17
0.0
 27
1.0
 37
0.0
 76
1
330
1B
  0
MATERIAL
  5
1F
102
{ACAD_REACTORS
330
E
102
}
330
E
100
AcDbMaterial
  1
ByBlock
  2

 70
0
 40
1.0
 71
1
 41
1.0
 91
-1023410177
 42
1.0
 72
1
  3

 73
1
 74
1
 75
1
 44
0.5
 73
0
 45
1.0
 46
1.0
 77
1
  4

 78
1
 79
1
170
1
 48
1.0
171
1
  6

172
1
173
1
174
1
140
1.0
141
1.0
175
1
  7

176
1
177
1
178
1
143
1.0
179
1
  8

270
1
271
1
272
1
145
1.0
146
1.0
273
1
  9

274
1
275
1
276
1
 42
1.0
 72
1
  3

 73
1
 74
1
 75
1
 94
63
  0
MATERIAL
  5
20
102
{ACAD_REACTORS
330
E
102
}
330
E
100
AcDbMaterial
  1
ByLayer
  2

 70
0
 40
1.0
 71
1
 41
1.0
 91
-1023410177
 42
1.0
 72
1
  3

 73
1
 74
1
 75
1
 44
0.5
 73
0
 45
1.0
 46
1.0
 77
1
  4

 78
1
 79
1
170
1
 48
1.0
171
1
  6

172
1
173
1
174
1
140
1.0
141
1.0
175
1
  7

176
1
177
1
178
1
143
1.0
179
1
  8

270
1
271
1
272
1
145
1.0
146
1.0
273
1
  9

274
1
275
1
276
1
 42
1.0
 72
1
  3

 73
1
 74
1
 75
1
 94
63
  0
MATERIAL
  5
21
102
{ACAD_REACTORS
330
E
102
}
330
E
100
AcDbMaterial
  1
Global
  2

 70
0
 40
1.0
 71
1
 41
1.0
 91
-1023410177
 42
1.0
 72
1
  3

 73
1
 74
1
 75
1
 44
0.5
 73
0
 45
1.0
 46
1.0
 77
1
  4

 78
1
 79
1
170
1
 48
1.0
171
1
  6

172
1
173
1
174
1
140
1.0
141
1.0
175
1
  7

176
1
177
1
178
1
143
1.0
179
1
  8

270
1
271
1
272
1
145
1.0
146
1.0
273
1
  9

274
1
275
1
276
1
 42
1.0
 72
1
  3

 73
1
 74
1
 75
1
 94
63
  0
MLINESTYLE
  5
22
102
{ACAD_REACTORS
330
10
102
}
330
10
100
AcDbMlineStyle
  2
Standard
 70
0
  3

 62
256
 51
90.0
 52
90.0
 71
2
 49
0.5
 62
256
  6
BYLAYER
 49
-0.5
 62
256
  6
BYLAYER
  0
MLEADERSTYLE
  5
2C
102
{ACAD_REACTORS
330
F
102
}
330
F
100
AcDbMLeaderStyle
179
2
170
2
171
1
172
0
 90
2
 40
0.0
 41
0.0
173
1
 91
-1056964608
 92
-2
290
1
 42
2.0
291
1
 43
8.0
  3
Standard
 44
4.0
300

342
29
174
1
175
1
176
0
178
1
 93
-1056964608
 45
4.0
292
0
297
0
 46
4.0
 94
-1056964608
 47
1.0
 49
1.0
140
1.0
294
1
141
0.0
177
0
142
1.0
295
0
296
0
143
3.75
271
0
272
9
273
9
  0
DICTIONARY
  5
2D
330
A
100
AcDbDictionary
280
1
281
1
  3
CREATED_BY_EZDXF
350
2E
  3
WRITTEN_BY_EZDXF
350
18B
  0
DICTIONARYVAR
  5
2E
330
2D
100
DictionaryVariables
280
0
  1
1.4.3 @ 2026-07-28T07:28:53.252400+00:00
  0
DICTIONARYVAR
  5
18B
330
2D
100
DictionaryVariables
280
0
  1
1.4.3 @ 2026-07-28T07:28:53.256191+00:00
  0
ENDSEC
  0
EOF
