  0
SECTION
  2
HEADER
  9
$ACADVER
  1
AC1024
  9
$ACADMAINTVER
 70
6
  9
$DWGCODEPAGE
  3
ANSI_1252
  9
$LASTSAVEDBY
  1
ezdxf
  9
$INSBASE
 10
0.0
 20
0.0
 30
0.0
  9
$EXTMIN
 10
1e+20
 20
1e+20
 30
1e+20
  9
$EXTMAX
 10
-1e+20
 20
-1e+20
 30
-1e+20
  9
$LIMMIN
 10
0.0
 20
0.0
  9
$LIMMAX
 10
420.0
 20
297.0
  9
$ORTHOMODE
 70
0
  9
$REGENMODE
 70
1
  9
$FILLMODE
 70
1
  9
$QTEXTMODE
 70
0
  9
$MIRRTEXT
 70
1
  9
$LTSCALE
 40
1.0
  9
$ATTMODE
 70
1
  9
$TEXTSIZE
 40
2.5
  9
$TRACEWID
 40
1.0
  9
$TEXTSTYLE
  7
Standard
  9
$CLAYER
  8
0
  9
$CELTYPE
  6
ByLayer
  9
$CECOLOR
 62
256
  9
$CELTSCALE
 40
1.0
  9
$DISPSILH
 70
0
  9
$DIMSCALE
 40
1.0
  9
$DIMASZ
 40
2.5
  9
$DIMEXO
 40
0.625
  9
$DIMDLI
 40
3.75
  9
$DIMRND
 40
0.0
  9
$DIMDLE
 40
0.0
  9
$DIMEXE
 40
1.25
  9
$DIMTP
 40
0.0
  9
$DIMTM
 40
0.0
  9
$DIMTXT
 40
2.5
  9
$DIMCEN
 40
2.5
  9
$DIMTSZ
 40
0.0
  9
$DIMTOL
 70
0
  9
$DIMLIM
 70
0
  9
$DIMTIH
 70
0
  9
$DIMTOH
 70
0
  9
$DIMSE1
 70
0
  9
$DIMSE2
 70
0
  9
$DIMTAD
 70
1
  9
$DIMZIN
 70
8
  9
$DIMBLK
  1

  9
$DIMASO
 70
1
  9
$DIMSHO
 70
1
  9
$DIMPOST
  1

  9
$DIMAPOST
  1

  9
$DIMALT
 70
0
  9
$DIMALTD
 70
3
  9
$DIMALTF
 40
0.03937007874
  9
$DIMLFAC
 40
1.0
  9
$DIMTOFL
 70
1
  9
$DIMTVP
 40
0.0
  9
$DIMTIX
 70
0
  9
$DIMSOXD
 70
0
  9
$DIMSAH
 70
0
  9
$DIMBLK1
  1

  9
$DIMBLK2
  1

  9
$DIMSTYLE
  2
ISO-25
  9
$DIMCLRD
 70
0
  9
$DIMCLRE
 70
0
  9
$DIMCLRT
 70
0
  9
$DIMTFAC
 40
1.0
  9
$DIMGAP
 40
0.625
  9
$DIMJUST
 70
0
  9
$DIMSD1
 70
0
  9
$DIMSD2
 70
0
  9
$DIMTOLJ
 70
0
  9
$DIMTZIN
 70
8
  9
$DIMALTZ
 70
0
  9
$DIMALTTZ
 70
0
  9
$DIMUPT
 70
0
  9
$DIMDEC
 70
2
  9
$DIMTDEC
 70
2
  9
$DIMALTU
 70
2
  9
$DIMALTTD
 70
3
  9
$DIMTXSTY
  7
Standard
  9
$DIMAUNIT
 70
0
  9
$DIMADEC
 70
0
  9
$DIMALTRND
 40
0.0
  9
$DIMAZIN
 70
0
  9
$DIMDSEP
 70
44
  9
$DIMATFIT
 70
3
  9
$DIMFRAC
 70
0
  9
$DIMLDRBLK
  1

  9
$DIMLUNIT
 70
2
  9
$DIMLWD
 70
-2
  9
$DIMLWE
 70
-2
  9
$DIMTMOVE
 70
0
  9
$DIMFXL
 40
1.0
  9
$DIMFXLON
 70
0
  9
$DIMJOGANG
 40
0.785398163397
  9
$DIMTFILL
 70
0
  9
$DIMTFILLCLR
 70
0
  9
$DIMARCSYM
 70
0
  9
$DIMLTYPE
  6

  9
$DIMLTEX1
  6

  9
$DIMLTEX2
  6

  9
$DIMTXTDIRECTION
 70
0
  9
$LUNITS
 70
2
  9
$LUPREC
 70
4
  9
$SKETCHINC
 40
1.0
  9
$FILLETRAD
 40
10.0
  9
$AUNITS
 70
0
  9
$AUPREC
 70
2
  9
$MENU
  1
.
  9
$ELEVATION
 40
0.0
  9
$PELEVATION
 40
0.0
  9
$THICKNESS
 40
0.0
  9
$LIMCHECK
 70
0
  9
$CHAMFERA
 40
0.0
  9
$CHAMFERB
 40
0.0
  9
$CHAMFERC
 40
0.0
  9
$CHAMFERD
 40
0.0
  9
$SKPOLY
 70
0
  9
$TDCREATE
 40
2461250.3950578705
  9
$TDUCREATE
 40
2458532.153996898
  9
$TDUPDATE
 40
2461250.3950578705
  9
$TDUUPDATE
 40
2458532.1544311
  9
$TDINDWG
 40
0.0
  9
$TDUSRTIMER
 40
0.0
  9
$USRTIMER
 70
1
  9
$ANGBASE
 50
0.0
  9
$ANGDIR
 70
0
  9
$PDMODE
 70
0
  9
$PDSIZE
 40
0.0
  9
$PLINEWID
 40
0.0
  9
$SPLFRAME
 70
0
  9
$SPLINETYPE
 70
6
  9
$SPLINESEGS
 70
8
  9
$HANDSEED
  5
1FF
  9
$SURFTAB1
 70
6
  9
$SURFTAB2
 70
6
  9
$SURFTYPE
 70
6
  9
$SURFU
 70
6
  9
$SURFV
 70
6
  9
$UCSBASE
  2

  9
$UCSNAME
  2

  9
$UCSORG
 10
0.0
 20
0.0
 30
0.0
  9
$UCSXDIR
 10
1.0
 20
0.0
 30
0.0
  9
$UCSYDIR
 10
0.0
 20
1.0
 30
0.0
  9
$UCSORTHOREF
  2

  9
$UCSORTHOVIEW
 70
0
  9
$UCSORGTOP
 10
0.0
 20
0.0
 30
0.0
  9
$UCSORGBOTTOM
 10
0.0
 20
0.0
 30
0.0
  9
$UCSORGLEFT
 10
0.0
 20
0.0
 30
0.0
  9
$UCSORGRIGHT
 10
0.0
 20
0.0
 30
0.0
  9
$UCSORGFRONT
 10
0.0
 20
0.0
 30
0.0
  9
$UCSORGBACK
 10
0.0
 20
0.0
 30
0.0
  9
$PUCSBASE
  2

  9
$PUCSNAME
  2

  9
$PUCSORG
 10
0.0
 20
0.0
 30
0.0
  9
$PUCSXDIR
 10
1.0
 20
0.0
 30
0.0
  9
$PUCSYDIR
 10
0.0
 20
1.0
 30
0.0
  9
$PUCSORTHOREF
  2

  9
$PUCSORTHOVIEW
 70
0
  9
$PUCSORGTOP
 10
0.0
 20
0.0
 30
0.0
  9
$PUCSORGBOTTOM
 10
0.0
 20
0.0
 30
0.0
  9
$PUCSORGLEFT
 10
0.0
 20
0.0
 30
0.0
  9
$PUCSORGRIGHT
 10
0.0
 20
0.0
 30
0.0
  9
$PUCSORGFRONT
 10
0.0
 20
0.0
 30
0.0
  9
$PUCSORGBACK
 10
0.0
 20
0.0
 30
0.0
  9
$USERI1
 70
0
  9
$USERI2
 70
0
  9
$USERI3
 70
0
  9
$USERI4
 70
0
  9
$USERI5
 70
0
  9
$USERR1
 40
0.0
  9
$USERR2
 40
0.0
  9
$USERR3
 40
0.0
  9
$USERR4
 40
0.0
  9
$USERR5
 40
0.0
  9
$WORLDVIEW
 70
1
  9
$SHADEDGE
 70
3
  9
$SHADEDIF
 70
70
  9
$TILEMODE
 70
1
  9
$MAXACTVP
 70
64
  9
$PINSBASE
 10
0.0
 20
0.0
 30
0.0
  9
$PLIMCHECK
 70
0
  9
$PEXTMIN
 10
1e+20
 20
1e+20
 30
1e+20
  9
$PEXTMAX
 10
-1e+20
 20
-1e+20
 30
-1e+20
  9
$PLIMMIN
 10
0.0
 20
0.0
  9
$PLIMMAX
 10
420.0
 20
297.0
  9
$UNITMODE
 70
0
  9
$VISRETAIN
 70
1
  9
$PLINEGEN
 70
0
  9
$PSLTSCALE
 70
1
  9
$TREEDEPTH
 70
3020
  9
$CMLSTYLE
  2
Standard
  9
$CMLJUST
 70
0
  9
$CMLSCALE
 40
20.0
  9
$PROXYGRAPHICS
 70
1
  9
$MEASUREMENT
 70
1
  9
$CELWEIGHT
370
-1
  9
$ENDCAPS
280
0
  9
$JOINSTYLE
280
0
  9
$LWDISPLAY
290
0
  9
$INSUNITS
 70
6
  9
$HYPERLINKBASE
  1

  9
$STYLESHEET
  1

  9
$XEDIT
290
1
  9
$CEPSNTYPE
380
0
  9
$PSTYLEMODE
290
1
  9
$FINGERPRINTGUID
  2
{692CBEA4-DD4C-42E1-942B-71D522214B74}
  9
$VERSIONGUID
  2
{37DDCF2F-AD7A-4DD1-A9CA-B1344F6A0F53}
  9
$EXTNAMES
290
1
  9
$PSVPSCALE
 40
0.0
  9
$OLESTARTUP
290
0
  9
$SORTENTS
280
127
  9
$INDEXCTL
280
0
  9
$HIDETEXT
280
1
  9
$XCLIPFRAME
280
1
  9
$HALOGAP
280
0
  9
$OBSCOLOR
 70
257
  9
$OBSLTYPE
280
0
  9
$INTERSECTIONDISPLAY
280
0
  9
$INTERSECTIONCOLOR
 70
257
  9
$DIMASSOC
280
2
  9
$PROJECTNAME
  1

  9
$CAMERADISPLAY
290
0
  9
$LENSLENGTH
 40
50.0
  9
$CAMERAHEIGHT
 40
0.0
  9
$STEPSPERSEC
 40
24.0
  9
$STEPSIZE
 40
100.0
  9
$3DDWFPREC
 40
2.0
  9
$PSOLWIDTH
 40
0.005
  9
$PSOLHEIGHT
 40
0.08
  9
$LOFTANG1
 40
1.570796326795
  9
$LOFTANG2
 40
1.570796326795
  9
$LOFTMAG1
 40
0.0
  9
$LOFTMAG2
 40
0.0
  9
$LOFTPARAM
 70
7
  9
$LOFTNORMALS
280
1
  9
$LATITUDE
 40
37.795
  9
$LONGITUDE
 40
-122.394
  9
$NORTHDIRECTION
 40
0.0
  9
$TIMEZONE
 70
-8000
  9
$LIGHTGLYPHDISPLAY
280
1
  9
$TILEMODELIGHTSYNCH
280
1
  9
$CMATERIAL
347
20
  9
$SOLIDHIST
280
0
  9
$SHOWHIST
280
1
  9
$DWFFRAME
280
2
  9
$DGNFRAME
280
2
  9
$REALWORLDSCALE
290
1
  9
$INTERFERECOLOR
 62
256
  9
$CSHADOW
280
0
  9
$SHADOWPLANELOCATION
 40
0.0
  0
ENDSEC
  0
SECTION
  2
CLASSES
  0
CLASS
  1
ACDBDICTIONARYWDFLT
  2
AcDbDictionaryWithDefault
  3
ObjectDBX Classes
 90
0
 91
0
280
0
281
0
  0
CLASS
  1
SUN
  2
AcDbSun
  3
SCENEOE
 90
1153
 91
0
280
0
281
0
  0
CLASS
  1
VISUALSTYLE
  2
AcDbVisualStyle
  3
ObjectDBX Classes
 90
4095
 91
0
280
0
281
0
  0
CLASS
  1
MATERIAL
  2
AcDbMaterial
  3
ObjectDBX Classes
 90
1153
 91
0
280
0
281
0
  0
CLASS
  1
SCALE
  2
AcDbScale
  3
ObjectDBX Classes
 90
1153
 91
0
280
0
281
0
  0
CLASS
  1
TABLESTYLE
  2
AcDbTableStyle
  3
ObjectDBX Classes
 90
4095
 91
0
280
0
281
0
  0
CLASS
  1
MLEADERSTYLE
  2
AcDbMLeaderStyle
  3
ACDB_MLEADERSTYLE_CLASS
 90
4095
 91
0
280
0
281
0
  0
CLASS
  1
DICTIONARYVAR
  2
AcDbDictionaryVar
  3
ObjectDBX Classes
 90
0
 91
0
280
0
281
0
  0
CLASS
  1
CELLSTYLEMAP
  2
AcDbCellStyleMap
  3
ObjectDBX Classes
 90
1152
 91
0
280
0
281
0
  0
CLASS
  1
MENTALRAYRENDERSETTINGS
  2
AcDbMentalRayRenderSettings
  3
SCENEOE
 90
1024
 91
0
280
0
281
0
  0
CLASS
  1
ACDBDETAILVIEWSTYLE
  2
AcDbDetailViewStyle
  3
ObjectDBX Classes
 90
1025
 91
0
280
0
281
0
  0
CLASS
  1
ACDBSECTIONVIEWSTYLE
  2
AcDbSectionViewStyle
  3
ObjectDBX Classes
 90
1025
 91
0
280
0
281
0
  0
CLASS
  1
RASTERVARIABLES
  2
AcDbRasterVariables
  3
ISM
 90
0
 91
0
280
0
281
0
  0
CLASS
  1
LAYOUT
  2
AcDbLayout
  3
ObjectDBX Classes
 90
0
 91
0
280
0
281
0
  0
CLASS
  1
ACDBPLACEHOLDER
  2
AcDbPlaceHolder
  3
ObjectDBX Classes
 90
0
 91
0
280
0
281
0
  0
ENDSEC
  0
SECTION
  2
TABLES
  0
TABLE
  2
VPORT
  5
8
330
0
100
AcDbSymbolTable
 70
1
  0
VPORT
  5
23
330
8
100
AcDbSymbolTableRecord
100
AcDbViewportTableRecord
  2
*Active
 70
0
 10
0.0
 20
0.0
 11
1.0
 21
1.0
 12
0.0
 22
0.0
 13
0.0
 23
0.0
 14
0.5
 24
0.5
 15
0.5
 25
0.5
 16
0.0
 26
0.0
 36
1.0
 17
0.0
 27
0.0
 37
0.0
 40
1000.0
 41
1.34
 42
50.0
 43
0.0
 44
0.0
 50
0.0
 51
0.0
 71
0
 72
1000
 73
1
 74
3
 75
0
 76
0
 77
0
 78
0
281
0
 65
0
146
0.0
  0
ENDTAB
  0
TABLE
  2
LTYPE
  5
2
330
0
100
AcDbSymbolTable
 70
3
  0
LTYPE
  5
24
330
2
100
AcDbSymbolTableRecord
100
AcDbLinetypeTableRecord
  2
ByBlock
 70
0
  3

 72
65
 73
0
 40
0.0
  0
LTYPE
  5
25
330
2
100
AcDbSymbolTableRecord
100
AcDbLinetypeTableRecord
  2
ByLayer
 70
0
  3

 72
65
 73
0
 40
0.0
  0
LTYPE
  5
26
330
2
100
AcDbSymbolTableRecord
100
AcDbLinetypeTableRecord
  2
Continuous
 70
0
  3

 72
65
 73
0
 40
0.0
  0
ENDTAB
  0
TABLE
  2
LAYER
  5
1
330
0
100
AcDbSymbolTable
 70
5
  0
LAYER
  5
27
330
1
100
AcDbSymbolTableRecord
100
AcDbLayerTableRecord
  2
0
 70
0
 62
7
  6
Continuous
370
-3
390
13
347
21
  0
LAYER
  5
28
330
1
100
AcDbSymbolTableRecord
100
AcDbLayerTableRecord
  2
Defpoints
 70
0
 62
7
  6
Continuous
290
0
370
-3
390
13
347
21
  0
LAYER
  5
1F9
330
1
100
AcDbSymbolTableRecord
100
AcDbLayerTableRecord
  2
keypoints
 70
0
 62
1
  6
Continuous
370
-3
390
13
347
21
  0
LAYER
  5
1FA
330
1
100
AcDbSymbolTableRecord
100
AcDbLayerTableRecord
  2
lines
 70
0
 62
2
  6
Continuous
370
-3
390
13
347
21
  0
LAYER
  5
1FB
330
1
100
AcDbSymbolTableRecord
100
AcDbLayerTableRecord
  2
mesh
 70
0
 62
5
  6
Continuous
370
-3
390
13
347
21
  0
ENDTAB
  0
TABLE
  2
STYLE
  5
5
330
0
100
AcDbSymbolTable
 70
1
  0
STYLE
  5
29
330
5
100
AcDbSymbolTableRecord
100
AcDbTextStyleTableRecord
  2
Standard
 70
0
 40
0.0
 41
1.0
 50
0.0
 71
0
 42
2.5
  3
txt
  4

  0
ENDTAB
  0
TABLE
  2
VIEW
  5
7
330
0
100
AcDbSymbolTable
 70
0
  0
ENDTAB
  0
TABLE
  2
UCS
  5
6
330
0
100
AcDbSymbolTable
 70
0
  0
ENDTAB
  0
TABLE
  2
APPID
  5
3
330
0
100
AcDbSymbolTable
 70
3
  0
APPID
  5
2A
330
3
100
AcDbSymbolTableRecord
100
AcDbRegAppTableRecord
  2
ACAD
 70
0
  0
APPID
  5
1FC
330
3
100
AcDbSymbolTableRecord
100
AcDbRegAppTableRecord
  2
HATCHBACKGROUNDCOLOR
 70
0
  0
APPID
  5
1FD
330
3
100
AcDbSymbolTableRecord
100
AcDbRegAppTableRecord
  2
EZDXF
 70
0
  0
ENDTAB
  0
TABLE
  2
DIMSTYLE
  5
4
330
0
100
AcDbSymbolTable
 70
1
100
AcDbDimStyleTable
  0
DIMSTYLE
105
2B
330
4
100
AcDbSymbolTableRecord
100
AcDbDimStyleTableRecord
  2
Standard
 70
0
 40
1.0
 41
2.5
 42
0.625
 43
3.75
 44
1.25
 45
0.0
 46
0.0
 47
0.0
 48
0.0
 49
2.5
140
2.5
141
2.5
142
0.0
143
0.03937007874
144
1.0
145
0.0
146
1.0
147
0.625
148
0.0
 69
0
 70
0
 71
0
 72
0
 73
0
 74
0
 75
0
 76
0
 77
1
 78
8
 79
3
170
0
171
3
172
1
173
0
174
0
175
0
176
0
177
0
178
0
179
2
271
2
272
2
273
2
274
3
275
0
276
0
277
2
278
44
279
0
280
0
281
0
282
0
283
0
284
8
285
0
286
0
288
0
289
3
290
0
371
-2
372
-2
  0
ENDTAB
  0
TABLE
  2
BLOCK_RECORD
  5
9
330
0
100
AcDbSymbolTable
 70
2
  0
BLOCK_RECORD
  5
17
330
9
100
AcDbSymbolTableRecord
100
AcDbBlockTableRecord
  2
*Model_Space
340
1A
 70
0
280
1
281
0
  0
BLOCK_RECORD
  5
1B
330
9
100
AcDbSymbolTableRecord
100
AcDbBlockTableRecord
  2
*Paper_Space
340
1E
 70
0
280
1
281
0
  0
ENDTAB
  0
ENDSEC
  0
SECTION
  2
BLOCKS
  0
BLOCK
  5
18
330
17
100
AcDbEntity
  8
0
100
AcDbBlockBegin
  2
*Model_Space
 70
0
 10
0.0
 20
0.0
 30
0.0
  3
*Model_Space
  1

  0
ENDBLK
  5
19
330
17
100
AcDbEntity
  8
0
100
AcDbBlockEnd
  0
BLOCK
  5
1C
330
1B
100
AcDbEntity
  8
0
100
AcDbBlockBegin
  2
*Paper_Space
 70
0
 10
0.0
 20
0.0
 30
0.0
  3
*Paper_Space
  1

  0
ENDBLK
  5
1D
330
1B
100
AcDbEntity
  8
0
100
AcDbBlockEnd
  0
ENDSEC
  0
SECTION
  2
ENTITIES
  0
POINT
  5
2F
330
17
100
AcDbEntity
  8
0
100
AcDbPoint
 10
-4.813867789215674
 20
3.807480907521601
 30
3.1894172069632467
  0
CIRCLE
  5
30
330
17
100
AcDbEntity
  8
keypoints
100
AcDbCircle
 10
-4.813867789215674
 20
3.807480907521601
 30
3.1894172069632467
 40
0.05
  0
POINT
  5
31
330
17
100
AcDbEntity
  8
0
100
AcDbPoint
 10
3.691510294155421
 20
2.89500904826795
 30
3.159268107298662
  0
CIRCLE
  5
32
330
17
100
AcDbEntity
  8
keypoints
100
AcDbCircle
 10
3.691510294155421
 20
2.89500904826795
 30
3.159268107298662
 40
0.05
  0
POINT
  5
33
330
17
100
AcDbEntity
  8
0
100
AcDbPoint
 10
-0.18447639548118358
 20
-3.547062283793161
 30
3.1767941543657754
  0
CIRCLE
  5
34
330
17
100
AcDbEntity
  8
keypoints
100
AcDbCircle
 10
-0.18447639548118358
 20
-3.547062283793161
 30
3.1767941543657754
 40
0.05
  0
POINT
  5
35
330
17
100
AcDbEntity
  8
0
100
AcDbPoint
 10
-1.3992306507335552
 20
2.0108181451692935
 30
3.164339414430224
  0
CIRCLE
  5
36
330
17
100
AcDbEntity
  8
keypoints
100
AcDbCircle
 10
-1.3992306507335552
 20
2.0108181451692935
 30
3.164339414430224
 40
0.05
  0
POINT
  5
37
330
17
100
AcDbEntity
  8
0
100
AcDbPoint
 10
-5.122047948701629
 20
2.614867226282501
 30
3.240547646554242
  0
CIRCLE
  5
38
330
17
100
AcDbEntity
  8
keypoints
100
AcDbCircle
 10
-5.122047948701629
 20
2.614867226282501
 30
3.240547646554242
 40
0.05
  0
POINT
  5
39
330
17
100
AcDbEntity
  8
0
100
AcDbPoint
 10
-1.6597997829418851
 20
3.405891344148662
 30
3.1563277238263625
  0
CIRCLE
  5
3A
330
17
100
AcDbEntity
  8
keypoints
100
AcDbCircle
 10
-1.6597997829418851
 20
3.405891344148662
 30
3.1563277238263625
 40
0.05
  0
POINT
  5
3B
330
17
100
AcDbEntity
  8
0
100
AcDbPoint
 10
3.392743613105915
 20
1.3595929175583181
 30
3.1821066529458153
  0
CIRCLE
  5
3C
330
17
100
AcDbEntity
  8
keypoints
100
AcDbCircle
 10
3.392743613105915
 20
1.3595929175583181
 30
3.1821066529458153
 40
0.05
  0
POINT
  5
3D
330
17
100
AcDbEntity
  8
0
100
AcDbPoint
 10
1.183343219571015
 20
-3.818145929761253
 30
3.244746604797297
  0
CIRCLE
  5
3E
330
17
100
AcDbEntity
  8
keypoints
100
AcDbCircle
 10
1.183343219571015
 20
-3.818145929761253
 30
3.244746604797297
 40
0.05
  0
POINT
  5
3F
330
17
100
AcDbEntity
  8
0
100
AcDbPoint
 10
-1.6104149711541471
 20
-2.0185571356843397
 30
3.2112392597400388
  0
CIRCLE
  5
40
330
17
100
AcDbEntity
  8
keypoints
100
AcDbCircle
 10
-1.6104149711541471
 20
-2.0185571356843397
 30
3.2112392597400388
 40
0.05
  0
POINT
  5
41
330
17
100
AcDbEntity
  8
0
100
AcDbPoint
 10
-1.8258671541112592
 20
2.481383896837669
 30
3.191864762205036
  0
CIRCLE
  5
42
330
17
100
AcDbEntity
  8
keypoints
100
AcDbCircle
 10
-1.8258671541112592
 20
2.481383896837669
 30
3.191864762205036
 40
0.05
  0
POINT
  5
43
330
17
100
AcDbEntity
  8
0
100
AcDbPoint
 10
-5.118459503151844
 20
-0.0366258138360942
 30
3.245573889235819
  0
CIRCLE
  5
44
330
17
100
AcDbEntity
  8
keypoints
100
AcDbCircle
 10
-5.118459503151844
 20
-0.0366258138360942
 30
3.245573889235819
 40
0.05
  0
POINT
  5
45
330
17
100
AcDbEntity
  8
0
100
AcDbPoint
 10
0.1823518222397747
 20
5.106198830029675
 30
3.182914462620498
  0
CIRCLE
  5
46
330
17
100
AcDbEntity
  8
keypoints
100
AcDbCircle
 10
0.1823518222397747
 20
5.106198830029675
 30
3.182914462620498
 40
0.05
  0
POINT
  5
47
330
17
100
AcDbEntity
  8
0
100
AcDbPoint
 10
5.108069804055895
 20
-3.1234267912953584
 30
3.1522587209982844
  0
CIRCLE
  5
48
330
17
100
AcDbEntity
  8
keypoints
100
AcDbCircle
 10
5.108069804055895
 20
-3.1234267912953584
 30
3.1522587209982844
 40
0.05
  0
POINT
  5
49
330
17
100
AcDbEntity
  8
0
100
AcDbPoint
 10
-1.8101544881116403
 20
0.8073241885954343
 30
3.1964334017958653
  0
CIRCLE
  5
4A
330
17
100
AcDbEntity
  8
keypoints
100
AcDbCircle
 10
-1.8101544881116403
 20
0.8073241885954343
 30
3.1964334017958653
 40
0.05
  0
POINT
  5
4B
330
17
100
AcDbEntity
  8
0
100
AcDbPoint
 10
0.3452611453257743
 20
5.105215018223967
 30
3.2362813625271447
  0
CIRCLE
  5
4C
330
17
100
AcDbEntity
  8
keypoints
100
AcDbCircle
 10
0.3452611453257743
 20
5.105215018223967
 30
3.2362813625271447
 40
0.05
  0
POINT
  5
4D
330
17
100
AcDbEntity
  8
0
100
AcDbPoint
 10
2.713775219935959
 20
0.16480729984955
 30
3.1885753543904336
  0
CIRCLE
  5
4E
330
17
100
AcDbEntity
  8
keypoints
100
AcDbCircle
 10
2.713775219935959
 20
0.16480729984955
 30
3.1885753543904336
 40
0.05
  0
POINT
  5
4F
330
17
100
AcDbEntity
  8
0
100
AcDbPoint
 10
3.2795021098122397
 20
1.5222448104739306
 30
3.2193321892434192
  0
CIRCLE
  5
50
330
17
100
AcDbEntity
  8
keypoints
100
AcDbCircle
 10
3.2795021098122397
 20
1.5222448104739306
 30
3.2193321892434192
 40
0.05
  0
POINT
  5
51
330
17
100
AcDbEntity
  8
0
100
AcDbPoint
 10
2.7309925987721426
 20
1.308330593390738
 30
3.2232214007700275
  0
CIRCLE
  5
52
330
17
100
AcDbEntity
  8
keypoints
100
AcDbCircle
 10
2.7309925987721426
 20
1.308330593390738
 30
3.2232214007700275
 40
0.05
  0
POINT
  5
53
330
17
100
AcDbEntity
  8
0
100
AcDbPoint
 10
2.6855845538278174
 20
3.082891640113397
 30
3.151897998405219
  0
CIRCLE
  5
54
330
17
100
AcDbEntity
  8
keypoints
100
AcDbCircle
 10
2.6855845538278174
 20
3.082891640113397
 30
3.151897998405219
 40
0.05
  0
POINT
  5
55
330
17
100
AcDbEntity
  8
0
100
AcDbPoint
 10
-0.7256398389649972
 20
2.3964850037706085
 30
3.2403304675558138
  0
CIRCLE
  5
56
330
17
100
AcDbEntity
  8
keypoints
100
AcDbCircle
 10
-0.7256398389649972
 20
2.3964850037706085
 30
3.2403304675558138
 40
0.05
  0
POINT
  5
57
330
17
100
AcDbEntity
  8
0
100
AcDbPoint
 10
-1.3711178492893767
 20
-0.40761208684725525
 30
3.1757760585140504
  0
CIRCLE
  5
58
330
17
100
AcDbEntity
  8
keypoints
100
AcDbCircle
 10
-1.3711178492893767
 20
-0.40761208684725525
 30
3.1757760585140504
 40
0.05
  0
POINT
  5
59
330
17
100
AcDbEntity
  8
0
100
AcDbPoint
 10
-1.733059395200132
 20
2.2870041886012
 30
3.2444310746240532
  0
CIRCLE
  5
5A
330
17
100
AcDbEntity
  8
keypoints
100
AcDbCircle
 10
-1.733059395200132
 20
2.2870041886012
 30
3.2444310746240532
 40
0.05
  0
POINT
  5
5B
330
17
100
AcDbEntity
  8
0
100
AcDbPoint
 10
3.9906913308772713
 20
4.0063447505293635
 30
3.1790522065338758
  0
CIRCLE
  5
5C
330
17
100
AcDbEntity
  8
keypoints
100
AcDbCircle
 10
3.9906913308772713
 20
4.0063447505293635
 30
3.1790522065338758
 40
0.05
  0
POINT
  5
5D
330
17
100
AcDbEntity
  8
0
100
AcDbPoint
 10
4.967265805303311
 20
-2.8037041307586
 30
3.15218580772234
  0
CIRCLE
  5
5E
330
17
100
AcDbEntity
  8
keypoints
100
AcDbCircle
 10
4.967265805303311
 20
-2.8037041307586
 30
3.15218580772234
 40
0.05
  0
POINT
  5
5F
330
17
100
AcDbEntity
  8
0
100
AcDbPoint
 10
4.506570954586598
 20
-2.5348092985718234
 30
3.182630329190666
  0
CIRCLE
  5
60
330
17
100
AcDbEntity
  8
keypoints
100
AcDbCircle
 10
4.506570954586598
 20
-2.5348092985718234
 30
3.182630329190666
 40
0.05
  0
POINT
  5
61
330
17
100
AcDbEntity
  8
0
100
AcDbPoint
 10
2.9272257074452965
 20
0.8666182912678045
 30
3.1586330932695246
  0
CIRCLE
  5
62
330
17
100
AcDbEntity
  8
keypoints
100
AcDbCircle
 10
2.9272257074452965
 20
0.8666182912678045
 30
3.1586330932695246
 40
0.05
  0
POINT
  5
63
330
17
100
AcDbEntity
  8
0
100
AcDbPoint
 10
2.031377440672111
 20
5.308499494691293
 30
3.2035406295078954
  0
CIRCLE
  5
64
330
17
100
AcDbEntity
  8
keypoints
100
AcDbCircle
 10
2.031377440672111
 20
5.308499494691293
 30
3.2035406295078954
 40
0.05
  0
POINT
  5
65
330
17
100
AcDbEntity
  8
0
100
AcDbPoint
 10
2.2645188628075426
 20
-0.36553287597265727
 30
3.1976325941351473
  0
CIRCLE
  5
66
330
17
100
AcDbEntity
  8
keypoints
100
AcDbCircle
 10
2.2645188628075426
 20
-0.36553287597265727
 30
3.1976325941351473
 40
0.05
  0
POINT
  5
67
330
17
100
AcDbEntity
  8
0
100
AcDbPoint
 10
-1.7063219094842799
 20
3.082266659967196
 30
3.202285589193285
  0
CIRCLE
  5
68
330
17
100
AcDbEntity
  8
keypoints
100
AcDbCircle
 10
-1.7063219094842799
 20
3.082266659967196
 30
3.202285589193285
 40
0.05
  0
POINT
  5
69
330
17
100
AcDbEntity
  8
0
100
AcDbPoint
 10
1.321795996168795
 20
-3.702737933766959
 30
3.176674018629803
  0
CIRCLE
  5
6A
330
17
100
AcDbEntity
  8
keypoints
100
AcDbCircle
 10
1.321795996168795
 20
-3.702737933766959
 30
3.176674018629803
 40
0.05
  0
POINT
  5
6B
330
17
100
AcDbEntity
  8
0
100
AcDbPoint
 10
-1.6532521276916614
 20
-2.2177526917288573
 30
3.197299608323418
  0
CIRCLE
  5
6C
330
17
100
AcDbEntity
  8
keypoints
100
AcDbCircle
 10
-1.6532521276916614
 20
-2.2177526917288573
 30
3.197299608323418
 40
0.05
  0
POINT
  5
6D
330
17
100
AcDbEntity
  8
0
100
AcDbPoint
 10
-5.630698318914158
 20
1.7843708192401702
 30
3.158949568910935
  0
CIRCLE
  5
6E
330
17
100
AcDbEntity
  8
keypoints
100
AcDbCircle
 10
-5.630698318914158
 20
1.7843708192401702
 30
3.158949568910935
 40
0.05
  0
POINT
  5
6F
330
17
100
AcDbEntity
  8
0
100
AcDbPoint
 10
-5.8382212528038835
 20
1.2989896243553982
 30
3.1892805163243283
  0
CIRCLE
  5
70
330
17
100
AcDbEntity
  8
keypoints
100
AcDbCircle
 10
-5.8382212528038835
 20
1.2989896243553982
 30
3.1892805163243283
 40
0.05
  0
POINT
  5
71
330
17
100
AcDbEntity
  8
0
100
AcDbPoint
 10
-1.3953191779636076
 20
-1.1445991470251962
 30
3.214656360967534
  0
CIRCLE
  5
72
330
17
100
AcDbEntity
  8
keypoints
100
AcDbCircle
 10
-1.3953191779636076
 20
-1.1445991470251962
 30
3.214656360967534
 40
0.05
  0
POINT
  5
73
330
17
100
AcDbEntity
  8
0
100
AcDbPoint
 10
-1.0449539876328497
 20
0.8732130392649395
 30
3.1535981403996014
  0
CIRCLE
  5
74
330
17
100
AcDbEntity
  8
keypoints
100
AcDbCircle
 10
-1.0449539876328497
 20
0.8732130392649395
 30
3.1535981403996014
 40
0.05
  0
POINT
  5
75
330
17
100
AcDbEntity
  8
0
100
AcDbPoint
 10
-2.3391317502578577
 20
-0.7114239827119107
 30
3.190092517969401
  0
CIRCLE
  5
76
330
17
100
AcDbEntity
  8
keypoints
100
AcDbCircle
 10
-2.3391317502578577
 20
-0.7114239827119107
 30
3.190092517969401
 40
0.05
  0
POINT
  5
77
330
17
100
AcDbEntity
  8
0
100
AcDbPoint
 10
-2.8978337201756577
 20
-0.6929588813804568
 30
3.161168213892138
  0
CIRCLE
  5
78
330
17
100
AcDbEntity
  8
keypoints
100
AcDbCircle
 10
-2.8978337201756577
 20
-0.6929588813804568
 30
3.161168213892138
 40
0.05
  0
POINT
  5
79
330
17
100
AcDbEntity
  8
0
100
AcDbPoint
 10
-3.7442922948376247
 20
-0.5879451431096567
 30
3.1918456658802823
  0
CIRCLE
  5
7A
330
17
100
AcDbEntity
  8
keypoints
100
AcDbCircle
 10
-3.7442922948376247
 20
-0.5879451431096567
 30
3.1918456658802823
 40
0.05
  0
POINT
  5
7B
330
17
100
AcDbEntity
  8
0
100
AcDbPoint
 10
-5.099763300728453
 20
-0.21726648587526975
 30
3.2036313949514694
  0
CIRCLE
  5
7C
330
17
100
AcDbEntity
  8
keypoints
100
AcDbCircle
 10
-5.099763300728453
 20
-0.21726648587526975
 30
3.2036313949514694
 40
0.05
  0
POINT
  5
7D
330
17
100
AcDbEntity
  8
0
100
AcDbPoint
 10
-0.30455416265792257
 20
4.994792867048729
 30
3.174163202593551
  0
CIRCLE
  5
7E
330
17
100
AcDbEntity
  8
keypoints
100
AcDbCircle
 10
-0.30455416265792257
 20
4.994792867048729
 30
3.174163202593551
 40
0.05
  0
POINT
  5
7F
330
17
100
AcDbEntity
  8
0
100
AcDbPoint
 10
-0.5892199916446195
 20
4.812176401871405
 30
3.173428814859164
  0
CIRCLE
  5
80
330
17
100
AcDbEntity
  8
keypoints
100
AcDbCircle
 10
-0.5892199916446195
 20
4.812176401871405
 30
3.173428814859164
 40
0.05
  0
POINT
  5
81
330
17
100
AcDbEntity
  8
0
100
AcDbPoint
 10
4.039524101190959
 20
4.367052714975717
 30
3.1542954270852572
  0
CIRCLE
  5
82
330
17
100
AcDbEntity
  8
keypoints
100
AcDbCircle
 10
4.039524101190959
 20
4.367052714975717
 30
3.1542954270852572
 40
0.05
  0
POINT
  5
83
330
17
100
AcDbEntity
  8
0
100
AcDbPoint
 10
4.337298179977948
 20
5.415655439834384
 30
3.19739599742919
  0
CIRCLE
  5
84
330
17
100
AcDbEntity
  8
keypoints
100
AcDbCircle
 10
4.337298179977948
 20
5.415655439834384
 30
3.19739599742919
 40
0.05
  0
POINT
  5
85
330
17
100
AcDbEntity
  8
0
100
AcDbPoint
 10
-0.5794968453447118
 20
3.4196398849217777
 30
3.1944889777295975
  0
CIRCLE
  5
86
330
17
100
AcDbEntity
  8
keypoints
100
AcDbCircle
 10
-0.5794968453447118
 20
3.4196398849217777
 30
3.1944889777295975
 40
0.05
  0
POINT
  5
87
330
17
100
AcDbEntity
  8
0
100
AcDbPoint
 10
4.210519301294648
 20
4.834056309045893
 30
3.2251706790636714
  0
CIRCLE
  5
88
330
17
100
AcDbEntity
  8
keypoints
100
AcDbCircle
 10
4.210519301294648
 20
4.834056309045893
 30
3.2251706790636714
 40
0.05
  0
POINT
  5
89
330
17
100
AcDbEntity
  8
0
100
AcDbPoint
 10
0.5432628720234527
 20
5.156716008620017
 30
3.2499204330591596
  0
CIRCLE
  5
8A
330
17
100
AcDbEntity
  8
keypoints
100
AcDbCircle
 10
0.5432628720234527
 20
5.156716008620017
 30
3.2499204330591596
 40
0.05
  0
POINT
  5
8B
330
17
100
AcDbEntity
  8
0
100
AcDbPoint
 10
3.075356115983997
 20
1.2348757027157284
 30
3.1970454650187197
  0
CIRCLE
  5
8C
330
17
100
AcDbEntity
  8
keypoints
100
AcDbCircle
 10
3.075356115983997
 20
1.2348757027157284
 30
3.1970454650187197
 40
0.05
  0
POINT
  5
8D
330
17
100
AcDbEntity
  8
0
100
AcDbPoint
 10
-1.3149277343016916
 20
0.009695770951061888
 30
3.16961720416552
  0
CIRCLE
  5
8E
330
17
100
AcDbEntity
  8
keypoints
100
AcDbCircle
 10
-1.3149277343016916
 20
0.009695770951061888
 30
3.16961720416552
 40
0.05
  0
POINT
  5
8F
330
17
100
AcDbEntity
  8
0
100
AcDbPoint
 10
2.573160831596428
 20
-1.0718364798381617
 30
3.197697694718422
  0
CIRCLE
  5
90
330
17
100
AcDbEntity
  8
keypoints
100
AcDbCircle
 10
2.573160831596428
 20
-1.0718364798381617
 30
3.197697694718422
 40
0.05
  0
POINT
  5
91
330
17
100
AcDbEntity
  8
0
100
AcDbPoint
 10
3.571274734116085
 20
1.3336918360205305
 30
3.156274707663086
  0
CIRCLE
  5
92
330
17
100
AcDbEntity
  8
keypoints
100
AcDbCircle
 10
3.571274734116085
 20
1.3336918360205305
 30
3.156274707663086
 40
0.05
  0
POINT
  5
93
330
17
100
AcDbEntity
  8
0
100
AcDbPoint
 10
2.7740301287431195
 20
-0.519155019225064
 30
3.21032206137654
  0
CIRCLE
  5
94
330
17
100
AcDbEntity
  8
keypoints
100
AcDbCircle
 10
2.7740301287431195
 20
-0.519155019225064
 30
3.21032206137654
 40
0.05
  0
POINT
  5
95
330
17
100
AcDbEntity
  8
0
100
AcDbPoint
 10
2.458603891988466
 20
0.037619969031269074
 30
3.211025377500229
  0
CIRCLE
  5
96
330
17
100
AcDbEntity
  8
keypoints
100
AcDbCircle
 10
2.458603891988466
 20
0.037619969031269074
 30
3.211025377500229
 40
0.05
  0
POINT
  5
97
330
17
100
AcDbEntity
  8
0
100
AcDbPoint
 10
2.604938694314943
 20
1.9833878754076921
 30
3.186414735802363
  0
CIRCLE
  5
98
330
17
100
AcDbEntity
  8
keypoints
100
AcDbCircle
 10
2.604938694314943
 20
1.9833878754076921
 30
3.186414735802363
 40
0.05
  0
POINT
  5
99
330
17
100
AcDbEntity
  8
0
100
AcDbPoint
 10
0.9064416398536164
 20
-3.268263598989453
 30
3.1661936144030633
  0
CIRCLE
  5
9A
330
17
100
AcDbEntity
  8
keypoints
100
AcDbCircle
 10
0.9064416398536164
 20
-3.268263598989453
 30
3.1661936144030633
 40
0.05
  0
POINT
  5
9B
330
17
100
AcDbEntity
  8
0
100
AcDbPoint
 10
4.566976664205514
 20
-3.1257490737368867
 30
3.1520640389455785
  0
CIRCLE
  5
9C
330
17
100
AcDbEntity
  8
keypoints
100
AcDbCircle
 10
4.566976664205514
 20
-3.1257490737368867
 30
3.1520640389455785
 40
0.05
  0
POINT
  5
9D
330
17
100
AcDbEntity
  8
0
100
AcDbPoint
 10
-0.5351746129369483
 20
-3.505142465735098
 30
3.1704437699887587
  0
CIRCLE
  5
9E
330
17
100
AcDbEntity
  8
keypoints
100
AcDbCircle
 10
-0.5351746129369483
 20
-3.505142465735098
 30
3.1704437699887587
 40
0.05
  0
POINT
  5
9F
330
17
100
AcDbEntity
  8
0
100
AcDbPoint
 10
-4.889160967938901
 20
-0.4088248575795361
 30
3.155938119323996
  0
CIRCLE
  5
A0
330
17
100
AcDbEntity
  8
keypoints
100
AcDbCircle
 10
-4.889160967938901
 20
-0.4088248575795361
 30
3.155938119323996
 40
0.05
  0
POINT
  5
A1
330
17
100
AcDbEntity
  8
0
100
AcDbPoint
 10
-0.8959827532173634
 20
0.6831859532416582
 30
3.204858126991449
  0
CIRCLE
  5
A2
330
17
100
AcDbEntity
  8
keypoints
100
AcDbCircle
 10
-0.8959827532173634
 20
0.6831859532416582
 30
3.204858126991449
 40
0.05
  0
POINT
  5
A3
330
17
100
AcDbEntity
  8
0
100
AcDbPoint
 10
-2.644452727088921
 20
-0.6962716959486543
 30
3.230526874994351
  0
CIRCLE
  5
A4
330
17
100
AcDbEntity
  8
keypoints
100
AcDbCircle
 10
-2.644452727088921
 20
-0.6962716959486543
 30
3.230526874994351
 40
0.05
  0
POINT
  5
A5
330
17
100
AcDbEntity
  8
0
100
AcDbPoint
 10
-1.940018863284469
 20
0.6340782571047472
 30
3.169255289153635
  0
CIRCLE
  5
A6
330
17
100
AcDbEntity
  8
keypoints
100
AcDbCircle
 10
-1.940018863284469
 20
0.6340782571047472
 30
3.169255289153635
 40
0.05
  0
POINT
  5
A7
330
17
100
AcDbEntity
  8
0
100
AcDbPoint
 10
3.659951740652881
 20
2.6314708349169105
 30
3.1777255281062056
  0
CIRCLE
  5
A8
330
17
100
AcDbEntity
  8
keypoints
100
AcDbCircle
 10
3.659951740652881
 20
2.6314708349169105
 30
3.1777255281062056
 40
0.05
  0
POINT
  5
A9
330
17
100
AcDbEntity
  8
0
100
AcDbPoint
 10
-1.7984093948215174
 20
2.4845534964729046
 30
3.1940162085411936
  0
CIRCLE
  5
AA
330
17
100
AcDbEntity
  8
keypoints
100
AcDbCircle
 10
-1.7984093948215174
 20
2.4845534964729046
 30
3.1940162085411936
 40
0.05
  0
POINT
  5
AB
330
17
100
AcDbEntity
  8
0
100
AcDbPoint
 10
2.583885854985585
 20
1.6906634132492306
 30
3.2372837222122293
  0
CIRCLE
  5
AC
330
17
100
AcDbEntity
  8
keypoints
100
AcDbCircle
 10
2.583885854985585
 20
1.6906634132492306
 30
3.2372837222122293
 40
0.05
  0
POINT
  5
AD
330
17
100
AcDbEntity
  8
0
100
AcDbPoint
 10
4.687143073163487
 20
7.174161268918021
 30
3.2494907002884785
  0
CIRCLE
  5
AE
330
17
100
AcDbEntity
  8
keypoints
100
AcDbCircle
 10
4.687143073163487
 20
7.174161268918021
 30
3.2494907002884785
 40
0.05
  0
POINT
  5
AF
330
17
100
AcDbEntity
  8
0
100
AcDbPoint
 10
-3.5435749128636336
 20
-0.6012517731305438
 30
3.199956918827546
  0
CIRCLE
  5
B0
330
17
100
AcDbEntity
  8
keypoints
100
AcDbCircle
 10
-3.5435749128636336
 20
-0.6012517731305438
 30
3.199956918827546
 40
0.05
  0
POINT
  5
B1
330
17
100
AcDbEntity
  8
0
100
AcDbPoint
 10
-3.9392460362728476
 20
-0.5586953417528975
 30
3.186100306831094
  0
CIRCLE
  5
B2
330
17
100
AcDbEntity
  8
keypoints
100
AcDbCircle
 10
-3.9392460362728476
 20
-0.5586953417528975
 30
3.186100306831094
 40
0.05
  0
POINT
  5
B3
330
17
100
AcDbEntity
  8
0
100
AcDbPoint
 10
-5.78158711942774
 20
2.490137456670784
 30
3.220433589327584
  0
CIRCLE
  5
B4
330
17
100
AcDbEntity
  8
keypoints
100
AcDbCircle
 10
-5.78158711942774
 20
2.490137456670784
 30
3.220433589327584
 40
0.05
  0
POINT
  5
B5
330
17
100
AcDbEntity
  8
0
100
AcDbPoint
 10
-1.5976165808974148
 20
-1.7658862378745408
 30
3.20404376310657
  0
CIRCLE
  5
B6
330
17
100
AcDbEntity
  8
keypoints
100
AcDbCircle
 10
-1.5976165808974148
 20
-1.7658862378745408
 30
3.20404376310657
 40
0.05
  0
POINT
  5
B7
330
17
100
AcDbEntity
  8
0
100
AcDbPoint
 10
4.527847709213817
 20
-2.872669057437159
 30
3.1814195555266913
  0
CIRCLE
  5
B8
330
17
100
AcDbEntity
  8
keypoints
100
AcDbCircle
 10
4.527847709213817
 20
-2.872669057437159
 30
3.1814195555266913
 40
0.05
  0
POINT
  5
B9
330
17
100
AcDbEntity
  8
0
100
AcDbPoint
 10
-0.0025352552077826107
 20
-3.541382124761113
 30
3.220728031338809
  0
CIRCLE
  5
BA
330
17
100
AcDbEntity
  8
keypoints
100
AcDbCircle
 10
-0.0025352552077826107
 20
-3.541382124761113
 30
3.220728031338809
 40
0.05
  0
POINT
  5
BB
330
17
100
AcDbEntity
  8
0
100
AcDbPoint
 10
3.915043200677669
 20
3.786872382663888
 30
3.201677558663717
  0
CIRCLE
  5
BC
330
17
100
AcDbEntity
  8
keypoints
100
AcDbCircle
 10
3.915043200677669
 20
3.786872382663888
 30
3.201677558663717
 40
0.05
  0
POINT
  5
BD
330
17
100
AcDbEntity
  8
0
100
AcDbPoint
 10
4.081712401182025
 20
4.5254637059883915
 30
3.2147451442037607
  0
CIRCLE
  5
BE
330
17
100
AcDbEntity
  8
keypoints
100
AcDbCircle
 10
4.081712401182025
 20
4.5254637059883915
 30
3.2147451442037607
 40
0.05
  0
POINT
  5
BF
330
17
100
AcDbEntity
  8
0
100
AcDbPoint
 10
4.68753807735005
 20
7.17968524840642
 30
3.2083957725360928
  0
CIRCLE
  5
C0
330
17
100
AcDbEntity
  8
keypoints
100
AcDbCircle
 10
4.68753807735005
 20
7.17968524840642
 30
3.2083957725360928
 40
0.05
  0
POINT
  5
C1
330
17
100
AcDbEntity
  8
0
100
AcDbPoint
 10
2.8654503131392555
 20
1.4260091674609245
 30
3.190358705548144
  0
CIRCLE
  5
C2
330
17
100
AcDbEntity
  8
keypoints
100
AcDbCircle
 10
2.8654503131392555
 20
1.4260091674609245
 30
3.190358705548144
 40
0.05
  0
POINT
  5
C3
330
17
100
AcDbEntity
  8
0
100
AcDbPoint
 10
2.6393370426729073
 20
4.75345281405184
 30
3.172216941355375
  0
CIRCLE
  5
C4
330
17
100
AcDbEntity
  8
keypoints
100
AcDbCircle
 10
2.6393370426729073
 20
4.75345281405184
 30
3.172216941355375
 40
0.05
  0
POINT
  5
C5
330
17
100
AcDbEntity
  8
0
100
AcDbPoint
 10
2.2113803482338468
 20
5.032583353117123
 30
3.157173161370798
  0
CIRCLE
  5
C6
330
17
100
AcDbEntity
  8
keypoints
100
AcDbCircle
 10
2.2113803482338468
 20
5.032583353117123
 30
3.157173161370798
 40
0.05
  0
POINT
  5
C7
330
17
100
AcDbEntity
  8
0
100
AcDbPoint
 10
1.4115069835527108
 20
5.430076054166655
 30
3.2349649060062067
  0
CIRCLE
  5
C8
330
17
100
AcDbEntity
  8
keypoints
100
AcDbCircle
 10
1.4115069835527108
 20
5.430076054166655
 30
3.2349649060062067
 40
0.05
  0
POINT
  5
C9
330
17
100
AcDbEntity
  8
0
100
AcDbPoint
 10
2.835344984026983
 20
4.479999201430197
 30
3.1684044094613713
  0
CIRCLE
  5
CA
330
17
100
AcDbEntity
  8
keypoints
100
AcDbCircle
 10
2.835344984026983
 20
4.479999201430197
 30
3.1684044094613713
 40
0.05
  0
POINT
  5
CB
330
17
100
AcDbEntity
  8
0
100
AcDbPoint
 10
4.239958568294394
 20
5.015913405472125
 30
3.158719773735287
  0
CIRCLE
  5
CC
330
17
100
AcDbEntity
  8
keypoints
100
AcDbCircle
 10
4.239958568294394
 20
5.015913405472125
 30
3.158719773735287
 40
0.05
  0
POINT
  5
CD
330
17
100
AcDbEntity
  8
0
100
AcDbPoint
 10
3.3509504189915003
 20
1.733932263910826
 30
3.1567824986160695
  0
CIRCLE
  5
CE
330
17
100
AcDbEntity
  8
keypoints
100
AcDbCircle
 10
3.3509504189915003
 20
1.733932263910826
 30
3.1567824986160695
 40
0.05
  0
POINT
  5
CF
330
17
100
AcDbEntity
  8
0
100
AcDbPoint
 10
-0.630932722465787
 20
3.7920760625065544
 30
3.2497936745465377
  0
CIRCLE
  5
D0
330
17
100
AcDbEntity
  8
keypoints
100
AcDbCircle
 10
-0.630932722465787
 20
3.7920760625065544
 30
3.2497936745465377
 40
0.05
  0
POINT
  5
D1
330
17
100
AcDbEntity
  8
0
100
AcDbPoint
 10
-0.7077735268146337
 20
3.9734058312758176
 30
3.2130729421205517
  0
CIRCLE
  5
D2
330
17
100
AcDbEntity
  8
keypoints
100
AcDbCircle
 10
-0.7077735268146337
 20
3.9734058312758176
 30
3.2130729421205517
 40
0.05
  0
POINT
  5
D3
330
17
100
AcDbEntity
  8
0
100
AcDbPoint
 10
-0.7544392327151777
 20
4.631679575785987
 30
3.2496711821235933
  0
CIRCLE
  5
D4
330
17
100
AcDbEntity
  8
keypoints
100
AcDbCircle
 10
-0.7544392327151777
 20
4.631679575785987
 30
3.2496711821235933
 40
0.05
  0
POINT
  5
D5
330
17
100
AcDbEntity
  8
0
100
AcDbPoint
 10
-1.7241396883615545
 20
3.230257532238484
 30
3.2063316981080123
  0
CIRCLE
  5
D6
330
17
100
AcDbEntity
  8
keypoints
100
AcDbCircle
 10
-1.7241396883615545
 20
3.230257532238484
 30
3.2063316981080123
 40
0.05
  0
POINT
  5
D7
330
17
100
AcDbEntity
  8
0
100
AcDbPoint
 10
-1.5361316016275044
 20
0.9142397285249712
 30
3.1841364394098033
  0
CIRCLE
  5
D8
330
17
100
AcDbEntity
  8
keypoints
100
AcDbCircle
 10
-1.5361316016275044
 20
0.9142397285249712
 30
3.1841364394098033
 40
0.05
  0
POINT
  5
D9
330
17
100
AcDbEntity
  8
0
100
AcDbPoint
 10
-5.63262217534189
 20
1.5323725559213108
 30
3.154307770145269
  0
CIRCLE
  5
DA
330
17
100
AcDbEntity
  8
keypoints
100
AcDbCircle
 10
-5.63262217534189
 20
1.5323725559213108
 30
3.154307770145269
 40
0.05
  0
POINT
  5
DB
330
17
100
AcDbEntity
  8
0
100
AcDbPoint
 10
-1.8381231397407496
 20
4.946183832961806
 30
3.1719348516618724
  0
CIRCLE
  5
DC
330
17
100
AcDbEntity
  8
keypoints
100
AcDbCircle
 10
-1.8381231397407496
 20
4.946183832961806
 30
3.1719348516618724
 40
0.05
  0
POINT
  5
DD
330
17
100
AcDbEntity
  8
0
100
AcDbPoint
 10
3.760832359717129
 20
3.0841680469008566
 30
3.2376784696838583
  0
CIRCLE
  5
DE
330
17
100
AcDbEntity
  8
keypoints
100
AcDbCircle
 10
3.760832359717129
 20
3.0841680469008566
 30
3.2376784696838583
 40
0.05
  0
POINT
  5
DF
330
17
100
AcDbEntity
  8
0
100
AcDbPoint
 10
-5.646383581501879
 20
2.2318434036396964
 30
3.15808809462471
  0
CIRCLE
  5
E0
330
17
100
AcDbEntity
  8
keypoints
100
AcDbCircle
 10
-5.646383581501879
 20
2.2318434036396964
 30
3.15808809462471
 40
0.05
  0
POINT
  5
E1
330
17
100
AcDbEntity
  8
0
100
AcDbPoint
 10
-1.7926938159013621
 20
2.7809917511493465
 30
3.1966817853299627
  0
CIRCLE
  5
E2
330
17
100
AcDbEntity
  8
keypoints
100
AcDbCircle
 10
-1.7926938159013621
 20
2.7809917511493465
 30
3.1966817853299627
 40
0.05
  0
POINT
  5
E3
330
17
100
AcDbEntity
  8
0
100
AcDbPoint
 10
4.0433332926299155
 20
1.34175047083195
 30
3.1782825812561537
  0
CIRCLE
  5
E4
330
17
100
AcDbEntity
  8
keypoints
100
AcDbCircle
 10
4.0433332926299155
 20
1.34175047083195
 30
3.1782825812561537
 40
0.05
  0
POINT
  5
E5
330
17
100
AcDbEntity
  8
0
100
AcDbPoint
 10
-4.876572039933348
 20
3.6834636426396754
 30
3.1535345782322937
  0
CIRCLE
  5
E6
330
17
100
AcDbEntity
  8
keypoints
100
AcDbCircle
 10
-4.876572039933348
 20
3.6834636426396754
 30
3.1535345782322937
 40
0.05
  0
POINT
  5
E7
330
17
100
AcDbEntity
  8
0
100
AcDbPoint
 10
-4.389976585526659
 20
5.026354946939578
 30
3.2353326878043296
  0
CIRCLE
  5
E8
330
17
100
AcDbEntity
  8
keypoints
100
AcDbCircle
 10
-4.389976585526659
 20
5.026354946939578
 30
3.2353326878043296
 40
0.05
  0
POINT
  5
E9
330
17
100
AcDbEntity
  8
0
100
AcDbPoint
 10
-0.874390600307176
 20
3.236541029677629
 30
3.189264005168759
  0
CIRCLE
  5
EA
330
17
100
AcDbEntity
  8
keypoints
100
AcDbCircle
 10
-0.874390600307176
 20
3.236541029677629
 30
3.189264005168759
 40
0.05
  0
POINT
  5
EB
330
17
100
AcDbEntity
  8
0
100
AcDbPoint
 10
-0.7806596061766966
 20
3.326361254647865
 30
3.2286051210203084
  0
CIRCLE
  5
EC
330
17
100
AcDbEntity
  8
keypoints
100
AcDbCircle
 10
-0.7806596061766966
 20
3.326361254647865
 30
3.2286051210203084
 40
0.05
  0
POINT
  5
ED
330
17
100
AcDbEntity
  8
0
100
AcDbPoint
 10
-1.5149112577909032
 20
-1.3410068816209109
 30
3.18141335219728
  0
CIRCLE
  5
EE
330
17
100
AcDbEntity
  8
keypoints
100
AcDbCircle
 10
-1.5149112577909032
 20
-1.3410068816209109
 30
3.18141335219728
 40
0.05
  0
POINT
  5
EF
330
17
100
AcDbEntity
  8
0
100
AcDbPoint
 10
-5.338916426272841
 20
1.177110842861694
 30
3.162067415986526
  0
CIRCLE
  5
F0
330
17
100
AcDbEntity
  8
keypoints
100
AcDbCircle
 10
-5.338916426272841
 20
1.177110842861694
 30
3.162067415986526
 40
0.05
  0
POINT
  5
F1
330
17
100
AcDbEntity
  8
0
100
AcDbPoint
 10
-5.5392214859663875
 20
1.1822845741679098
 30
3.2003381628633547
  0
CIRCLE
  5
F2
330
17
100
AcDbEntity
  8
keypoints
100
AcDbCircle
 10
-5.5392214859663875
 20
1.1822845741679098
 30
3.2003381628633547
 40
0.05
  0
POINT
  5
F3
330
17
100
AcDbEntity
  8
0
100
AcDbPoint
 10
3.7820217251232155
 20
1.3429681783296887
 30
3.231444910712523
  0
CIRCLE
  5
F4
330
17
100
AcDbEntity
  8
keypoints
100
AcDbCircle
 10
3.7820217251232155
 20
1.3429681783296887
 30
3.231444910712523
 40
0.05
  0
POINT
  5
F5
330
17
100
AcDbEntity
  8
0
100
AcDbPoint
 10
-5.011542960944929
 20
0.9696332708055949
 30
3.214456932428694
  0
CIRCLE
  5
F6
330
17
100
AcDbEntity
  8
keypoints
100
AcDbCircle
 10
-5.011542960944929
 20
0.9696332708055949
 30
3.214456932428694
 40
0.05
  0
POINT
  5
F7
330
17
100
AcDbEntity
  8
0
100
AcDbPoint
 10
-4.8223108984634315
 20
3.1379360673236514
 30
3.151070871813846
  0
CIRCLE
  5
F8
330
17
100
AcDbEntity
  8
keypoints
100
AcDbCircle
 10
-4.8223108984634315
 20
3.1379360673236514
 30
3.151070871813846
 40
0.05
  0
POINT
  5
F9
330
17
100
AcDbEntity
  8
0
100
AcDbPoint
 10
2.5989045098389334
 20
-0.9036498375555377
 30
3.203160154893784
  0
CIRCLE
  5
FA
330
17
100
AcDbEntity
  8
keypoints
100
AcDbCircle
 10
2.5989045098389334
 20
-0.9036498375555377
 30
3.203160154893784
 40
0.05
  0
POINT
  5
FB
330
17
100
AcDbEntity
  8
0
100
AcDbPoint
 10
4.581226604820949
 20
6.371761815529109
 30
3.1564035091762133
  0
CIRCLE
  5
FC
330
17
100
AcDbEntity
  8
keypoints
100
AcDbCircle
 10
4.581226604820949
 20
6.371761815529109
 30
3.1564035091762133
 40
0.05
  0
POINT
  5
FD
330
17
100
AcDbEntity
  8
0
100
AcDbPoint
 10
-1.6546086607852364
 20
-2.4172912361873644
 30
3.194476781170896
  0
CIRCLE
  5
FE
330
17
100
AcDbEntity
  8
keypoints
100
AcDbCircle
 10
-1.6546086607852364
 20
-2.4172912361873644
 30
3.194476781170896
 40
0.05
  0
POINT
  5
FF
330
17
100
AcDbEntity
  8
0
100
AcDbPoint
 10
-2.0879161998920757
 20
4.958009197069506
 30
3.2338368288423527
  0
CIRCLE
  5
100
330
17
100
AcDbEntity
  8
keypoints
100
AcDbCircle
 10
-2.0879161998920757
 20
4.958009197069506
 30
3.2338368288423527
 40
0.05
  0
POINT
  5
101
330
17
100
AcDbEntity
  8
0
100
AcDbPoint
 10
-1.039986796932263
 20
-0.8175925348136428
 30
3.2325644496287813
  0
CIRCLE
  5
102
330
17
100
AcDbEntity
  8
keypoints
100
AcDbCircle
 10
-1.039986796932263
 20
-0.8175925348136428
 30
3.2325644496287813
 40
0.05
  0
POINT
  5
103
330
17
100
AcDbEntity
  8
0
100
AcDbPoint
 10
-2.076169395483896
 20
-0.06614549782563373
 30
3.2062135819725612
  0
CIRCLE
  5
104
330
17
100
AcDbEntity
  8
keypoints
100
AcDbCircle
 10
-2.076169395483896
 20
-0.06614549782563373
 30
3.2062135819725612
 40
0.05
  0
POINT
  5
105
330
17
100
AcDbEntity
  8
0
100
AcDbPoint
 10
2.1110191786130854
 20
-1.3152109104649592
 30
3.1834518766882542
  0
CIRCLE
  5
106
330
17
100
AcDbEntity
  8
keypoints
100
AcDbCircle
 10
2.1110191786130854
 20
-1.3152109104649592
 30
3.1834518766882542
 40
0.05
  0
POINT
  5
107
330
17
100
AcDbEntity
  8
0
100
AcDbPoint
 10
-4.590121646169509
 20
-0.46348311318446966
 30
3.218812573645333
  0
CIRCLE
  5
108
330
17
100
AcDbEntity
  8
keypoints
100
AcDbCircle
 10
-4.590121646169509
 20
-0.46348311318446966
 30
3.218812573645333
 40
0.05
  0
POINT
  5
109
330
17
100
AcDbEntity
  8
0
100
AcDbPoint
 10
2.9327229366850447
 20
-0.22965699195366795
 30
3.155194503253174
  0
CIRCLE
  5
10A
330
17
100
AcDbEntity
  8
keypoints
100
AcDbCircle
 10
2.9327229366850447
 20
-0.22965699195366795
 30
3.155194503253174
 40
0.05
  0
POINT
  5
10B
330
17
100
AcDbEntity
  8
0
100
AcDbPoint
 10
4.5024237322740674
 20
5.982388671548791
 30
3.245151690531099
  0
CIRCLE
  5
10C
330
17
100
AcDbEntity
  8
keypoints
100
AcDbCircle
 10
4.5024237322740674
 20
5.982388671548791
 30
3.245151690531099
 40
0.05
  0
POINT
  5
10D
330
17
100
AcDbEntity
  8
0
100
AcDbPoint
 10
-5.0969491616570055
 20
0.23160250618948264
 30
3.207572387324178
  0
CIRCLE
  5
10E
330
17
100
AcDbEntity
  8
keypoints
100
AcDbCircle
 10
-5.0969491616570055
 20
0.23160250618948264
 30
3.207572387324178
 40
0.05
  0
POINT
  5
10F
330
17
100
AcDbEntity
  8
0
100
AcDbPoint
 10
-5.68511996089006
 20
2.074930500359837
 30
3.165502061157052
  0
CIRCLE
  5
110
330
17
100
AcDbEntity
  8
keypoints
100
AcDbCircle
 10
-5.68511996089006
 20
2.074930500359837
 30
3.165502061157052
 40
0.05
  0
POINT
  5
111
330
17
100
AcDbEntity
  8
0
100
AcDbPoint
 10
-1.2251597272604045
 20
-2.9468637331080076
 30
3.184627960908224
  0
CIRCLE
  5
112
330
17
100
AcDbEntity
  8
keypoints
100
AcDbCircle
 10
-1.2251597272604045
 20
-2.9468637331080076
 30
3.184627960908224
 40
0.05
  0
POINT
  5
113
330
17
100
AcDbEntity
  8
0
100
AcDbPoint
 10
-5.689916750276074
 20
2.643949911026647
 30
3.1651155570784684
  0
CIRCLE
  5
114
330
17
100
AcDbEntity
  8
keypoints
100
AcDbCircle
 10
-5.689916750276074
 20
2.643949911026647
 30
3.1651155570784684
 40
0.05
  0
POINT
  5
115
330
17
100
AcDbEntity
  8
0
100
AcDbPoint
 10
-5.442317868832125
 20
1.518831560667241
 30
3.1617421572661195
  0
CIRCLE
  5
116
330
17
100
AcDbEntity
  8
keypoints
100
AcDbCircle
 10
-5.442317868832125
 20
1.518831560667241
 30
3.1617421572661195
 40
0.05
  0
POINT
  5
117
330
17
100
AcDbEntity
  8
0
100
AcDbPoint
 10
4.58805245810147
 20
6.726190092895433
 30
3.198952389602306
  0
CIRCLE
  5
118
330
17
100
AcDbEntity
  8
keypoints
100
AcDbCircle
 10
4.58805245810147
 20
6.726190092895433
 30
3.198952389602306
 40
0.05
  0
POINT
  5
119
330
17
100
AcDbEntity
  8
0
100
AcDbPoint
 10
-5.509547162221553
 20
2.6587367240980155
 30
3.179541757564109
  0
CIRCLE
  5
11A
330
17
100
AcDbEntity
  8
keypoints
100
AcDbCircle
 10
-5.509547162221553
 20
2.6587367240980155
 30
3.179541757564109
 40
0.05
  0
POINT
  5
11B
330
17
100
AcDbEntity
  8
0
100
AcDbPoint
 10
2.2011928067064206
 20
-0.7148150110367115
 30
3.1916734429326428
  0
CIRCLE
  5
11C
330
17
100
AcDbEntity
  8
keypoints
100
AcDbCircle
 10
2.2011928067064206
 20
-0.7148150110367115
 30
3.1916734429326428
 40
0.05
  0
POINT
  5
11D
330
17
100
AcDbEntity
  8
0
100
AcDbPoint
 10
-0.34432349131215395
 20
-3.4899490298216156
 30
3.1992706419079786
  0
CIRCLE
  5
11E
330
17
100
AcDbEntity
  8
keypoints
100
AcDbCircle
 10
-0.34432349131215395
 20
-3.4899490298216156
 30
3.1992706419079786
 40
0.05
  0
POINT
  5
11F
330
17
100
AcDbEntity
  8
0
100
AcDbPoint
 10
4.711480843758228
 20
-2.313528413744531
 30
3.2119235341836547
  0
CIRCLE
  5
120
330
17
100
AcDbEntity
  8
keypoints
100
AcDbCircle
 10
4.711480843758228
 20
-2.313528413744531
 30
3.2119235341836547
 40
0.05
  0
POINT
  5
121
330
17
100
AcDbEntity
  8
0
100
AcDbPoint
 10
-3.589654074098784
 20
5.036984661541537
 30
3.2116316705460366
  0
CIRCLE
  5
122
330
17
100
AcDbEntity
  8
keypoints
100
AcDbCircle
 10
-3.589654074098784
 20
5.036984661541537
 30
3.2116316705460366
 40
0.05
  0
POINT
  5
123
330
17
100
AcDbEntity
  8
0
100
AcDbPoint
 10
-2.388952314642128
 20
5.040128440114596
 30
3.203566382759968
  0
CIRCLE
  5
124
330
17
100
AcDbEntity
  8
keypoints
100
AcDbCircle
 10
-2.388952314642128
 20
5.040128440114596
 30
3.203566382759968
 40
0.05
  0
POINT
  5
125
330
17
100
AcDbEntity
  8
0
100
AcDbPoint
 10
2.1429393926781435
 20
-1.4768589932931018
 30
3.179293881781686
  0
CIRCLE
  5
126
330
17
100
AcDbEntity
  8
keypoints
100
AcDbCircle
 10
2.1429393926781435
 20
-1.4768589932931018
 30
3.179293881781686
 40
0.05
  0
POINT
  5
127
330
17
100
AcDbEntity
  8
0
100
AcDbPoint
 10
2.3939374840058156
 20
-1.449640092550036
 30
3.157281164494259
  0
CIRCLE
  5
128
330
17
100
AcDbEntity
  8
keypoints
100
AcDbCircle
 10
2.3939374840058156
 20
-1.449640092550036
 30
3.157281164494259
 40
0.05
  0
POINT
  5
129
330
17
100
AcDbEntity
  8
0
100
AcDbPoint
 10
-1.3381907639878217
 20
-0.2663601952229342
 30
3.1787188869540777
  0
CIRCLE
  5
12A
330
17
100
AcDbEntity
  8
keypoints
100
AcDbCircle
 10
-1.3381907639878217
 20
-0.2663601952229342
 30
3.1787188869540777
 40
0.05
  0
POINT
  5
12B
330
17
100
AcDbEntity
  8
0
100
AcDbPoint
 10
2.728305930768176
 20
3.2196689313726132
 30
3.153154538272707
  0
CIRCLE
  5
12C
330
17
100
AcDbEntity
  8
keypoints
100
AcDbCircle
 10
2.728305930768176
 20
3.2196689313726132
 30
3.153154538272707
 40
0.05
  0
POINT
  5
12D
330
17
100
AcDbEntity
  8
0
100
AcDbPoint
 10
2.1698533758042298
 20
-0.9133487683266825
 30
3.189641880342294
  0
CIRCLE
  5
12E
330
17
100
AcDbEntity
  8
keypoints
100
AcDbCircle
 10
2.1698533758042298
 20
-0.9133487683266825
 30
3.189641880342294
 40
0.05
  0
POINT
  5
12F
330
17
100
AcDbEntity
  8
0
100
AcDbPoint
 10
1.1022339353844828
 20
5.511598097027499
 30
3.1728057964235674
  0
CIRCLE
  5
130
330
17
100
AcDbEntity
  8
keypoints
100
AcDbCircle
 10
1.1022339353844828
 20
5.511598097027499
 30
3.1728057964235674
 40
0.05
  0
POINT
  5
131
330
17
100
AcDbEntity
  8
0
100
AcDbPoint
 10
-2.1267361062231256
 20
-0.516251244281533
 30
3.1511173429590422
  0
CIRCLE
  5
132
330
17
100
AcDbEntity
  8
keypoints
100
AcDbCircle
 10
-2.1267361062231256
 20
-0.516251244281533
 30
3.1511173429590422
 40
0.05
  0
POINT
  5
133
330
17
100
AcDbEntity
  8
0
100
AcDbPoint
 10
-5.0239011732490555
 20
0.7642351419625466
 30
3.1678711209188943
  0
CIRCLE
  5
134
330
17
100
AcDbEntity
  8
keypoints
100
AcDbCircle
 10
-5.0239011732490555
 20
0.7642351419625466
 30
3.1678711209188943
 40
0.05
  0
POINT
  5
135
330
17
100
AcDbEntity
  8
0
100
AcDbPoint
 10
-0.9412009337926039
 20
-3.1188250937743733
 30
3.2103315603108937
  0
CIRCLE
  5
136
330
17
100
AcDbEntity
  8
keypoints
100
AcDbCircle
 10
-0.9412009337926039
 20
-3.1188250937743733
 30
3.2103315603108937
 40
0.05
  0
POINT
  5
137
330
17
100
AcDbEntity
  8
0
100
AcDbPoint
 10
-2.0257120203049177
 20
0.13416142974209766
 30
3.209199845044439
  0
CIRCLE
  5
138
330
17
100
AcDbEntity
  8
keypoints
100
AcDbCircle
 10
-2.0257120203049177
 20
0.13416142974209766
 30
3.209199845044439
 40
0.05
  0
POINT
  5
139
330
17
100
AcDbEntity
  8
0
100
AcDbPoint
 10
-0.7558232921357386
 20
4.376453469079462
 30
3.248651982714682
  0
CIRCLE
  5
13A
330
17
100
AcDbEntity
  8
keypoints
100
AcDbCircle
 10
-0.7558232921357386
 20
4.376453469079462
 30
3.248651982714682
 40
0.05
  0
POINT
  5
13B
330
17
100
AcDbEntity
  8
0
100
AcDbPoint
 10
-1.2647345854668262
 20
0.14977385036716484
 30
3.241157926201887
  0
CIRCLE
  5
13C
330
17
100
AcDbEntity
  8
keypoints
100
AcDbCircle
 10
-1.2647345854668262
 20
0.14977385036716484
 30
3.241157926201887
 40
0.05
  0
POINT
  5
13D
330
17
100
AcDbEntity
  8
0
100
AcDbPoint
 10
4.435143415378054
 20
5.730807997238239
 30
3.190145203158486
  0
CIRCLE
  5
13E
330
17
100
AcDbEntity
  8
keypoints
100
AcDbCircle
 10
4.435143415378054
 20
5.730807997238239
 30
3.190145203158486
 40
0.05
  0
POINT
  5
13F
330
17
100
AcDbEntity
  8
0
100
AcDbPoint
 10
1.3521845798044418
 20
-3.856771858702408
 30
3.182009759398368
  0
CIRCLE
  5
140
330
17
100
AcDbEntity
  8
keypoints
100
AcDbCircle
 10
1.3521845798044418
 20
-3.856771858702408
 30
3.182009759398368
 40
0.05
  0
POINT
  5
141
330
17
100
AcDbEntity
  8
0
100
AcDbPoint
 10
2.901160335796965
 20
0.4255667374821195
 30
3.246288064025375
  0
CIRCLE
  5
142
330
17
100
AcDbEntity
  8
keypoints
100
AcDbCircle
 10
2.901160335796965
 20
0.4255667374821195
 30
3.246288064025375
 40
0.05
  0
POINT
  5
143
330
17
100
AcDbEntity
  8
0
100
AcDbPoint
 10
2.099154689524783
 20
5.1813995883604065
 30
3.1943990083443654
  0
CIRCLE
  5
144
330
17
100
AcDbEntity
  8
keypoints
100
AcDbCircle
 10
2.099154689524783
 20
5.1813995883604065
 30
3.1943990083443654
 40
0.05
  0
POINT
  5
145
330
17
100
AcDbEntity
  8
0
100
AcDbPoint
 10
-4.603102628717309
 20
4.912591616156867
 30
3.2119159521962213
  0
CIRCLE
  5
146
330
17
100
AcDbEntity
  8
keypoints
100
AcDbCircle
 10
-4.603102628717309
 20
4.912591616156867
 30
3.2119159521962213
 40
0.05
  0
POINT
  5
147
330
17
100
AcDbEntity
  8
0
100
AcDbPoint
 10
3.826900748826093
 20
3.332796638362293
 30
3.2434357417284816
  0
CIRCLE
  5
148
330
17
100
AcDbEntity
  8
keypoints
100
AcDbCircle
 10
3.826900748826093
 20
3.332796638362293
 30
3.2434357417284816
 40
0.05
  0
POINT
  5
149
330
17
100
AcDbEntity
  8
0
100
AcDbPoint
 10
4.5412115268101685
 20
6.200314199803214
 30
3.199839454681641
  0
CIRCLE
  5
14A
330
17
100
AcDbEntity
  8
keypoints
100
AcDbCircle
 10
4.5412115268101685
 20
6.200314199803214
 30
3.199839454681641
 40
0.05
  0
POINT
  5
14B
330
17
100
AcDbEntity
  8
0
100
AcDbPoint
 10
2.6269766322614445
 20
2.533914936173126
 30
3.242273774613827
  0
CIRCLE
  5
14C
330
17
100
AcDbEntity
  8
keypoints
100
AcDbCircle
 10
2.6269766322614445
 20
2.533914936173126
 30
3.242273774613827
 40
0.05
  0
POINT
  5
14D
330
17
100
AcDbEntity
  8
0
100
AcDbPoint
 10
-1.5465773139361194
 20
-1.5161989777633298
 30
3.156329036339394
  0
CIRCLE
  5
14E
330
17
100
AcDbEntity
  8
keypoints
100
AcDbCircle
 10
-1.5465773139361194
 20
-1.5161989777633298
 30
3.156329036339394
 40
0.05
  0
POINT
  5
14F
330
17
100
AcDbEntity
  8
0
100
AcDbPoint
 10
-4.289506285427665
 20
-0.5074183729276613
 30
3.1771062539696997
  0
CIRCLE
  5
150
330
17
100
AcDbEntity
  8
keypoints
100
AcDbCircle
 10
-4.289506285427665
 20
-0.5074183729276613
 30
3.1771062539696997
 40
0.05
  0
POINT
  5
151
330
17
100
AcDbEntity
  8
0
100
AcDbPoint
 10
2.317192644565749
 20
-1.5271275828199602
 30
3.2416496323628254
  0
CIRCLE
  5
152
330
17
100
AcDbEntity
  8
keypoints
100
AcDbCircle
 10
2.317192644565749
 20
-1.5271275828199602
 30
3.2416496323628254
 40
0.05
  0
POINT
  5
153
330
17
100
AcDbEntity
  8
0
100
AcDbPoint
 10
-0.09845077617656267
 20
5.161058186328781
 30
3.1810433487843754
  0
CIRCLE
  5
154
330
17
100
AcDbEntity
  8
keypoints
100
AcDbCircle
 10
-0.09845077617656267
 20
5.161058186328781
 30
3.1810433487843754
 40
0.05
  0
POINT
  5
155
330
17
100
AcDbEntity
  8
0
100
AcDbPoint
 10
-2.6393900049504873
 20
5.014997516620093
 30
3.2446268741498376
  0
CIRCLE
  5
156
330
17
100
AcDbEntity
  8
keypoints
100
AcDbCircle
 10
-2.6393900049504873
 20
5.014997516620093
 30
3.2446268741498376
 40
0.05
  0
POINT
  5
157
330
17
100
AcDbEntity
  8
0
100
AcDbPoint
 10
3.4747697646240487
 20
2.180646348527582
 30
3.2199638999383375
  0
CIRCLE
  5
158
330
17
100
AcDbEntity
  8
keypoints
100
AcDbCircle
 10
3.4747697646240487
 20
2.180646348527582
 30
3.2199638999383375
 40
0.05
  0
POINT
  5
159
330
17
100
AcDbEntity
  8
0
100
AcDbPoint
 10
-2.0217981559592917
 20
0.3252697457624234
 30
3.2109666518779783
  0
CIRCLE
  5
15A
330
17
100
AcDbEntity
  8
keypoints
100
AcDbCircle
 10
-2.0217981559592917
 20
0.3252697457624234
 30
3.2109666518779783
 40
0.05
  0
POINT
  5
15B
330
17
100
AcDbEntity
  8
0
100
AcDbPoint
 10
4.562588033505293
 20
6.528917151560496
 30
3.20281792145471
  0
CIRCLE
  5
15C
330
17
100
AcDbEntity
  8
keypoints
100
AcDbCircle
 10
4.562588033505293
 20
6.528917151560496
 30
3.20281792145471
 40
0.05
  0
POINT
  5
15D
330
17
100
AcDbEntity
  8
0
100
AcDbPoint
 10
3.444236544271803
 20
1.9906329622261638
 30
3.2162066783631538
  0
CIRCLE
  5
15E
330
17
100
AcDbEntity
  8
keypoints
100
AcDbCircle
 10
3.444236544271803
 20
1.9906329622261638
 30
3.2162066783631538
 40
0.05
  0
POINT
  5
15F
330
17
100
AcDbEntity
  8
0
100
AcDbPoint
 10
4.652436053320957
 20
7.035547782928106
 30
3.1630771492373517
  0
CIRCLE
  5
160
330
17
100
AcDbEntity
  8
keypoints
100
AcDbCircle
 10
4.652436053320957
 20
7.035547782928106
 30
3.1630771492373517
 40
0.05
  0
POINT
  5
161
330
17
100
AcDbEntity
  8
0
100
AcDbPoint
 10
0.24644074336388855
 20
-3.5900439458057587
 30
3.1881894792254206
  0
CIRCLE
  5
162
330
17
100
AcDbEntity
  8
keypoints
100
AcDbCircle
 10
0.24644074336388855
 20
-3.5900439458057587
 30
3.1881894792254206
 40
0.05
  0
LINE
  5
163
330
17
100
AcDbEntity
  8
lines
100
AcDbLine
 10
-4.813867789215674
 20
3.807480907521601
 30
3.1894172069632467
 11
-4.876572039933348
 21
3.6834636426396754
 31
3.1535345782322937
  0
LINE
  5
164
330
17
100
AcDbEntity
  8
lines
100
AcDbLine
 10
-4.813867789215674
 20
3.807480907521601
 30
3.1894172069632467
 11
-4.8223108984634315
 21
3.1379360673236514
 31
3.151070871813846
  0
LINE
  5
165
330
17
100
AcDbEntity
  8
lines
100
AcDbLine
 10
3.691510294155421
 20
2.89500904826795
 30
3.159268107298662
 11
3.760832359717129
 21
3.0841680469008566
 31
3.2376784696838583
  0
LINE
  5
166
330
17
100
AcDbEntity
  8
lines
100
AcDbLine
 10
3.691510294155421
 20
2.89500904826795
 30
3.159268107298662
 11
3.659951740652881
 21
2.6314708349169105
 31
3.1777255281062056
  0
LINE
  5
167
330
17
100
AcDbEntity
  8
lines
100
AcDbLine
 10
-0.18447639548118358
 20
-3.547062283793161
 30
3.1767941543657754
 11
-0.34432349131215395
 21
-3.4899490298216156
 31
3.1992706419079786
  0
LINE
  5
168
330
17
100
AcDbEntity
  8
lines
100
AcDbLine
 10
-0.18447639548118358
 20
-3.547062283793161
 30
3.1767941543657754
 11
-0.0025352552077826107
 21
-3.541382124761113
 31
3.220728031338809
  0
LINE
  5
169
330
17
100
AcDbEntity
  8
lines
100
AcDbLine
 10
-1.3992306507335552
 20
2.0108181451692935
 30
3.164339414430224
 11
-1.733059395200132
 21
2.2870041886012
 31
3.2444310746240532
  0
LINE
  5
16A
330
17
100
AcDbEntity
  8
lines
100
AcDbLine
 10
-1.3992306507335552
 20
2.0108181451692935
 30
3.164339414430224
 11
-1.7984093948215174
 21
2.4845534964729046
 31
3.1940162085411936
  0
LINE
  5
16B
330
17
100
AcDbEntity
  8
lines
100
AcDbLine
 10
-5.122047948701629
 20
2.614867226282501
 30
3.240547646554242
 11
-5.509547162221553
 21
2.6587367240980155
 31
3.179541757564109
  0
LINE
  5
16C
330
17
100
AcDbEntity
  8
lines
100
AcDbLine
 10
-5.122047948701629
 20
2.614867226282501
 30
3.240547646554242
 11
-5.689916750276074
 21
2.643949911026647
 31
3.1651155570784684
  0
LINE
  5
16D
330
17
100
AcDbEntity
  8
lines
100
AcDbLine
 10
-1.6597997829418851
 20
3.405891344148662
 30
3.1563277238263625
 11
-1.7241396883615545
 21
3.230257532238484
 31
3.2063316981080123
  0
LINE
  5
16E
330
17
100
AcDbEntity
  8
lines
100
AcDbLine
 10
-1.6597997829418851
 20
3.405891344148662
 30
3.1563277238263625
 11
-1.7063219094842799
 21
3.082266659967196
 31
3.202285589193285
  0
LINE
  5
16F
330
17
100
AcDbEntity
  8
lines
100
AcDbLine
 10
3.392743613105915
 20
1.3595929175583181
 30
3.1821066529458153
 11
3.571274734116085
 21
1.3336918360205305
 31
3.156274707663086
  0
LINE
  5
170
330
17
100
AcDbEntity
  8
lines
100
AcDbLine
 10
3.392743613105915
 20
1.3595929175583181
 30
3.1821066529458153
 11
3.2795021098122397
 21
1.5222448104739306
 31
3.2193321892434192
  0
LINE
  5
171
330
17
100
AcDbEntity
  8
lines
100
AcDbLine
 10
1.183343219571015
 20
-3.818145929761253
 30
3.244746604797297
 11
1.3521845798044418
 21
-3.856771858702408
 31
3.182009759398368
  0
LINE
  5
172
330
17
100
AcDbEntity
  8
lines
100
AcDbLine
 10
1.183343219571015
 20
-3.818145929761253
 30
3.244746604797297
 11
1.321795996168795
 21
-3.702737933766959
 31
3.176674018629803
  0
LINE
  5
173
330
17
100
AcDbEntity
  8
lines
100
AcDbLine
 10
-1.6104149711541471
 20
-2.0185571356843397
 30
3.2112392597400388
 11
-1.6532521276916614
 21
-2.2177526917288573
 31
3.197299608323418
  0
LINE
  5
174
330
17
100
AcDbEntity
  8
lines
100
AcDbLine
 10
-1.6104149711541471
 20
-2.0185571356843397
 30
3.2112392597400388
 11
-1.5976165808974148
 21
-1.7658862378745408
 31
3.20404376310657
  0
LINE
  5
175
330
17
100
AcDbEntity
  8
lines
100
AcDbLine
 10
-1.8258671541112592
 20
2.481383896837669
 30
3.191864762205036
 11
-1.7984093948215174
 21
2.4845534964729046
 31
3.1940162085411936
  0
LINE
  5
176
330
17
100
AcDbEntity
  8
lines
100
AcDbLine
 10
-1.8258671541112592
 20
2.481383896837669
 30
3.191864762205036
 11
-1.733059395200132
 21
2.2870041886012
 31
3.2444310746240532
  0
LINE
  5
177
330
17
100
AcDbEntity
  8
lines
100
AcDbLine
 10
-5.118459503151844
 20
-0.0366258138360942
 30
3.245573889235819
 11
-5.099763300728453
 21
-0.21726648587526975
 31
3.2036313949514694
  0
LINE
  5
178
330
17
100
AcDbEntity
  8
lines
100
AcDbLine
 10
-5.118459503151844
 20
-0.0366258138360942
 30
3.245573889235819
 11
-5.0969491616570055
 21
0.23160250618948264
 31
3.207572387324178
  0
LINE
  5
179
330
17
100
AcDbEntity
  8
lines
100
AcDbLine
 10
0.1823518222397747
 20
5.106198830029675
 30
3.182914462620498
 11
0.3452611453257743
 21
5.105215018223967
 31
3.2362813625271447
  0
LINE
  5
17A
330
17
100
AcDbEntity
  8
lines
100
AcDbLine
 10
0.1823518222397747
 20
5.106198830029675
 30
3.182914462620498
 11
-0.09845077617656267
 21
5.161058186328781
 31
3.1810433487843754
  0
LINE
  5
17B
330
17
100
AcDbEntity
  8
lines
100
AcDbLine
 10
5.108069804055895
 20
-3.1234267912953584
 30
3.1522587209982844
 11
4.967265805303311
 21
-2.8037041307586
 31
3.15218580772234
  0
LINE
  5
17C
330
17
100
AcDbEntity
  8
lines
100
AcDbLine
 10
5.108069804055895
 20
-3.1234267912953584
 30
3.1522587209982844
 11
4.566976664205514
 21
-3.1257490737368867
 31
3.1520640389455785
  0
LINE
  5
17D
330
17
100
AcDbEntity
  8
lines
100
AcDbLine
 10
-1.8101544881116403
 20
0.8073241885954343
 30
3.1964334017958653
 11
-1.940018863284469
 21
0.6340782571047472
 31
3.169255289153635
  0
LINE
  5
17E
330
17
100
AcDbEntity
  8
lines
100
AcDbLine
 10
-1.8101544881116403
 20
0.8073241885954343
 30
3.1964334017958653
 11
-1.5361316016275044
 21
0.9142397285249712
 31
3.1841364394098033
  0
LINE
  5
17F
330
17
100
AcDbEntity
  8
lines
100
AcDbLine
 10
0.3452611453257743
 20
5.105215018223967
 30
3.2362813625271447
 11
0.5432628720234527
 21
5.156716008620017
 31
3.2499204330591596
  0
LINE
  5
180
330
17
100
AcDbEntity
  8
lines
100
AcDbLine
 10
2.713775219935959
 20
0.16480729984955
 30
3.1885753543904336
 11
2.458603891988466
 21
0.037619969031269074
 31
3.211025377500229
  0
LINE
  5
181
330
17
100
AcDbEntity
  8
lines
100
AcDbLine
 10
2.713775219935959
 20
0.16480729984955
 30
3.1885753543904336
 11
2.901160335796965
 21
0.4255667374821195
 31
3.246288064025375
  0
LINE
  5
182
330
17
100
AcDbEntity
  8
lines
100
AcDbLine
 10
3.2795021098122397
 20
1.5222448104739306
 30
3.2193321892434192
 11
3.3509504189915003
 21
1.733932263910826
 31
3.1567824986160695
  0
LINE
  5
183
330
17
100
AcDbEntity
  8
lines
100
AcDbLine
 10
2.7309925987721426
 20
1.308330593390738
 30
3.2232214007700275
 11
2.8654503131392555
 21
1.4260091674609245
 31
3.190358705548144
  0
LINE
  5
184
330
17
100
AcDbEntity
  8
lines
100
AcDbLine
 10
2.7309925987721426
 20
1.308330593390738
 30
3.2232214007700275
 11
3.075356115983997
 21
1.2348757027157284
 31
3.1970454650187197
  0
LINE
  5
185
330
17
100
AcDbEntity
  8
lines
100
AcDbLine
 10
2.6855845538278174
 20
3.082891640113397
 30
3.151897998405219
 11
2.728305930768176
 21
3.2196689313726132
 31
3.153154538272707
  0
LINE
  5
186
330
17
100
AcDbEntity
  8
lines
100
AcDbLine
 10
2.6855845538278174
 20
3.082891640113397
 30
3.151897998405219
 11
2.6269766322614445
 21
2.533914936173126
 31
3.242273774613827
  0
LINE
  5
187
330
17
100
AcDbEntity
  8
lines
100
AcDbLine
 10
-0.7256398389649972
 20
2.3964850037706085
 30
3.2403304675558138
 11
-0.874390600307176
 21
3.236541029677629
 31
3.189264005168759
  0
LINE
  5
188
330
17
100
AcDbEntity
  8
lines
100
AcDbLine
 10
-1.3711178492893767
 20
-0.40761208684725525
 30
3.1757760585140504
 11
-1.3381907639878217
 21
-0.2663601952229342
 31
3.1787188869540777
  0
LINE
  5
189
330
17
100
AcDbEntity
  8
lines
100
AcDbLine
 10
-1.3711178492893767
 20
-0.40761208684725525
 30
3.1757760585140504
 11
-1.3149277343016916
 21
0.009695770951061888
 31
3.16961720416552
  0
LINE
  5
18A
330
17
100
AcDbEntity
  8
lines
100
AcDbLine
 10
-1.733059395200132
 20
2.2870041886012
 30
3.2444310746240532
 11
-1.7984093948215174
 21
2.4845534964729046
 31
3.1940162085411936
  0
LINE
  5
18B
330
17
100
AcDbEntity
  8
lines
100
AcDbLine
 10
3.9906913308772713
 20
4.0063447505293635
 30
3.1790522065338758
 11
3.915043200677669
 21
3.786872382663888
 31
3.201677558663717
  0
LINE
  5
18C
330
17
100
AcDbEntity
  8
lines
100
AcDbLine
 10
3.9906913308772713
 20
4.0063447505293635
 30
3.1790522065338758
 11
4.039524101190959
 21
4.367052714975717
 31
3.1542954270852572
  0
LINE
  5
18D
330
17
100
AcDbEntity
  8
lines
100
AcDbLine
 10
4.967265805303311
 20
-2.8037041307586
 30
3.15218580772234
 11
4.527847709213817
 21
-2.872669057437159
 31
3.1814195555266913
  0
LINE
  5
18E
330
17
100
AcDbEntity
  8
lines
100
AcDbLine
 10
4.506570954586598
 20
-2.5348092985718234
 30
3.182630329190666
 11
4.711480843758228
 21
-2.313528413744531
 31
3.2119235341836547
  0
LINE
  5
18F
330
17
100
AcDbEntity
  8
lines
100
AcDbLine
 10
4.506570954586598
 20
-2.5348092985718234
 30
3.182630329190666
 11
4.527847709213817
 21
-2.872669057437159
 31
3.1814195555266913
  0
LINE
  5
190
330
17
100
AcDbEntity
  8
lines
100
AcDbLine
 10
2.9272257074452965
 20
0.8666182912678045
 30
3.1586330932695246
 11
3.075356115983997
 21
1.2348757027157284
 31
3.1970454650187197
  0
LINE
  5
191
330
17
100
AcDbEntity
  8
lines
100
AcDbLine
 10
2.9272257074452965
 20
0.8666182912678045
 30
3.1586330932695246
 11
2.901160335796965
 21
0.4255667374821195
 31
3.246288064025375
  0
LINE
  5
192
330
17
100
AcDbEntity
  8
lines
100
AcDbLine
 10
2.031377440672111
 20
5.308499494691293
 30
3.2035406295078954
 11
2.099154689524783
 21
5.1813995883604065
 31
3.1943990083443654
  0
LINE
  5
193
330
17
100
AcDbEntity
  8
lines
100
AcDbLine
 10
2.031377440672111
 20
5.308499494691293
 30
3.2035406295078954
 11
2.2113803482338468
 21
5.032583353117123
 31
3.157173161370798
  0
LINE
  5
194
330
17
100
AcDbEntity
  8
lines
100
AcDbLine
 10
2.2645188628075426
 20
-0.36553287597265727
 30
3.1976325941351473
 11
2.2011928067064206
 21
-0.7148150110367115
 31
3.1916734429326428
  0
LINE
  5
195
330
17
100
AcDbEntity
  8
lines
100
AcDbLine
 10
2.2645188628075426
 20
-0.36553287597265727
 30
3.1976325941351473
 11
2.458603891988466
 21
0.037619969031269074
 31
3.211025377500229
  0
LINE
  5
196
330
17
100
AcDbEntity
  8
lines
100
AcDbLine
 10
-1.7063219094842799
 20
3.082266659967196
 30
3.202285589193285
 11
-1.7241396883615545
 21
3.230257532238484
 31
3.2063316981080123
  0
LINE
  5
197
330
17
100
AcDbEntity
  8
lines
100
AcDbLine
 10
-1.7063219094842799
 20
3.082266659967196
 30
3.202285589193285
 11
-1.7926938159013621
 21
2.7809917511493465
 31
3.1966817853299627
  0
LINE
  5
198
330
17
100
AcDbEntity
  8
lines
100
AcDbLine
 10
1.321795996168795
 20
-3.702737933766959
 30
3.176674018629803
 11
1.3521845798044418
 21
-3.856771858702408
 31
3.182009759398368
  0
LINE
  5
199
330
17
100
AcDbEntity
  8
lines
100
AcDbLine
 10
-1.6532521276916614
 20
-2.2177526917288573
 30
3.197299608323418
 11
-1.6546086607852364
 21
-2.4172912361873644
 31
3.194476781170896
  0
LINE
  5
19A
330
17
100
AcDbEntity
  8
lines
100
AcDbLine
 10
-5.630698318914158
 20
1.7843708192401702
 30
3.158949568910935
 11
-5.63262217534189
 21
1.5323725559213108
 31
3.154307770145269
  0
LINE
  5
19B
330
17
100
AcDbEntity
  8
lines
100
AcDbLine
 10
-5.630698318914158
 20
1.7843708192401702
 30
3.158949568910935
 11
-5.68511996089006
 21
2.074930500359837
 31
3.165502061157052
  0
LINE
  5
19C
330
17
100
AcDbEntity
  8
lines
100
AcDbLine
 10
-5.8382212528038835
 20
1.2989896243553982
 30
3.1892805163243283
 11
-5.63262217534189
 21
1.5323725559213108
 31
3.154307770145269
  0
LINE
  5
19D
330
17
100
AcDbEntity
  8
lines
100
AcDbLine
 10
-5.8382212528038835
 20
1.2989896243553982
 30
3.1892805163243283
 11
-5.5392214859663875
 21
1.1822845741679098
 31
3.2003381628633547
  0
LINE
  5
19E
330
17
100
AcDbEntity
  8
lines
100
AcDbLine
 10
-1.3953191779636076
 20
-1.1445991470251962
 30
3.214656360967534
 11
-1.5149112577909032
 21
-1.3410068816209109
 31
3.18141335219728
  0
LINE
  5
19F
330
17
100
AcDbEntity
  8
lines
100
AcDbLine
 10
-1.3953191779636076
 20
-1.1445991470251962
 30
3.214656360967534
 11
-1.5465773139361194
 21
-1.5161989777633298
 31
3.156329036339394
  0
LINE
  5
1A0
330
17
100
AcDbEntity
  8
lines
100
AcDbLine
 10
-1.0449539876328497
 20
0.8732130392649395
 30
3.1535981403996014
 11
-0.8959827532173634
 21
0.6831859532416582
 31
3.204858126991449
  0
LINE
  5
1A1
330
17
100
AcDbEntity
  8
lines
100
AcDbLine
 10
-1.0449539876328497
 20
0.8732130392649395
 30
3.1535981403996014
 11
-1.5361316016275044
 21
0.9142397285249712
 31
3.1841364394098033
  0
LINE
  5
1A2
330
17
100
AcDbEntity
  8
lines
100
AcDbLine
 10
-2.3391317502578577
 20
-0.7114239827119107
 30
3.190092517969401
 11
-2.1267361062231256
 21
-0.516251244281533
 31
3.1511173429590422
  0
LINE
  5
1A3
330
17
100
AcDbEntity
  8
lines
100
AcDbLine
 10
-2.3391317502578577
 20
-0.7114239827119107
 30
3.190092517969401
 11
-2.644452727088921
 21
-0.6962716959486543
 31
3.230526874994351
  0
LINE
  5
1A4
330
17
100
AcDbEntity
  8
lines
100
AcDbLine
 10
-2.8978337201756577
 20
-0.6929588813804568
 30
3.161168213892138
 11
-2.644452727088921
 21
-0.6962716959486543
 31
3.230526874994351
  0
LINE
  5
1A5
330
17
100
AcDbEntity
  8
lines
100
AcDbLine
 10
-3.7442922948376247
 20
-0.5879451431096567
 30
3.1918456658802823
 11
-3.9392460362728476
 21
-0.5586953417528975
 31
3.186100306831094
  0
LINE
  5
1A6
330
17
100
AcDbEntity
  8
lines
100
AcDbLine
 10
-3.7442922948376247
 20
-0.5879451431096567
 30
3.1918456658802823
 11
-3.5435749128636336
 21
-0.6012517731305438
 31
3.199956918827546
  0
LINE
  5
1A7
330
17
100
AcDbEntity
  8
lines
100
AcDbLine
 10
-5.099763300728453
 20
-0.21726648587526975
 30
3.2036313949514694
 11
-4.889160967938901
 21
-0.4088248575795361
 31
3.155938119323996
  0
LINE
  5
1A8
330
17
100
AcDbEntity
  8
lines
100
AcDbLine
 10
-0.30455416265792257
 20
4.994792867048729
 30
3.174163202593551
 11
-0.09845077617656267
 21
5.161058186328781
 31
3.1810433487843754
  0
LINE
  5
1A9
330
17
100
AcDbEntity
  8
lines
100
AcDbLine
 10
-0.30455416265792257
 20
4.994792867048729
 30
3.174163202593551
 11
-0.5892199916446195
 21
4.812176401871405
 31
3.173428814859164
  0
LINE
  5
1AA
330
17
100
AcDbEntity
  8
lines
100
AcDbLine
 10
-0.5892199916446195
 20
4.812176401871405
 30
3.173428814859164
 11
-0.7544392327151777
 21
4.631679575785987
 31
3.2496711821235933
  0
LINE
  5
1AB
330
17
100
AcDbEntity
  8
lines
100
AcDbLine
 10
4.039524101190959
 20
4.367052714975717
 30
3.1542954270852572
 11
4.081712401182025
 21
4.5254637059883915
 31
3.2147451442037607
  0
LINE
  5
1AC
330
17
100
AcDbEntity
  8
lines
100
AcDbLine
 10
4.337298179977948
 20
5.415655439834384
 30
3.19739599742919
 11
4.435143415378054
 21
5.730807997238239
 31
3.190145203158486
  0
LINE
  5
1AD
330
17
100
AcDbEntity
  8
lines
100
AcDbLine
 10
4.337298179977948
 20
5.415655439834384
 30
3.19739599742919
 11
4.239958568294394
 21
5.015913405472125
 31
3.158719773735287
  0
LINE
  5
1AE
330
17
100
AcDbEntity
  8
lines
100
AcDbLine
 10
-0.5794968453447118
 20
3.4196398849217777
 30
3.1944889777295975
 11
-0.7806596061766966
 21
3.326361254647865
 31
3.2286051210203084
  0
LINE
  5
1AF
330
17
100
AcDbEntity
  8
lines
100
AcDbLine
 10
-0.5794968453447118
 20
3.4196398849217777
 30
3.1944889777295975
 11
-0.874390600307176
 21
3.236541029677629
 31
3.189264005168759
  0
LINE
  5
1B0
330
17
100
AcDbEntity
  8
lines
100
AcDbLine
 10
4.210519301294648
 20
4.834056309045893
 30
3.2251706790636714
 11
4.239958568294394
 21
5.015913405472125
 31
3.158719773735287
  0
LINE
  5
1B1
330
17
100
AcDbEntity
  8
lines
100
AcDbLine
 10
4.210519301294648
 20
4.834056309045893
 30
3.2251706790636714
 11
4.081712401182025
 21
4.5254637059883915
 31
3.2147451442037607
  0
LINE
  5
1B2
330
17
100
AcDbEntity
  8
lines
100
AcDbLine
 10
3.075356115983997
 20
1.2348757027157284
 30
3.1970454650187197
 11
2.8654503131392555
 21
1.4260091674609245
 31
3.190358705548144
  0
LINE
  5
1B3
330
17
100
AcDbEntity
  8
lines
100
AcDbLine
 10
-1.3149277343016916
 20
0.009695770951061888
 30
3.16961720416552
 11
-1.2647345854668262
 21
0.14977385036716484
 31
3.241157926201887
  0
LINE
  5
1B4
330
17
100
AcDbEntity
  8
lines
100
AcDbLine
 10
-1.3149277343016916
 20
0.009695770951061888
 30
3.16961720416552
 11
-1.3381907639878217
 21
-0.2663601952229342
 31
3.1787188869540777
  0
LINE
  5
1B5
330
17
100
AcDbEntity
  8
lines
100
AcDbLine
 10
2.573160831596428
 20
-1.0718364798381617
 30
3.197697694718422
 11
2.5989045098389334
 21
-0.9036498375555377
 31
3.203160154893784
  0
LINE
  5
1B6
330
17
100
AcDbEntity
  8
lines
100
AcDbLine
 10
2.573160831596428
 20
-1.0718364798381617
 30
3.197697694718422
 11
2.3939374840058156
 21
-1.449640092550036
 31
3.157281164494259
  0
LINE
  5
1B7
330
17
100
AcDbEntity
  8
lines
100
AcDbLine
 10
3.571274734116085
 20
1.3336918360205305
 30
3.156274707663086
 11
3.7820217251232155
 21
1.3429681783296887
 31
3.231444910712523
  0
LINE
  5
1B8
330
17
100
AcDbEntity
  8
lines
100
AcDbLine
 10
2.7740301287431195
 20
-0.519155019225064
 30
3.21032206137654
 11
2.9327229366850447
 21
-0.22965699195366795
 31
3.155194503253174
  0
LINE
  5
1B9
330
17
100
AcDbEntity
  8
lines
100
AcDbLine
 10
2.7740301287431195
 20
-0.519155019225064
 30
3.21032206137654
 11
2.5989045098389334
 21
-0.9036498375555377
 31
3.203160154893784
  0
LINE
  5
1BA
330
17
100
AcDbEntity
  8
lines
100
AcDbLine
 10
2.604938694314943
 20
1.9833878754076921
 30
3.186414735802363
 11
2.583885854985585
 21
1.6906634132492306
 31
3.2372837222122293
  0
LINE
  5
1BB
330
17
100
AcDbEntity
  8
lines
100
AcDbLine
 10
2.604938694314943
 20
1.9833878754076921
 30
3.186414735802363
 11
2.6269766322614445
 21
2.533914936173126
 31
3.242273774613827
  0
LINE
  5
1BC
330
17
100
AcDbEntity
  8
lines
100
AcDbLine
 10
4.566976664205514
 20
-3.1257490737368867
 30
3.1520640389455785
 11
4.527847709213817
 21
-2.872669057437159
 31
3.1814195555266913
  0
LINE
  5
1BD
330
17
100
AcDbEntity
  8
lines
100
AcDbLine
 10
-0.5351746129369483
 20
-3.505142465735098
 30
3.1704437699887587
 11
-0.34432349131215395
 21
-3.4899490298216156
 31
3.1992706419079786
  0
LINE
  5
1BE
330
17
100
AcDbEntity
  8
lines
100
AcDbLine
 10
-4.889160967938901
 20
-0.4088248575795361
 30
3.155938119323996
 11
-4.590121646169509
 21
-0.46348311318446966
 31
3.218812573645333
  0
LINE
  5
1BF
330
17
100
AcDbEntity
  8
lines
100
AcDbLine
 10
-0.8959827532173634
 20
0.6831859532416582
 30
3.204858126991449
 11
-1.2647345854668262
 21
0.14977385036716484
 31
3.241157926201887
  0
LINE
  5
1C0
330
17
100
AcDbEntity
  8
lines
100
AcDbLine
 10
-1.940018863284469
 20
0.6340782571047472
 30
3.169255289153635
 11
-2.0217981559592917
 21
0.3252697457624234
 31
3.2109666518779783
  0
LINE
  5
1C1
330
17
100
AcDbEntity
  8
lines
100
AcDbLine
 10
3.659951740652881
 20
2.6314708349169105
 30
3.1777255281062056
 11
3.760832359717129
 21
3.0841680469008566
 31
3.2376784696838583
  0
LINE
  5
1C2
330
17
100
AcDbEntity
  8
lines
100
AcDbLine
 10
2.583885854985585
 20
1.6906634132492306
 30
3.2372837222122293
 11
2.8654503131392555
 21
1.4260091674609245
 31
3.190358705548144
  0
LINE
  5
1C3
330
17
100
AcDbEntity
  8
lines
100
AcDbLine
 10
4.687143073163487
 20
7.174161268918021
 30
3.2494907002884785
 11
4.68753807735005
 21
7.17968524840642
 31
3.2083957725360928
  0
LINE
  5
1C4
330
17
100
AcDbEntity
  8
lines
100
AcDbLine
 10
4.687143073163487
 20
7.174161268918021
 30
3.2494907002884785
 11
4.652436053320957
 21
7.035547782928106
 31
3.1630771492373517
  0
LINE
  5
1C5
330
17
100
AcDbEntity
  8
lines
100
AcDbLine
 10
-3.5435749128636336
 20
-0.6012517731305438
 30
3.199956918827546
 11
-3.9392460362728476
 21
-0.5586953417528975
 31
3.186100306831094
  0
LINE
  5
1C6
330
17
100
AcDbEntity
  8
lines
100
AcDbLine
 10
-3.9392460362728476
 20
-0.5586953417528975
 30
3.186100306831094
 11
-4.289506285427665
 21
-0.5074183729276613
 31
3.1771062539696997
  0
LINE
  5
1C7
330
17
100
AcDbEntity
  8
lines
100
AcDbLine
 10
-5.78158711942774
 20
2.490137456670784
 30
3.220433589327584
 11
-5.689916750276074
 21
2.643949911026647
 31
3.1651155570784684
  0
LINE
  5
1C8
330
17
100
AcDbEntity
  8
lines
100
AcDbLine
 10
-5.78158711942774
 20
2.490137456670784
 30
3.220433589327584
 11
-5.646383581501879
 21
2.2318434036396964
 31
3.15808809462471
  0
LINE
  5
1C9
330
17
100
AcDbEntity
  8
lines
100
AcDbLine
 10
-1.5976165808974148
 20
-1.7658862378745408
 30
3.20404376310657
 11
-1.5465773139361194
 21
-1.5161989777633298
 31
3.156329036339394
  0
LINE
  5
1CA
330
17
100
AcDbEntity
  8
lines
100
AcDbLine
 10
-0.0025352552077826107
 20
-3.541382124761113
 30
3.220728031338809
 11
0.24644074336388855
 21
-3.5900439458057587
 31
3.1881894792254206
  0
LINE
  5
1CB
330
17
100
AcDbEntity
  8
lines
100
AcDbLine
 10
3.915043200677669
 20
3.786872382663888
 30
3.201677558663717
 11
3.826900748826093
 21
3.332796638362293
 31
3.2434357417284816
  0
LINE
  5
1CC
330
17
100
AcDbEntity
  8
lines
100
AcDbLine
 10
4.68753807735005
 20
7.17968524840642
 30
3.2083957725360928
 11
4.652436053320957
 21
7.035547782928106
 31
3.1630771492373517
  0
LINE
  5
1CD
330
17
100
AcDbEntity
  8
lines
100
AcDbLine
 10
2.6393370426729073
 20
4.75345281405184
 30
3.172216941355375
 11
2.835344984026983
 21
4.479999201430197
 31
3.1684044094613713
  0
LINE
  5
1CE
330
17
100
AcDbEntity
  8
lines
100
AcDbLine
 10
2.6393370426729073
 20
4.75345281405184
 30
3.172216941355375
 11
2.2113803482338468
 21
5.032583353117123
 31
3.157173161370798
  0
LINE
  5
1CF
330
17
100
AcDbEntity
  8
lines
100
AcDbLine
 10
2.2113803482338468
 20
5.032583353117123
 30
3.157173161370798
 11
2.099154689524783
 21
5.1813995883604065
 31
3.1943990083443654
  0
LINE
  5
1D0
330
17
100
AcDbEntity
  8
lines
100
AcDbLine
 10
1.4115069835527108
 20
5.430076054166655
 30
3.2349649060062067
 11
1.1022339353844828
 21
5.511598097027499
 31
3.1728057964235674
  0
LINE
  5
1D1
330
17
100
AcDbEntity
  8
lines
100
AcDbLine
 10
3.3509504189915003
 20
1.733932263910826
 30
3.1567824986160695
 11
3.444236544271803
 21
1.9906329622261638
 31
3.2162066783631538
  0
LINE
  5
1D2
330
17
100
AcDbEntity
  8
lines
100
AcDbLine
 10
-0.630932722465787
 20
3.7920760625065544
 30
3.2497936745465377
 11
-0.7077735268146337
 21
3.9734058312758176
 31
3.2130729421205517
  0
LINE
  5
1D3
330
17
100
AcDbEntity
  8
lines
100
AcDbLine
 10
-0.7077735268146337
 20
3.9734058312758176
 30
3.2130729421205517
 11
-0.7558232921357386
 21
4.376453469079462
 31
3.248651982714682
  0
LINE
  5
1D4
330
17
100
AcDbEntity
  8
lines
100
AcDbLine
 10
-0.7544392327151777
 20
4.631679575785987
 30
3.2496711821235933
 11
-0.7558232921357386
 21
4.376453469079462
 31
3.248651982714682
  0
LINE
  5
1D5
330
17
100
AcDbEntity
  8
lines
100
AcDbLine
 10
-5.63262217534189
 20
1.5323725559213108
 30
3.154307770145269
 11
-5.442317868832125
 21
1.518831560667241
 31
3.1617421572661195
  0
LINE
  5
1D6
330
17
100
AcDbEntity
  8
lines
100
AcDbLine
 10
-1.8381231397407496
 20
4.946183832961806
 30
3.1719348516618724
 11
-2.0879161998920757
 21
4.958009197069506
 31
3.2338368288423527
  0
LINE
  5
1D7
330
17
100
AcDbEntity
  8
lines
100
AcDbLine
 10
-1.8381231397407496
 20
4.946183832961806
 30
3.1719348516618724
 11
-2.388952314642128
 21
5.040128440114596
 31
3.203566382759968
  0
LINE
  5
1D8
330
17
100
AcDbEntity
  8
lines
100
AcDbLine
 10
3.760832359717129
 20
3.0841680469008566
 30
3.2376784696838583
 11
3.826900748826093
 21
3.332796638362293
 31
3.2434357417284816
  0
LINE
  5
1D9
330
17
100
AcDbEntity
  8
lines
100
AcDbLine
 10
-5.646383581501879
 20
2.2318434036396964
 30
3.15808809462471
 11
-5.68511996089006
 21
2.074930500359837
 31
3.165502061157052
  0
LINE
  5
1DA
330
17
100
AcDbEntity
  8
lines
100
AcDbLine
 10
4.0433332926299155
 20
1.34175047083195
 30
3.1782825812561537
 11
3.7820217251232155
 21
1.3429681783296887
 31
3.231444910712523
  0
LINE
  5
1DB
330
17
100
AcDbEntity
  8
lines
100
AcDbLine
 10
-4.876572039933348
 20
3.6834636426396754
 30
3.1535345782322937
 11
-4.8223108984634315
 21
3.1379360673236514
 31
3.151070871813846
  0
LINE
  5
1DC
330
17
100
AcDbEntity
  8
lines
100
AcDbLine
 10
-4.389976585526659
 20
5.026354946939578
 30
3.2353326878043296
 11
-4.603102628717309
 21
4.912591616156867
 31
3.2119159521962213
  0
LINE
  5
1DD
330
17
100
AcDbEntity
  8
lines
100
AcDbLine
 10
-4.389976585526659
 20
5.026354946939578
 30
3.2353326878043296
 11
-3.589654074098784
 21
5.036984661541537
 31
3.2116316705460366
  0
LINE
  5
1DE
330
17
100
AcDbEntity
  8
lines
100
AcDbLine
 10
-0.874390600307176
 20
3.236541029677629
 30
3.189264005168759
 11
-0.7806596061766966
 21
3.326361254647865
 31
3.2286051210203084
  0
LINE
  5
1DF
330
17
100
AcDbEntity
  8
lines
100
AcDbLine
 10
-1.5149112577909032
 20
-1.3410068816209109
 30
3.18141335219728
 11
-1.5465773139361194
 21
-1.5161989777633298
 31
3.156329036339394
  0
LINE
  5
1E0
330
17
100
AcDbEntity
  8
lines
100
AcDbLine
 10
-5.338916426272841
 20
1.177110842861694
 30
3.162067415986526
 11
-5.5392214859663875
 21
1.1822845741679098
 31
3.2003381628633547
  0
LINE
  5
1E1
330
17
100
AcDbEntity
  8
lines
100
AcDbLine
 10
-5.338916426272841
 20
1.177110842861694
 30
3.162067415986526
 11
-5.442317868832125
 21
1.518831560667241
 31
3.1617421572661195
  0
LINE
  5
1E2
330
17
100
AcDbEntity
  8
lines
100
AcDbLine
 10
-5.011542960944929
 20
0.9696332708055949
 30
3.214456932428694
 11
-5.0239011732490555
 21
0.7642351419625466
 31
3.1678711209188943
  0
LINE
  5
1E3
330
17
100
AcDbEntity
  8
lines
100
AcDbLine
 10
4.581226604820949
 20
6.371761815529109
 30
3.1564035091762133
 11
4.562588033505293
 21
6.528917151560496
 31
3.20281792145471
  0
LINE
  5
1E4
330
17
100
AcDbEntity
  8
lines
100
AcDbLine
 10
4.581226604820949
 20
6.371761815529109
 30
3.1564035091762133
 11
4.5412115268101685
 21
6.200314199803214
 31
3.199839454681641
  0
LINE
  5
1E5
330
17
100
AcDbEntity
  8
lines
100
AcDbLine
 10
-2.0879161998920757
 20
4.958009197069506
 30
3.2338368288423527
 11
-2.388952314642128
 21
5.040128440114596
 31
3.203566382759968
  0
LINE
  5
1E6
330
17
100
AcDbEntity
  8
lines
100
AcDbLine
 10
-2.076169395483896
 20
-0.06614549782563373
 30
3.2062135819725612
 11
-2.0257120203049177
 21
0.13416142974209766
 31
3.209199845044439
  0
LINE
  5
1E7
330
17
100
AcDbEntity
  8
lines
100
AcDbLine
 10
-2.076169395483896
 20
-0.06614549782563373
 30
3.2062135819725612
 11
-2.0217981559592917
 21
0.3252697457624234
 31
3.2109666518779783
  0
LINE
  5
1E8
330
17
100
AcDbEntity
  8
lines
100
AcDbLine
 10
2.1110191786130854
 20
-1.3152109104649592
 30
3.1834518766882542
 11
2.1429393926781435
 21
-1.4768589932931018
 31
3.179293881781686
  0
LINE
  5
1E9
330
17
100
AcDbEntity
  8
lines
100
AcDbLine
 10
2.1110191786130854
 20
-1.3152109104649592
 30
3.1834518766882542
 11
2.317192644565749
 21
-1.5271275828199602
 31
3.2416496323628254
  0
LINE
  5
1EA
330
17
100
AcDbEntity
  8
lines
100
AcDbLine
 10
-4.590121646169509
 20
-0.46348311318446966
 30
3.218812573645333
 11
-4.289506285427665
 21
-0.5074183729276613
 31
3.1771062539696997
  0
LINE
  5
1EB
330
17
100
AcDbEntity
  8
lines
100
AcDbLine
 10
4.5024237322740674
 20
5.982388671548791
 30
3.245151690531099
 11
4.5412115268101685
 21
6.200314199803214
 31
3.199839454681641
  0
LINE
  5
1EC
330
17
100
AcDbEntity
  8
lines
100
AcDbLine
 10
4.5024237322740674
 20
5.982388671548791
 30
3.245151690531099
 11
4.435143415378054
 21
5.730807997238239
 31
3.190145203158486
  0
LINE
  5
1ED
330
17
100
AcDbEntity
  8
lines
100
AcDbLine
 10
-1.2251597272604045
 20
-2.9468637331080076
 30
3.184627960908224
 11
-0.9412009337926039
 21
-3.1188250937743733
 31
3.2103315603108937
  0
LINE
  5
1EE
330
17
100
AcDbEntity
  8
lines
100
AcDbLine
 10
-5.689916750276074
 20
2.643949911026647
 30
3.1651155570784684
 11
-5.509547162221553
 21
2.6587367240980155
 31
3.179541757564109
  0
LINE
  5
1EF
330
17
100
AcDbEntity
  8
lines
100
AcDbLine
 10
4.58805245810147
 20
6.726190092895433
 30
3.198952389602306
 11
4.562588033505293
 21
6.528917151560496
 31
3.20281792145471
  0
LINE
  5
1F0
330
17
100
AcDbEntity
  8
lines
100
AcDbLine
 10
4.58805245810147
 20
6.726190092895433
 30
3.198952389602306
 11
4.652436053320957
 21
7.035547782928106
 31
3.1630771492373517
  0
LINE
  5
1F1
330
17
100
AcDbEntity
  8
lines
100
AcDbLine
 10
2.2011928067064206
 20
-0.7148150110367115
 30
3.1916734429326428
 11
2.1698533758042298
 21
-0.9133487683266825
 31
3.189641880342294
  0
LINE
  5
1F2
330
17
100
AcDbEntity
  8
lines
100
AcDbLine
 10
-3.589654074098784
 20
5.036984661541537
 30
3.2116316705460366
 11
-2.6393900049504873
 21
5.014997516620093
 31
3.2446268741498376
  0
LINE
  5
1F3
330
17
100
AcDbEntity
  8
lines
100
AcDbLine
 10
-2.388952314642128
 20
5.040128440114596
 30
3.203566382759968
 11
-2.6393900049504873
 21
5.014997516620093
 31
3.2446268741498376
  0
LINE
  5
1F4
330
17
100
AcDbEntity
  8
lines
100
AcDbLine
 10
2.1429393926781435
 20
-1.4768589932931018
 30
3.179293881781686
 11
2.317192644565749
 21
-1.5271275828199602
 31
3.2416496323628254
  0
LINE
  5
1F5
330
17
100
AcDbEntity
  8
lines
100
AcDbLine
 10
2.3939374840058156
 20
-1.449640092550036
 30
3.157281164494259
 11
2.317192644565749
 21
-1.5271275828199602
 31
3.2416496323628254
  0
LINE
  5
1F6
330
17
100
AcDbEntity
  8
lines
100
AcDbLine
 10
2.728305930768176
 20
3.2196689313726132
 30
3.153154538272707
 11
2.6269766322614445
 21
2.533914936173126
 31
3.242273774613827
  0
LINE
  5
1F7
330
17
100
AcDbEntity
  8
lines
100
AcDbLine
 10
-2.0257120203049177
 20
0.13416142974209766
 30
3.209199845044439
 11
-2.0217981559592917
 21
0.3252697457624234
 31
3.2109666518779783
  0
LINE
  5
1F8
330
17
100
AcDbEntity
  8
lines
100
AcDbLine
 10
3.4747697646240487
 20
2.180646348527582
 30
3.2199638999383375
 11
3.444236544271803
 21
1.9906329622261638
 31
3.2162066783631538
  0
ENDSEC
  0
SECTION
  2
OBJECTS
  0
DICTIONARY
  5
A
330
0
100
AcDbDictionary
281
1
  3
ACAD_COLOR
350
B
  3
ACAD_GROUP
350
C
  3
ACAD_LAYOUT
350
D
  3
ACAD_MATERIAL
350
E
  3
ACAD_MLEADERSTYLE
350
F
  3
ACAD_MLINESTYLE
350
10
  3
ACAD_PLOTSETTINGS
350
11
  3
ACAD_PLOTSTYLENAME
350
12
  3
ACAD_SCALELIST
350
14
  3
ACAD_TABLESTYLE
350
15
  3
ACAD_VISUALSTYLE
350
16
  3
EZDXF_META
350
2D
  0
DICTIONARY
  5
B
330
A
100
AcDbDictionary
281
1
  0
DICTIONARY
  5
C
330
A
100
AcDbDictionary
281
1
  0
DICTIONARY
  5
D
330
A
100
AcDbDictionary
281
1
  3
Model
350
1A
  3
Layout1
350
1E
  0
DICTIONARY
  5
E
330
A
100
AcDbDictionary
281
1
  3
ByBlock
350
1F
  3
ByLayer
350
20
  3
Global
350
21
  0
DICTIONARY
  5
F
330
A
100
AcDbDictionary
281
1
  3
Standard
350
2C
  0
DICTIONARY
  5
10
330
A
100
AcDbDictionary
281
1
  3
Standard
350
22
  0
DICTIONARY
  5
11
330
A
100
AcDbDictionary
281
1
  0
ACDBDICTIONARYWDFLT
  5
12
330
A
100
AcDbDictionary
281
1
  3
Normal
350
13
100
AcDbDictionaryWithDefault
340
13
  0
ACDBPLACEHOLDER
  5
13
330
12
  0
DICTIONARY
  5
14
330
A
100
AcDbDictionary
281
1
  0
DICTIONARY
  5
15
330
A
100
AcDbDictionary
281
1
  0
DICTIONARY
  5
16
330
A
100
AcDbDictionary
281
1
  0
LAYOUT
  5
1A
330
D
100
AcDbPlotSettings
  1

  4
A3
  6

 40
7.5
 41
20.0
 42
7.5
 43
20.0
 44
420.0
 45
297.0
 46
0.0
 47
0.0
 48
0.0
 49
0.0
140
0.0
141
0.0
142
1.0
143
1.0
 70
1024
 72
1
 73
0
 74
5
  7

 75
16
 76
0
 77
2
 78
300
147
1.0
148
0.0
149
0.0
100
AcDbLayout
  1
Model
 70
1
 71
0
 10
0.0
 20
0.0
 11
420.0
 21
297.0
 12
0.0
 22
0.0
 32
0.0
 14
1e+20
 24
1e+20
 34
1e+20
 15
-1e+20
 25
-1e+20
 35
-1e+20
146
0.0
 13
0.0
 23
0.0
 33
0.0
 16
1.0
 26
0.0
 36
0.0
 17
0.0
 27
1.0
 37
0.0
 76
1
330
17
  0
LAYOUT
  5
1E
330
D
100
AcDbPlotSettings
  1

  4
A3
  6

 40
7.5
 41
20.0
 42
7.5
 43
20.0
 44
420.0
 45
297.0
 46
0.0
 47
0.0
 48
0.0
 49
0.0
140
0.0
141
0.0
142
1.0
143
1.0
 70
0
 72
1
 73
0
 74
5
  7

 75
16
 76
0
 77
2
 78
300
147
1.0
148
0.0
149
0.0
100
AcDbLayout
  1
Layout1
 70
1
 71
1
 10
0.0
 20
0.0
 11
420.0
 21
297.0
 12
0.0
 22
0.0
 32
0.0
 14
1e+20
 24
1e+20
 34
1e+20
 15
-1e+20
 25
-1e+20
 35
-1e+20
146
0.0
 13
0.0
 23
0.0
 33
0.0
 16
1.0
 26
0.0
 36
0.0
 17
0.0
 27
1.0
 37
0.0
 76
1
330
1B
  0
MATERIAL
  5
1F
102
{ACAD_REACTORS
330
E
102
}
330
E
100
AcDbMaterial
  1
ByBlock
  2

 70
0
 40
1.0
 71
1
 41
1.0
 91
-1023410177
 42
1.0
 72
1
  3

 73
1
 74
1
 75
1
 44
0.5
 73
0
 45
1.0
 46
1.0
 77
1
  4

 78
1
 79
1
170
1
 48
1.0
171
1
  6

172
1
173
1
174
1
140
1.0
141
1.0
175
1
  7

176
1
177
1
178
1
143
1.0
179
1
  8

270
1
271
1
272
1
145
1.0
146
1.0
273
1
  9

274
1
275
1
276
1
 42
1.0
 72
1
  3

 73
1
 74
1
 75
1
 94
63
  0
MATERIAL
  5
20
102
{ACAD_REACTORS
330
E
102
}
330
E
100
AcDbMaterial
  1
ByLayer
  2

 70
0
 40
1.0
 71
1
 41
1.0
 91
-1023410177
 42
1.0
 72
1
  3

 73
1
 74
1
 75
1
 44
0.5
 73
0
 45
1.0
 46
1.0
 77
1
  4

 78
1
 79
1
170
1
 48
1.0
171
1
  6

172
1
173
1
174
1
140
1.0
141
1.0
175
1
  7

176
1
177
1
178
1
143
1.0
179
1
  8

270
1
271
1
272
1
145
1.0
146
1.0
273
1
  9

274
1
275
1
276
1
 42
1.0
 72
1
  3

 73
1
 74
1
 75
1
 94
63
  0
MATERIAL
  5
21
102
{ACAD_REACTORS
330
E
102
}
330
E
100
AcDbMaterial
  1
Global
  2

 70
0
 40
1.0
 71
1
 41
1.0
 91
-1023410177
 42
1.0
 72
1
  3

 73
1
 74
1
 75
1
 44
0.5
 73
0
 45
1.0
 46
1.0
 77
1
  4

 78
1
 79
1
170
1
 48
1.0
171
1
  6

172
1
173
1
174
1
140
1.0
141
1.0
175
1
  7

176
1
177
1
178
1
143
1.0
179
1
  8

270
1
271
1
272
1
145
1.0
146
1.0
273
1
  9

274
1
275
1
276
1
 42
1.0
 72
1
  3

 73
1
 74
1
 75
1
 94
63
  0
MLINESTYLE
  5
22
102
{ACAD_REACTORS
330
10
102
}
330
10
100
AcDbMlineStyle
  2
Standard
 70
0
  3

 62
256
 51
90.0
 52
90.0
 71
2
 49
0.5
 62
256
  6
BYLAYER
 49
-0.5
 62
256
  6
BYLAYER
  0
MLEADERSTYLE
  5
2C
102
{ACAD_REACTORS
330
F
102
}
330
F
100
AcDbMLeaderStyle
179
2
170
2
171
1
172
0
 90
2
 40
0.0
 41
0.0
173
1
 91
-1056964608
 92
-2
290
1
 42
2.0
291
1
 43
8.0
  3
Standard
 44
4.0
300

342
29
174
1
175
1
176
0
178
1
 93
-1056964608
 45
4.0
292
0
297
0
 46
4.0
 94
-1056964608
 47
1.0
 49
1.0
140
1.0
294
1
141
0.0
177
0
142
1.0
295
0
296
0
143
3.75
271
0
272
9
273
9
  0
DICTIONARY
  5
2D
330
A
100
AcDbDictionary
280
1
281
1
  3
CREATED_BY_EZDXF
350
2E
  3
WRITTEN_BY_EZDXF
350
1FE
  0
DICTIONARYVAR
  5
2E
330
2D
100
DictionaryVariables
280
0
  1
1.4.3 @ 2026-07-28T07:28:53.370192+00:00
  0
DICTIONARYVAR
  5
1FE
330
2D
100
DictionaryVariables
280
0
  1
1.4.3 @ 2026-07-28T07:28:53.375385+00:00
  0
ENDSEC
  0
EOF
