  0
SECTION
  2
HEADER
  9
$ACADVER
  1
AC1024
  9
$ACADMAINTVER
 70
6
  9
$DWGCODEPAGE
  3
ANSI_1252
  9
$LASTSAVEDBY
  1
ezdxf
  9
$INSBASE
 10
0.0
 20
0.0
 30
0.0
  9
$EXTMIN
 10
1e+20
 20
1e+20
 30
1e+20
  9
$EXTMAX
 10
-1e+20
 20
-1e+20
 30
-1e+20
  9
$LIMMIN
 10
0.0
 20
0.0
  9
$LIMMAX
 10
420.0
 20
297.0
  9
$ORTHOMODE
 70
0
  9
$REGENMODE
 70
1
  9
$FILLMODE
 70
1
  9
$QTEXTMODE
 70
0
  9
$MIRRTEXT
 70
1
  9
$LTSCALE
 40
1.0
  9
$ATTMODE
 70
1
  9
$TEXTSIZE
 40
2.5
  9
$TRACEWID
 40
1.0
  9
$TEXTSTYLE
  7
Standard
  9
$CLAYER
  8
0
  9
$CELTYPE
  6
ByLayer
  9
$CECOLOR
 62
256
  9
$CELTSCALE
 40
1.0
  9
$DISPSILH
 70
0
  9
$DIMSCALE
 40
1.0
  9
$DIMASZ
 40
2.5
  9
$DIMEXO
 40
0.625
  9
$DIMDLI
 40
3.75
  9
$DIMRND
 40
0.0
  9
$DIMDLE
 40
0.0
  9
$DIMEXE
 40
1.25
  9
$DIMTP
 40
0.0
  9
$DIMTM
 40
0.0
  9
$DIMTXT
 40
2.5
  9
$DIMCEN
 40
2.5
  9
$DIMTSZ
 40
0.0
  9
$DIMTOL
 70
0
  9
$DIMLIM
 70
0
  9
$DIMTIH
 70
0
  9
$DIMTOH
 70
0
  9
$DIMSE1
 70
0
  9
$DIMSE2
 70
0
  9
$DIMTAD
 70
1
  9
$DIMZIN
 70
8
  9
$DIMBLK
  1

  9
$DIMASO
 70
1
  9
$DIMSHO
 70
1
  9
$DIMPOST
  1

  9
$DIMAPOST
  1

  9
$DIMALT
 70
0
  9
$DIMALTD
 70
3
  9
$DIMALTF
 40
0.03937007874
  9
$DIMLFAC
 40
1.0
  9
$DIMTOFL
 70
1
  9
$DIMTVP
 40
0.0
  9
$DIMTIX
 70
0
  9
$DIMSOXD
 70
0
  9
$DIMSAH
 70
0
  9
$DIMBLK1
  1

  9
$DIMBLK2
  1

  9
$DIMSTYLE
  2
ISO-25
  9
$DIMCLRD
 70
0
  9
$DIMCLRE
 70
0
  9
$DIMCLRT
 70
0
  9
$DIMTFAC
 40
1.0
  9
$DIMGAP
 40
0.625
  9
$DIMJUST
 70
0
  9
$DIMSD1
 70
0
  9
$DIMSD2
 70
0
  9
$DIMTOLJ
 70
0
  9
$DIMTZIN
 70
8
  9
$DIMALTZ
 70
0
  9
$DIMALTTZ
 70
0
  9
$DIMUPT
 70
0
  9
$DIMDEC
 70
2
  9
$DIMTDEC
 70
2
  9
$DIMALTU
 70
2
  9
$DIMALTTD
 70
3
  9
$DIMTXSTY
  7
Standard
  9
$DIMAUNIT
 70
0
  9
$DIMADEC
 70
0
  9
$DIMALTRND
 40
0.0
  9
$DIMAZIN
 70
0
  9
$DIMDSEP
 70
44
  9
$DIMATFIT
 70
3
  9
$DIMFRAC
 70
0
  9
$DIMLDRBLK
  1

  9
$DIMLUNIT
 70
2
  9
$DIMLWD
 70
-2
  9
$DIMLWE
 70
-2
  9
$DIMTMOVE
 70
0
  9
$DIMFXL
 40
1.0
  9
$DIMFXLON
 70
0
  9
$DIMJOGANG
 40
0.785398163397
  9
$DIMTFILL
 70
0
  9
$DIMTFILLCLR
 70
0
  9
$DIMARCSYM
 70
0
  9
$DIMLTYPE
  6

  9
$DIMLTEX1
  6

  9
$DIMLTEX2
  6

  9
$DIMTXTDIRECTION
 70
0
  9
$LUNITS
 70
2
  9
$LUPREC
 70
4
  9
$SKETCHINC
 40
1.0
  9
$FILLETRAD
 40
10.0
  9
$AUNITS
 70
0
  9
$AUPREC
 70
2
  9
$MENU
  1
.
  9
$ELEVATION
 40
0.0
  9
$PELEVATION
 40
0.0
  9
$THICKNESS
 40
0.0
  9
$LIMCHECK
 70
0
  9
$CHAMFERA
 40
0.0
  9
$CHAMFERB
 40
0.0
  9
$CHAMFERC
 40
0.0
  9
$CHAMFERD
 40
0.0
  9
$SKPOLY
 70
0
  9
$TDCREATE
 40
2461250.3950578705
  9
$TDUCREATE
 40
2458532.153996898
  9
$TDUPDATE
 40
2461250.3950578705
  9
$TDUUPDATE
 40
2458532.1544311
  9
$TDINDWG
 40
0.0
  9
$TDUSRTIMER
 40
0.0
  9
$USRTIMER
 70
1
  9
$ANGBASE
 50
0.0
  9
$ANGDIR
 70
0
  9
$PDMODE
 70
0
  9
$PDSIZE
 40
0.0
  9
$PLINEWID
 40
0.0
  9
$SPLFRAME
 70
0
  9
$SPLINETYPE
 70
6
  9
$SPLINESEGS
 70
8
  9
$HANDSEED
  5
D1
  9
$SURFTAB1
 70
6
  9
$SURFTAB2
 70
6
  9
$SURFTYPE
 70
6
  9
$SURFU
 70
6
  9
$SURFV
 70
6
  9
$UCSBASE
  2

  9
$UCSNAME
  2

  9
$UCSORG
 10
0.0
 20
0.0
 30
0.0
  9
$UCSXDIR
 10
1.0
 20
0.0
 30
0.0
  9
$UCSYDIR
 10
0.0
 20
1.0
 30
0.0
  9
$UCSORTHOREF
  2

  9
$UCSORTHOVIEW
 70
0
  9
$UCSORGTOP
 10
0.0
 20
0.0
 30
0.0
  9
$UCSORGBOTTOM
 10
0.0
 20
0.0
 30
0.0
  9
$UCSORGLEFT
 10
0.0
 20
0.0
 30
0.0
  9
$UCSORGRIGHT
 10
0.0
 20
0.0
 30
0.0
  9
$UCSORGFRONT
 10
0.0
 20
0.0
 30
0.0
  9
$UCSORGBACK
 10
0.0
 20
0.0
 30
0.0
  9
$PUCSBASE
  2

  9
$PUCSNAME
  2

  9
$PUCSORG
 10
0.0
 20
0.0
 30
0.0
  9
$PUCSXDIR
 10
1.0
 20
0.0
 30
0.0
  9
$PUCSYDIR
 10
0.0
 20
1.0
 30
0.0
  9
$PUCSORTHOREF
  2

  9
$PUCSORTHOVIEW
 70
0
  9
$PUCSORGTOP
 10
0.0
 20
0.0
 30
0.0
  9
$PUCSORGBOTTOM
 10
0.0
 20
0.0
 30
0.0
  9
$PUCSORGLEFT
 10
0.0
 20
0.0
 30
0.0
  9
$PUCSORGRIGHT
 10
0.0
 20
0.0
 30
0.0
  9
$PUCSORGFRONT
 10
0.0
 20
0.0
 30
0.0
  9
$PUCSORGBACK
 10
0.0
 20
0.0
 30
0.0
  9
$USERI1
 70
0
  9
$USERI2
 70
0
  9
$USERI3
 70
0
  9
$USERI4
 70
0
  9
$USERI5
 70
0
  9
$USERR1
 40
0.0
  9
$USERR2
 40
0.0
  9
$USERR3
 40
0.0
  9
$USERR4
 40
0.0
  9
$USERR5
 40
0.0
  9
$WORLDVIEW
 70
1
  9
$SHADEDGE
 70
3
  9
$SHADEDIF
 70
70
  9
$TILEMODE
 70
1
  9
$MAXACTVP
 70
64
  9
$PINSBASE
 10
0.0
 20
0.0
 30
0.0
  9
$PLIMCHECK
 70
0
  9
$PEXTMIN
 10
1e+20
 20
1e+20
 30
1e+20
  9
$PEXTMAX
 10
-1e+20
 20
-1e+20
 30
-1e+20
  9
$PLIMMIN
 10
0.0
 20
0.0
  9
$PLIMMAX
 10
420.0
 20
297.0
  9
$UNITMODE
 70
0
  9
$VISRETAIN
 70
1
  9
$PLINEGEN
 70
0
  9
$PSLTSCALE
 70
1
  9
$TREEDEPTH
 70
3020
  9
$CMLSTYLE
  2
Standard
  9
$CMLJUST
 70
0
  9
$CMLSCALE
 40
20.0
  9
$PROXYGRAPHICS
 70
1
  9
$MEASUREMENT
 70
1
  9
$CELWEIGHT
370
-1
  9
$ENDCAPS
280
0
  9
$JOINSTYLE
280
0
  9
$LWDISPLAY
290
0
  9
$INSUNITS
 70
6
  9
$HYPERLINKBASE
  1

  9
$STYLESHEET
  1

  9
$XEDIT
290
1
  9
$CEPSNTYPE
380
0
  9
$PSTYLEMODE
290
1
  9
$FINGERPRINTGUID
  2
{5F5D4608-0C3F-49B1-8C3B-4852874642B6}
  9
$VERSIONGUID
  2
{E302ACC8-7615-47AD-B5F5-AA1270F63A7A}
  9
$EXTNAMES
290
1
  9
$PSVPSCALE
 40
0.0
  9
$OLESTARTUP
290
0
  9
$SORTENTS
280
127
  9
$INDEXCTL
280
0
  9
$HIDETEXT
280
1
  9
$XCLIPFRAME
280
1
  9
$HALOGAP
280
0
  9
$OBSCOLOR
 70
257
  9
$OBSLTYPE
280
0
  9
$INTERSECTIONDISPLAY
280
0
  9
$INTERSECTIONCOLOR
 70
257
  9
$DIMASSOC
280
2
  9
$PROJECTNAME
  1

  9
$CAMERADISPLAY
290
0
  9
$LENSLENGTH
 40
50.0
  9
$CAMERAHEIGHT
 40
0.0
  9
$STEPSPERSEC
 40
24.0
  9
$STEPSIZE
 40
100.0
  9
$3DDWFPREC
 40
2.0
  9
$PSOLWIDTH
 40
0.005
  9
$PSOLHEIGHT
 40
0.08
  9
$LOFTANG1
 40
1.570796326795
  9
$LOFTANG2
 40
1.570796326795
  9
$LOFTMAG1
 40
0.0
  9
$LOFTMAG2
 40
0.0
  9
$LOFTPARAM
 70
7
  9
$LOFTNORMALS
280
1
  9
$LATITUDE
 40
37.795
  9
$LONGITUDE
 40
-122.394
  9
$NORTHDIRECTION
 40
0.0
  9
$TIMEZONE
 70
-8000
  9
$LIGHTGLYPHDISPLAY
280
1
  9
$TILEMODELIGHTSYNCH
280
1
  9
$CMATERIAL
347
20
  9
$SOLIDHIST
280
0
  9
$SHOWHIST
280
1
  9
$DWFFRAME
280
2
  9
$DGNFRAME
280
2
  9
$REALWORLDSCALE
290
1
  9
$INTERFERECOLOR
 62
256
  9
$CSHADOW
280
0
  9
$SHADOWPLANELOCATION
 40
0.0
  0
ENDSEC
  0
SECTION
  2
CLASSES
  0
CLASS
  1
ACDBDICTIONARYWDFLT
  2
AcDbDictionaryWithDefault
  3
ObjectDBX Classes
 90
0
 91
0
280
0
281
0
  0
CLASS
  1
SUN
  2
AcDbSun
  3
SCENEOE
 90
1153
 91
0
280
0
281
0
  0
CLASS
  1
VISUALSTYLE
  2
AcDbVisualStyle
  3
ObjectDBX Classes
 90
4095
 91
0
280
0
281
0
  0
CLASS
  1
MATERIAL
  2
AcDbMaterial
  3
ObjectDBX Classes
 90
1153
 91
0
280
0
281
0
  0
CLASS
  1
SCALE
  2
AcDbScale
  3
ObjectDBX Classes
 90
1153
 91
0
280
0
281
0
  0
CLASS
  1
TABLESTYLE
  2
AcDbTableStyle
  3
ObjectDBX Classes
 90
4095
 91
0
280
0
281
0
  0
CLASS
  1
MLEADERSTYLE
  2
AcDbMLeaderStyle
  3
ACDB_MLEADERSTYLE_CLASS
 90
4095
 91
0
280
0
281
0
  0
CLASS
  1
DICTIONARYVAR
  2
AcDbDictionaryVar
  3
ObjectDBX Classes
 90
0
 91
0
280
0
281
0
  0
CLASS
  1
CELLSTYLEMAP
  2
AcDbCellStyleMap
  3
ObjectDBX Classes
 90
1152
 91
0
280
0
281
0
  0
CLASS
  1
MENTALRAYRENDERSETTINGS
  2
AcDbMentalRayRenderSettings
  3
SCENEOE
 90
1024
 91
0
280
0
281
0
  0
CLASS
  1
ACDBDETAILVIEWSTYLE
  2
AcDbDetailViewStyle
  3
ObjectDBX Classes
 90
1025
 91
0
280
0
281
0
  0
CLASS
  1
ACDBSECTIONVIEWSTYLE
  2
AcDbSectionViewStyle
  3
ObjectDBX Classes
 90
1025
 91
0
280
0
281
0
  0
CLASS
  1
RASTERVARIABLES
  2
AcDbRasterVariables
  3
ISM
 90
0
 91
0
280
0
281
0
  0
CLASS
  1
LAYOUT
  2
AcDbLayout
  3
ObjectDBX Classes
 90
0
 91
0
280
0
281
0
  0
CLASS
  1
ACDBPLACEHOLDER
  2
AcDbPlaceHolder
  3
ObjectDBX Classes
 90
0
 91
0
280
0
281
0
  0
ENDSEC
  0
SECTION
  2
TABLES
  0
TABLE
  2
VPORT
  5
8
330
0
100
AcDbSymbolTable
 70
1
  0
VPORT
  5
23
330
8
100
AcDbSymbolTableRecord
100
AcDbViewportTableRecord
  2
*Active
 70
0
 10
0.0
 20
0.0
 11
1.0
 21
1.0
 12
0.0
 22
0.0
 13
0.0
 23
0.0
 14
0.5
 24
0.5
 15
0.5
 25
0.5
 16
0.0
 26
0.0
 36
1.0
 17
0.0
 27
0.0
 37
0.0
 40
1000.0
 41
1.34
 42
50.0
 43
0.0
 44
0.0
 50
0.0
 51
0.0
 71
0
 72
1000
 73
1
 74
3
 75
0
 76
0
 77
0
 78
0
281
0
 65
0
146
0.0
  0
ENDTAB
  0
TABLE
  2
LTYPE
  5
2
330
0
100
AcDbSymbolTable
 70
3
  0
LTYPE
  5
24
330
2
100
AcDbSymbolTableRecord
100
AcDbLinetypeTableRecord
  2
ByBlock
 70
0
  3

 72
65
 73
0
 40
0.0
  0
LTYPE
  5
25
330
2
100
AcDbSymbolTableRecord
100
AcDbLinetypeTableRecord
  2
ByLayer
 70
0
  3

 72
65
 73
0
 40
0.0
  0
LTYPE
  5
26
330
2
100
AcDbSymbolTableRecord
100
AcDbLinetypeTableRecord
  2
Continuous
 70
0
  3

 72
65
 73
0
 40
0.0
  0
ENDTAB
  0
TABLE
  2
LAYER
  5
1
330
0
100
AcDbSymbolTable
 70
5
  0
LAYER
  5
27
330
1
100
AcDbSymbolTableRecord
100
AcDbLayerTableRecord
  2
0
 70
0
 62
7
  6
Continuous
370
-3
390
13
347
21
  0
LAYER
  5
28
330
1
100
AcDbSymbolTableRecord
100
AcDbLayerTableRecord
  2
Defpoints
 70
0
 62
7
  6
Continuous
290
0
370
-3
390
13
347
21
  0
LAYER
  5
CB
330
1
100
AcDbSymbolTableRecord
100
AcDbLayerTableRecord
  2
keypoints
 70
0
 62
1
  6
Continuous
370
-3
390
13
347
21
  0
LAYER
  5
CC
330
1
100
AcDbSymbolTableRecord
100
AcDbLayerTableRecord
  2
lines
 70
0
 62
2
  6
Continuous
370
-3
390
13
347
21
  0
LAYER
  5
CD
330
1
100
AcDbSymbolTableRecord
100
AcDbLayerTableRecord
  2
mesh
 70
0
 62
5
  6
Continuous
370
-3
390
13
347
21
  0
ENDTAB
  0
TABLE
  2
STYLE
  5
5
330
0
100
AcDbSymbolTable
 70
1
  0
STYLE
  5
29
330
5
100
AcDbSymbolTableRecord
100
AcDbTextStyleTableRecord
  2
Standard
 70
0
 40
0.0
 41
1.0
 50
0.0
 71
0
 42
2.5
  3
txt
  4

  0
ENDTAB
  0
TABLE
  2
VIEW
  5
7
330
0
100
AcDbSymbolTable
 70
0
  0
ENDTAB
  0
TABLE
  2
UCS
  5
6
330
0
100
AcDbSymbolTable
 70
0
  0
ENDTAB
  0
TABLE
  2
APPID
  5
3
330
0
100
AcDbSymbolTable
 70
3
  0
APPID
  5
2A
330
3
100
AcDbSymbolTableRecord
100
AcDbRegAppTableRecord
  2
ACAD
 70
0
  0
APPID
  5
CE
330
3
100
AcDbSymbolTableRecord
100
AcDbRegAppTableRecord
  2
HATCHBACKGROUNDCOLOR
 70
0
  0
APPID
  5
CF
330
3
100
AcDbSymbolTableRecord
100
AcDbRegAppTableRecord
  2
EZDXF
 70
0
  0
ENDTAB
  0
TABLE
  2
DIMSTYLE
  5
4
330
0
100
AcDbSymbolTable
 70
1
100
AcDbDimStyleTable
  0
DIMSTYLE
105
2B
330
4
100
AcDbSymbolTableRecord
100
AcDbDimStyleTableRecord
  2
Standard
 70
0
 40
1.0
 41
2.5
 42
0.625
 43
3.75
 44
1.25
 45
0.0
 46
0.0
 47
0.0
 48
0.0
 49
2.5
140
2.5
141
2.5
142
0.0
143
0.03937007874
144
1.0
145
0.0
146
1.0
147
0.625
148
0.0
 69
0
 70
0
 71
0
 72
0
 73
0
 74
0
 75
0
 76
0
 77
1
 78
8
 79
3
170
0
171
3
172
1
173
0
174
0
175
0
176
0
177
0
178
0
179
2
271
2
272
2
273
2
274
3
275
0
276
0
277
2
278
44
279
0
280
0
281
0
282
0
283
0
284
8
285
0
286
0
288
0
289
3
290
0
371
-2
372
-2
  0
ENDTAB
  0
TABLE
  2
BLOCK_RECORD
  5
9
330
0
100
AcDbSymbolTable
 70
2
  0
BLOCK_RECORD
  5
17
330
9
100
AcDbSymbolTableRecord
100
AcDbBlockTableRecord
  2
*Model_Space
340
1A
 70
0
280
1
281
0
  0
BLOCK_RECORD
  5
1B
330
9
100
AcDbSymbolTableRecord
100
AcDbBlockTableRecord
  2
*Paper_Space
340
1E
 70
0
280
1
281
0
  0
ENDTAB
  0
ENDSEC
  0
SECTION
  2
BLOCKS
  0
BLOCK
  5
18
330
17
100
AcDbEntity
  8
0
100
AcDbBlockBegin
  2
*Model_Space
 70
0
 10
0.0
 20
0.0
 30
0.0
  3
*Model_Space
  1

  0
ENDBLK
  5
19
330
17
100
AcDbEntity
  8
0
100
AcDbBlockEnd
  0
BLOCK
  5
1C
330
1B
100
AcDbEntity
  8
0
100
AcDbBlockBegin
  2
*Paper_Space
 70
0
 10
0.0
 20
0.0
 30
0.0
  3
*Paper_Space
  1

  0
ENDBLK
  5
1D
330
1B
100
AcDbEntity
  8
0
100
AcDbBlockEnd
  0
ENDSEC
  0
SECTION
  2
ENTITIES
  0
POINT
  5
2F
330
17
100
AcDbEntity
  8
0
100
AcDbPoint
 10
-1.7497051628843472
 20
-0.34363405587857954
 30
-0.10924806078891747
  0
CIRCLE
  5
30
330
17
100
AcDbEntity
  8
keypoints
100
AcDbCircle
 10
-1.7497051628843472
 20
-0.34363405587857954
 30
-0.10924806078891747
 40
0.05
  0
POINT
  5
31
330
17
100
AcDbEntity
  8
0
100
AcDbPoint
 10
0.19832002958460154
 20
6.831896238276341
 30
-0.10884457327828434
  0
CIRCLE
  5
32
330
17
100
AcDbEntity
  8
keypoints
100
AcDbCircle
 10
0.19832002958460154
 20
6.831896238276341
 30
-0.10884457327828434
 40
0.05
  0
POINT
  5
33
330
17
100
AcDbEntity
  8
0
100
AcDbPoint
 10
-2.0359185188345363
 20
5.043610620922067
 30
-0.09310912897555479
  0
CIRCLE
  5
34
330
17
100
AcDbEntity
  8
keypoints
100
AcDbCircle
 10
-2.0359185188345363
 20
5.043610620922067
 30
-0.09310912897555479
 40
0.05
  0
POINT
  5
35
330
17
100
AcDbEntity
  8
0
100
AcDbPoint
 10
-3.0396143302510477
 20
4.798457507798878
 30
-0.06286522743100997
  0
CIRCLE
  5
36
330
17
100
AcDbEntity
  8
keypoints
100
AcDbCircle
 10
-3.0396143302510477
 20
4.798457507798878
 30
-0.06286522743100997
 40
0.05
  0
POINT
  5
37
330
17
100
AcDbEntity
  8
0
100
AcDbPoint
 10
-4.861598173709613
 20
-0.8837432417958351
 30
-0.052073726337936055
  0
CIRCLE
  5
38
330
17
100
AcDbEntity
  8
keypoints
100
AcDbCircle
 10
-4.861598173709613
 20
-0.8837432417958351
 30
-0.052073726337936055
 40
0.05
  0
POINT
  5
39
330
17
100
AcDbEntity
  8
0
100
AcDbPoint
 10
0.33391523010685203
 20
0.9712198786423668
 30
-0.10269429387294382
  0
CIRCLE
  5
3A
330
17
100
AcDbEntity
  8
keypoints
100
AcDbCircle
 10
0.33391523010685203
 20
0.9712198786423668
 30
-0.10269429387294382
 40
0.05
  0
POINT
  5
3B
330
17
100
AcDbEntity
  8
0
100
AcDbPoint
 10
-1.1153476511171996
 20
0.7539301307604163
 30
-0.059075317837737895
  0
CIRCLE
  5
3C
330
17
100
AcDbEntity
  8
keypoints
100
AcDbCircle
 10
-1.1153476511171996
 20
0.7539301307604163
 30
-0.059075317837737895
 40
0.05
  0
POINT
  5
3D
330
17
100
AcDbEntity
  8
0
100
AcDbPoint
 10
-1.0292331805066806
 20
6.736268746511285
 30
-0.031977147400729766
  0
CIRCLE
  5
3E
330
17
100
AcDbEntity
  8
keypoints
100
AcDbCircle
 10
-1.0292331805066806
 20
6.736268746511285
 30
-0.031977147400729766
 40
0.05
  0
POINT
  5
3F
330
17
100
AcDbEntity
  8
0
100
AcDbPoint
 10
-1.8052218519006562
 20
6.335474500658075
 30
-0.06699672029861281
  0
CIRCLE
  5
40
330
17
100
AcDbEntity
  8
keypoints
100
AcDbCircle
 10
-1.8052218519006562
 20
6.335474500658075
 30
-0.06699672029861281
 40
0.05
  0
POINT
  5
41
330
17
100
AcDbEntity
  8
0
100
AcDbPoint
 10
-0.8797387804530503
 20
6.771050732294581
 30
-0.03132755934408005
  0
CIRCLE
  5
42
330
17
100
AcDbEntity
  8
keypoints
100
AcDbCircle
 10
-0.8797387804530503
 20
6.771050732294581
 30
-0.03132755934408005
 40
0.05
  0
POINT
  5
43
330
17
100
AcDbEntity
  8
0
100
AcDbPoint
 10
-0.8116664191515459
 20
1.0504028270831007
 30
-0.07989246752706958
  0
CIRCLE
  5
44
330
17
100
AcDbEntity
  8
keypoints
100
AcDbCircle
 10
-0.8116664191515459
 20
1.0504028270831007
 30
-0.07989246752706958
 40
0.05
  0
POINT
  5
45
330
17
100
AcDbEntity
  8
0
100
AcDbPoint
 10
-0.8146669529442554
 20
-0.4068385435881694
 30
-0.1144203239851187
  0
CIRCLE
  5
46
330
17
100
AcDbEntity
  8
keypoints
100
AcDbCircle
 10
-0.8146669529442554
 20
-0.4068385435881694
 30
-0.1144203239851187
 40
0.05
  0
POINT
  5
47
330
17
100
AcDbEntity
  8
0
100
AcDbPoint
 10
-1.6176277642781194
 20
-0.35324968815824254
 30
-0.08569788811706047
  0
CIRCLE
  5
48
330
17
100
AcDbEntity
  8
keypoints
100
AcDbCircle
 10
-1.6176277642781194
 20
-0.35324968815824254
 30
-0.08569788811706047
 40
0.05
  0
POINT
  5
49
330
17
100
AcDbEntity
  8
0
100
AcDbPoint
 10
0.5951937399396663
 20
-0.07809266737636689
 30
-0.10941497006429612
  0
CIRCLE
  5
4A
330
17
100
AcDbEntity
  8
keypoints
100
AcDbCircle
 10
0.5951937399396663
 20
-0.07809266737636689
 30
-0.10941497006429612
 40
0.05
  0
POINT
  5
4B
330
17
100
AcDbEntity
  8
0
100
AcDbPoint
 10
0.5249507854501079
 20
0.5694583862930527
 30
-0.05171341332068913
  0
CIRCLE
  5
4C
330
17
100
AcDbEntity
  8
keypoints
100
AcDbCircle
 10
0.5249507854501079
 20
0.5694583862930527
 30
-0.05171341332068913
 40
0.05
  0
POINT
  5
4D
330
17
100
AcDbEntity
  8
0
100
AcDbPoint
 10
0.37160890502324456
 20
-0.3366994577001077
 30
-0.06605456813909383
  0
CIRCLE
  5
4E
330
17
100
AcDbEntity
  8
keypoints
100
AcDbCircle
 10
0.37160890502324456
 20
-0.3366994577001077
 30
-0.06605456813909383
 40
0.05
  0
POINT
  5
4F
330
17
100
AcDbEntity
  8
0
100
AcDbPoint
 10
-2.8260881843702426
 20
3.5649825732036042
 30
-0.13073550624248975
  0
CIRCLE
  5
50
330
17
100
AcDbEntity
  8
keypoints
100
AcDbCircle
 10
-2.8260881843702426
 20
3.5649825732036042
 30
-0.13073550624248975
 40
0.05
  0
POINT
  5
51
330
17
100
AcDbEntity
  8
0
100
AcDbPoint
 10
0.5246919498318143
 20
5.320335226411126
 30
-0.09783479481808621
  0
CIRCLE
  5
52
330
17
100
AcDbEntity
  8
keypoints
100
AcDbCircle
 10
0.5246919498318143
 20
5.320335226411126
 30
-0.09783479481808621
 40
0.05
  0
POINT
  5
53
330
17
100
AcDbEntity
  8
0
100
AcDbPoint
 10
-0.929204648098932
 20
4.223838568992084
 30
-0.05963678192716593
  0
CIRCLE
  5
54
330
17
100
AcDbEntity
  8
keypoints
100
AcDbCircle
 10
-0.929204648098932
 20
4.223838568992084
 30
-0.05963678192716593
 40
0.05
  0
POINT
  5
55
330
17
100
AcDbEntity
  8
0
100
AcDbPoint
 10
-4.994066215228786
 20
-0.9340856507153237
 30
-0.112207654170553
  0
CIRCLE
  5
56
330
17
100
AcDbEntity
  8
keypoints
100
AcDbCircle
 10
-4.994066215228786
 20
-0.9340856507153237
 30
-0.112207654170553
 40
0.05
  0
POINT
  5
57
330
17
100
AcDbEntity
  8
0
100
AcDbPoint
 10
0.588181589442472
 20
4.819246648110074
 30
-0.051018102401198195
  0
CIRCLE
  5
58
330
17
100
AcDbEntity
  8
keypoints
100
AcDbCircle
 10
0.588181589442472
 20
4.819246648110074
 30
-0.051018102401198195
 40
0.05
  0
POINT
  5
59
330
17
100
AcDbEntity
  8
0
100
AcDbPoint
 10
0.589055660530325
 20
4.6198946926220925
 30
-0.05455035884684767
  0
CIRCLE
  5
5A
330
17
100
AcDbEntity
  8
keypoints
100
AcDbCircle
 10
0.589055660530325
 20
4.6198946926220925
 30
-0.05455035884684767
 40
0.05
  0
POINT
  5
5B
330
17
100
AcDbEntity
  8
0
100
AcDbPoint
 10
0.5757061073623686
 20
4.969351207590653
 30
-0.049516047183374656
  0
CIRCLE
  5
5C
330
17
100
AcDbEntity
  8
keypoints
100
AcDbCircle
 10
0.5757061073623686
 20
4.969351207590653
 30
-0.049516047183374656
 40
0.05
  0
POINT
  5
5D
330
17
100
AcDbEntity
  8
0
100
AcDbPoint
 10
-1.2281862314430492
 20
4.166235504268151
 30
-0.07108015151636815
  0
CIRCLE
  5
5E
330
17
100
AcDbEntity
  8
keypoints
100
AcDbCircle
 10
-1.2281862314430492
 20
4.166235504268151
 30
-0.07108015151636815
 40
0.05
  0
POINT
  5
5F
330
17
100
AcDbEntity
  8
0
100
AcDbPoint
 10
-1.8299911235805855
 20
3.8217583061733285
 30
-0.04451187746511076
  0
CIRCLE
  5
60
330
17
100
AcDbEntity
  8
keypoints
100
AcDbCircle
 10
-1.8299911235805855
 20
3.8217583061733285
 30
-0.04451187746511076
 40
0.05
  0
POINT
  5
61
330
17
100
AcDbEntity
  8
0
100
AcDbPoint
 10
-2.1293411916181295
 20
3.7351881507912106
 30
-0.10422991957709593
  0
CIRCLE
  5
62
330
17
100
AcDbEntity
  8
keypoints
100
AcDbCircle
 10
-2.1293411916181295
 20
3.7351881507912106
 30
-0.10422991957709593
 40
0.05
  0
POINT
  5
63
330
17
100
AcDbEntity
  8
0
100
AcDbPoint
 10
-1.596810744504703
 20
5.667671451559435
 30
-0.11738527023166201
  0
CIRCLE
  5
64
330
17
100
AcDbEntity
  8
keypoints
100
AcDbCircle
 10
-1.596810744504703
 20
5.667671451559435
 30
-0.11738527023166201
 40
0.05
  0
POINT
  5
65
330
17
100
AcDbEntity
  8
0
100
AcDbPoint
 10
0.42173851247646094
 20
4.405166450608798
 30
-0.06486474867192227
  0
CIRCLE
  5
66
330
17
100
AcDbEntity
  8
keypoints
100
AcDbCircle
 10
0.42173851247646094
 20
4.405166450608798
 30
-0.06486474867192227
 40
0.05
  0
POINT
  5
67
330
17
100
AcDbEntity
  8
0
100
AcDbPoint
 10
-3.0996369540321576
 20
4.16340962767873
 30
-0.08463427104530608
  0
CIRCLE
  5
68
330
17
100
AcDbEntity
  8
keypoints
100
AcDbCircle
 10
-3.0996369540321576
 20
4.16340962767873
 30
-0.08463427104530608
 40
0.05
  0
POINT
  5
69
330
17
100
AcDbEntity
  8
0
100
AcDbPoint
 10
-3.1655218446055655
 20
4.366146302785736
 30
-0.08280890045422584
  0
CIRCLE
  5
6A
330
17
100
AcDbEntity
  8
keypoints
100
AcDbCircle
 10
-3.1655218446055655
 20
4.366146302785736
 30
-0.08280890045422584
 40
0.05
  0
POINT
  5
6B
330
17
100
AcDbEntity
  8
0
100
AcDbPoint
 10
-3.0382452071083295
 20
3.7195770076399155
 30
-0.08587120935533488
  0
CIRCLE
  5
6C
330
17
100
AcDbEntity
  8
keypoints
100
AcDbCircle
 10
-3.0382452071083295
 20
3.7195770076399155
 30
-0.08587120935533488
 40
0.05
  0
POINT
  5
6D
330
17
100
AcDbEntity
  8
0
100
AcDbPoint
 10
-0.6784526440051195
 20
4.282083187090087
 30
-0.04972348208500854
  0
CIRCLE
  5
6E
330
17
100
AcDbEntity
  8
keypoints
100
AcDbCircle
 10
-0.6784526440051195
 20
4.282083187090087
 30
-0.04972348208500854
 40
0.05
  0
POINT
  5
6F
330
17
100
AcDbEntity
  8
0
100
AcDbPoint
 10
-1.8266194601421715
 20
0.520863227229369
 30
-0.12886293436227003
  0
CIRCLE
  5
70
330
17
100
AcDbEntity
  8
keypoints
100
AcDbCircle
 10
-1.8266194601421715
 20
0.520863227229369
 30
-0.12886293436227003
 40
0.05
  0
POINT
  5
71
330
17
100
AcDbEntity
  8
0
100
AcDbPoint
 10
-0.12776360176830326
 20
4.323957938888733
 30
-0.08012300904407743
  0
CIRCLE
  5
72
330
17
100
AcDbEntity
  8
keypoints
100
AcDbCircle
 10
-0.12776360176830326
 20
4.323957938888733
 30
-0.08012300904407743
 40
0.05
  0
POINT
  5
73
330
17
100
AcDbEntity
  8
0
100
AcDbPoint
 10
-1.5276686748628627
 20
6.677712301482265
 30
-0.10292053043019855
  0
CIRCLE
  5
74
330
17
100
AcDbEntity
  8
keypoints
100
AcDbCircle
 10
-1.5276686748628627
 20
6.677712301482265
 30
-0.10292053043019855
 40
0.05
  0
POINT
  5
75
330
17
100
AcDbEntity
  8
0
100
AcDbPoint
 10
0.24632727462522291
 20
6.6836336623956605
 30
-0.10332842663367314
  0
CIRCLE
  5
76
330
17
100
AcDbEntity
  8
keypoints
100
AcDbCircle
 10
0.24632727462522291
 20
6.6836336623956605
 30
-0.10332842663367314
 40
0.05
  0
POINT
  5
77
330
17
100
AcDbEntity
  8
0
100
AcDbPoint
 10
0.1334539860682903
 20
1.1980545470552775
 30
-0.10677132751794671
  0
CIRCLE
  5
78
330
17
100
AcDbEntity
  8
keypoints
100
AcDbCircle
 10
0.1334539860682903
 20
1.1980545470552775
 30
-0.10677132751794671
 40
0.05
  0
POINT
  5
79
330
17
100
AcDbEntity
  8
0
100
AcDbPoint
 10
0.17070838454277892
 20
4.363899528113132
 30
-0.0711599664211029
  0
CIRCLE
  5
7A
330
17
100
AcDbEntity
  8
keypoints
100
AcDbCircle
 10
0.17070838454277892
 20
4.363899528113132
 30
-0.0711599664211029
 40
0.05
  0
POINT
  5
7B
330
17
100
AcDbEntity
  8
0
100
AcDbPoint
 10
-1.3294659165194556
 20
0.7131274162722641
 30
-0.06178368603812645
  0
CIRCLE
  5
7C
330
17
100
AcDbEntity
  8
keypoints
100
AcDbCircle
 10
-1.3294659165194556
 20
0.7131274162722641
 30
-0.06178368603812645
 40
0.05
  0
POINT
  5
7D
330
17
100
AcDbEntity
  8
0
100
AcDbPoint
 10
-1.4295113104952164
 20
4.084959320295091
 30
-0.0792381873533059
  0
CIRCLE
  5
7E
330
17
100
AcDbEntity
  8
keypoints
100
AcDbCircle
 10
-1.4295113104952164
 20
4.084959320295091
 30
-0.0792381873533059
 40
0.05
  0
POINT
  5
7F
330
17
100
AcDbEntity
  8
0
100
AcDbPoint
 10
0.5862252011983573
 20
0.31925740529874713
 30
-0.10345922580648503
  0
CIRCLE
  5
80
330
17
100
AcDbEntity
  8
keypoints
100
AcDbCircle
 10
0.5862252011983573
 20
0.31925740529874713
 30
-0.10345922580648503
 40
0.05
  0
POINT
  5
81
330
17
100
AcDbEntity
  8
0
100
AcDbPoint
 10
-1.2597966144655297
 20
-0.40609525106147726
 30
-0.09243449755585287
  0
CIRCLE
  5
82
330
17
100
AcDbEntity
  8
keypoints
100
AcDbCircle
 10
-1.2597966144655297
 20
-0.40609525106147726
 30
-0.09243449755585287
 40
0.05
  0
POINT
  5
83
330
17
100
AcDbEntity
  8
0
100
AcDbPoint
 10
-0.15389256543209767
 20
-0.4058114989112622
 30
-0.08684709642244393
  0
CIRCLE
  5
84
330
17
100
AcDbEntity
  8
keypoints
100
AcDbCircle
 10
-0.15389256543209767
 20
-0.4058114989112622
 30
-0.08684709642244393
 40
0.05
  0
POINT
  5
85
330
17
100
AcDbEntity
  8
0
100
AcDbPoint
 10
-3.171754528204745
 20
4.526870479388887
 30
-0.1258682363659882
  0
CIRCLE
  5
86
330
17
100
AcDbEntity
  8
keypoints
100
AcDbCircle
 10
-3.171754528204745
 20
4.526870479388887
 30
-0.1258682363659882
 40
0.05
  0
POINT
  5
87
330
17
100
AcDbEntity
  8
0
100
AcDbPoint
 10
-1.6975898283991717
 20
6.014600700306272
 30
-0.06886968246150182
  0
CIRCLE
  5
88
330
17
100
AcDbEntity
  8
keypoints
100
AcDbCircle
 10
-1.6975898283991717
 20
6.014600700306272
 30
-0.06886968246150182
 40
0.05
  0
POINT
  5
89
330
17
100
AcDbEntity
  8
0
100
AcDbPoint
 10
0.32136477384252815
 20
6.369757041557598
 30
-0.09602635878602106
  0
CIRCLE
  5
8A
330
17
100
AcDbEntity
  8
keypoints
100
AcDbCircle
 10
0.32136477384252815
 20
6.369757041557598
 30
-0.09602635878602106
 40
0.05
  0
POINT
  5
8B
330
17
100
AcDbEntity
  8
0
100
AcDbPoint
 10
0.3749000251940147
 20
6.219542746359545
 30
-0.09384631372806673
  0
CIRCLE
  5
8C
330
17
100
AcDbEntity
  8
keypoints
100
AcDbCircle
 10
0.3749000251940147
 20
6.219542746359545
 30
-0.09384631372806673
 40
0.05
  0
POINT
  5
8D
330
17
100
AcDbEntity
  8
0
100
AcDbPoint
 10
-1.2740548046792373
 20
6.672172178864627
 30
-0.09499203639204357
  0
CIRCLE
  5
8E
330
17
100
AcDbEntity
  8
keypoints
100
AcDbCircle
 10
-1.2740548046792373
 20
6.672172178864627
 30
-0.09499203639204357
 40
0.05
  0
POINT
  5
8F
330
17
100
AcDbEntity
  8
0
100
AcDbPoint
 10
-1.58455732716745
 20
5.52005780262453
 30
-0.06618863441056133
  0
CIRCLE
  5
90
330
17
100
AcDbEntity
  8
keypoints
100
AcDbCircle
 10
-1.58455732716745
 20
5.52005780262453
 30
-0.06618863441056133
 40
0.05
  0
POINT
  5
91
330
17
100
AcDbEntity
  8
0
100
AcDbPoint
 10
0.44082034101549444
 20
5.920552665922882
 30
-0.042855435471750525
  0
CIRCLE
  5
92
330
17
100
AcDbEntity
  8
keypoints
100
AcDbCircle
 10
0.44082034101549444
 20
5.920552665922882
 30
-0.042855435471750525
 40
0.05
  0
POINT
  5
93
330
17
100
AcDbEntity
  8
0
100
AcDbPoint
 10
-1.8791471854447466
 20
0.06996521794816823
 30
-0.037175380833815996
  0
CIRCLE
  5
94
330
17
100
AcDbEntity
  8
keypoints
100
AcDbCircle
 10
-1.8791471854447466
 20
0.06996521794816823
 30
-0.037175380833815996
 40
0.05
  0
POINT
  5
95
330
17
100
AcDbEntity
  8
0
100
AcDbPoint
 10
0.005903789575842089
 20
6.993824197434357
 30
-0.07714211094826195
  0
CIRCLE
  5
96
330
17
100
AcDbEntity
  8
keypoints
100
AcDbCircle
 10
0.005903789575842089
 20
6.993824197434357
 30
-0.07714211094826195
 40
0.05
  0
LINE
  5
97
330
17
100
AcDbEntity
  8
lines
100
AcDbLine
 10
-1.7497051628843472
 20
-0.34363405587857954
 30
-0.10924806078891747
 11
-1.6176277642781194
 21
-0.35324968815824254
 31
-0.08569788811706047
  0
LINE
  5
98
330
17
100
AcDbEntity
  8
lines
100
AcDbLine
 10
-1.7497051628843472
 20
-0.34363405587857954
 30
-0.10924806078891747
 11
-1.8791471854447466
 21
0.06996521794816823
 31
-0.037175380833815996
  0
LINE
  5
99
330
17
100
AcDbEntity
  8
lines
100
AcDbLine
 10
0.19832002958460154
 20
6.831896238276341
 30
-0.10884457327828434
 11
0.24632727462522291
 21
6.6836336623956605
 31
-0.10332842663367314
  0
LINE
  5
9A
330
17
100
AcDbEntity
  8
lines
100
AcDbLine
 10
0.19832002958460154
 20
6.831896238276341
 30
-0.10884457327828434
 11
0.005903789575842089
 21
6.993824197434357
 31
-0.07714211094826195
  0
LINE
  5
9B
330
17
100
AcDbEntity
  8
lines
100
AcDbLine
 10
-2.0359185188345363
 20
5.043610620922067
 30
-0.09310912897555479
 11
-1.58455732716745
 21
5.52005780262453
 31
-0.06618863441056133
  0
LINE
  5
9C
330
17
100
AcDbEntity
  8
lines
100
AcDbLine
 10
-2.0359185188345363
 20
5.043610620922067
 30
-0.09310912897555479
 11
-1.596810744504703
 21
5.667671451559435
 31
-0.11738527023166201
  0
LINE
  5
9D
330
17
100
AcDbEntity
  8
lines
100
AcDbLine
 10
-3.0396143302510477
 20
4.798457507798878
 30
-0.06286522743100997
 11
-3.171754528204745
 21
4.526870479388887
 31
-0.1258682363659882
  0
LINE
  5
9E
330
17
100
AcDbEntity
  8
lines
100
AcDbLine
 10
-3.0396143302510477
 20
4.798457507798878
 30
-0.06286522743100997
 11
-3.1655218446055655
 21
4.366146302785736
 31
-0.08280890045422584
  0
LINE
  5
9F
330
17
100
AcDbEntity
  8
lines
100
AcDbLine
 10
-4.861598173709613
 20
-0.8837432417958351
 30
-0.052073726337936055
 11
-4.994066215228786
 21
-0.9340856507153237
 31
-0.112207654170553
  0
LINE
  5
A0
330
17
100
AcDbEntity
  8
lines
100
AcDbLine
 10
0.33391523010685203
 20
0.9712198786423668
 30
-0.10269429387294382
 11
0.1334539860682903
 21
1.1980545470552775
 31
-0.10677132751794671
  0
LINE
  5
A1
330
17
100
AcDbEntity
  8
lines
100
AcDbLine
 10
0.33391523010685203
 20
0.9712198786423668
 30
-0.10269429387294382
 11
0.5249507854501079
 21
0.5694583862930527
 31
-0.05171341332068913
  0
LINE
  5
A2
330
17
100
AcDbEntity
  8
lines
100
AcDbLine
 10
-1.1153476511171996
 20
0.7539301307604163
 30
-0.059075317837737895
 11
-1.3294659165194556
 21
0.7131274162722641
 31
-0.06178368603812645
  0
LINE
  5
A3
330
17
100
AcDbEntity
  8
lines
100
AcDbLine
 10
-1.1153476511171996
 20
0.7539301307604163
 30
-0.059075317837737895
 11
-0.8116664191515459
 21
1.0504028270831007
 31
-0.07989246752706958
  0
LINE
  5
A4
330
17
100
AcDbEntity
  8
lines
100
AcDbLine
 10
-1.0292331805066806
 20
6.736268746511285
 30
-0.031977147400729766
 11
-0.8797387804530503
 21
6.771050732294581
 31
-0.03132755934408005
  0
LINE
  5
A5
330
17
100
AcDbEntity
  8
lines
100
AcDbLine
 10
-1.0292331805066806
 20
6.736268746511285
 30
-0.031977147400729766
 11
-1.2740548046792373
 21
6.672172178864627
 31
-0.09499203639204357
  0
LINE
  5
A6
330
17
100
AcDbEntity
  8
lines
100
AcDbLine
 10
-1.8052218519006562
 20
6.335474500658075
 30
-0.06699672029861281
 11
-1.6975898283991717
 21
6.014600700306272
 31
-0.06886968246150182
  0
LINE
  5
A7
330
17
100
AcDbEntity
  8
lines
100
AcDbLine
 10
-1.8052218519006562
 20
6.335474500658075
 30
-0.06699672029861281
 11
-1.5276686748628627
 21
6.677712301482265
 31
-0.10292053043019855
  0
LINE
  5
A8
330
17
100
AcDbEntity
  8
lines
100
AcDbLine
 10
-0.8797387804530503
 20
6.771050732294581
 30
-0.03132755934408005
 11
-1.2740548046792373
 21
6.672172178864627
 31
-0.09499203639204357
  0
LINE
  5
A9
330
17
100
AcDbEntity
  8
lines
100
AcDbLine
 10
-0.8116664191515459
 20
1.0504028270831007
 30
-0.07989246752706958
 11
-1.3294659165194556
 21
0.7131274162722641
 31
-0.06178368603812645
  0
LINE
  5
AA
330
17
100
AcDbEntity
  8
lines
100
AcDbLine
 10
-0.8146669529442554
 20
-0.4068385435881694
 30
-0.1144203239851187
 11
-1.2597966144655297
 21
-0.40609525106147726
 31
-0.09243449755585287
  0
LINE
  5
AB
330
17
100
AcDbEntity
  8
lines
100
AcDbLine
 10
-0.8146669529442554
 20
-0.4068385435881694
 30
-0.1144203239851187
 11
-0.15389256543209767
 21
-0.4058114989112622
 31
-0.08684709642244393
  0
LINE
  5
AC
330
17
100
AcDbEntity
  8
lines
100
AcDbLine
 10
-1.6176277642781194
 20
-0.35324968815824254
 30
-0.08569788811706047
 11
-1.2597966144655297
 21
-0.40609525106147726
 31
-0.09243449755585287
  0
LINE
  5
AD
330
17
100
AcDbEntity
  8
lines
100
AcDbLine
 10
0.5951937399396663
 20
-0.07809266737636689
 30
-0.10941497006429612
 11
0.37160890502324456
 21
-0.3366994577001077
 31
-0.06605456813909383
  0
LINE
  5
AE
330
17
100
AcDbEntity
  8
lines
100
AcDbLine
 10
0.5951937399396663
 20
-0.07809266737636689
 30
-0.10941497006429612
 11
0.5862252011983573
 21
0.31925740529874713
 31
-0.10345922580648503
  0
LINE
  5
AF
330
17
100
AcDbEntity
  8
lines
100
AcDbLine
 10
0.5249507854501079
 20
0.5694583862930527
 30
-0.05171341332068913
 11
0.5862252011983573
 21
0.31925740529874713
 31
-0.10345922580648503
  0
LINE
  5
B0
330
17
100
AcDbEntity
  8
lines
100
AcDbLine
 10
0.37160890502324456
 20
-0.3366994577001077
 30
-0.06605456813909383
 11
-0.15389256543209767
 21
-0.4058114989112622
 31
-0.08684709642244393
  0
LINE
  5
B1
330
17
100
AcDbEntity
  8
lines
100
AcDbLine
 10
-2.8260881843702426
 20
3.5649825732036042
 30
-0.13073550624248975
 11
-3.0382452071083295
 21
3.7195770076399155
 31
-0.08587120935533488
  0
LINE
  5
B2
330
17
100
AcDbEntity
  8
lines
100
AcDbLine
 10
-2.8260881843702426
 20
3.5649825732036042
 30
-0.13073550624248975
 11
-3.0996369540321576
 21
4.16340962767873
 31
-0.08463427104530608
  0
LINE
  5
B3
330
17
100
AcDbEntity
  8
lines
100
AcDbLine
 10
0.5246919498318143
 20
5.320335226411126
 30
-0.09783479481808621
 11
0.5757061073623686
 21
4.969351207590653
 31
-0.049516047183374656
  0
LINE
  5
B4
330
17
100
AcDbEntity
  8
lines
100
AcDbLine
 10
0.5246919498318143
 20
5.320335226411126
 30
-0.09783479481808621
 11
0.588181589442472
 21
4.819246648110074
 31
-0.051018102401198195
  0
LINE
  5
B5
330
17
100
AcDbEntity
  8
lines
100
AcDbLine
 10
-0.929204648098932
 20
4.223838568992084
 30
-0.05963678192716593
 11
-0.6784526440051195
 21
4.282083187090087
 31
-0.04972348208500854
  0
LINE
  5
B6
330
17
100
AcDbEntity
  8
lines
100
AcDbLine
 10
-0.929204648098932
 20
4.223838568992084
 30
-0.05963678192716593
 11
-1.2281862314430492
 21
4.166235504268151
 31
-0.07108015151636815
  0
LINE
  5
B7
330
17
100
AcDbEntity
  8
lines
100
AcDbLine
 10
0.588181589442472
 20
4.819246648110074
 30
-0.051018102401198195
 11
0.5757061073623686
 21
4.969351207590653
 31
-0.049516047183374656
  0
LINE
  5
B8
330
17
100
AcDbEntity
  8
lines
100
AcDbLine
 10
0.588181589442472
 20
4.819246648110074
 30
-0.051018102401198195
 11
0.589055660530325
 21
4.6198946926220925
 31
-0.05455035884684767
  0
LINE
  5
B9
330
17
100
AcDbEntity
  8
lines
100
AcDbLine
 10
0.589055660530325
 20
4.6198946926220925
 30
-0.05455035884684767
 11
0.42173851247646094
 21
4.405166450608798
 31
-0.06486474867192227
  0
LINE
  5
BA
330
17
100
AcDbEntity
  8
lines
100
AcDbLine
 10
-1.2281862314430492
 20
4.166235504268151
 30
-0.07108015151636815
 11
-1.4295113104952164
 21
4.084959320295091
 31
-0.0792381873533059
  0
LINE
  5
BB
330
17
100
AcDbEntity
  8
lines
100
AcDbLine
 10
-1.8299911235805855
 20
3.8217583061733285
 30
-0.04451187746511076
 11
-2.1293411916181295
 21
3.7351881507912106
 31
-0.10422991957709593
  0
LINE
  5
BC
330
17
100
AcDbEntity
  8
lines
100
AcDbLine
 10
-1.8299911235805855
 20
3.8217583061733285
 30
-0.04451187746511076
 11
-1.4295113104952164
 21
4.084959320295091
 31
-0.0792381873533059
  0
LINE
  5
BD
330
17
100
AcDbEntity
  8
lines
100
AcDbLine
 10
-1.596810744504703
 20
5.667671451559435
 30
-0.11738527023166201
 11
-1.58455732716745
 21
5.52005780262453
 31
-0.06618863441056133
  0
LINE
  5
BE
330
17
100
AcDbEntity
  8
lines
100
AcDbLine
 10
-1.596810744504703
 20
5.667671451559435
 30
-0.11738527023166201
 11
-1.6975898283991717
 21
6.014600700306272
 31
-0.06886968246150182
  0
LINE
  5
BF
330
17
100
AcDbEntity
  8
lines
100
AcDbLine
 10
0.42173851247646094
 20
4.405166450608798
 30
-0.06486474867192227
 11
0.17070838454277892
 21
4.363899528113132
 31
-0.0711599664211029
  0
LINE
  5
C0
330
17
100
AcDbEntity
  8
lines
100
AcDbLine
 10
-3.0996369540321576
 20
4.16340962767873
 30
-0.08463427104530608
 11
-3.1655218446055655
 21
4.366146302785736
 31
-0.08280890045422584
  0
LINE
  5
C1
330
17
100
AcDbEntity
  8
lines
100
AcDbLine
 10
-3.0996369540321576
 20
4.16340962767873
 30
-0.08463427104530608
 11
-3.171754528204745
 21
4.526870479388887
 31
-0.1258682363659882
  0
LINE
  5
C2
330
17
100
AcDbEntity
  8
lines
100
AcDbLine
 10
-3.1655218446055655
 20
4.366146302785736
 30
-0.08280890045422584
 11
-3.171754528204745
 21
4.526870479388887
 31
-0.1258682363659882
  0
LINE
  5
C3
330
17
100
AcDbEntity
  8
lines
100
AcDbLine
 10
-0.6784526440051195
 20
4.282083187090087
 30
-0.04972348208500854
 11
-0.12776360176830326
 21
4.323957938888733
 31
-0.08012300904407743
  0
LINE
  5
C4
330
17
100
AcDbEntity
  8
lines
100
AcDbLine
 10
-1.8266194601421715
 20
0.520863227229369
 30
-0.12886293436227003
 11
-1.8791471854447466
 21
0.06996521794816823
 31
-0.037175380833815996
  0
LINE
  5
C5
330
17
100
AcDbEntity
  8
lines
100
AcDbLine
 10
-1.8266194601421715
 20
0.520863227229369
 30
-0.12886293436227003
 11
-1.3294659165194556
 21
0.7131274162722641
 31
-0.06178368603812645
  0
LINE
  5
C6
330
17
100
AcDbEntity
  8
lines
100
AcDbLine
 10
-0.12776360176830326
 20
4.323957938888733
 30
-0.08012300904407743
 11
0.17070838454277892
 21
4.363899528113132
 31
-0.0711599664211029
  0
LINE
  5
C7
330
17
100
AcDbEntity
  8
lines
100
AcDbLine
 10
-1.5276686748628627
 20
6.677712301482265
 30
-0.10292053043019855
 11
-1.2740548046792373
 21
6.672172178864627
 31
-0.09499203639204357
  0
LINE
  5
C8
330
17
100
AcDbEntity
  8
lines
100
AcDbLine
 10
0.24632727462522291
 20
6.6836336623956605
 30
-0.10332842663367314
 11
0.32136477384252815
 21
6.369757041557598
 31
-0.09602635878602106
  0
LINE
  5
C9
330
17
100
AcDbEntity
  8
lines
100
AcDbLine
 10
0.32136477384252815
 20
6.369757041557598
 30
-0.09602635878602106
 11
0.3749000251940147
 21
6.219542746359545
 31
-0.09384631372806673
  0
LINE
  5
CA
330
17
100
AcDbEntity
  8
lines
100
AcDbLine
 10
0.3749000251940147
 20
6.219542746359545
 30
-0.09384631372806673
 11
0.44082034101549444
 21
5.920552665922882
 31
-0.042855435471750525
  0
ENDSEC
  0
SECTION
  2
OBJECTS
  0
DICTIONARY
  5
A
330
0
100
AcDbDictionary
281
1
  3
ACAD_COLOR
350
B
  3
ACAD_GROUP
350
C
  3
ACAD_LAYOUT
350
D
  3
ACAD_MATERIAL
350
E
  3
ACAD_MLEADERSTYLE
350
F
  3
ACAD_MLINESTYLE
350
10
  3
ACAD_PLOTSETTINGS
350
11
  3
ACAD_PLOTSTYLENAME
350
12
  3
ACAD_SCALELIST
350
14
  3
ACAD_TABLESTYLE
350
15
  3
ACAD_VISUALSTYLE
350
16
  3
EZDXF_META
350
2D
  0
DICTIONARY
  5
B
330
A
100
AcDbDictionary
281
1
  0
DICTIONARY
  5
C
330
A
100
AcDbDictionary
281
1
  0
DICTIONARY
  5
D
330
A
100
AcDbDictionary
281
1
  3
Model
350
1A
  3
Layout1
350
1E
  0
DICTIONARY
  5
E
330
A
100
AcDbDictionary
281
1
  3
ByBlock
350
1F
  3
ByLayer
350
20
  3
Global
350
21
  0
DICTIONARY
  5
F
330
A
100
AcDbDictionary
281
1
  3
Standard
350
2C
  0
DICTIONARY
  5
10
330
A
100
AcDbDictionary
281
1
  3
Standard
350
22
  0
DICTIONARY
  5
11
330
A
100
AcDbDictionary
281
1
  0
ACDBDICTIONARYWDFLT
  5
12
330
A
100
AcDbDictionary
281
1
  3
Normal
350
13
100
AcDbDictionaryWithDefault
340
13
  0
ACDBPLACEHOLDER
  5
13
330
12
  0
DICTIONARY
  5
14
330
A
100
AcDbDictionary
281
1
  0
DICTIONARY
  5
15
330
A
100
AcDbDictionary
281
1
  0
DICTIONARY
  5
16
330
A
100
AcDbDictionary
281
1
  0
LAYOUT
  5
1A
330
D
100
AcDbPlotSettings
  1

  4
A3
  6

 40
7.5
 41
20.0
 42
7.5
 43
20.0
 44
420.0
 45
297.0
 46
0.0
 47
0.0
 48
0.0
 49
0.0
140
0.0
141
0.0
142
1.0
143
1.0
 70
1024
 72
1
 73
0
 74
5
  7

 75
16
 76
0
 77
2
 78
300
147
1.0
148
0.0
149
0.0
100
AcDbLayout
  1
Model
 70
1
 71
0
 10
0.0
 20
0.0
 11
420.0
 21
297.0
 12
0.0
 22
0.0
 32
0.0
 14
1e+20
 24
1e+20
 34
1e+20
 15
-1e+20
 25
-1e+20
 35
-1e+20
146
0.0
 13
0.0
 23
0.0
 33
0.0
 16
1.0
 26
0.0
 36
0.0
 17
0.0
 27
1.0
 37
0.0
 76
1
330
17
  0
LAYOUT
  5
1E
330
D
100
AcDbPlotSettings
  1

  4
A3
  6

 40
7.5
 41
20.0
 42
7.5
 43
20.0
 44
420.0
 45
297.0
 46
0.0
 47
0.0
 48
0.0
 49
0.0
140
0.0
141
0.0
142
1.0
143
1.0
 70
0
 72
1
 73
0
 74
5
  7

 75
16
 76
0
 77
2
 78
300
147
1.0
148
0.0
149
0.0
100
AcDbLayout
  1
Layout1
 70
1
 71
1
 10
0.0
 20
0.0
 11
420.0
 21
297.0
 12
0.0
 22
0.0
 32
0.0
 14
1e+20
 24
1e+20
 34
1e+20
 15
-1e+20
 25
-1e+20
 35
-1e+20
146
0.0
 13
0.0
 23
0.0
 33
0.0
 16
1.0
 26
0.0
 36
0.0
 17
0.0
 27
1.0
 37
0.0
 76
1
330
1B
  0
MATERIAL
  5
1F
102
{ACAD_REACTORS
330
E
102
}
330
E
100
AcDbMaterial
  1
ByBlock
  2

 70
0
 40
1.0
 71
1
 41
1.0
 91
-1023410177
 42
1.0
 72
1
  3

 73
1
 74
1
 75
1
 44
0.5
 73
0
 45
1.0
 46
1.0
 77
1
  4

 78
1
 79
1
170
1
 48
1.0
171
1
  6

172
1
173
1
174
1
140
1.0
141
1.0
175
1
  7

176
1
177
1
178
1
143
1.0
179
1
  8

270
1
271
1
272
1
145
1.0
146
1.0
273
1
  9

274
1
275
1
276
1
 42
1.0
 72
1
  3

 73
1
 74
1
 75
1
 94
63
  0
MATERIAL
  5
20
102
{ACAD_REACTORS
330
E
102
}
330
E
100
AcDbMaterial
  1
ByLayer
  2

 70
0
 40
1.0
 71
1
 41
1.0
 91
-1023410177
 42
1.0
 72
1
  3

 73
1
 74
1
 75
1
 44
0.5
 73
0
 45
1.0
 46
1.0
 77
1
  4

 78
1
 79
1
170
1
 48
1.0
171
1
  6

172
1
173
1
174
1
140
1.0
141
1.0
175
1
  7

176
1
177
1
178
1
143
1.0
179
1
  8

270
1
271
1
272
1
145
1.0
146
1.0
273
1
  9

274
1
275
1
276
1
 42
1.0
 72
1
  3

 73
1
 74
1
 75
1
 94
63
  0
MATERIAL
  5
21
102
{ACAD_REACTORS
330
E
102
}
330
E
100
AcDbMaterial
  1
Global
  2

 70
0
 40
1.0
 71
1
 41
1.0
 91
-1023410177
 42
1.0
 72
1
  3

 73
1
 74
1
 75
1
 44
0.5
 73
0
 45
1.0
 46
1.0
 77
1
  4

 78
1
 79
1
170
1
 48
1.0
171
1
  6

172
1
173
1
174
1
140
1.0
141
1.0
175
1
  7

176
1
177
1
178
1
143
1.0
179
1
  8

270
1
271
1
272
1
145
1.0
146
1.0
273
1
  9

274
1
275
1
276
1
 42
1.0
 72
1
  3

 73
1
 74
1
 75
1
 94
63
  0
MLINESTYLE
  5
22
102
{ACAD_REACTORS
330
10
102
}
330
10
100
AcDbMlineStyle
  2
Standard
 70
0
  3

 62
256
 51
90.0
 52
90.0
 71
2
 49
0.5
 62
256
  6
BYLAYER
 49
-0.5
 62
256
  6
BYLAYER
  0
MLEADERSTYLE
  5
2C
102
{ACAD_REACTORS
330
F
102
}
330
F
100
AcDbMLeaderStyle
179
2
170
2
171
1
172
0
 90
2
 40
0.0
 41
0.0
173
1
 91
-1056964608
 92
-2
290
1
 42
2.0
291
1
 43
8.0
  3
Standard
 44
4.0
300

342
29
174
1
175
1
176
0
178
1
 93
-1056964608
 45
4.0
292
0
297
0
 46
4.0
 94
-1056964608
 47
1.0
 49
1.0
140
1.0
294
1
141
0.0
177
0
142
1.0
295
0
296
0
143
3.75
271
0
272
9
273
9
  0
DICTIONARY
  5
2D
330
A
100
AcDbDictionary
280
1
281
1
  3
CREATED_BY_EZDXF
350
2E
  3
WRITTEN_BY_EZDXF
350
D0
  0
DICTIONARYVAR
  5
2E
330
2D
100
DictionaryVariables
280
0
  1
1.4.3 @ 2026-07-28T07:28:53.604091+00:00
  0
DICTIONARYVAR
  5
D0
330
2D
100
DictionaryVariables
280
0
  1
1.4.3 @ 2026-07-28T07:28:53.606153+00:00
  0
ENDSEC
  0
EOF
