  0
SECTION
  2
HEADER
  9
$ACADVER
  1
AC1024
  9
$ACADMAINTVER
 70
6
  9
$DWGCODEPAGE
  3
ANSI_1252
  9
$LASTSAVEDBY
  1
ezdxf
  9
$INSBASE
 10
0.0
 20
0.0
 30
0.0
  9
$EXTMIN
 10
1e+20
 20
1e+20
 30
1e+20
  9
$EXTMAX
 10
-1e+20
 20
-1e+20
 30
-1e+20
  9
$LIMMIN
 10
0.0
 20
0.0
  9
$LIMMAX
 10
420.0
 20
297.0
  9
$ORTHOMODE
 70
0
  9
$REGENMODE
 70
1
  9
$FILLMODE
 70
1
  9
$QTEXTMODE
 70
0
  9
$MIRRTEXT
 70
1
  9
$LTSCALE
 40
1.0
  9
$ATTMODE
 70
1
  9
$TEXTSIZE
 40
2.5
  9
$TRACEWID
 40
1.0
  9
$TEXTSTYLE
  7
Standard
  9
$CLAYER
  8
0
  9
$CELTYPE
  6
ByLayer
  9
$CECOLOR
 62
256
  9
$CELTSCALE
 40
1.0
  9
$DISPSILH
 70
0
  9
$DIMSCALE
 40
1.0
  9
$DIMASZ
 40
2.5
  9
$DIMEXO
 40
0.625
  9
$DIMDLI
 40
3.75
  9
$DIMRND
 40
0.0
  9
$DIMDLE
 40
0.0
  9
$DIMEXE
 40
1.25
  9
$DIMTP
 40
0.0
  9
$DIMTM
 40
0.0
  9
$DIMTXT
 40
2.5
  9
$DIMCEN
 40
2.5
  9
$DIMTSZ
 40
0.0
  9
$DIMTOL
 70
0
  9
$DIMLIM
 70
0
  9
$DIMTIH
 70
0
  9
$DIMTOH
 70
0
  9
$DIMSE1
 70
0
  9
$DIMSE2
 70
0
  9
$DIMTAD
 70
1
  9
$DIMZIN
 70
8
  9
$DIMBLK
  1

  9
$DIMASO
 70
1
  9
$DIMSHO
 70
1
  9
$DIMPOST
  1

  9
$DIMAPOST
  1

  9
$DIMALT
 70
0
  9
$DIMALTD
 70
3
  9
$DIMALTF
 40
0.03937007874
  9
$DIMLFAC
 40
1.0
  9
$DIMTOFL
 70
1
  9
$DIMTVP
 40
0.0
  9
$DIMTIX
 70
0
  9
$DIMSOXD
 70
0
  9
$DIMSAH
 70
0
  9
$DIMBLK1
  1

  9
$DIMBLK2
  1

  9
$DIMSTYLE
  2
ISO-25
  9
$DIMCLRD
 70
0
  9
$DIMCLRE
 70
0
  9
$DIMCLRT
 70
0
  9
$DIMTFAC
 40
1.0
  9
$DIMGAP
 40
0.625
  9
$DIMJUST
 70
0
  9
$DIMSD1
 70
0
  9
$DIMSD2
 70
0
  9
$DIMTOLJ
 70
0
  9
$DIMTZIN
 70
8
  9
$DIMALTZ
 70
0
  9
$DIMALTTZ
 70
0
  9
$DIMUPT
 70
0
  9
$DIMDEC
 70
2
  9
$DIMTDEC
 70
2
  9
$DIMALTU
 70
2
  9
$DIMALTTD
 70
3
  9
$DIMTXSTY
  7
Standard
  9
$DIMAUNIT
 70
0
  9
$DIMADEC
 70
0
  9
$DIMALTRND
 40
0.0
  9
$DIMAZIN
 70
0
  9
$DIMDSEP
 70
44
  9
$DIMATFIT
 70
3
  9
$DIMFRAC
 70
0
  9
$DIMLDRBLK
  1

  9
$DIMLUNIT
 70
2
  9
$DIMLWD
 70
-2
  9
$DIMLWE
 70
-2
  9
$DIMTMOVE
 70
0
  9
$DIMFXL
 40
1.0
  9
$DIMFXLON
 70
0
  9
$DIMJOGANG
 40
0.785398163397
  9
$DIMTFILL
 70
0
  9
$DIMTFILLCLR
 70
0
  9
$DIMARCSYM
 70
0
  9
$DIMLTYPE
  6

  9
$DIMLTEX1
  6

  9
$DIMLTEX2
  6

  9
$DIMTXTDIRECTION
 70
0
  9
$LUNITS
 70
2
  9
$LUPREC
 70
4
  9
$SKETCHINC
 40
1.0
  9
$FILLETRAD
 40
10.0
  9
$AUNITS
 70
0
  9
$AUPREC
 70
2
  9
$MENU
  1
.
  9
$ELEVATION
 40
0.0
  9
$PELEVATION
 40
0.0
  9
$THICKNESS
 40
0.0
  9
$LIMCHECK
 70
0
  9
$CHAMFERA
 40
0.0
  9
$CHAMFERB
 40
0.0
  9
$CHAMFERC
 40
0.0
  9
$CHAMFERD
 40
0.0
  9
$SKPOLY
 70
0
  9
$TDCREATE
 40
2461250.3950578705
  9
$TDUCREATE
 40
2458532.153996898
  9
$TDUPDATE
 40
2461250.3950578705
  9
$TDUUPDATE
 40
2458532.1544311
  9
$TDINDWG
 40
0.0
  9
$TDUSRTIMER
 40
0.0
  9
$USRTIMER
 70
1
  9
$ANGBASE
 50
0.0
  9
$ANGDIR
 70
0
  9
$PDMODE
 70
0
  9
$PDSIZE
 40
0.0
  9
$PLINEWID
 40
0.0
  9
$SPLFRAME
 70
0
  9
$SPLINETYPE
 70
6
  9
$SPLINESEGS
 70
8
  9
$HANDSEED
  5
1EE
  9
$SURFTAB1
 70
6
  9
$SURFTAB2
 70
6
  9
$SURFTYPE
 70
6
  9
$SURFU
 70
6
  9
$SURFV
 70
6
  9
$UCSBASE
  2

  9
$UCSNAME
  2

  9
$UCSORG
 10
0.0
 20
0.0
 30
0.0
  9
$UCSXDIR
 10
1.0
 20
0.0
 30
0.0
  9
$UCSYDIR
 10
0.0
 20
1.0
 30
0.0
  9
$UCSORTHOREF
  2

  9
$UCSORTHOVIEW
 70
0
  9
$UCSORGTOP
 10
0.0
 20
0.0
 30
0.0
  9
$UCSORGBOTTOM
 10
0.0
 20
0.0
 30
0.0
  9
$UCSORGLEFT
 10
0.0
 20
0.0
 30
0.0
  9
$UCSORGRIGHT
 10
0.0
 20
0.0
 30
0.0
  9
$UCSORGFRONT
 10
0.0
 20
0.0
 30
0.0
  9
$UCSORGBACK
 10
0.0
 20
0.0
 30
0.0
  9
$PUCSBASE
  2

  9
$PUCSNAME
  2

  9
$PUCSORG
 10
0.0
 20
0.0
 30
0.0
  9
$PUCSXDIR
 10
1.0
 20
0.0
 30
0.0
  9
$PUCSYDIR
 10
0.0
 20
1.0
 30
0.0
  9
$PUCSORTHOREF
  2

  9
$PUCSORTHOVIEW
 70
0
  9
$PUCSORGTOP
 10
0.0
 20
0.0
 30
0.0
  9
$PUCSORGBOTTOM
 10
0.0
 20
0.0
 30
0.0
  9
$PUCSORGLEFT
 10
0.0
 20
0.0
 30
0.0
  9
$PUCSORGRIGHT
 10
0.0
 20
0.0
 30
0.0
  9
$PUCSORGFRONT
 10
0.0
 20
0.0
 30
0.0
  9
$PUCSORGBACK
 10
0.0
 20
0.0
 30
0.0
  9
$USERI1
 70
0
  9
$USERI2
 70
0
  9
$USERI3
 70
0
  9
$USERI4
 70
0
  9
$USERI5
 70
0
  9
$USERR1
 40
0.0
  9
$USERR2
 40
0.0
  9
$USERR3
 40
0.0
  9
$USERR4
 40
0.0
  9
$USERR5
 40
0.0
  9
$WORLDVIEW
 70
1
  9
$SHADEDGE
 70
3
  9
$SHADEDIF
 70
70
  9
$TILEMODE
 70
1
  9
$MAXACTVP
 70
64
  9
$PINSBASE
 10
0.0
 20
0.0
 30
0.0
  9
$PLIMCHECK
 70
0
  9
$PEXTMIN
 10
1e+20
 20
1e+20
 30
1e+20
  9
$PEXTMAX
 10
-1e+20
 20
-1e+20
 30
-1e+20
  9
$PLIMMIN
 10
0.0
 20
0.0
  9
$PLIMMAX
 10
420.0
 20
297.0
  9
$UNITMODE
 70
0
  9
$VISRETAIN
 70
1
  9
$PLINEGEN
 70
0
  9
$PSLTSCALE
 70
1
  9
$TREEDEPTH
 70
3020
  9
$CMLSTYLE
  2
Standard
  9
$CMLJUST
 70
0
  9
$CMLSCALE
 40
20.0
  9
$PROXYGRAPHICS
 70
1
  9
$MEASUREMENT
 70
1
  9
$CELWEIGHT
370
-1
  9
$ENDCAPS
280
0
  9
$JOINSTYLE
280
0
  9
$LWDISPLAY
290
0
  9
$INSUNITS
 70
6
  9
$HYPERLINKBASE
  1

  9
$STYLESHEET
  1

  9
$XEDIT
290
1
  9
$CEPSNTYPE
380
0
  9
$PSTYLEMODE
290
1
  9
$FINGERPRINTGUID
  2
{A9D84F78-66EC-47FA-8214-27A4886C2D9C}
  9
$VERSIONGUID
  2
{E0A3B960-F7A2-466B-9565-AD9259084E4A}
  9
$EXTNAMES
290
1
  9
$PSVPSCALE
 40
0.0
  9
$OLESTARTUP
290
0
  9
$SORTENTS
280
127
  9
$INDEXCTL
280
0
  9
$HIDETEXT
280
1
  9
$XCLIPFRAME
280
1
  9
$HALOGAP
280
0
  9
$OBSCOLOR
 70
257
  9
$OBSLTYPE
280
0
  9
$INTERSECTIONDISPLAY
280
0
  9
$INTERSECTIONCOLOR
 70
257
  9
$DIMASSOC
280
2
  9
$PROJECTNAME
  1

  9
$CAMERADISPLAY
290
0
  9
$LENSLENGTH
 40
50.0
  9
$CAMERAHEIGHT
 40
0.0
  9
$STEPSPERSEC
 40
24.0
  9
$STEPSIZE
 40
100.0
  9
$3DDWFPREC
 40
2.0
  9
$PSOLWIDTH
 40
0.005
  9
$PSOLHEIGHT
 40
0.08
  9
$LOFTANG1
 40
1.570796326795
  9
$LOFTANG2
 40
1.570796326795
  9
$LOFTMAG1
 40
0.0
  9
$LOFTMAG2
 40
0.0
  9
$LOFTPARAM
 70
7
  9
$LOFTNORMALS
280
1
  9
$LATITUDE
 40
37.795
  9
$LONGITUDE
 40
-122.394
  9
$NORTHDIRECTION
 40
0.0
  9
$TIMEZONE
 70
-8000
  9
$LIGHTGLYPHDISPLAY
280
1
  9
$TILEMODELIGHTSYNCH
280
1
  9
$CMATERIAL
347
20
  9
$SOLIDHIST
280
0
  9
$SHOWHIST
280
1
  9
$DWFFRAME
280
2
  9
$DGNFRAME
280
2
  9
$REALWORLDSCALE
290
1
  9
$INTERFERECOLOR
 62
256
  9
$CSHADOW
280
0
  9
$SHADOWPLANELOCATION
 40
0.0
  0
ENDSEC
  0
SECTION
  2
CLASSES
  0
CLASS
  1
ACDBDICTIONARYWDFLT
  2
AcDbDictionaryWithDefault
  3
ObjectDBX Classes
 90
0
 91
0
280
0
281
0
  0
CLASS
  1
SUN
  2
AcDbSun
  3
SCENEOE
 90
1153
 91
0
280
0
281
0
  0
CLASS
  1
VISUALSTYLE
  2
AcDbVisualStyle
  3
ObjectDBX Classes
 90
4095
 91
0
280
0
281
0
  0
CLASS
  1
MATERIAL
  2
AcDbMaterial
  3
ObjectDBX Classes
 90
1153
 91
0
280
0
281
0
  0
CLASS
  1
SCALE
  2
AcDbScale
  3
ObjectDBX Classes
 90
1153
 91
0
280
0
281
0
  0
CLASS
  1
TABLESTYLE
  2
AcDbTableStyle
  3
ObjectDBX Classes
 90
4095
 91
0
280
0
281
0
  0
CLASS
  1
MLEADERSTYLE
  2
AcDbMLeaderStyle
  3
ACDB_MLEADERSTYLE_CLASS
 90
4095
 91
0
280
0
281
0
  0
CLASS
  1
DICTIONARYVAR
  2
AcDbDictionaryVar
  3
ObjectDBX Classes
 90
0
 91
0
280
0
281
0
  0
CLASS
  1
CELLSTYLEMAP
  2
AcDbCellStyleMap
  3
ObjectDBX Classes
 90
1152
 91
0
280
0
281
0
  0
CLASS
  1
MENTALRAYRENDERSETTINGS
  2
AcDbMentalRayRenderSettings
  3
SCENEOE
 90
1024
 91
0
280
0
281
0
  0
CLASS
  1
ACDBDETAILVIEWSTYLE
  2
AcDbDetailViewStyle
  3
ObjectDBX Classes
 90
1025
 91
0
280
0
281
0
  0
CLASS
  1
ACDBSECTIONVIEWSTYLE
  2
AcDbSectionViewStyle
  3
ObjectDBX Classes
 90
1025
 91
0
280
0
281
0
  0
CLASS
  1
RASTERVARIABLES
  2
AcDbRasterVariables
  3
ISM
 90
0
 91
0
280
0
281
0
  0
CLASS
  1
LAYOUT
  2
AcDbLayout
  3
ObjectDBX Classes
 90
0
 91
0
280
0
281
0
  0
CLASS
  1
ACDBPLACEHOLDER
  2
AcDbPlaceHolder
  3
ObjectDBX Classes
 90
0
 91
0
280
0
281
0
  0
ENDSEC
  0
SECTION
  2
TABLES
  0
TABLE
  2
VPORT
  5
8
330
0
100
AcDbSymbolTable
 70
1
  0
VPORT
  5
23
330
8
100
AcDbSymbolTableRecord
100
AcDbViewportTableRecord
  2
*Active
 70
0
 10
0.0
 20
0.0
 11
1.0
 21
1.0
 12
0.0
 22
0.0
 13
0.0
 23
0.0
 14
0.5
 24
0.5
 15
0.5
 25
0.5
 16
0.0
 26
0.0
 36
1.0
 17
0.0
 27
0.0
 37
0.0
 40
1000.0
 41
1.34
 42
50.0
 43
0.0
 44
0.0
 50
0.0
 51
0.0
 71
0
 72
1000
 73
1
 74
3
 75
0
 76
0
 77
0
 78
0
281
0
 65
0
146
0.0
  0
ENDTAB
  0
TABLE
  2
LTYPE
  5
2
330
0
100
AcDbSymbolTable
 70
3
  0
LTYPE
  5
24
330
2
100
AcDbSymbolTableRecord
100
AcDbLinetypeTableRecord
  2
ByBlock
 70
0
  3

 72
65
 73
0
 40
0.0
  0
LTYPE
  5
25
330
2
100
AcDbSymbolTableRecord
100
AcDbLinetypeTableRecord
  2
ByLayer
 70
0
  3

 72
65
 73
0
 40
0.0
  0
LTYPE
  5
26
330
2
100
AcDbSymbolTableRecord
100
AcDbLinetypeTableRecord
  2
Continuous
 70
0
  3

 72
65
 73
0
 40
0.0
  0
ENDTAB
  0
TABLE
  2
LAYER
  5
1
330
0
100
AcDbSymbolTable
 70
5
  0
LAYER
  5
27
330
1
100
AcDbSymbolTableRecord
100
AcDbLayerTableRecord
  2
0
 70
0
 62
7
  6
Continuous
370
-3
390
13
347
21
  0
LAYER
  5
28
330
1
100
AcDbSymbolTableRecord
100
AcDbLayerTableRecord
  2
Defpoints
 70
0
 62
7
  6
Continuous
290
0
370
-3
390
13
347
21
  0
LAYER
  5
1E8
330
1
100
AcDbSymbolTableRecord
100
AcDbLayerTableRecord
  2
keypoints
 70
0
 62
1
  6
Continuous
370
-3
390
13
347
21
  0
LAYER
  5
1E9
330
1
100
AcDbSymbolTableRecord
100
AcDbLayerTableRecord
  2
lines
 70
0
 62
2
  6
Continuous
370
-3
390
13
347
21
  0
LAYER
  5
1EA
330
1
100
AcDbSymbolTableRecord
100
AcDbLayerTableRecord
  2
mesh
 70
0
 62
5
  6
Continuous
370
-3
390
13
347
21
  0
ENDTAB
  0
TABLE
  2
STYLE
  5
5
330
0
100
AcDbSymbolTable
 70
1
  0
STYLE
  5
29
330
5
100
AcDbSymbolTableRecord
100
AcDbTextStyleTableRecord
  2
Standard
 70
0
 40
0.0
 41
1.0
 50
0.0
 71
0
 42
2.5
  3
txt
  4

  0
ENDTAB
  0
TABLE
  2
VIEW
  5
7
330
0
100
AcDbSymbolTable
 70
0
  0
ENDTAB
  0
TABLE
  2
UCS
  5
6
330
0
100
AcDbSymbolTable
 70
0
  0
ENDTAB
  0
TABLE
  2
APPID
  5
3
330
0
100
AcDbSymbolTable
 70
3
  0
APPID
  5
2A
330
3
100
AcDbSymbolTableRecord
100
AcDbRegAppTableRecord
  2
ACAD
 70
0
  0
APPID
  5
1EB
330
3
100
AcDbSymbolTableRecord
100
AcDbRegAppTableRecord
  2
HATCHBACKGROUNDCOLOR
 70
0
  0
APPID
  5
1EC
330
3
100
AcDbSymbolTableRecord
100
AcDbRegAppTableRecord
  2
EZDXF
 70
0
  0
ENDTAB
  0
TABLE
  2
DIMSTYLE
  5
4
330
0
100
AcDbSymbolTable
 70
1
100
AcDbDimStyleTable
  0
DIMSTYLE
105
2B
330
4
100
AcDbSymbolTableRecord
100
AcDbDimStyleTableRecord
  2
Standard
 70
0
 40
1.0
 41
2.5
 42
0.625
 43
3.75
 44
1.25
 45
0.0
 46
0.0
 47
0.0
 48
0.0
 49
2.5
140
2.5
141
2.5
142
0.0
143
0.03937007874
144
1.0
145
0.0
146
1.0
147
0.625
148
0.0
 69
0
 70
0
 71
0
 72
0
 73
0
 74
0
 75
0
 76
0
 77
1
 78
8
 79
3
170
0
171
3
172
1
173
0
174
0
175
0
176
0
177
0
178
0
179
2
271
2
272
2
273
2
274
3
275
0
276
0
277
2
278
44
279
0
280
0
281
0
282
0
283
0
284
8
285
0
286
0
288
0
289
3
290
0
371
-2
372
-2
  0
ENDTAB
  0
TABLE
  2
BLOCK_RECORD
  5
9
330
0
100
AcDbSymbolTable
 70
2
  0
BLOCK_RECORD
  5
17
330
9
100
AcDbSymbolTableRecord
100
AcDbBlockTableRecord
  2
*Model_Space
340
1A
 70
0
280
1
281
0
  0
BLOCK_RECORD
  5
1B
330
9
100
AcDbSymbolTableRecord
100
AcDbBlockTableRecord
  2
*Paper_Space
340
1E
 70
0
280
1
281
0
  0
ENDTAB
  0
ENDSEC
  0
SECTION
  2
BLOCKS
  0
BLOCK
  5
18
330
17
100
AcDbEntity
  8
0
100
AcDbBlockBegin
  2
*Model_Space
 70
0
 10
0.0
 20
0.0
 30
0.0
  3
*Model_Space
  1

  0
ENDBLK
  5
19
330
17
100
AcDbEntity
  8
0
100
AcDbBlockEnd
  0
BLOCK
  5
1C
330
1B
100
AcDbEntity
  8
0
100
AcDbBlockBegin
  2
*Paper_Space
 70
0
 10
0.0
 20
0.0
 30
0.0
  3
*Paper_Space
  1

  0
ENDBLK
  5
1D
330
1B
100
AcDbEntity
  8
0
100
AcDbBlockEnd
  0
ENDSEC
  0
SECTION
  2
ENTITIES
  0
POINT
  5
2F
330
17
100
AcDbEntity
  8
0
100
AcDbPoint
 10
4.646421258089099
 20
1.0312459934947427
 30
2.168752977903529
  0
CIRCLE
  5
30
330
17
100
AcDbEntity
  8
keypoints
100
AcDbCircle
 10
4.646421258089099
 20
1.0312459934947427
 30
2.168752977903529
 40
0.05
  0
POINT
  5
31
330
17
100
AcDbEntity
  8
0
100
AcDbPoint
 10
2.671565474444929
 20
1.6617751752925733
 30
2.2555581550771104
  0
CIRCLE
  5
32
330
17
100
AcDbEntity
  8
keypoints
100
AcDbCircle
 10
2.671565474444929
 20
1.6617751752925733
 30
2.2555581550771104
 40
0.05
  0
POINT
  5
33
330
17
100
AcDbEntity
  8
0
100
AcDbPoint
 10
1.049726487238044
 20
-3.1829905041737803
 30
2.2399604664675152
  0
CIRCLE
  5
34
330
17
100
AcDbEntity
  8
keypoints
100
AcDbCircle
 10
1.049726487238044
 20
-3.1829905041737803
 30
2.2399604664675152
 40
0.05
  0
POINT
  5
35
330
17
100
AcDbEntity
  8
0
100
AcDbPoint
 10
0.1602215433768051
 20
-3.5867903586985603
 30
2.259633807624735
  0
CIRCLE
  5
36
330
17
100
AcDbEntity
  8
keypoints
100
AcDbCircle
 10
0.1602215433768051
 20
-3.5867903586985603
 30
2.259633807624735
 40
0.05
  0
POINT
  5
37
330
17
100
AcDbEntity
  8
0
100
AcDbPoint
 10
-0.021835709246560808
 20
5.170821318157054
 30
2.2141219560650933
  0
CIRCLE
  5
38
330
17
100
AcDbEntity
  8
keypoints
100
AcDbCircle
 10
-0.021835709246560808
 20
5.170821318157054
 30
2.2141219560650933
 40
0.05
  0
POINT
  5
39
330
17
100
AcDbEntity
  8
0
100
AcDbPoint
 10
-4.289092927323809
 20
5.0678778852804385
 30
2.2106704128757886
  0
CIRCLE
  5
3A
330
17
100
AcDbEntity
  8
keypoints
100
AcDbCircle
 10
-4.289092927323809
 20
5.0678778852804385
 30
2.2106704128757886
 40
0.05
  0
POINT
  5
3B
330
17
100
AcDbEntity
  8
0
100
AcDbPoint
 10
5.153656230443359
 20
-0.5455630543702503
 30
2.265824646056955
  0
CIRCLE
  5
3C
330
17
100
AcDbEntity
  8
keypoints
100
AcDbCircle
 10
5.153656230443359
 20
-0.5455630543702503
 30
2.265824646056955
 40
0.05
  0
POINT
  5
3D
330
17
100
AcDbEntity
  8
0
100
AcDbPoint
 10
5.255518872969577
 20
0.15358357943570367
 30
2.1763226116514174
  0
CIRCLE
  5
3E
330
17
100
AcDbEntity
  8
keypoints
100
AcDbCircle
 10
5.255518872969577
 20
0.15358357943570367
 30
2.1763226116514174
 40
0.05
  0
POINT
  5
3F
330
17
100
AcDbEntity
  8
0
100
AcDbPoint
 10
3.8206303322695123
 20
2.9261520089108863
 30
2.245084462200778
  0
CIRCLE
  5
40
330
17
100
AcDbEntity
  8
keypoints
100
AcDbCircle
 10
3.8206303322695123
 20
2.9261520089108863
 30
2.245084462200778
 40
0.05
  0
POINT
  5
41
330
17
100
AcDbEntity
  8
0
100
AcDbPoint
 10
1.3514243851108556
 20
-3.1384727556457293
 30
2.1942380395137633
  0
CIRCLE
  5
42
330
17
100
AcDbEntity
  8
keypoints
100
AcDbCircle
 10
1.3514243851108556
 20
-3.1384727556457293
 30
2.1942380395137633
 40
0.05
  0
POINT
  5
43
330
17
100
AcDbEntity
  8
0
100
AcDbPoint
 10
-1.8337555498557683
 20
2.2540209928649144
 30
2.1873507277259754
  0
CIRCLE
  5
44
330
17
100
AcDbEntity
  8
keypoints
100
AcDbCircle
 10
-1.8337555498557683
 20
2.2540209928649144
 30
2.1873507277259754
 40
0.05
  0
POINT
  5
45
330
17
100
AcDbEntity
  8
0
100
AcDbPoint
 10
-4.022464054281082
 20
-0.5290713881458904
 30
2.254617198597477
  0
CIRCLE
  5
46
330
17
100
AcDbEntity
  8
keypoints
100
AcDbCircle
 10
-4.022464054281082
 20
-0.5290713881458904
 30
2.254617198597477
 40
0.05
  0
POINT
  5
47
330
17
100
AcDbEntity
  8
0
100
AcDbPoint
 10
-4.897981753515396
 20
1.5423359701136305
 30
2.244983494303118
  0
CIRCLE
  5
48
330
17
100
AcDbEntity
  8
keypoints
100
AcDbCircle
 10
-4.897981753515396
 20
1.5423359701136305
 30
2.244983494303118
 40
0.05
  0
POINT
  5
49
330
17
100
AcDbEntity
  8
0
100
AcDbPoint
 10
-0.48074472278376246
 20
4.253076445851911
 30
2.1809271697963784
  0
CIRCLE
  5
4A
330
17
100
AcDbEntity
  8
keypoints
100
AcDbCircle
 10
-0.48074472278376246
 20
4.253076445851911
 30
2.1809271697963784
 40
0.05
  0
POINT
  5
4B
330
17
100
AcDbEntity
  8
0
100
AcDbPoint
 10
-4.7919076703382855
 20
3.6002227936426183
 30
2.200914754835571
  0
CIRCLE
  5
4C
330
17
100
AcDbEntity
  8
keypoints
100
AcDbCircle
 10
-4.7919076703382855
 20
3.6002227936426183
 30
2.200914754835571
 40
0.05
  0
POINT
  5
4D
330
17
100
AcDbEntity
  8
0
100
AcDbPoint
 10
-3.769269780781866
 20
5.070812075827755
 30
2.2427219579941924
  0
CIRCLE
  5
4E
330
17
100
AcDbEntity
  8
keypoints
100
AcDbCircle
 10
-3.769269780781866
 20
5.070812075827755
 30
2.2427219579941924
 40
0.05
  0
POINT
  5
4F
330
17
100
AcDbEntity
  8
0
100
AcDbPoint
 10
-1.7549601785351903
 20
0.8642290362826163
 30
2.224072285552135
  0
CIRCLE
  5
50
330
17
100
AcDbEntity
  8
keypoints
100
AcDbCircle
 10
-1.7549601785351903
 20
0.8642290362826163
 30
2.224072285552135
 40
0.05
  0
POINT
  5
51
330
17
100
AcDbEntity
  8
0
100
AcDbPoint
 10
-1.0366871648531744
 20
-0.7448395937191059
 30
2.241342920424791
  0
CIRCLE
  5
52
330
17
100
AcDbEntity
  8
keypoints
100
AcDbCircle
 10
-1.0366871648531744
 20
-0.7448395937191059
 30
2.241342920424791
 40
0.05
  0
POINT
  5
53
330
17
100
AcDbEntity
  8
0
100
AcDbPoint
 10
2.126626799433712
 20
-1.6372440027223656
 30
2.1684105184365667
  0
CIRCLE
  5
54
330
17
100
AcDbEntity
  8
keypoints
100
AcDbCircle
 10
2.126626799433712
 20
-1.6372440027223656
 30
2.1684105184365667
 40
0.05
  0
POINT
  5
55
330
17
100
AcDbEntity
  8
0
100
AcDbPoint
 10
-0.07826159487835693
 20
-2.9790265722951705
 30
2.179572609853739
  0
CIRCLE
  5
56
330
17
100
AcDbEntity
  8
keypoints
100
AcDbCircle
 10
-0.07826159487835693
 20
-2.9790265722951705
 30
2.179572609853739
 40
0.05
  0
POINT
  5
57
330
17
100
AcDbEntity
  8
0
100
AcDbPoint
 10
-0.7944798488835509
 20
-3.260231521407091
 30
2.2616740420474724
  0
CIRCLE
  5
58
330
17
100
AcDbEntity
  8
keypoints
100
AcDbCircle
 10
-0.7944798488835509
 20
-3.260231521407091
 30
2.2616740420474724
 40
0.05
  0
POINT
  5
59
330
17
100
AcDbEntity
  8
0
100
AcDbPoint
 10
-1.0565355594187373
 20
-1.1535851007265105
 30
2.225137201934582
  0
CIRCLE
  5
5A
330
17
100
AcDbEntity
  8
keypoints
100
AcDbCircle
 10
-1.0565355594187373
 20
-1.1535851007265105
 30
2.225137201934582
 40
0.05
  0
POINT
  5
5B
330
17
100
AcDbEntity
  8
0
100
AcDbPoint
 10
1.9688161968055733
 20
-2.4264399975405215
 30
2.232874749985174
  0
CIRCLE
  5
5C
330
17
100
AcDbEntity
  8
keypoints
100
AcDbCircle
 10
1.9688161968055733
 20
-2.4264399975405215
 30
2.232874749985174
 40
0.05
  0
POINT
  5
5D
330
17
100
AcDbEntity
  8
0
100
AcDbPoint
 10
2.295987473374201
 20
4.800753522972526
 30
2.2080882396239616
  0
CIRCLE
  5
5E
330
17
100
AcDbEntity
  8
keypoints
100
AcDbCircle
 10
2.295987473374201
 20
4.800753522972526
 30
2.2080882396239616
 40
0.05
  0
POINT
  5
5F
330
17
100
AcDbEntity
  8
0
100
AcDbPoint
 10
2.2361390671370107
 20
-0.6044848629587445
 30
2.1957769633302298
  0
CIRCLE
  5
60
330
17
100
AcDbEntity
  8
keypoints
100
AcDbCircle
 10
2.2361390671370107
 20
-0.6044848629587445
 30
2.1957769633302298
 40
0.05
  0
POINT
  5
61
330
17
100
AcDbEntity
  8
0
100
AcDbPoint
 10
-2.0997962394301406
 20
-0.4062725336863775
 30
2.2017787208935435
  0
CIRCLE
  5
62
330
17
100
AcDbEntity
  8
keypoints
100
AcDbCircle
 10
-2.0997962394301406
 20
-0.4062725336863775
 30
2.2017787208935435
 40
0.05
  0
POINT
  5
63
330
17
100
AcDbEntity
  8
0
100
AcDbPoint
 10
-2.1749460433388945
 20
-0.5921463483465013
 30
2.2544010134976675
  0
CIRCLE
  5
64
330
17
100
AcDbEntity
  8
keypoints
100
AcDbCircle
 10
-2.1749460433388945
 20
-0.5921463483465013
 30
2.2544010134976675
 40
0.05
  0
POINT
  5
65
330
17
100
AcDbEntity
  8
0
100
AcDbPoint
 10
-0.708411620583419
 20
1.8862921591036197
 30
2.2210046473742633
  0
CIRCLE
  5
66
330
17
100
AcDbEntity
  8
keypoints
100
AcDbCircle
 10
-0.708411620583419
 20
1.8862921591036197
 30
2.2210046473742633
 40
0.05
  0
POINT
  5
67
330
17
100
AcDbEntity
  8
0
100
AcDbPoint
 10
1.6338342305064015
 20
4.973683335938755
 30
2.261069743792288
  0
CIRCLE
  5
68
330
17
100
AcDbEntity
  8
keypoints
100
AcDbCircle
 10
1.6338342305064015
 20
4.973683335938755
 30
2.261069743792288
 40
0.05
  0
POINT
  5
69
330
17
100
AcDbEntity
  8
0
100
AcDbPoint
 10
5.343998529938904
 20
-0.4541572322136911
 30
2.241533519815092
  0
CIRCLE
  5
6A
330
17
100
AcDbEntity
  8
keypoints
100
AcDbCircle
 10
5.343998529938904
 20
-0.4541572322136911
 30
2.241533519815092
 40
0.05
  0
POINT
  5
6B
330
17
100
AcDbEntity
  8
0
100
AcDbPoint
 10
2.5706550457198296
 20
2.085277988305406
 30
2.1834075539574935
  0
CIRCLE
  5
6C
330
17
100
AcDbEntity
  8
keypoints
100
AcDbCircle
 10
2.5706550457198296
 20
2.085277988305406
 30
2.1834075539574935
 40
0.05
  0
POINT
  5
6D
330
17
100
AcDbEntity
  8
0
100
AcDbPoint
 10
1.911940467047985
 20
-2.900327631302898
 30
2.2076907677160964
  0
CIRCLE
  5
6E
330
17
100
AcDbEntity
  8
keypoints
100
AcDbCircle
 10
1.911940467047985
 20
-2.900327631302898
 30
2.2076907677160964
 40
0.05
  0
POINT
  5
6F
330
17
100
AcDbEntity
  8
0
100
AcDbPoint
 10
3.3864838719185397
 20
1.5485276269567687
 30
2.2532502492325106
  0
CIRCLE
  5
70
330
17
100
AcDbEntity
  8
keypoints
100
AcDbCircle
 10
3.3864838719185397
 20
1.5485276269567687
 30
2.2532502492325106
 40
0.05
  0
POINT
  5
71
330
17
100
AcDbEntity
  8
0
100
AcDbPoint
 10
4.938546861733042
 20
-0.4173641431575972
 30
2.2642254271768083
  0
CIRCLE
  5
72
330
17
100
AcDbEntity
  8
keypoints
100
AcDbCircle
 10
4.938546861733042
 20
-0.4173641431575972
 30
2.2642254271768083
 40
0.05
  0
POINT
  5
73
330
17
100
AcDbEntity
  8
0
100
AcDbPoint
 10
-5.0940563907347505
 20
-0.20591948558636108
 30
2.2028140899207536
  0
CIRCLE
  5
74
330
17
100
AcDbEntity
  8
keypoints
100
AcDbCircle
 10
-5.0940563907347505
 20
-0.20591948558636108
 30
2.2028140899207536
 40
0.05
  0
POINT
  5
75
330
17
100
AcDbEntity
  8
0
100
AcDbPoint
 10
3.7155201814666015
 20
2.3815032106573706
 30
2.185676588517251
  0
CIRCLE
  5
76
330
17
100
AcDbEntity
  8
keypoints
100
AcDbCircle
 10
3.7155201814666015
 20
2.3815032106573706
 30
2.185676588517251
 40
0.05
  0
POINT
  5
77
330
17
100
AcDbEntity
  8
0
100
AcDbPoint
 10
-1.0047143390691848
 20
-0.30956922651139007
 30
2.1678172470320574
  0
CIRCLE
  5
78
330
17
100
AcDbEntity
  8
keypoints
100
AcDbCircle
 10
-1.0047143390691848
 20
-0.30956922651139007
 30
2.1678172470320574
 40
0.05
  0
POINT
  5
79
330
17
100
AcDbEntity
  8
0
100
AcDbPoint
 10
-2.012150393512609
 20
0.5947089798803848
 30
2.2657242133921445
  0
CIRCLE
  5
7A
330
17
100
AcDbEntity
  8
keypoints
100
AcDbCircle
 10
-2.012150393512609
 20
0.5947089798803848
 30
2.2657242133921445
 40
0.05
  0
POINT
  5
7B
330
17
100
AcDbEntity
  8
0
100
AcDbPoint
 10
-4.835356270537755
 20
2.6390338400461113
 30
2.249202046565021
  0
CIRCLE
  5
7C
330
17
100
AcDbEntity
  8
keypoints
100
AcDbCircle
 10
-4.835356270537755
 20
2.6390338400461113
 30
2.249202046565021
 40
0.05
  0
POINT
  5
7D
330
17
100
AcDbEntity
  8
0
100
AcDbPoint
 10
-3.758041107394491
 20
-0.5646666122160593
 30
2.24548633669539
  0
CIRCLE
  5
7E
330
17
100
AcDbEntity
  8
keypoints
100
AcDbCircle
 10
-3.758041107394491
 20
-0.5646666122160593
 30
2.24548633669539
 40
0.05
  0
POINT
  5
7F
330
17
100
AcDbEntity
  8
0
100
AcDbPoint
 10
-4.455639372575943
 20
-0.48982421342558236
 30
2.1714596202997285
  0
CIRCLE
  5
80
330
17
100
AcDbEntity
  8
keypoints
100
AcDbCircle
 10
-4.455639372575943
 20
-0.48982421342558236
 30
2.1714596202997285
 40
0.05
  0
POINT
  5
81
330
17
100
AcDbEntity
  8
0
100
AcDbPoint
 10
2.7684691687139016
 20
3.583269027005409
 30
2.205256791058142
  0
CIRCLE
  5
82
330
17
100
AcDbEntity
  8
keypoints
100
AcDbCircle
 10
2.7684691687139016
 20
3.583269027005409
 30
2.205256791058142
 40
0.05
  0
POINT
  5
83
330
17
100
AcDbEntity
  8
0
100
AcDbPoint
 10
2.8629152080018843
 20
0.4897997564768535
 30
2.213174303419918
  0
CIRCLE
  5
84
330
17
100
AcDbEntity
  8
keypoints
100
AcDbCircle
 10
2.8629152080018843
 20
0.4897997564768535
 30
2.213174303419918
 40
0.05
  0
POINT
  5
85
330
17
100
AcDbEntity
  8
0
100
AcDbPoint
 10
2.790136072314299
 20
3.891633868901584
 30
2.257409746615274
  0
CIRCLE
  5
86
330
17
100
AcDbEntity
  8
keypoints
100
AcDbCircle
 10
2.790136072314299
 20
3.891633868901584
 30
2.257409746615274
 40
0.05
  0
POINT
  5
87
330
17
100
AcDbEntity
  8
0
100
AcDbPoint
 10
-1.5471078528628435
 20
3.8022825749625486
 30
2.2631996937258547
  0
CIRCLE
  5
88
330
17
100
AcDbEntity
  8
keypoints
100
AcDbCircle
 10
-1.5471078528628435
 20
3.8022825749625486
 30
2.2631996937258547
 40
0.05
  0
POINT
  5
89
330
17
100
AcDbEntity
  8
0
100
AcDbPoint
 10
-1.5024588824459557
 20
4.222612892171976
 30
2.2366836671711647
  0
CIRCLE
  5
8A
330
17
100
AcDbEntity
  8
keypoints
100
AcDbCircle
 10
-1.5024588824459557
 20
4.222612892171976
 30
2.2366836671711647
 40
0.05
  0
POINT
  5
8B
330
17
100
AcDbEntity
  8
0
100
AcDbPoint
 10
-1.5371739845149586
 20
-1.466031910628048
 30
2.229924560837195
  0
CIRCLE
  5
8C
330
17
100
AcDbEntity
  8
keypoints
100
AcDbCircle
 10
-1.5371739845149586
 20
-1.466031910628048
 30
2.229924560837195
 40
0.05
  0
POINT
  5
8D
330
17
100
AcDbEntity
  8
0
100
AcDbPoint
 10
-4.715813720325627
 20
4.143754327757594
 30
2.2650941413945596
  0
CIRCLE
  5
8E
330
17
100
AcDbEntity
  8
keypoints
100
AcDbCircle
 10
-4.715813720325627
 20
4.143754327757594
 30
2.2650941413945596
 40
0.05
  0
POINT
  5
8F
330
17
100
AcDbEntity
  8
0
100
AcDbPoint
 10
-3.156595001086078
 20
-0.6252164895937156
 30
2.171241853556627
  0
CIRCLE
  5
90
330
17
100
AcDbEntity
  8
keypoints
100
AcDbCircle
 10
-3.156595001086078
 20
-0.6252164895937156
 30
2.171241853556627
 40
0.05
  0
POINT
  5
91
330
17
100
AcDbEntity
  8
0
100
AcDbPoint
 10
2.0538682413988996
 20
-1.9551082684651468
 30
2.2229469252415845
  0
CIRCLE
  5
92
330
17
100
AcDbEntity
  8
keypoints
100
AcDbCircle
 10
2.0538682413988996
 20
-1.9551082684651468
 30
2.2229469252415845
 40
0.05
  0
POINT
  5
93
330
17
100
AcDbEntity
  8
0
100
AcDbPoint
 10
0.4394457044636912
 20
-3.588118827572525
 30
2.263885622580987
  0
CIRCLE
  5
94
330
17
100
AcDbEntity
  8
keypoints
100
AcDbCircle
 10
0.4394457044636912
 20
-3.588118827572525
 30
2.263885622580987
 40
0.05
  0
POINT
  5
95
330
17
100
AcDbEntity
  8
0
100
AcDbPoint
 10
-4.899123444832543
 20
1.188857886698893
 30
2.2287524498419975
  0
CIRCLE
  5
96
330
17
100
AcDbEntity
  8
keypoints
100
AcDbCircle
 10
-4.899123444832543
 20
1.188857886698893
 30
2.2287524498419975
 40
0.05
  0
POINT
  5
97
330
17
100
AcDbEntity
  8
0
100
AcDbPoint
 10
5.381930789861486
 20
-0.10658259156572303
 30
2.1965739021257202
  0
CIRCLE
  5
98
330
17
100
AcDbEntity
  8
keypoints
100
AcDbCircle
 10
5.381930789861486
 20
-0.10658259156572303
 30
2.1965739021257202
 40
0.05
  0
POINT
  5
99
330
17
100
AcDbEntity
  8
0
100
AcDbPoint
 10
4.667471340706232
 20
6.0415171830238
 30
2.219890093950385
  0
CIRCLE
  5
9A
330
17
100
AcDbEntity
  8
keypoints
100
AcDbCircle
 10
4.667471340706232
 20
6.0415171830238
 30
2.219890093950385
 40
0.05
  0
POINT
  5
9B
330
17
100
AcDbEntity
  8
0
100
AcDbPoint
 10
1.4926922401856395
 20
-3.262482912541584
 30
2.241593578262597
  0
CIRCLE
  5
9C
330
17
100
AcDbEntity
  8
keypoints
100
AcDbCircle
 10
1.4926922401856395
 20
-3.262482912541584
 30
2.241593578262597
 40
0.05
  0
POINT
  5
9D
330
17
100
AcDbEntity
  8
0
100
AcDbPoint
 10
-0.25588435627892125
 20
-2.9631499830758923
 30
2.1747728733279423
  0
CIRCLE
  5
9E
330
17
100
AcDbEntity
  8
keypoints
100
AcDbCircle
 10
-0.25588435627892125
 20
-2.9631499830758923
 30
2.1747728733279423
 40
0.05
  0
POINT
  5
9F
330
17
100
AcDbEntity
  8
0
100
AcDbPoint
 10
-1.239906978857877
 20
-2.412944168839722
 30
2.1690795957354885
  0
CIRCLE
  5
A0
330
17
100
AcDbEntity
  8
keypoints
100
AcDbCircle
 10
-1.239906978857877
 20
-2.412944168839722
 30
2.1690795957354885
 40
0.05
  0
POINT
  5
A1
330
17
100
AcDbEntity
  8
0
100
AcDbPoint
 10
-0.7020263827306668
 20
-3.5000202708209844
 30
2.2369780839840914
  0
CIRCLE
  5
A2
330
17
100
AcDbEntity
  8
keypoints
100
AcDbCircle
 10
-0.7020263827306668
 20
-3.5000202708209844
 30
2.2369780839840914
 40
0.05
  0
POINT
  5
A3
330
17
100
AcDbEntity
  8
0
100
AcDbPoint
 10
-4.952273841510231
 20
-0.43891429755097744
 30
2.254444531812534
  0
CIRCLE
  5
A4
330
17
100
AcDbEntity
  8
keypoints
100
AcDbCircle
 10
-4.952273841510231
 20
-0.43891429755097744
 30
2.254444531812534
 40
0.05
  0
POINT
  5
A5
330
17
100
AcDbEntity
  8
0
100
AcDbPoint
 10
-0.8651084153600415
 20
0.49481869972828796
 30
2.203187291783829
  0
CIRCLE
  5
A6
330
17
100
AcDbEntity
  8
keypoints
100
AcDbCircle
 10
-0.8651084153600415
 20
0.49481869972828796
 30
2.203187291783829
 40
0.05
  0
POINT
  5
A7
330
17
100
AcDbEntity
  8
0
100
AcDbPoint
 10
-2.9076554103751886
 20
-0.6440997107193234
 30
2.221511976806543
  0
CIRCLE
  5
A8
330
17
100
AcDbEntity
  8
keypoints
100
AcDbCircle
 10
-2.9076554103751886
 20
-0.6440997107193234
 30
2.221511976806543
 40
0.05
  0
POINT
  5
A9
330
17
100
AcDbEntity
  8
0
100
AcDbPoint
 10
-2.605649688710121
 20
5.004344861510749
 30
2.2449793604829993
  0
CIRCLE
  5
AA
330
17
100
AcDbEntity
  8
keypoints
100
AcDbCircle
 10
-2.605649688710121
 20
5.004344861510749
 30
2.2449793604829993
 40
0.05
  0
POINT
  5
AB
330
17
100
AcDbEntity
  8
0
100
AcDbPoint
 10
-4.257263727937537
 20
-0.5168350658125183
 30
2.1779142425999565
  0
CIRCLE
  5
AC
330
17
100
AcDbEntity
  8
keypoints
100
AcDbCircle
 10
-4.257263727937537
 20
-0.5168350658125183
 30
2.1779142425999565
 40
0.05
  0
POINT
  5
AD
330
17
100
AcDbEntity
  8
0
100
AcDbPoint
 10
2.029915589528451
 20
-2.148658091613102
 30
2.217975363491234
  0
CIRCLE
  5
AE
330
17
100
AcDbEntity
  8
keypoints
100
AcDbCircle
 10
2.029915589528451
 20
-2.148658091613102
 30
2.217975363491234
 40
0.05
  0
POINT
  5
AF
330
17
100
AcDbEntity
  8
0
100
AcDbPoint
 10
-0.9454685808153191
 20
0.2913352880513427
 30
2.251292827425048
  0
CIRCLE
  5
B0
330
17
100
AcDbEntity
  8
keypoints
100
AcDbCircle
 10
-0.9454685808153191
 20
0.2913352880513427
 30
2.251292827425048
 40
0.05
  0
POINT
  5
B1
330
17
100
AcDbEntity
  8
0
100
AcDbPoint
 10
3.389855218089085
 20
1.0473970708717957
 30
2.266485979217135
  0
CIRCLE
  5
B2
330
17
100
AcDbEntity
  8
keypoints
100
AcDbCircle
 10
3.389855218089085
 20
1.0473970708717957
 30
2.266485979217135
 40
0.05
  0
POINT
  5
B3
330
17
100
AcDbEntity
  8
0
100
AcDbPoint
 10
-0.254055488630665
 20
-3.5980091032542623
 30
2.2401188813343373
  0
CIRCLE
  5
B4
330
17
100
AcDbEntity
  8
keypoints
100
AcDbCircle
 10
-0.254055488630665
 20
-3.5980091032542623
 30
2.2401188813343373
 40
0.05
  0
POINT
  5
B5
330
17
100
AcDbEntity
  8
0
100
AcDbPoint
 10
-5.014253570276438
 20
0.5440254381376528
 30
2.2143748140146653
  0
CIRCLE
  5
B6
330
17
100
AcDbEntity
  8
keypoints
100
AcDbCircle
 10
-5.014253570276438
 20
0.5440254381376528
 30
2.2143748140146653
 40
0.05
  0
POINT
  5
B7
330
17
100
AcDbEntity
  8
0
100
AcDbPoint
 10
4.743756005385211
 20
-0.20704244460469612
 30
2.2640727092618813
  0
CIRCLE
  5
B8
330
17
100
AcDbEntity
  8
keypoints
100
AcDbCircle
 10
4.743756005385211
 20
-0.20704244460469612
 30
2.2640727092618813
 40
0.05
  0
POINT
  5
B9
330
17
100
AcDbEntity
  8
0
100
AcDbPoint
 10
4.270736019323666
 20
4.592511237457039
 30
2.1819384615835156
  0
CIRCLE
  5
BA
330
17
100
AcDbEntity
  8
keypoints
100
AcDbCircle
 10
4.270736019323666
 20
4.592511237457039
 30
2.1819384615835156
 40
0.05
  0
POINT
  5
BB
330
17
100
AcDbEntity
  8
0
100
AcDbPoint
 10
4.489625011469419
 20
5.305138086480025
 30
2.2016958650149
  0
CIRCLE
  5
BC
330
17
100
AcDbEntity
  8
keypoints
100
AcDbCircle
 10
4.489625011469419
 20
5.305138086480025
 30
2.2016958650149
 40
0.05
  0
POINT
  5
BD
330
17
100
AcDbEntity
  8
0
100
AcDbPoint
 10
4.998762856202366
 20
6.836626478494963
 30
2.179507701512027
  0
CIRCLE
  5
BE
330
17
100
AcDbEntity
  8
keypoints
100
AcDbCircle
 10
4.998762856202366
 20
6.836626478494963
 30
2.179507701512027
 40
0.05
  0
POINT
  5
BF
330
17
100
AcDbEntity
  8
0
100
AcDbPoint
 10
2.920839451425808
 20
4.576277298411891
 30
2.218981154435729
  0
CIRCLE
  5
C0
330
17
100
AcDbEntity
  8
keypoints
100
AcDbCircle
 10
2.920839451425808
 20
4.576277298411891
 30
2.218981154435729
 40
0.05
  0
POINT
  5
C1
330
17
100
AcDbEntity
  8
0
100
AcDbPoint
 10
2.747785094492199
 20
4.728059456831172
 30
2.171763043309958
  0
CIRCLE
  5
C2
330
17
100
AcDbEntity
  8
keypoints
100
AcDbCircle
 10
2.747785094492199
 20
4.728059456831172
 30
2.171763043309958
 40
0.05
  0
POINT
  5
C3
330
17
100
AcDbEntity
  8
0
100
AcDbPoint
 10
1.1955081577082036
 20
5.051106138602657
 30
2.2584057621204887
  0
CIRCLE
  5
C4
330
17
100
AcDbEntity
  8
keypoints
100
AcDbCircle
 10
1.1955081577082036
 20
5.051106138602657
 30
2.2584057621204887
 40
0.05
  0
POINT
  5
C5
330
17
100
AcDbEntity
  8
0
100
AcDbPoint
 10
4.096013222435673
 20
3.84253222235463
 30
2.2065053876166423
  0
CIRCLE
  5
C6
330
17
100
AcDbEntity
  8
keypoints
100
AcDbCircle
 10
4.096013222435673
 20
3.84253222235463
 30
2.2065053876166423
 40
0.05
  0
POINT
  5
C7
330
17
100
AcDbEntity
  8
0
100
AcDbPoint
 10
-1.2151906758133653
 20
-2.071744593615116
 30
2.1950171403913226
  0
CIRCLE
  5
C8
330
17
100
AcDbEntity
  8
keypoints
100
AcDbCircle
 10
-1.2151906758133653
 20
-2.071744593615116
 30
2.1950171403913226
 40
0.05
  0
POINT
  5
C9
330
17
100
AcDbEntity
  8
0
100
AcDbPoint
 10
-1.0050498799035472
 20
2.8285101348471207
 30
2.245997821646053
  0
CIRCLE
  5
CA
330
17
100
AcDbEntity
  8
keypoints
100
AcDbCircle
 10
-1.0050498799035472
 20
2.8285101348471207
 30
2.245997821646053
 40
0.05
  0
POINT
  5
CB
330
17
100
AcDbEntity
  8
0
100
AcDbPoint
 10
0.9102889155118901
 20
5.073238009248407
 30
2.228133481540215
  0
CIRCLE
  5
CC
330
17
100
AcDbEntity
  8
keypoints
100
AcDbCircle
 10
0.9102889155118901
 20
5.073238009248407
 30
2.228133481540215
 40
0.05
  0
POINT
  5
CD
330
17
100
AcDbEntity
  8
0
100
AcDbPoint
 10
-0.49471496372932894
 20
3.4941072387599155
 30
2.249481971450692
  0
CIRCLE
  5
CE
330
17
100
AcDbEntity
  8
keypoints
100
AcDbCircle
 10
-0.49471496372932894
 20
3.4941072387599155
 30
2.249481971450692
 40
0.05
  0
POINT
  5
CF
330
17
100
AcDbEntity
  8
0
100
AcDbPoint
 10
-0.7873798853806546
 20
4.178477500236622
 30
2.2576039659506035
  0
CIRCLE
  5
D0
330
17
100
AcDbEntity
  8
keypoints
100
AcDbCircle
 10
-0.7873798853806546
 20
4.178477500236622
 30
2.2576039659506035
 40
0.05
  0
POINT
  5
D1
330
17
100
AcDbEntity
  8
0
100
AcDbPoint
 10
-0.8075748847736128
 20
-2.9074814736221697
 30
2.2658087388281762
  0
CIRCLE
  5
D2
330
17
100
AcDbEntity
  8
keypoints
100
AcDbCircle
 10
-0.8075748847736128
 20
-2.9074814736221697
 30
2.2658087388281762
 40
0.05
  0
POINT
  5
D3
330
17
100
AcDbEntity
  8
0
100
AcDbPoint
 10
-0.8721085199031366
 20
0.7346272003789606
 30
2.255477008992908
  0
CIRCLE
  5
D4
330
17
100
AcDbEntity
  8
keypoints
100
AcDbCircle
 10
-0.8721085199031366
 20
0.7346272003789606
 30
2.255477008992908
 40
0.05
  0
POINT
  5
D5
330
17
100
AcDbEntity
  8
0
100
AcDbPoint
 10
-1.986116005433181
 20
0.7286547243748664
 30
2.2597526924390507
  0
CIRCLE
  5
D6
330
17
100
AcDbEntity
  8
keypoints
100
AcDbCircle
 10
-1.986116005433181
 20
0.7286547243748664
 30
2.2597526924390507
 40
0.05
  0
POINT
  5
D7
330
17
100
AcDbEntity
  8
0
100
AcDbPoint
 10
-0.6069291512807036
 20
2.392823799176728
 30
2.232714911669956
  0
CIRCLE
  5
D8
330
17
100
AcDbEntity
  8
keypoints
100
AcDbCircle
 10
-0.6069291512807036
 20
2.392823799176728
 30
2.232714911669956
 40
0.05
  0
POINT
  5
D9
330
17
100
AcDbEntity
  8
0
100
AcDbPoint
 10
-4.007495592472121
 20
5.077799221432066
 30
2.247263405102181
  0
CIRCLE
  5
DA
330
17
100
AcDbEntity
  8
keypoints
100
AcDbCircle
 10
-4.007495592472121
 20
5.077799221432066
 30
2.247263405102181
 40
0.05
  0
POINT
  5
DB
330
17
100
AcDbEntity
  8
0
100
AcDbPoint
 10
-3.257445445253057
 20
5.030864720379064
 30
2.2218561548460904
  0
CIRCLE
  5
DC
330
17
100
AcDbEntity
  8
keypoints
100
AcDbCircle
 10
-3.257445445253057
 20
5.030864720379064
 30
2.2218561548460904
 40
0.05
  0
POINT
  5
DD
330
17
100
AcDbEntity
  8
0
100
AcDbPoint
 10
-4.619481473843353
 20
5.0030149379693745
 30
2.22509876284808
  0
CIRCLE
  5
DE
330
17
100
AcDbEntity
  8
keypoints
100
AcDbCircle
 10
-4.619481473843353
 20
5.0030149379693745
 30
2.22509876284808
 40
0.05
  0
POINT
  5
DF
330
17
100
AcDbEntity
  8
0
100
AcDbPoint
 10
5.15010828857115
 20
0.24444700192041302
 30
2.168606038163929
  0
CIRCLE
  5
E0
330
17
100
AcDbEntity
  8
keypoints
100
AcDbCircle
 10
5.15010828857115
 20
0.24444700192041302
 30
2.168606038163929
 40
0.05
  0
POINT
  5
E1
330
17
100
AcDbEntity
  8
0
100
AcDbPoint
 10
-1.6486208139112706
 20
-2.1468797955071324
 30
2.2624267118094936
  0
CIRCLE
  5
E2
330
17
100
AcDbEntity
  8
keypoints
100
AcDbCircle
 10
-1.6486208139112706
 20
-2.1468797955071324
 30
2.2624267118094936
 40
0.05
  0
POINT
  5
E3
330
17
100
AcDbEntity
  8
0
100
AcDbPoint
 10
-1.4778017764929618
 20
4.043291557832784
 30
2.2231698161505813
  0
CIRCLE
  5
E4
330
17
100
AcDbEntity
  8
keypoints
100
AcDbCircle
 10
-1.4778017764929618
 20
4.043291557832784
 30
2.2231698161505813
 40
0.05
  0
POINT
  5
E5
330
17
100
AcDbEntity
  8
0
100
AcDbPoint
 10
3.131819112069109
 20
1.0025478340437597
 30
2.2628731926492636
  0
CIRCLE
  5
E6
330
17
100
AcDbEntity
  8
keypoints
100
AcDbCircle
 10
3.131819112069109
 20
1.0025478340437597
 30
2.2628731926492636
 40
0.05
  0
POINT
  5
E7
330
17
100
AcDbEntity
  8
0
100
AcDbPoint
 10
2.015097550659191
 20
-2.161848752952368
 30
2.2215073370253444
  0
CIRCLE
  5
E8
330
17
100
AcDbEntity
  8
keypoints
100
AcDbCircle
 10
2.015097550659191
 20
-2.161848752952368
 30
2.2215073370253444
 40
0.05
  0
POINT
  5
E9
330
17
100
AcDbEntity
  8
0
100
AcDbPoint
 10
2.841658326487532
 20
1.3308263094223547
 30
2.1788110461411554
  0
CIRCLE
  5
EA
330
17
100
AcDbEntity
  8
keypoints
100
AcDbCircle
 10
2.841658326487532
 20
1.3308263094223547
 30
2.1788110461411554
 40
0.05
  0
POINT
  5
EB
330
17
100
AcDbEntity
  8
0
100
AcDbPoint
 10
-4.806300577071467
 20
2.7938063923703877
 30
2.195178368938067
  0
CIRCLE
  5
EC
330
17
100
AcDbEntity
  8
keypoints
100
AcDbCircle
 10
-4.806300577071467
 20
2.7938063923703877
 30
2.195178368938067
 40
0.05
  0
POINT
  5
ED
330
17
100
AcDbEntity
  8
0
100
AcDbPoint
 10
-1.6349612569161367
 20
-1.6234493858499712
 30
2.2615927336198736
  0
CIRCLE
  5
EE
330
17
100
AcDbEntity
  8
keypoints
100
AcDbCircle
 10
-1.6349612569161367
 20
-1.6234493858499712
 30
2.2615927336198736
 40
0.05
  0
POINT
  5
EF
330
17
100
AcDbEntity
  8
0
100
AcDbPoint
 10
4.9995541072203915
 20
0.39646794043209455
 30
2.1694210338971676
  0
CIRCLE
  5
F0
330
17
100
AcDbEntity
  8
keypoints
100
AcDbCircle
 10
4.9995541072203915
 20
0.39646794043209455
 30
2.1694210338971676
 40
0.05
  0
POINT
  5
F1
330
17
100
AcDbEntity
  8
0
100
AcDbPoint
 10
3.5449056782871193
 20
1.9994561107775748
 30
2.1717008456703937
  0
CIRCLE
  5
F2
330
17
100
AcDbEntity
  8
keypoints
100
AcDbCircle
 10
3.5449056782871193
 20
1.9994561107775748
 30
2.1717008456703937
 40
0.05
  0
POINT
  5
F3
330
17
100
AcDbEntity
  8
0
100
AcDbPoint
 10
4.592514280931204
 20
-0.10719021808882379
 30
2.260361557419324
  0
CIRCLE
  5
F4
330
17
100
AcDbEntity
  8
keypoints
100
AcDbCircle
 10
4.592514280931204
 20
-0.10719021808882379
 30
2.260361557419324
 40
0.05
  0
POINT
  5
F5
330
17
100
AcDbEntity
  8
0
100
AcDbPoint
 10
2.2910131475754034
 20
-0.20358924916200283
 30
2.200952990324029
  0
CIRCLE
  5
F6
330
17
100
AcDbEntity
  8
keypoints
100
AcDbCircle
 10
2.2910131475754034
 20
-0.20358924916200283
 30
2.200952990324029
 40
0.05
  0
POINT
  5
F7
330
17
100
AcDbEntity
  8
0
100
AcDbPoint
 10
-1.4569244784025142
 20
-2.651640857641974
 30
2.246251255834964
  0
CIRCLE
  5
F8
330
17
100
AcDbEntity
  8
keypoints
100
AcDbCircle
 10
-1.4569244784025142
 20
-2.651640857641974
 30
2.246251255834964
 40
0.05
  0
POINT
  5
F9
330
17
100
AcDbEntity
  8
0
100
AcDbPoint
 10
-2.078580560639782
 20
0.0014550232699608312
 30
2.172104671176484
  0
CIRCLE
  5
FA
330
17
100
AcDbEntity
  8
keypoints
100
AcDbCircle
 10
-2.078580560639782
 20
0.0014550232699608312
 30
2.172104671176484
 40
0.05
  0
POINT
  5
FB
330
17
100
AcDbEntity
  8
0
100
AcDbPoint
 10
-1.27738737056098
 20
-2.5547958494503353
 30
2.1817360538751656
  0
CIRCLE
  5
FC
330
17
100
AcDbEntity
  8
keypoints
100
AcDbCircle
 10
-1.27738737056098
 20
-2.5547958494503353
 30
2.1817360538751656
 40
0.05
  0
POINT
  5
FD
330
17
100
AcDbEntity
  8
0
100
AcDbPoint
 10
1.93746514469559
 20
-2.7059631883855735
 30
2.2117878691725235
  0
CIRCLE
  5
FE
330
17
100
AcDbEntity
  8
keypoints
100
AcDbCircle
 10
1.93746514469559
 20
-2.7059631883855735
 30
2.2117878691725235
 40
0.05
  0
POINT
  5
FF
330
17
100
AcDbEntity
  8
0
100
AcDbPoint
 10
4.3709095429793114
 20
4.984124459285738
 30
2.1970794581169892
  0
CIRCLE
  5
100
330
17
100
AcDbEntity
  8
keypoints
100
AcDbCircle
 10
4.3709095429793114
 20
4.984124459285738
 30
2.1970794581169892
 40
0.05
  0
POINT
  5
101
330
17
100
AcDbEntity
  8
0
100
AcDbPoint
 10
2.5748478348421275
 20
0.24290383498470103
 30
2.172357209208166
  0
CIRCLE
  5
102
330
17
100
AcDbEntity
  8
keypoints
100
AcDbCircle
 10
2.5748478348421275
 20
0.24290383498470103
 30
2.172357209208166
 40
0.05
  0
POINT
  5
103
330
17
100
AcDbEntity
  8
0
100
AcDbPoint
 10
-0.5272346926044866
 20
2.5643954868500525
 30
2.1789251279884665
  0
CIRCLE
  5
104
330
17
100
AcDbEntity
  8
keypoints
100
AcDbCircle
 10
-0.5272346926044866
 20
2.5643954868500525
 30
2.1789251279884665
 40
0.05
  0
POINT
  5
105
330
17
100
AcDbEntity
  8
0
100
AcDbPoint
 10
-4.641373180328354
 20
-0.48389159064940546
 30
2.2505829288138175
  0
CIRCLE
  5
106
330
17
100
AcDbEntity
  8
keypoints
100
AcDbCircle
 10
-4.641373180328354
 20
-0.48389159064940546
 30
2.2505829288138175
 40
0.05
  0
POINT
  5
107
330
17
100
AcDbEntity
  8
0
100
AcDbPoint
 10
-1.4896486007907057
 20
0.9218561953216855
 30
2.2254798033841694
  0
CIRCLE
  5
108
330
17
100
AcDbEntity
  8
keypoints
100
AcDbCircle
 10
-1.4896486007907057
 20
0.9218561953216855
 30
2.2254798033841694
 40
0.05
  0
POINT
  5
109
330
17
100
AcDbEntity
  8
0
100
AcDbPoint
 10
-0.8032838877546165
 20
2.5090995932488553
 30
2.244607924041603
  0
CIRCLE
  5
10A
330
17
100
AcDbEntity
  8
keypoints
100
AcDbCircle
 10
-0.8032838877546165
 20
2.5090995932488553
 30
2.244607924041603
 40
0.05
  0
POINT
  5
10B
330
17
100
AcDbEntity
  8
0
100
AcDbPoint
 10
0.5943749534162814
 20
-3.1026607697593533
 30
2.2113823509609754
  0
CIRCLE
  5
10C
330
17
100
AcDbEntity
  8
keypoints
100
AcDbCircle
 10
0.5943749534162814
 20
-3.1026607697593533
 30
2.2113823509609754
 40
0.05
  0
POINT
  5
10D
330
17
100
AcDbEntity
  8
0
100
AcDbPoint
 10
-1.5743434679159016
 20
3.193920808674447
 30
2.2588058722467617
  0
CIRCLE
  5
10E
330
17
100
AcDbEntity
  8
keypoints
100
AcDbCircle
 10
-1.5743434679159016
 20
3.193920808674447
 30
2.2588058722467617
 40
0.05
  0
POINT
  5
10F
330
17
100
AcDbEntity
  8
0
100
AcDbPoint
 10
-1.8146944740203328
 20
2.794780568802083
 30
2.1963754238886546
  0
CIRCLE
  5
110
330
17
100
AcDbEntity
  8
keypoints
100
AcDbCircle
 10
-1.8146944740203328
 20
2.794780568802083
 30
2.1963754238886546
 40
0.05
  0
POINT
  5
111
330
17
100
AcDbEntity
  8
0
100
AcDbPoint
 10
0.29849404653999584
 20
-3.5959811227825558
 30
2.259509586435308
  0
CIRCLE
  5
112
330
17
100
AcDbEntity
  8
keypoints
100
AcDbCircle
 10
0.29849404653999584
 20
-3.5959811227825558
 30
2.259509586435308
 40
0.05
  0
POINT
  5
113
330
17
100
AcDbEntity
  8
0
100
AcDbPoint
 10
4.857716129113519
 20
0.6018246616398053
 30
2.16810251656794
  0
CIRCLE
  5
114
330
17
100
AcDbEntity
  8
keypoints
100
AcDbCircle
 10
4.857716129113519
 20
0.6018246616398053
 30
2.16810251656794
 40
0.05
  0
POINT
  5
115
330
17
100
AcDbEntity
  8
0
100
AcDbPoint
 10
1.7954212777442493
 20
-3.317238450818233
 30
2.2502121147560703
  0
CIRCLE
  5
116
330
17
100
AcDbEntity
  8
keypoints
100
AcDbCircle
 10
1.7954212777442493
 20
-3.317238450818233
 30
2.2502121147560703
 40
0.05
  0
POINT
  5
117
330
17
100
AcDbEntity
  8
0
100
AcDbPoint
 10
2.1534572306288586
 20
-1.2064216480429695
 30
2.1853899864591684
  0
CIRCLE
  5
118
330
17
100
AcDbEntity
  8
keypoints
100
AcDbCircle
 10
2.1534572306288586
 20
-1.2064216480429695
 30
2.1853899864591684
 40
0.05
  0
POINT
  5
119
330
17
100
AcDbEntity
  8
0
100
AcDbPoint
 10
-1.5035335232613234
 20
-1.3029045092087068
 30
2.2608404135793685
  0
CIRCLE
  5
11A
330
17
100
AcDbEntity
  8
keypoints
100
AcDbCircle
 10
-1.5035335232613234
 20
-1.3029045092087068
 30
2.2608404135793685
 40
0.05
  0
POINT
  5
11B
330
17
100
AcDbEntity
  8
0
100
AcDbPoint
 10
-0.32202103024904427
 20
4.853568885988775
 30
2.2632719002578687
  0
CIRCLE
  5
11C
330
17
100
AcDbEntity
  8
keypoints
100
AcDbCircle
 10
-0.32202103024904427
 20
4.853568885988775
 30
2.2632719002578687
 40
0.05
  0
POINT
  5
11D
330
17
100
AcDbEntity
  8
0
100
AcDbPoint
 10
4.044250849150665
 20
0.29642577985915675
 30
2.2644649716397867
  0
CIRCLE
  5
11E
330
17
100
AcDbEntity
  8
keypoints
100
AcDbCircle
 10
4.044250849150665
 20
0.29642577985915675
 30
2.2644649716397867
 40
0.05
  0
POINT
  5
11F
330
17
100
AcDbEntity
  8
0
100
AcDbPoint
 10
-2.3061456425718343
 20
4.992124891308507
 30
2.2039083703142985
  0
CIRCLE
  5
120
330
17
100
AcDbEntity
  8
keypoints
100
AcDbCircle
 10
-2.3061456425718343
 20
4.992124891308507
 30
2.2039083703142985
 40
0.05
  0
POINT
  5
121
330
17
100
AcDbEntity
  8
0
100
AcDbPoint
 10
-1.2641972800290933
 20
-2.7504848124907344
 30
2.253810916125212
  0
CIRCLE
  5
122
330
17
100
AcDbEntity
  8
keypoints
100
AcDbCircle
 10
-1.2641972800290933
 20
-2.7504848124907344
 30
2.253810916125212
 40
0.05
  0
POINT
  5
123
330
17
100
AcDbEntity
  8
0
100
AcDbPoint
 10
2.585335940339539
 20
1.8029066241420901
 30
2.180177860175465
  0
CIRCLE
  5
124
330
17
100
AcDbEntity
  8
keypoints
100
AcDbCircle
 10
2.585335940339539
 20
1.8029066241420901
 30
2.180177860175465
 40
0.05
  0
POINT
  5
125
330
17
100
AcDbEntity
  8
0
100
AcDbPoint
 10
-1.1637563261006258
 20
-1.8698442391338468
 30
2.1916995783862334
  0
CIRCLE
  5
126
330
17
100
AcDbEntity
  8
keypoints
100
AcDbCircle
 10
-1.1637563261006258
 20
-1.8698442391338468
 30
2.1916995783862334
 40
0.05
  0
POINT
  5
127
330
17
100
AcDbEntity
  8
0
100
AcDbPoint
 10
4.79312245094112
 20
6.748917070893055
 30
2.202075915917555
  0
CIRCLE
  5
128
330
17
100
AcDbEntity
  8
keypoints
100
AcDbCircle
 10
4.79312245094112
 20
6.748917070893055
 30
2.202075915917555
 40
0.05
  0
POINT
  5
129
330
17
100
AcDbEntity
  8
0
100
AcDbPoint
 10
2.034660692207044
 20
-2.154260823780562
 30
2.171858698581765
  0
CIRCLE
  5
12A
330
17
100
AcDbEntity
  8
keypoints
100
AcDbCircle
 10
2.034660692207044
 20
-2.154260823780562
 30
2.171858698581765
 40
0.05
  0
POINT
  5
12B
330
17
100
AcDbEntity
  8
0
100
AcDbPoint
 10
-0.9675562647987619
 20
0.0498377118551685
 30
2.1917131737589566
  0
CIRCLE
  5
12C
330
17
100
AcDbEntity
  8
keypoints
100
AcDbCircle
 10
-0.9675562647987619
 20
0.0498377118551685
 30
2.1917131737589566
 40
0.05
  0
POINT
  5
12D
330
17
100
AcDbEntity
  8
0
100
AcDbPoint
 10
-1.5555489719554318
 20
3.4433343074430063
 30
2.211956388034456
  0
CIRCLE
  5
12E
330
17
100
AcDbEntity
  8
keypoints
100
AcDbCircle
 10
-1.5555489719554318
 20
3.4433343074430063
 30
2.211956388034456
 40
0.05
  0
POINT
  5
12F
330
17
100
AcDbEntity
  8
0
100
AcDbPoint
 10
2.939610148901607
 20
1.0915708558756987
 30
2.187564786999129
  0
CIRCLE
  5
130
330
17
100
AcDbEntity
  8
keypoints
100
AcDbCircle
 10
2.939610148901607
 20
1.0915708558756987
 30
2.187564786999129
 40
0.05
  0
POINT
  5
131
330
17
100
AcDbEntity
  8
0
100
AcDbPoint
 10
1.445508293503892
 20
4.982195758538479
 30
2.1903229435730758
  0
CIRCLE
  5
132
330
17
100
AcDbEntity
  8
keypoints
100
AcDbCircle
 10
1.445508293503892
 20
4.982195758538479
 30
2.1903229435730758
 40
0.05
  0
POINT
  5
133
330
17
100
AcDbEntity
  8
0
100
AcDbPoint
 10
0.5964622298810607
 20
5.027097373125937
 30
2.202667890603841
  0
CIRCLE
  5
134
330
17
100
AcDbEntity
  8
keypoints
100
AcDbCircle
 10
0.5964622298810607
 20
5.027097373125937
 30
2.202667890603841
 40
0.05
  0
POINT
  5
135
330
17
100
AcDbEntity
  8
0
100
AcDbPoint
 10
-0.3727297840769486
 20
4.44619956221699
 30
2.245115945399316
  0
CIRCLE
  5
136
330
17
100
AcDbEntity
  8
keypoints
100
AcDbCircle
 10
-0.3727297840769486
 20
4.44619956221699
 30
2.245115945399316
 40
0.05
  0
POINT
  5
137
330
17
100
AcDbEntity
  8
0
100
AcDbPoint
 10
3.9368147434030814
 20
3.3443474053963813
 30
2.2458929505762697
  0
CIRCLE
  5
138
330
17
100
AcDbEntity
  8
keypoints
100
AcDbCircle
 10
3.9368147434030814
 20
3.3443474053963813
 30
2.2458929505762697
 40
0.05
  0
POINT
  5
139
330
17
100
AcDbEntity
  8
0
100
AcDbPoint
 10
-4.7375124405172855
 20
3.993074650792531
 30
2.210210600380505
  0
CIRCLE
  5
13A
330
17
100
AcDbEntity
  8
keypoints
100
AcDbCircle
 10
-4.7375124405172855
 20
3.993074650792531
 30
2.210210600380505
 40
0.05
  0
POINT
  5
13B
330
17
100
AcDbEntity
  8
0
100
AcDbPoint
 10
4.604500342479041
 20
5.636751380230729
 30
2.24235605472618
  0
CIRCLE
  5
13C
330
17
100
AcDbEntity
  8
keypoints
100
AcDbCircle
 10
4.604500342479041
 20
5.636751380230729
 30
2.24235605472618
 40
0.05
  0
POINT
  5
13D
330
17
100
AcDbEntity
  8
0
100
AcDbPoint
 10
4.1246978461723645
 20
4.012446522943478
 30
2.2197347281428845
  0
CIRCLE
  5
13E
330
17
100
AcDbEntity
  8
keypoints
100
AcDbCircle
 10
4.1246978461723645
 20
4.012446522943478
 30
2.2197347281428845
 40
0.05
  0
POINT
  5
13F
330
17
100
AcDbEntity
  8
0
100
AcDbPoint
 10
-0.5085211069966445
 20
2.810187534817641
 30
2.2262502776818756
  0
CIRCLE
  5
140
330
17
100
AcDbEntity
  8
keypoints
100
AcDbCircle
 10
-0.5085211069966445
 20
2.810187534817641
 30
2.2262502776818756
 40
0.05
  0
POINT
  5
141
330
17
100
AcDbEntity
  8
0
100
AcDbPoint
 10
2.0793049332419162
 20
-1.8032879065683958
 30
2.2301046349266582
  0
CIRCLE
  5
142
330
17
100
AcDbEntity
  8
keypoints
100
AcDbCircle
 10
2.0793049332419162
 20
-1.8032879065683958
 30
2.2301046349266582
 40
0.05
  0
POINT
  5
143
330
17
100
AcDbEntity
  8
0
100
AcDbPoint
 10
-1.0561333446257957
 20
0.9013265003169353
 30
2.202187592955799
  0
CIRCLE
  5
144
330
17
100
AcDbEntity
  8
keypoints
100
AcDbCircle
 10
-1.0561333446257957
 20
0.9013265003169353
 30
2.202187592955799
 40
0.05
  0
POINT
  5
145
330
17
100
AcDbEntity
  8
0
100
AcDbPoint
 10
4.229761311657716
 20
4.349968385865573
 30
2.2166969133284673
  0
CIRCLE
  5
146
330
17
100
AcDbEntity
  8
keypoints
100
AcDbCircle
 10
4.229761311657716
 20
4.349968385865573
 30
2.2166969133284673
 40
0.05
  0
POINT
  5
147
330
17
100
AcDbEntity
  8
0
100
AcDbPoint
 10
-4.885307142095265
 20
2.0081268263885304
 30
2.25750448645975
  0
CIRCLE
  5
148
330
17
100
AcDbEntity
  8
keypoints
100
AcDbCircle
 10
-4.885307142095265
 20
2.0081268263885304
 30
2.25750448645975
 40
0.05
  0
POINT
  5
149
330
17
100
AcDbEntity
  8
0
100
AcDbPoint
 10
-2.4066886981339164
 20
-0.70969880241944
 30
2.237023623813442
  0
CIRCLE
  5
14A
330
17
100
AcDbEntity
  8
keypoints
100
AcDbCircle
 10
-2.4066886981339164
 20
-0.70969880241944
 30
2.237023623813442
 40
0.05
  0
POINT
  5
14B
330
17
100
AcDbEntity
  8
0
100
AcDbPoint
 10
0.7446372605411031
 20
-3.12097930976097
 30
2.216536536081393
  0
CIRCLE
  5
14C
330
17
100
AcDbEntity
  8
keypoints
100
AcDbCircle
 10
0.7446372605411031
 20
-3.12097930976097
 30
2.216536536081393
 40
0.05
  0
POINT
  5
14D
330
17
100
AcDbEntity
  8
0
100
AcDbPoint
 10
4.840012106487874
 20
7.049095293446075
 30
2.262088676515166
  0
CIRCLE
  5
14E
330
17
100
AcDbEntity
  8
keypoints
100
AcDbCircle
 10
4.840012106487874
 20
7.049095293446075
 30
2.262088676515166
 40
0.05
  0
POINT
  5
14F
330
17
100
AcDbEntity
  8
0
100
AcDbPoint
 10
-2.0566768405148843
 20
4.972460214553981
 30
2.260309654399868
  0
CIRCLE
  5
150
330
17
100
AcDbEntity
  8
keypoints
100
AcDbCircle
 10
-2.0566768405148843
 20
4.972460214553981
 30
2.260309654399868
 40
0.05
  0
POINT
  5
151
330
17
100
AcDbEntity
  8
0
100
AcDbPoint
 10
-0.5193248472186887
 20
3.7917567350561017
 30
2.2448756465939184
  0
CIRCLE
  5
152
330
17
100
AcDbEntity
  8
keypoints
100
AcDbCircle
 10
-0.5193248472186887
 20
3.7917567350561017
 30
2.2448756465939184
 40
0.05
  0
LINE
  5
153
330
17
100
AcDbEntity
  8
lines
100
AcDbLine
 10
4.646421258089099
 20
1.0312459934947427
 30
2.168752977903529
 11
4.857716129113519
 21
0.6018246616398053
 31
2.16810251656794
  0
LINE
  5
154
330
17
100
AcDbEntity
  8
lines
100
AcDbLine
 10
4.646421258089099
 20
1.0312459934947427
 30
2.168752977903529
 11
4.9995541072203915
 21
0.39646794043209455
 31
2.1694210338971676
  0
LINE
  5
155
330
17
100
AcDbEntity
  8
lines
100
AcDbLine
 10
2.671565474444929
 20
1.6617751752925733
 30
2.2555581550771104
 11
2.585335940339539
 21
1.8029066241420901
 31
2.180177860175465
  0
LINE
  5
156
330
17
100
AcDbEntity
  8
lines
100
AcDbLine
 10
2.671565474444929
 20
1.6617751752925733
 30
2.2555581550771104
 11
2.841658326487532
 21
1.3308263094223547
 31
2.1788110461411554
  0
LINE
  5
157
330
17
100
AcDbEntity
  8
lines
100
AcDbLine
 10
1.049726487238044
 20
-3.1829905041737803
 30
2.2399604664675152
 11
1.3514243851108556
 21
-3.1384727556457293
 31
2.1942380395137633
  0
LINE
  5
158
330
17
100
AcDbEntity
  8
lines
100
AcDbLine
 10
1.049726487238044
 20
-3.1829905041737803
 30
2.2399604664675152
 11
0.7446372605411031
 21
-3.12097930976097
 31
2.216536536081393
  0
LINE
  5
159
330
17
100
AcDbEntity
  8
lines
100
AcDbLine
 10
0.1602215433768051
 20
-3.5867903586985603
 30
2.259633807624735
 11
0.29849404653999584
 21
-3.5959811227825558
 31
2.259509586435308
  0
LINE
  5
15A
330
17
100
AcDbEntity
  8
lines
100
AcDbLine
 10
0.1602215433768051
 20
-3.5867903586985603
 30
2.259633807624735
 11
0.4394457044636912
 21
-3.588118827572525
 31
2.263885622580987
  0
LINE
  5
15B
330
17
100
AcDbEntity
  8
lines
100
AcDbLine
 10
-0.021835709246560808
 20
5.170821318157054
 30
2.2141219560650933
 11
-0.32202103024904427
 21
4.853568885988775
 31
2.2632719002578687
  0
LINE
  5
15C
330
17
100
AcDbEntity
  8
lines
100
AcDbLine
 10
-0.021835709246560808
 20
5.170821318157054
 30
2.2141219560650933
 11
0.5964622298810607
 21
5.027097373125937
 31
2.202667890603841
  0
LINE
  5
15D
330
17
100
AcDbEntity
  8
lines
100
AcDbLine
 10
-4.289092927323809
 20
5.0678778852804385
 30
2.2106704128757886
 11
-4.007495592472121
 21
5.077799221432066
 31
2.247263405102181
  0
LINE
  5
15E
330
17
100
AcDbEntity
  8
lines
100
AcDbLine
 10
-4.289092927323809
 20
5.0678778852804385
 30
2.2106704128757886
 11
-4.619481473843353
 21
5.0030149379693745
 31
2.22509876284808
  0
LINE
  5
15F
330
17
100
AcDbEntity
  8
lines
100
AcDbLine
 10
5.153656230443359
 20
-0.5455630543702503
 30
2.265824646056955
 11
5.343998529938904
 21
-0.4541572322136911
 31
2.241533519815092
  0
LINE
  5
160
330
17
100
AcDbEntity
  8
lines
100
AcDbLine
 10
5.153656230443359
 20
-0.5455630543702503
 30
2.265824646056955
 11
4.938546861733042
 21
-0.4173641431575972
 31
2.2642254271768083
  0
LINE
  5
161
330
17
100
AcDbEntity
  8
lines
100
AcDbLine
 10
5.255518872969577
 20
0.15358357943570367
 30
2.1763226116514174
 11
5.15010828857115
 21
0.24444700192041302
 31
2.168606038163929
  0
LINE
  5
162
330
17
100
AcDbEntity
  8
lines
100
AcDbLine
 10
5.255518872969577
 20
0.15358357943570367
 30
2.1763226116514174
 11
5.381930789861486
 21
-0.10658259156572303
 31
2.1965739021257202
  0
LINE
  5
163
330
17
100
AcDbEntity
  8
lines
100
AcDbLine
 10
3.8206303322695123
 20
2.9261520089108863
 30
2.245084462200778
 11
3.9368147434030814
 21
3.3443474053963813
 31
2.2458929505762697
  0
LINE
  5
164
330
17
100
AcDbEntity
  8
lines
100
AcDbLine
 10
3.8206303322695123
 20
2.9261520089108863
 30
2.245084462200778
 11
3.7155201814666015
 21
2.3815032106573706
 31
2.185676588517251
  0
LINE
  5
165
330
17
100
AcDbEntity
  8
lines
100
AcDbLine
 10
1.3514243851108556
 20
-3.1384727556457293
 30
2.1942380395137633
 11
1.4926922401856395
 21
-3.262482912541584
 31
2.241593578262597
  0
LINE
  5
166
330
17
100
AcDbEntity
  8
lines
100
AcDbLine
 10
-1.8337555498557683
 20
2.2540209928649144
 30
2.1873507277259754
 11
-1.8146944740203328
 21
2.794780568802083
 31
2.1963754238886546
  0
LINE
  5
167
330
17
100
AcDbEntity
  8
lines
100
AcDbLine
 10
-1.8337555498557683
 20
2.2540209928649144
 30
2.1873507277259754
 11
-1.5743434679159016
 21
3.193920808674447
 31
2.2588058722467617
  0
LINE
  5
168
330
17
100
AcDbEntity
  8
lines
100
AcDbLine
 10
-4.022464054281082
 20
-0.5290713881458904
 30
2.254617198597477
 11
-4.257263727937537
 21
-0.5168350658125183
 31
2.1779142425999565
  0
LINE
  5
169
330
17
100
AcDbEntity
  8
lines
100
AcDbLine
 10
-4.022464054281082
 20
-0.5290713881458904
 30
2.254617198597477
 11
-3.758041107394491
 21
-0.5646666122160593
 31
2.24548633669539
  0
LINE
  5
16A
330
17
100
AcDbEntity
  8
lines
100
AcDbLine
 10
-4.897981753515396
 20
1.5423359701136305
 30
2.244983494303118
 11
-4.899123444832543
 21
1.188857886698893
 31
2.2287524498419975
  0
LINE
  5
16B
330
17
100
AcDbEntity
  8
lines
100
AcDbLine
 10
-4.897981753515396
 20
1.5423359701136305
 30
2.244983494303118
 11
-4.885307142095265
 21
2.0081268263885304
 31
2.25750448645975
  0
LINE
  5
16C
330
17
100
AcDbEntity
  8
lines
100
AcDbLine
 10
-0.48074472278376246
 20
4.253076445851911
 30
2.1809271697963784
 11
-0.3727297840769486
 21
4.44619956221699
 31
2.245115945399316
  0
LINE
  5
16D
330
17
100
AcDbEntity
  8
lines
100
AcDbLine
 10
-0.48074472278376246
 20
4.253076445851911
 30
2.1809271697963784
 11
-0.7873798853806546
 21
4.178477500236622
 31
2.2576039659506035
  0
LINE
  5
16E
330
17
100
AcDbEntity
  8
lines
100
AcDbLine
 10
-4.7919076703382855
 20
3.6002227936426183
 30
2.200914754835571
 11
-4.7375124405172855
 21
3.993074650792531
 31
2.210210600380505
  0
LINE
  5
16F
330
17
100
AcDbEntity
  8
lines
100
AcDbLine
 10
-4.7919076703382855
 20
3.6002227936426183
 30
2.200914754835571
 11
-4.715813720325627
 21
4.143754327757594
 31
2.2650941413945596
  0
LINE
  5
170
330
17
100
AcDbEntity
  8
lines
100
AcDbLine
 10
-3.769269780781866
 20
5.070812075827755
 30
2.2427219579941924
 11
-4.007495592472121
 21
5.077799221432066
 31
2.247263405102181
  0
LINE
  5
171
330
17
100
AcDbEntity
  8
lines
100
AcDbLine
 10
-3.769269780781866
 20
5.070812075827755
 30
2.2427219579941924
 11
-3.257445445253057
 21
5.030864720379064
 31
2.2218561548460904
  0
LINE
  5
172
330
17
100
AcDbEntity
  8
lines
100
AcDbLine
 10
-1.7549601785351903
 20
0.8642290362826163
 30
2.224072285552135
 11
-1.986116005433181
 21
0.7286547243748664
 31
2.2597526924390507
  0
LINE
  5
173
330
17
100
AcDbEntity
  8
lines
100
AcDbLine
 10
-1.7549601785351903
 20
0.8642290362826163
 30
2.224072285552135
 11
-1.4896486007907057
 21
0.9218561953216855
 31
2.2254798033841694
  0
LINE
  5
174
330
17
100
AcDbEntity
  8
lines
100
AcDbLine
 10
-1.0366871648531744
 20
-0.7448395937191059
 30
2.241342920424791
 11
-1.0565355594187373
 21
-1.1535851007265105
 31
2.225137201934582
  0
LINE
  5
175
330
17
100
AcDbEntity
  8
lines
100
AcDbLine
 10
-1.0366871648531744
 20
-0.7448395937191059
 30
2.241342920424791
 11
-1.0047143390691848
 21
-0.30956922651139007
 31
2.1678172470320574
  0
LINE
  5
176
330
17
100
AcDbEntity
  8
lines
100
AcDbLine
 10
2.126626799433712
 20
-1.6372440027223656
 30
2.1684105184365667
 11
2.0793049332419162
 21
-1.8032879065683958
 31
2.2301046349266582
  0
LINE
  5
177
330
17
100
AcDbEntity
  8
lines
100
AcDbLine
 10
2.126626799433712
 20
-1.6372440027223656
 30
2.1684105184365667
 11
2.0538682413988996
 21
-1.9551082684651468
 31
2.2229469252415845
  0
LINE
  5
178
330
17
100
AcDbEntity
  8
lines
100
AcDbLine
 10
-0.07826159487835693
 20
-2.9790265722951705
 30
2.179572609853739
 11
-0.25588435627892125
 21
-2.9631499830758923
 31
2.1747728733279423
  0
LINE
  5
179
330
17
100
AcDbEntity
  8
lines
100
AcDbLine
 10
-0.07826159487835693
 20
-2.9790265722951705
 30
2.179572609853739
 11
-0.254055488630665
 21
-3.5980091032542623
 31
2.2401188813343373
  0
LINE
  5
17A
330
17
100
AcDbEntity
  8
lines
100
AcDbLine
 10
-0.7944798488835509
 20
-3.260231521407091
 30
2.2616740420474724
 11
-0.7020263827306668
 21
-3.5000202708209844
 31
2.2369780839840914
  0
LINE
  5
17B
330
17
100
AcDbEntity
  8
lines
100
AcDbLine
 10
-0.7944798488835509
 20
-3.260231521407091
 30
2.2616740420474724
 11
-0.8075748847736128
 21
-2.9074814736221697
 31
2.2658087388281762
  0
LINE
  5
17C
330
17
100
AcDbEntity
  8
lines
100
AcDbLine
 10
-1.0565355594187373
 20
-1.1535851007265105
 30
2.225137201934582
 11
-1.5035335232613234
 21
-1.3029045092087068
 31
2.2608404135793685
  0
LINE
  5
17D
330
17
100
AcDbEntity
  8
lines
100
AcDbLine
 10
1.9688161968055733
 20
-2.4264399975405215
 30
2.232874749985174
 11
2.015097550659191
 21
-2.161848752952368
 31
2.2215073370253444
  0
LINE
  5
17E
330
17
100
AcDbEntity
  8
lines
100
AcDbLine
 10
1.9688161968055733
 20
-2.4264399975405215
 30
2.232874749985174
 11
1.93746514469559
 21
-2.7059631883855735
 31
2.2117878691725235
  0
LINE
  5
17F
330
17
100
AcDbEntity
  8
lines
100
AcDbLine
 10
2.295987473374201
 20
4.800753522972526
 30
2.2080882396239616
 11
2.747785094492199
 21
4.728059456831172
 31
2.171763043309958
  0
LINE
  5
180
330
17
100
AcDbEntity
  8
lines
100
AcDbLine
 10
2.295987473374201
 20
4.800753522972526
 30
2.2080882396239616
 11
2.920839451425808
 21
4.576277298411891
 31
2.218981154435729
  0
LINE
  5
181
330
17
100
AcDbEntity
  8
lines
100
AcDbLine
 10
2.2361390671370107
 20
-0.6044848629587445
 30
2.1957769633302298
 11
2.2910131475754034
 21
-0.20358924916200283
 31
2.200952990324029
  0
LINE
  5
182
330
17
100
AcDbEntity
  8
lines
100
AcDbLine
 10
2.2361390671370107
 20
-0.6044848629587445
 30
2.1957769633302298
 11
2.1534572306288586
 21
-1.2064216480429695
 31
2.1853899864591684
  0
LINE
  5
183
330
17
100
AcDbEntity
  8
lines
100
AcDbLine
 10
-2.0997962394301406
 20
-0.4062725336863775
 30
2.2017787208935435
 11
-2.1749460433388945
 21
-0.5921463483465013
 31
2.2544010134976675
  0
LINE
  5
184
330
17
100
AcDbEntity
  8
lines
100
AcDbLine
 10
-2.0997962394301406
 20
-0.4062725336863775
 30
2.2017787208935435
 11
-2.078580560639782
 21
0.0014550232699608312
 31
2.172104671176484
  0
LINE
  5
185
330
17
100
AcDbEntity
  8
lines
100
AcDbLine
 10
-2.1749460433388945
 20
-0.5921463483465013
 30
2.2544010134976675
 11
-2.4066886981339164
 21
-0.70969880241944
 31
2.237023623813442
  0
LINE
  5
186
330
17
100
AcDbEntity
  8
lines
100
AcDbLine
 10
-0.708411620583419
 20
1.8862921591036197
 30
2.2210046473742633
 11
-0.6069291512807036
 21
2.392823799176728
 31
2.232714911669956
  0
LINE
  5
187
330
17
100
AcDbEntity
  8
lines
100
AcDbLine
 10
-0.708411620583419
 20
1.8862921591036197
 30
2.2210046473742633
 11
-0.8032838877546165
 21
2.5090995932488553
 31
2.244607924041603
  0
LINE
  5
188
330
17
100
AcDbEntity
  8
lines
100
AcDbLine
 10
1.6338342305064015
 20
4.973683335938755
 30
2.261069743792288
 11
1.445508293503892
 21
4.982195758538479
 31
2.1903229435730758
  0
LINE
  5
189
330
17
100
AcDbEntity
  8
lines
100
AcDbLine
 10
1.6338342305064015
 20
4.973683335938755
 30
2.261069743792288
 11
1.1955081577082036
 21
5.051106138602657
 31
2.2584057621204887
  0
LINE
  5
18A
330
17
100
AcDbEntity
  8
lines
100
AcDbLine
 10
5.343998529938904
 20
-0.4541572322136911
 30
2.241533519815092
 11
5.381930789861486
 21
-0.10658259156572303
 31
2.1965739021257202
  0
LINE
  5
18B
330
17
100
AcDbEntity
  8
lines
100
AcDbLine
 10
2.5706550457198296
 20
2.085277988305406
 30
2.1834075539574935
 11
2.585335940339539
 21
1.8029066241420901
 31
2.180177860175465
  0
LINE
  5
18C
330
17
100
AcDbEntity
  8
lines
100
AcDbLine
 10
1.911940467047985
 20
-2.900327631302898
 30
2.2076907677160964
 11
1.93746514469559
 21
-2.7059631883855735
 31
2.2117878691725235
  0
LINE
  5
18D
330
17
100
AcDbEntity
  8
lines
100
AcDbLine
 10
1.911940467047985
 20
-2.900327631302898
 30
2.2076907677160964
 11
1.7954212777442493
 21
-3.317238450818233
 31
2.2502121147560703
  0
LINE
  5
18E
330
17
100
AcDbEntity
  8
lines
100
AcDbLine
 10
3.3864838719185397
 20
1.5485276269567687
 30
2.2532502492325106
 11
3.5449056782871193
 21
1.9994561107775748
 31
2.1717008456703937
  0
LINE
  5
18F
330
17
100
AcDbEntity
  8
lines
100
AcDbLine
 10
3.3864838719185397
 20
1.5485276269567687
 30
2.2532502492325106
 11
3.389855218089085
 21
1.0473970708717957
 31
2.266485979217135
  0
LINE
  5
190
330
17
100
AcDbEntity
  8
lines
100
AcDbLine
 10
4.938546861733042
 20
-0.4173641431575972
 30
2.2642254271768083
 11
4.743756005385211
 21
-0.20704244460469612
 31
2.2640727092618813
  0
LINE
  5
191
330
17
100
AcDbEntity
  8
lines
100
AcDbLine
 10
-5.0940563907347505
 20
-0.20591948558636108
 30
2.2028140899207536
 11
-4.952273841510231
 21
-0.43891429755097744
 31
2.254444531812534
  0
LINE
  5
192
330
17
100
AcDbEntity
  8
lines
100
AcDbLine
 10
-5.0940563907347505
 20
-0.20591948558636108
 30
2.2028140899207536
 11
-4.641373180328354
 21
-0.48389159064940546
 31
2.2505829288138175
  0
LINE
  5
193
330
17
100
AcDbEntity
  8
lines
100
AcDbLine
 10
3.7155201814666015
 20
2.3815032106573706
 30
2.185676588517251
 11
3.5449056782871193
 21
1.9994561107775748
 31
2.1717008456703937
  0
LINE
  5
194
330
17
100
AcDbEntity
  8
lines
100
AcDbLine
 10
-1.0047143390691848
 20
-0.30956922651139007
 30
2.1678172470320574
 11
-0.9675562647987619
 21
0.0498377118551685
 31
2.1917131737589566
  0
LINE
  5
195
330
17
100
AcDbEntity
  8
lines
100
AcDbLine
 10
-2.012150393512609
 20
0.5947089798803848
 30
2.2657242133921445
 11
-1.986116005433181
 21
0.7286547243748664
 31
2.2597526924390507
  0
LINE
  5
196
330
17
100
AcDbEntity
  8
lines
100
AcDbLine
 10
-4.835356270537755
 20
2.6390338400461113
 30
2.249202046565021
 11
-4.806300577071467
 21
2.7938063923703877
 31
2.195178368938067
  0
LINE
  5
197
330
17
100
AcDbEntity
  8
lines
100
AcDbLine
 10
-4.835356270537755
 20
2.6390338400461113
 30
2.249202046565021
 11
-4.885307142095265
 21
2.0081268263885304
 31
2.25750448645975
  0
LINE
  5
198
330
17
100
AcDbEntity
  8
lines
100
AcDbLine
 10
-3.758041107394491
 20
-0.5646666122160593
 30
2.24548633669539
 11
-4.257263727937537
 21
-0.5168350658125183
 31
2.1779142425999565
  0
LINE
  5
199
330
17
100
AcDbEntity
  8
lines
100
AcDbLine
 10
-4.455639372575943
 20
-0.48982421342558236
 30
2.1714596202997285
 11
-4.257263727937537
 21
-0.5168350658125183
 31
2.1779142425999565
  0
LINE
  5
19A
330
17
100
AcDbEntity
  8
lines
100
AcDbLine
 10
-4.455639372575943
 20
-0.48982421342558236
 30
2.1714596202997285
 11
-4.641373180328354
 21
-0.48389159064940546
 31
2.2505829288138175
  0
LINE
  5
19B
330
17
100
AcDbEntity
  8
lines
100
AcDbLine
 10
2.7684691687139016
 20
3.583269027005409
 30
2.205256791058142
 11
2.790136072314299
 21
3.891633868901584
 31
2.257409746615274
  0
LINE
  5
19C
330
17
100
AcDbEntity
  8
lines
100
AcDbLine
 10
2.8629152080018843
 20
0.4897997564768535
 30
2.213174303419918
 11
2.5748478348421275
 21
0.24290383498470103
 31
2.172357209208166
  0
LINE
  5
19D
330
17
100
AcDbEntity
  8
lines
100
AcDbLine
 10
2.8629152080018843
 20
0.4897997564768535
 30
2.213174303419918
 11
3.131819112069109
 21
1.0025478340437597
 31
2.2628731926492636
  0
LINE
  5
19E
330
17
100
AcDbEntity
  8
lines
100
AcDbLine
 10
2.790136072314299
 20
3.891633868901584
 30
2.257409746615274
 11
2.920839451425808
 21
4.576277298411891
 31
2.218981154435729
  0
LINE
  5
19F
330
17
100
AcDbEntity
  8
lines
100
AcDbLine
 10
-1.5471078528628435
 20
3.8022825749625486
 30
2.2631996937258547
 11
-1.4778017764929618
 21
4.043291557832784
 31
2.2231698161505813
  0
LINE
  5
1A0
330
17
100
AcDbEntity
  8
lines
100
AcDbLine
 10
-1.5471078528628435
 20
3.8022825749625486
 30
2.2631996937258547
 11
-1.5555489719554318
 21
3.4433343074430063
 31
2.211956388034456
  0
LINE
  5
1A1
330
17
100
AcDbEntity
  8
lines
100
AcDbLine
 10
-1.5024588824459557
 20
4.222612892171976
 30
2.2366836671711647
 11
-1.4778017764929618
 21
4.043291557832784
 31
2.2231698161505813
  0
LINE
  5
1A2
330
17
100
AcDbEntity
  8
lines
100
AcDbLine
 10
-1.5371739845149586
 20
-1.466031910628048
 30
2.229924560837195
 11
-1.5035335232613234
 21
-1.3029045092087068
 31
2.2608404135793685
  0
LINE
  5
1A3
330
17
100
AcDbEntity
  8
lines
100
AcDbLine
 10
-1.5371739845149586
 20
-1.466031910628048
 30
2.229924560837195
 11
-1.6349612569161367
 21
-1.6234493858499712
 31
2.2615927336198736
  0
LINE
  5
1A4
330
17
100
AcDbEntity
  8
lines
100
AcDbLine
 10
-4.715813720325627
 20
4.143754327757594
 30
2.2650941413945596
 11
-4.7375124405172855
 21
3.993074650792531
 31
2.210210600380505
  0
LINE
  5
1A5
330
17
100
AcDbEntity
  8
lines
100
AcDbLine
 10
-3.156595001086078
 20
-0.6252164895937156
 30
2.171241853556627
 11
-2.9076554103751886
 21
-0.6440997107193234
 31
2.221511976806543
  0
LINE
  5
1A6
330
17
100
AcDbEntity
  8
lines
100
AcDbLine
 10
2.0538682413988996
 20
-1.9551082684651468
 30
2.2229469252415845
 11
2.0793049332419162
 21
-1.8032879065683958
 31
2.2301046349266582
  0
LINE
  5
1A7
330
17
100
AcDbEntity
  8
lines
100
AcDbLine
 10
2.0538682413988996
 20
-1.9551082684651468
 30
2.2229469252415845
 11
2.029915589528451
 21
-2.148658091613102
 31
2.217975363491234
  0
LINE
  5
1A8
330
17
100
AcDbEntity
  8
lines
100
AcDbLine
 10
0.4394457044636912
 20
-3.588118827572525
 30
2.263885622580987
 11
0.29849404653999584
 21
-3.5959811227825558
 31
2.259509586435308
  0
LINE
  5
1A9
330
17
100
AcDbEntity
  8
lines
100
AcDbLine
 10
-4.899123444832543
 20
1.188857886698893
 30
2.2287524498419975
 11
-5.014253570276438
 21
0.5440254381376528
 31
2.2143748140146653
  0
LINE
  5
1AA
330
17
100
AcDbEntity
  8
lines
100
AcDbLine
 10
4.667471340706232
 20
6.0415171830238
 30
2.219890093950385
 11
4.604500342479041
 21
5.636751380230729
 31
2.24235605472618
  0
LINE
  5
1AB
330
17
100
AcDbEntity
  8
lines
100
AcDbLine
 10
4.667471340706232
 20
6.0415171830238
 30
2.219890093950385
 11
4.79312245094112
 21
6.748917070893055
 31
2.202075915917555
  0
LINE
  5
1AC
330
17
100
AcDbEntity
  8
lines
100
AcDbLine
 10
1.4926922401856395
 20
-3.262482912541584
 30
2.241593578262597
 11
1.7954212777442493
 21
-3.317238450818233
 31
2.2502121147560703
  0
LINE
  5
1AD
330
17
100
AcDbEntity
  8
lines
100
AcDbLine
 10
-0.25588435627892125
 20
-2.9631499830758923
 30
2.1747728733279423
 11
-0.8075748847736128
 21
-2.9074814736221697
 31
2.2658087388281762
  0
LINE
  5
1AE
330
17
100
AcDbEntity
  8
lines
100
AcDbLine
 10
-1.239906978857877
 20
-2.412944168839722
 30
2.1690795957354885
 11
-1.27738737056098
 21
-2.5547958494503353
 31
2.1817360538751656
  0
LINE
  5
1AF
330
17
100
AcDbEntity
  8
lines
100
AcDbLine
 10
-1.239906978857877
 20
-2.412944168839722
 30
2.1690795957354885
 11
-1.4569244784025142
 21
-2.651640857641974
 31
2.246251255834964
  0
LINE
  5
1B0
330
17
100
AcDbEntity
  8
lines
100
AcDbLine
 10
-0.7020263827306668
 20
-3.5000202708209844
 30
2.2369780839840914
 11
-0.254055488630665
 21
-3.5980091032542623
 31
2.2401188813343373
  0
LINE
  5
1B1
330
17
100
AcDbEntity
  8
lines
100
AcDbLine
 10
-4.952273841510231
 20
-0.43891429755097744
 30
2.254444531812534
 11
-4.641373180328354
 21
-0.48389159064940546
 31
2.2505829288138175
  0
LINE
  5
1B2
330
17
100
AcDbEntity
  8
lines
100
AcDbLine
 10
-0.8651084153600415
 20
0.49481869972828796
 30
2.203187291783829
 11
-0.9454685808153191
 21
0.2913352880513427
 31
2.251292827425048
  0
LINE
  5
1B3
330
17
100
AcDbEntity
  8
lines
100
AcDbLine
 10
-0.8651084153600415
 20
0.49481869972828796
 30
2.203187291783829
 11
-0.8721085199031366
 21
0.7346272003789606
 31
2.255477008992908
  0
LINE
  5
1B4
330
17
100
AcDbEntity
  8
lines
100
AcDbLine
 10
-2.9076554103751886
 20
-0.6440997107193234
 30
2.221511976806543
 11
-2.4066886981339164
 21
-0.70969880241944
 31
2.237023623813442
  0
LINE
  5
1B5
330
17
100
AcDbEntity
  8
lines
100
AcDbLine
 10
-2.605649688710121
 20
5.004344861510749
 30
2.2449793604829993
 11
-2.3061456425718343
 21
4.992124891308507
 31
2.2039083703142985
  0
LINE
  5
1B6
330
17
100
AcDbEntity
  8
lines
100
AcDbLine
 10
-2.605649688710121
 20
5.004344861510749
 30
2.2449793604829993
 11
-2.0566768405148843
 21
4.972460214553981
 31
2.260309654399868
  0
LINE
  5
1B7
330
17
100
AcDbEntity
  8
lines
100
AcDbLine
 10
2.029915589528451
 20
-2.148658091613102
 30
2.217975363491234
 11
2.015097550659191
 21
-2.161848752952368
 31
2.2215073370253444
  0
LINE
  5
1B8
330
17
100
AcDbEntity
  8
lines
100
AcDbLine
 10
2.029915589528451
 20
-2.148658091613102
 30
2.217975363491234
 11
2.034660692207044
 21
-2.154260823780562
 31
2.171858698581765
  0
LINE
  5
1B9
330
17
100
AcDbEntity
  8
lines
100
AcDbLine
 10
-0.9454685808153191
 20
0.2913352880513427
 30
2.251292827425048
 11
-0.9675562647987619
 21
0.0498377118551685
 31
2.1917131737589566
  0
LINE
  5
1BA
330
17
100
AcDbEntity
  8
lines
100
AcDbLine
 10
3.389855218089085
 20
1.0473970708717957
 30
2.266485979217135
 11
3.131819112069109
 21
1.0025478340437597
 31
2.2628731926492636
  0
LINE
  5
1BB
330
17
100
AcDbEntity
  8
lines
100
AcDbLine
 10
3.389855218089085
 20
1.0473970708717957
 30
2.266485979217135
 11
2.939610148901607
 21
1.0915708558756987
 31
2.187564786999129
  0
LINE
  5
1BC
330
17
100
AcDbEntity
  8
lines
100
AcDbLine
 10
4.743756005385211
 20
-0.20704244460469612
 30
2.2640727092618813
 11
4.592514280931204
 21
-0.10719021808882379
 31
2.260361557419324
  0
LINE
  5
1BD
330
17
100
AcDbEntity
  8
lines
100
AcDbLine
 10
4.270736019323666
 20
4.592511237457039
 30
2.1819384615835156
 11
4.229761311657716
 21
4.349968385865573
 31
2.2166969133284673
  0
LINE
  5
1BE
330
17
100
AcDbEntity
  8
lines
100
AcDbLine
 10
4.270736019323666
 20
4.592511237457039
 30
2.1819384615835156
 11
4.3709095429793114
 21
4.984124459285738
 31
2.1970794581169892
  0
LINE
  5
1BF
330
17
100
AcDbEntity
  8
lines
100
AcDbLine
 10
4.489625011469419
 20
5.305138086480025
 30
2.2016958650149
 11
4.3709095429793114
 21
4.984124459285738
 31
2.1970794581169892
  0
LINE
  5
1C0
330
17
100
AcDbEntity
  8
lines
100
AcDbLine
 10
4.489625011469419
 20
5.305138086480025
 30
2.2016958650149
 11
4.604500342479041
 21
5.636751380230729
 31
2.24235605472618
  0
LINE
  5
1C1
330
17
100
AcDbEntity
  8
lines
100
AcDbLine
 10
4.998762856202366
 20
6.836626478494963
 30
2.179507701512027
 11
4.79312245094112
 21
6.748917070893055
 31
2.202075915917555
  0
LINE
  5
1C2
330
17
100
AcDbEntity
  8
lines
100
AcDbLine
 10
4.998762856202366
 20
6.836626478494963
 30
2.179507701512027
 11
4.840012106487874
 21
7.049095293446075
 31
2.262088676515166
  0
LINE
  5
1C3
330
17
100
AcDbEntity
  8
lines
100
AcDbLine
 10
2.920839451425808
 20
4.576277298411891
 30
2.218981154435729
 11
2.747785094492199
 21
4.728059456831172
 31
2.171763043309958
  0
LINE
  5
1C4
330
17
100
AcDbEntity
  8
lines
100
AcDbLine
 10
1.1955081577082036
 20
5.051106138602657
 30
2.2584057621204887
 11
1.445508293503892
 21
4.982195758538479
 31
2.1903229435730758
  0
LINE
  5
1C5
330
17
100
AcDbEntity
  8
lines
100
AcDbLine
 10
1.1955081577082036
 20
5.051106138602657
 30
2.2584057621204887
 11
0.9102889155118901
 21
5.073238009248407
 31
2.228133481540215
  0
LINE
  5
1C6
330
17
100
AcDbEntity
  8
lines
100
AcDbLine
 10
4.096013222435673
 20
3.84253222235463
 30
2.2065053876166423
 11
4.1246978461723645
 21
4.012446522943478
 31
2.2197347281428845
  0
LINE
  5
1C7
330
17
100
AcDbEntity
  8
lines
100
AcDbLine
 10
4.096013222435673
 20
3.84253222235463
 30
2.2065053876166423
 11
3.9368147434030814
 21
3.3443474053963813
 31
2.2458929505762697
  0
LINE
  5
1C8
330
17
100
AcDbEntity
  8
lines
100
AcDbLine
 10
-1.2151906758133653
 20
-2.071744593615116
 30
2.1950171403913226
 11
-1.1637563261006258
 21
-1.8698442391338468
 31
2.1916995783862334
  0
LINE
  5
1C9
330
17
100
AcDbEntity
  8
lines
100
AcDbLine
 10
-1.0050498799035472
 20
2.8285101348471207
 30
2.245997821646053
 11
-0.8032838877546165
 21
2.5090995932488553
 31
2.244607924041603
  0
LINE
  5
1CA
330
17
100
AcDbEntity
  8
lines
100
AcDbLine
 10
-1.0050498799035472
 20
2.8285101348471207
 30
2.245997821646053
 11
-0.5085211069966445
 21
2.810187534817641
 31
2.2262502776818756
  0
LINE
  5
1CB
330
17
100
AcDbEntity
  8
lines
100
AcDbLine
 10
0.9102889155118901
 20
5.073238009248407
 30
2.228133481540215
 11
0.5964622298810607
 21
5.027097373125937
 31
2.202667890603841
  0
LINE
  5
1CC
330
17
100
AcDbEntity
  8
lines
100
AcDbLine
 10
-0.49471496372932894
 20
3.4941072387599155
 30
2.249481971450692
 11
-0.5193248472186887
 21
3.7917567350561017
 31
2.2448756465939184
  0
LINE
  5
1CD
330
17
100
AcDbEntity
  8
lines
100
AcDbLine
 10
-0.49471496372932894
 20
3.4941072387599155
 30
2.249481971450692
 11
-0.5085211069966445
 21
2.810187534817641
 31
2.2262502776818756
  0
LINE
  5
1CE
330
17
100
AcDbEntity
  8
lines
100
AcDbLine
 10
-0.7873798853806546
 20
4.178477500236622
 30
2.2576039659506035
 11
-0.5193248472186887
 21
3.7917567350561017
 31
2.2448756465939184
  0
LINE
  5
1CF
330
17
100
AcDbEntity
  8
lines
100
AcDbLine
 10
-0.8075748847736128
 20
-2.9074814736221697
 30
2.2658087388281762
 11
-1.2641972800290933
 21
-2.7504848124907344
 31
2.253810916125212
  0
LINE
  5
1D0
330
17
100
AcDbEntity
  8
lines
100
AcDbLine
 10
-0.8721085199031366
 20
0.7346272003789606
 30
2.255477008992908
 11
-1.0561333446257957
 21
0.9013265003169353
 31
2.202187592955799
  0
LINE
  5
1D1
330
17
100
AcDbEntity
  8
lines
100
AcDbLine
 10
-0.6069291512807036
 20
2.392823799176728
 30
2.232714911669956
 11
-0.5272346926044866
 21
2.5643954868500525
 31
2.1789251279884665
  0
LINE
  5
1D2
330
17
100
AcDbEntity
  8
lines
100
AcDbLine
 10
-0.6069291512807036
 20
2.392823799176728
 30
2.232714911669956
 11
-0.8032838877546165
 21
2.5090995932488553
 31
2.244607924041603
  0
LINE
  5
1D3
330
17
100
AcDbEntity
  8
lines
100
AcDbLine
 10
5.15010828857115
 20
0.24444700192041302
 30
2.168606038163929
 11
4.9995541072203915
 21
0.39646794043209455
 31
2.1694210338971676
  0
LINE
  5
1D4
330
17
100
AcDbEntity
  8
lines
100
AcDbLine
 10
3.131819112069109
 20
1.0025478340437597
 30
2.2628731926492636
 11
2.939610148901607
 21
1.0915708558756987
 31
2.187564786999129
  0
LINE
  5
1D5
330
17
100
AcDbEntity
  8
lines
100
AcDbLine
 10
2.015097550659191
 20
-2.161848752952368
 30
2.2215073370253444
 11
2.034660692207044
 21
-2.154260823780562
 31
2.171858698581765
  0
LINE
  5
1D6
330
17
100
AcDbEntity
  8
lines
100
AcDbLine
 10
2.841658326487532
 20
1.3308263094223547
 30
2.1788110461411554
 11
2.939610148901607
 21
1.0915708558756987
 31
2.187564786999129
  0
LINE
  5
1D7
330
17
100
AcDbEntity
  8
lines
100
AcDbLine
 10
-4.806300577071467
 20
2.7938063923703877
 30
2.195178368938067
 11
-4.885307142095265
 21
2.0081268263885304
 31
2.25750448645975
  0
LINE
  5
1D8
330
17
100
AcDbEntity
  8
lines
100
AcDbLine
 10
-1.6349612569161367
 20
-1.6234493858499712
 30
2.2615927336198736
 11
-1.5035335232613234
 21
-1.3029045092087068
 31
2.2608404135793685
  0
LINE
  5
1D9
330
17
100
AcDbEntity
  8
lines
100
AcDbLine
 10
4.9995541072203915
 20
0.39646794043209455
 30
2.1694210338971676
 11
4.857716129113519
 21
0.6018246616398053
 31
2.16810251656794
  0
LINE
  5
1DA
330
17
100
AcDbEntity
  8
lines
100
AcDbLine
 10
2.2910131475754034
 20
-0.20358924916200283
 30
2.200952990324029
 11
2.5748478348421275
 21
0.24290383498470103
 31
2.172357209208166
  0
LINE
  5
1DB
330
17
100
AcDbEntity
  8
lines
100
AcDbLine
 10
-1.4569244784025142
 20
-2.651640857641974
 30
2.246251255834964
 11
-1.27738737056098
 21
-2.5547958494503353
 31
2.1817360538751656
  0
LINE
  5
1DC
330
17
100
AcDbEntity
  8
lines
100
AcDbLine
 10
-1.4569244784025142
 20
-2.651640857641974
 30
2.246251255834964
 11
-1.2641972800290933
 21
-2.7504848124907344
 31
2.253810916125212
  0
LINE
  5
1DD
330
17
100
AcDbEntity
  8
lines
100
AcDbLine
 10
-1.27738737056098
 20
-2.5547958494503353
 30
2.1817360538751656
 11
-1.2641972800290933
 21
-2.7504848124907344
 31
2.253810916125212
  0
LINE
  5
1DE
330
17
100
AcDbEntity
  8
lines
100
AcDbLine
 10
-0.5272346926044866
 20
2.5643954868500525
 30
2.1789251279884665
 11
-0.5085211069966445
 21
2.810187534817641
 31
2.2262502776818756
  0
LINE
  5
1DF
330
17
100
AcDbEntity
  8
lines
100
AcDbLine
 10
-1.4896486007907057
 20
0.9218561953216855
 30
2.2254798033841694
 11
-1.0561333446257957
 21
0.9013265003169353
 31
2.202187592955799
  0
LINE
  5
1E0
330
17
100
AcDbEntity
  8
lines
100
AcDbLine
 10
0.5943749534162814
 20
-3.1026607697593533
 30
2.2113823509609754
 11
0.7446372605411031
 21
-3.12097930976097
 31
2.216536536081393
  0
LINE
  5
1E1
330
17
100
AcDbEntity
  8
lines
100
AcDbLine
 10
-1.5743434679159016
 20
3.193920808674447
 30
2.2588058722467617
 11
-1.5555489719554318
 21
3.4433343074430063
 31
2.211956388034456
  0
LINE
  5
1E2
330
17
100
AcDbEntity
  8
lines
100
AcDbLine
 10
-1.5743434679159016
 20
3.193920808674447
 30
2.2588058722467617
 11
-1.8146944740203328
 21
2.794780568802083
 31
2.1963754238886546
  0
LINE
  5
1E3
330
17
100
AcDbEntity
  8
lines
100
AcDbLine
 10
2.1534572306288586
 20
-1.2064216480429695
 30
2.1853899864591684
 11
2.0793049332419162
 21
-1.8032879065683958
 31
2.2301046349266582
  0
LINE
  5
1E4
330
17
100
AcDbEntity
  8
lines
100
AcDbLine
 10
-0.32202103024904427
 20
4.853568885988775
 30
2.2632719002578687
 11
-0.3727297840769486
 21
4.44619956221699
 31
2.245115945399316
  0
LINE
  5
1E5
330
17
100
AcDbEntity
  8
lines
100
AcDbLine
 10
-2.3061456425718343
 20
4.992124891308507
 30
2.2039083703142985
 11
-2.0566768405148843
 21
4.972460214553981
 31
2.260309654399868
  0
LINE
  5
1E6
330
17
100
AcDbEntity
  8
lines
100
AcDbLine
 10
4.79312245094112
 20
6.748917070893055
 30
2.202075915917555
 11
4.840012106487874
 21
7.049095293446075
 31
2.262088676515166
  0
LINE
  5
1E7
330
17
100
AcDbEntity
  8
lines
100
AcDbLine
 10
4.1246978461723645
 20
4.012446522943478
 30
2.2197347281428845
 11
4.229761311657716
 21
4.349968385865573
 31
2.2166969133284673
  0
ENDSEC
  0
SECTION
  2
OBJECTS
  0
DICTIONARY
  5
A
330
0
100
AcDbDictionary
281
1
  3
ACAD_COLOR
350
B
  3
ACAD_GROUP
350
C
  3
ACAD_LAYOUT
350
D
  3
ACAD_MATERIAL
350
E
  3
ACAD_MLEADERSTYLE
350
F
  3
ACAD_MLINESTYLE
350
10
  3
ACAD_PLOTSETTINGS
350
11
  3
ACAD_PLOTSTYLENAME
350
12
  3
ACAD_SCALELIST
350
14
  3
ACAD_TABLESTYLE
350
15
  3
ACAD_VISUALSTYLE
350
16
  3
EZDXF_META
350
2D
  0
DICTIONARY
  5
B
330
A
100
AcDbDictionary
281
1
  0
DICTIONARY
  5
C
330
A
100
AcDbDictionary
281
1
  0
DICTIONARY
  5
D
330
A
100
AcDbDictionary
281
1
  3
Model
350
1A
  3
Layout1
350
1E
  0
DICTIONARY
  5
E
330
A
100
AcDbDictionary
281
1
  3
ByBlock
350
1F
  3
ByLayer
350
20
  3
Global
350
21
  0
DICTIONARY
  5
F
330
A
100
AcDbDictionary
281
1
  3
Standard
350
2C
  0
DICTIONARY
  5
10
330
A
100
AcDbDictionary
281
1
  3
Standard
350
22
  0
DICTIONARY
  5
11
330
A
100
AcDbDictionary
281
1
  0
ACDBDICTIONARYWDFLT
  5
12
330
A
100
AcDbDictionary
281
1
  3
Normal
350
13
100
AcDbDictionaryWithDefault
340
13
  0
ACDBPLACEHOLDER
  5
13
330
12
  0
DICTIONARY
  5
14
330
A
100
AcDbDictionary
281
1
  0
DICTIONARY
  5
15
330
A
100
AcDbDictionary
281
1
  0
DICTIONARY
  5
16
330
A
100
AcDbDictionary
281
1
  0
LAYOUT
  5
1A
330
D
100
AcDbPlotSettings
  1

  4
A3
  6

 40
7.5
 41
20.0
 42
7.5
 43
20.0
 44
420.0
 45
297.0
 46
0.0
 47
0.0
 48
0.0
 49
0.0
140
0.0
141
0.0
142
1.0
143
1.0
 70
1024
 72
1
 73
0
 74
5
  7

 75
16
 76
0
 77
2
 78
300
147
1.0
148
0.0
149
0.0
100
AcDbLayout
  1
Model
 70
1
 71
0
 10
0.0
 20
0.0
 11
420.0
 21
297.0
 12
0.0
 22
0.0
 32
0.0
 14
1e+20
 24
1e+20
 34
1e+20
 15
-1e+20
 25
-1e+20
 35
-1e+20
146
0.0
 13
0.0
 23
0.0
 33
0.0
 16
1.0
 26
0.0
 36
0.0
 17
0.0
 27
1.0
 37
0.0
 76
1
330
17
  0
LAYOUT
  5
1E
330
D
100
AcDbPlotSettings
  1

  4
A3
  6

 40
7.5
 41
20.0
 42
7.5
 43
20.0
 44
420.0
 45
297.0
 46
0.0
 47
0.0
 48
0.0
 49
0.0
140
0.0
141
0.0
142
1.0
143
1.0
 70
0
 72
1
 73
0
 74
5
  7

 75
16
 76
0
 77
2
 78
300
147
1.0
148
0.0
149
0.0
100
AcDbLayout
  1
Layout1
 70
1
 71
1
 10
0.0
 20
0.0
 11
420.0
 21
297.0
 12
0.0
 22
0.0
 32
0.0
 14
1e+20
 24
1e+20
 34
1e+20
 15
-1e+20
 25
-1e+20
 35
-1e+20
146
0.0
 13
0.0
 23
0.0
 33
0.0
 16
1.0
 26
0.0
 36
0.0
 17
0.0
 27
1.0
 37
0.0
 76
1
330
1B
  0
MATERIAL
  5
1F
102
{ACAD_REACTORS
330
E
102
}
330
E
100
AcDbMaterial
  1
ByBlock
  2

 70
0
 40
1.0
 71
1
 41
1.0
 91
-1023410177
 42
1.0
 72
1
  3

 73
1
 74
1
 75
1
 44
0.5
 73
0
 45
1.0
 46
1.0
 77
1
  4

 78
1
 79
1
170
1
 48
1.0
171
1
  6

172
1
173
1
174
1
140
1.0
141
1.0
175
1
  7

176
1
177
1
178
1
143
1.0
179
1
  8

270
1
271
1
272
1
145
1.0
146
1.0
273
1
  9

274
1
275
1
276
1
 42
1.0
 72
1
  3

 73
1
 74
1
 75
1
 94
63
  0
MATERIAL
  5
20
102
{ACAD_REACTORS
330
E
102
}
330
E
100
AcDbMaterial
  1
ByLayer
  2

 70
0
 40
1.0
 71
1
 41
1.0
 91
-1023410177
 42
1.0
 72
1
  3

 73
1
 74
1
 75
1
 44
0.5
 73
0
 45
1.0
 46
1.0
 77
1
  4

 78
1
 79
1
170
1
 48
1.0
171
1
  6

172
1
173
1
174
1
140
1.0
141
1.0
175
1
  7

176
1
177
1
178
1
143
1.0
179
1
  8

270
1
271
1
272
1
145
1.0
146
1.0
273
1
  9

274
1
275
1
276
1
 42
1.0
 72
1
  3

 73
1
 74
1
 75
1
 94
63
  0
MATERIAL
  5
21
102
{ACAD_REACTORS
330
E
102
}
330
E
100
AcDbMaterial
  1
Global
  2

 70
0
 40
1.0
 71
1
 41
1.0
 91
-1023410177
 42
1.0
 72
1
  3

 73
1
 74
1
 75
1
 44
0.5
 73
0
 45
1.0
 46
1.0
 77
1
  4

 78
1
 79
1
170
1
 48
1.0
171
1
  6

172
1
173
1
174
1
140
1.0
141
1.0
175
1
  7

176
1
177
1
178
1
143
1.0
179
1
  8

270
1
271
1
272
1
145
1.0
146
1.0
273
1
  9

274
1
275
1
276
1
 42
1.0
 72
1
  3

 73
1
 74
1
 75
1
 94
63
  0
MLINESTYLE
  5
22
102
{ACAD_REACTORS
330
10
102
}
330
10
100
AcDbMlineStyle
  2
Standard
 70
0
  3

 62
256
 51
90.0
 52
90.0
 71
2
 49
0.5
 62
256
  6
BYLAYER
 49
-0.5
 62
256
  6
BYLAYER
  0
MLEADERSTYLE
  5
2C
102
{ACAD_REACTORS
330
F
102
}
330
F
100
AcDbMLeaderStyle
179
2
170
2
171
1
172
0
 90
2
 40
0.0
 41
0.0
173
1
 91
-1056964608
 92
-2
290
1
 42
2.0
291
1
 43
8.0
  3
Standard
 44
4.0
300

342
29
174
1
175
1
176
0
178
1
 93
-1056964608
 45
4.0
292
0
297
0
 46
4.0
 94
-1056964608
 47
1.0
 49
1.0
140
1.0
294
1
141
0.0
177
0
142
1.0
295
0
296
0
143
3.75
271
0
272
9
273
9
  0
DICTIONARY
  5
2D
330
A
100
AcDbDictionary
280
1
281
1
  3
CREATED_BY_EZDXF
350
2E
  3
WRITTEN_BY_EZDXF
350
1ED
  0
DICTIONARYVAR
  5
2E
330
2D
100
DictionaryVariables
280
0
  1
1.4.3 @ 2026-07-28T07:28:53.509165+00:00
  0
DICTIONARYVAR
  5
1ED
330
2D
100
DictionaryVariables
280
0
  1
1.4.3 @ 2026-07-28T07:28:53.513954+00:00
  0
ENDSEC
  0
EOF
