  0
SECTION
  2
HEADER
  9
$ACADVER
  1
AC1024
  9
$ACADMAINTVER
 70
6
  9
$DWGCODEPAGE
  3
ANSI_1252
  9
$LASTSAVEDBY
  1
ezdxf
  9
$INSBASE
 10
0.0
 20
0.0
 30
0.0
  9
$EXTMIN
 10
1e+20
 20
1e+20
 30
1e+20
  9
$EXTMAX
 10
-1e+20
 20
-1e+20
 30
-1e+20
  9
$LIMMIN
 10
0.0
 20
0.0
  9
$LIMMAX
 10
420.0
 20
297.0
  9
$ORTHOMODE
 70
0
  9
$REGENMODE
 70
1
  9
$FILLMODE
 70
1
  9
$QTEXTMODE
 70
0
  9
$MIRRTEXT
 70
1
  9
$LTSCALE
 40
1.0
  9
$ATTMODE
 70
1
  9
$TEXTSIZE
 40
2.5
  9
$TRACEWID
 40
1.0
  9
$TEXTSTYLE
  7
Standard
  9
$CLAYER
  8
0
  9
$CELTYPE
  6
ByLayer
  9
$CECOLOR
 62
256
  9
$CELTSCALE
 40
1.0
  9
$DISPSILH
 70
0
  9
$DIMSCALE
 40
1.0
  9
$DIMASZ
 40
2.5
  9
$DIMEXO
 40
0.625
  9
$DIMDLI
 40
3.75
  9
$DIMRND
 40
0.0
  9
$DIMDLE
 40
0.0
  9
$DIMEXE
 40
1.25
  9
$DIMTP
 40
0.0
  9
$DIMTM
 40
0.0
  9
$DIMTXT
 40
2.5
  9
$DIMCEN
 40
2.5
  9
$DIMTSZ
 40
0.0
  9
$DIMTOL
 70
0
  9
$DIMLIM
 70
0
  9
$DIMTIH
 70
0
  9
$DIMTOH
 70
0
  9
$DIMSE1
 70
0
  9
$DIMSE2
 70
0
  9
$DIMTAD
 70
1
  9
$DIMZIN
 70
8
  9
$DIMBLK
  1

  9
$DIMASO
 70
1
  9
$DIMSHO
 70
1
  9
$DIMPOST
  1

  9
$DIMAPOST
  1

  9
$DIMALT
 70
0
  9
$DIMALTD
 70
3
  9
$DIMALTF
 40
0.03937007874
  9
$DIMLFAC
 40
1.0
  9
$DIMTOFL
 70
1
  9
$DIMTVP
 40
0.0
  9
$DIMTIX
 70
0
  9
$DIMSOXD
 70
0
  9
$DIMSAH
 70
0
  9
$DIMBLK1
  1

  9
$DIMBLK2
  1

  9
$DIMSTYLE
  2
ISO-25
  9
$DIMCLRD
 70
0
  9
$DIMCLRE
 70
0
  9
$DIMCLRT
 70
0
  9
$DIMTFAC
 40
1.0
  9
$DIMGAP
 40
0.625
  9
$DIMJUST
 70
0
  9
$DIMSD1
 70
0
  9
$DIMSD2
 70
0
  9
$DIMTOLJ
 70
0
  9
$DIMTZIN
 70
8
  9
$DIMALTZ
 70
0
  9
$DIMALTTZ
 70
0
  9
$DIMUPT
 70
0
  9
$DIMDEC
 70
2
  9
$DIMTDEC
 70
2
  9
$DIMALTU
 70
2
  9
$DIMALTTD
 70
3
  9
$DIMTXSTY
  7
Standard
  9
$DIMAUNIT
 70
0
  9
$DIMADEC
 70
0
  9
$DIMALTRND
 40
0.0
  9
$DIMAZIN
 70
0
  9
$DIMDSEP
 70
44
  9
$DIMATFIT
 70
3
  9
$DIMFRAC
 70
0
  9
$DIMLDRBLK
  1

  9
$DIMLUNIT
 70
2
  9
$DIMLWD
 70
-2
  9
$DIMLWE
 70
-2
  9
$DIMTMOVE
 70
0
  9
$DIMFXL
 40
1.0
  9
$DIMFXLON
 70
0
  9
$DIMJOGANG
 40
0.785398163397
  9
$DIMTFILL
 70
0
  9
$DIMTFILLCLR
 70
0
  9
$DIMARCSYM
 70
0
  9
$DIMLTYPE
  6

  9
$DIMLTEX1
  6

  9
$DIMLTEX2
  6

  9
$DIMTXTDIRECTION
 70
0
  9
$LUNITS
 70
2
  9
$LUPREC
 70
4
  9
$SKETCHINC
 40
1.0
  9
$FILLETRAD
 40
10.0
  9
$AUNITS
 70
0
  9
$AUPREC
 70
2
  9
$MENU
  1
.
  9
$ELEVATION
 40
0.0
  9
$PELEVATION
 40
0.0
  9
$THICKNESS
 40
0.0
  9
$LIMCHECK
 70
0
  9
$CHAMFERA
 40
0.0
  9
$CHAMFERB
 40
0.0
  9
$CHAMFERC
 40
0.0
  9
$CHAMFERD
 40
0.0
  9
$SKPOLY
 70
0
  9
$TDCREATE
 40
2461250.3950578705
  9
$TDUCREATE
 40
2458532.153996898
  9
$TDUPDATE
 40
2461250.3950578705
  9
$TDUUPDATE
 40
2458532.1544311
  9
$TDINDWG
 40
0.0
  9
$TDUSRTIMER
 40
0.0
  9
$USRTIMER
 70
1
  9
$ANGBASE
 50
0.0
  9
$ANGDIR
 70
0
  9
$PDMODE
 70
0
  9
$PDSIZE
 40
0.0
  9
$PLINEWID
 40
0.0
  9
$SPLFRAME
 70
0
  9
$SPLINETYPE
 70
6
  9
$SPLINESEGS
 70
8
  9
$HANDSEED
  5
19F
  9
$SURFTAB1
 70
6
  9
$SURFTAB2
 70
6
  9
$SURFTYPE
 70
6
  9
$SURFU
 70
6
  9
$SURFV
 70
6
  9
$UCSBASE
  2

  9
$UCSNAME
  2

  9
$UCSORG
 10
0.0
 20
0.0
 30
0.0
  9
$UCSXDIR
 10
1.0
 20
0.0
 30
0.0
  9
$UCSYDIR
 10
0.0
 20
1.0
 30
0.0
  9
$UCSORTHOREF
  2

  9
$UCSORTHOVIEW
 70
0
  9
$UCSORGTOP
 10
0.0
 20
0.0
 30
0.0
  9
$UCSORGBOTTOM
 10
0.0
 20
0.0
 30
0.0
  9
$UCSORGLEFT
 10
0.0
 20
0.0
 30
0.0
  9
$UCSORGRIGHT
 10
0.0
 20
0.0
 30
0.0
  9
$UCSORGFRONT
 10
0.0
 20
0.0
 30
0.0
  9
$UCSORGBACK
 10
0.0
 20
0.0
 30
0.0
  9
$PUCSBASE
  2

  9
$PUCSNAME
  2

  9
$PUCSORG
 10
0.0
 20
0.0
 30
0.0
  9
$PUCSXDIR
 10
1.0
 20
0.0
 30
0.0
  9
$PUCSYDIR
 10
0.0
 20
1.0
 30
0.0
  9
$PUCSORTHOREF
  2

  9
$PUCSORTHOVIEW
 70
0
  9
$PUCSORGTOP
 10
0.0
 20
0.0
 30
0.0
  9
$PUCSORGBOTTOM
 10
0.0
 20
0.0
 30
0.0
  9
$PUCSORGLEFT
 10
0.0
 20
0.0
 30
0.0
  9
$PUCSORGRIGHT
 10
0.0
 20
0.0
 30
0.0
  9
$PUCSORGFRONT
 10
0.0
 20
0.0
 30
0.0
  9
$PUCSORGBACK
 10
0.0
 20
0.0
 30
0.0
  9
$USERI1
 70
0
  9
$USERI2
 70
0
  9
$USERI3
 70
0
  9
$USERI4
 70
0
  9
$USERI5
 70
0
  9
$USERR1
 40
0.0
  9
$USERR2
 40
0.0
  9
$USERR3
 40
0.0
  9
$USERR4
 40
0.0
  9
$USERR5
 40
0.0
  9
$WORLDVIEW
 70
1
  9
$SHADEDGE
 70
3
  9
$SHADEDIF
 70
70
  9
$TILEMODE
 70
1
  9
$MAXACTVP
 70
64
  9
$PINSBASE
 10
0.0
 20
0.0
 30
0.0
  9
$PLIMCHECK
 70
0
  9
$PEXTMIN
 10
1e+20
 20
1e+20
 30
1e+20
  9
$PEXTMAX
 10
-1e+20
 20
-1e+20
 30
-1e+20
  9
$PLIMMIN
 10
0.0
 20
0.0
  9
$PLIMMAX
 10
420.0
 20
297.0
  9
$UNITMODE
 70
0
  9
$VISRETAIN
 70
1
  9
$PLINEGEN
 70
0
  9
$PSLTSCALE
 70
1
  9
$TREEDEPTH
 70
3020
  9
$CMLSTYLE
  2
Standard
  9
$CMLJUST
 70
0
  9
$CMLSCALE
 40
20.0
  9
$PROXYGRAPHICS
 70
1
  9
$MEASUREMENT
 70
1
  9
$CELWEIGHT
370
-1
  9
$ENDCAPS
280
0
  9
$JOINSTYLE
280
0
  9
$LWDISPLAY
290
0
  9
$INSUNITS
 70
6
  9
$HYPERLINKBASE
  1

  9
$STYLESHEET
  1

  9
$XEDIT
290
1
  9
$CEPSNTYPE
380
0
  9
$PSTYLEMODE
290
1
  9
$FINGERPRINTGUID
  2
{C0AD9C6B-14B2-4C28-9A9E-CBF7B548E8F4}
  9
$VERSIONGUID
  2
{B965CF7A-715F-4E54-AA95-E3344EC8DE3D}
  9
$EXTNAMES
290
1
  9
$PSVPSCALE
 40
0.0
  9
$OLESTARTUP
290
0
  9
$SORTENTS
280
127
  9
$INDEXCTL
280
0
  9
$HIDETEXT
280
1
  9
$XCLIPFRAME
280
1
  9
$HALOGAP
280
0
  9
$OBSCOLOR
 70
257
  9
$OBSLTYPE
280
0
  9
$INTERSECTIONDISPLAY
280
0
  9
$INTERSECTIONCOLOR
 70
257
  9
$DIMASSOC
280
2
  9
$PROJECTNAME
  1

  9
$CAMERADISPLAY
290
0
  9
$LENSLENGTH
 40
50.0
  9
$CAMERAHEIGHT
 40
0.0
  9
$STEPSPERSEC
 40
24.0
  9
$STEPSIZE
 40
100.0
  9
$3DDWFPREC
 40
2.0
  9
$PSOLWIDTH
 40
0.005
  9
$PSOLHEIGHT
 40
0.08
  9
$LOFTANG1
 40
1.570796326795
  9
$LOFTANG2
 40
1.570796326795
  9
$LOFTMAG1
 40
0.0
  9
$LOFTMAG2
 40
0.0
  9
$LOFTPARAM
 70
7
  9
$LOFTNORMALS
280
1
  9
$LATITUDE
 40
37.795
  9
$LONGITUDE
 40
-122.394
  9
$NORTHDIRECTION
 40
0.0
  9
$TIMEZONE
 70
-8000
  9
$LIGHTGLYPHDISPLAY
280
1
  9
$TILEMODELIGHTSYNCH
280
1
  9
$CMATERIAL
347
20
  9
$SOLIDHIST
280
0
  9
$SHOWHIST
280
1
  9
$DWFFRAME
280
2
  9
$DGNFRAME
280
2
  9
$REALWORLDSCALE
290
1
  9
$INTERFERECOLOR
 62
256
  9
$CSHADOW
280
0
  9
$SHADOWPLANELOCATION
 40
0.0
  0
ENDSEC
  0
SECTION
  2
CLASSES
  0
CLASS
  1
ACDBDICTIONARYWDFLT
  2
AcDbDictionaryWithDefault
  3
ObjectDBX Classes
 90
0
 91
0
280
0
281
0
  0
CLASS
  1
SUN
  2
AcDbSun
  3
SCENEOE
 90
1153
 91
0
280
0
281
0
  0
CLASS
  1
VISUALSTYLE
  2
AcDbVisualStyle
  3
ObjectDBX Classes
 90
4095
 91
0
280
0
281
0
  0
CLASS
  1
MATERIAL
  2
AcDbMaterial
  3
ObjectDBX Classes
 90
1153
 91
0
280
0
281
0
  0
CLASS
  1
SCALE
  2
AcDbScale
  3
ObjectDBX Classes
 90
1153
 91
0
280
0
281
0
  0
CLASS
  1
TABLESTYLE
  2
AcDbTableStyle
  3
ObjectDBX Classes
 90
4095
 91
0
280
0
281
0
  0
CLASS
  1
MLEADERSTYLE
  2
AcDbMLeaderStyle
  3
ACDB_MLEADERSTYLE_CLASS
 90
4095
 91
0
280
0
281
0
  0
CLASS
  1
DICTIONARYVAR
  2
AcDbDictionaryVar
  3
ObjectDBX Classes
 90
0
 91
0
280
0
281
0
  0
CLASS
  1
CELLSTYLEMAP
  2
AcDbCellStyleMap
  3
ObjectDBX Classes
 90
1152
 91
0
280
0
281
0
  0
CLASS
  1
MENTALRAYRENDERSETTINGS
  2
AcDbMentalRayRenderSettings
  3
SCENEOE
 90
1024
 91
0
280
0
281
0
  0
CLASS
  1
ACDBDETAILVIEWSTYLE
  2
AcDbDetailViewStyle
  3
ObjectDBX Classes
 90
1025
 91
0
280
0
281
0
  0
CLASS
  1
ACDBSECTIONVIEWSTYLE
  2
AcDbSectionViewStyle
  3
ObjectDBX Classes
 90
1025
 91
0
280
0
281
0
  0
CLASS
  1
RASTERVARIABLES
  2
AcDbRasterVariables
  3
ISM
 90
0
 91
0
280
0
281
0
  0
CLASS
  1
LAYOUT
  2
AcDbLayout
  3
ObjectDBX Classes
 90
0
 91
0
280
0
281
0
  0
CLASS
  1
ACDBPLACEHOLDER
  2
AcDbPlaceHolder
  3
ObjectDBX Classes
 90
0
 91
0
280
0
281
0
  0
ENDSEC
  0
SECTION
  2
TABLES
  0
TABLE
  2
VPORT
  5
8
330
0
100
AcDbSymbolTable
 70
1
  0
VPORT
  5
23
330
8
100
AcDbSymbolTableRecord
100
AcDbViewportTableRecord
  2
*Active
 70
0
 10
0.0
 20
0.0
 11
1.0
 21
1.0
 12
0.0
 22
0.0
 13
0.0
 23
0.0
 14
0.5
 24
0.5
 15
0.5
 25
0.5
 16
0.0
 26
0.0
 36
1.0
 17
0.0
 27
0.0
 37
0.0
 40
1000.0
 41
1.34
 42
50.0
 43
0.0
 44
0.0
 50
0.0
 51
0.0
 71
0
 72
1000
 73
1
 74
3
 75
0
 76
0
 77
0
 78
0
281
0
 65
0
146
0.0
  0
ENDTAB
  0
TABLE
  2
LTYPE
  5
2
330
0
100
AcDbSymbolTable
 70
3
  0
LTYPE
  5
24
330
2
100
AcDbSymbolTableRecord
100
AcDbLinetypeTableRecord
  2
ByBlock
 70
0
  3

 72
65
 73
0
 40
0.0
  0
LTYPE
  5
25
330
2
100
AcDbSymbolTableRecord
100
AcDbLinetypeTableRecord
  2
ByLayer
 70
0
  3

 72
65
 73
0
 40
0.0
  0
LTYPE
  5
26
330
2
100
AcDbSymbolTableRecord
100
AcDbLinetypeTableRecord
  2
Continuous
 70
0
  3

 72
65
 73
0
 40
0.0
  0
ENDTAB
  0
TABLE
  2
LAYER
  5
1
330
0
100
AcDbSymbolTable
 70
5
  0
LAYER
  5
27
330
1
100
AcDbSymbolTableRecord
100
AcDbLayerTableRecord
  2
0
 70
0
 62
7
  6
Continuous
370
-3
390
13
347
21
  0
LAYER
  5
28
330
1
100
AcDbSymbolTableRecord
100
AcDbLayerTableRecord
  2
Defpoints
 70
0
 62
7
  6
Continuous
290
0
370
-3
390
13
347
21
  0
LAYER
  5
199
330
1
100
AcDbSymbolTableRecord
100
AcDbLayerTableRecord
  2
keypoints
 70
0
 62
1
  6
Continuous
370
-3
390
13
347
21
  0
LAYER
  5
19A
330
1
100
AcDbSymbolTableRecord
100
AcDbLayerTableRecord
  2
lines
 70
0
 62
2
  6
Continuous
370
-3
390
13
347
21
  0
LAYER
  5
19B
330
1
100
AcDbSymbolTableRecord
100
AcDbLayerTableRecord
  2
mesh
 70
0
 62
5
  6
Continuous
370
-3
390
13
347
21
  0
ENDTAB
  0
TABLE
  2
STYLE
  5
5
330
0
100
AcDbSymbolTable
 70
1
  0
STYLE
  5
29
330
5
100
AcDbSymbolTableRecord
100
AcDbTextStyleTableRecord
  2
Standard
 70
0
 40
0.0
 41
1.0
 50
0.0
 71
0
 42
2.5
  3
txt
  4

  0
ENDTAB
  0
TABLE
  2
VIEW
  5
7
330
0
100
AcDbSymbolTable
 70
0
  0
ENDTAB
  0
TABLE
  2
UCS
  5
6
330
0
100
AcDbSymbolTable
 70
0
  0
ENDTAB
  0
TABLE
  2
APPID
  5
3
330
0
100
AcDbSymbolTable
 70
3
  0
APPID
  5
2A
330
3
100
AcDbSymbolTableRecord
100
AcDbRegAppTableRecord
  2
ACAD
 70
0
  0
APPID
  5
19C
330
3
100
AcDbSymbolTableRecord
100
AcDbRegAppTableRecord
  2
HATCHBACKGROUNDCOLOR
 70
0
  0
APPID
  5
19D
330
3
100
AcDbSymbolTableRecord
100
AcDbRegAppTableRecord
  2
EZDXF
 70
0
  0
ENDTAB
  0
TABLE
  2
DIMSTYLE
  5
4
330
0
100
AcDbSymbolTable
 70
1
100
AcDbDimStyleTable
  0
DIMSTYLE
105
2B
330
4
100
AcDbSymbolTableRecord
100
AcDbDimStyleTableRecord
  2
Standard
 70
0
 40
1.0
 41
2.5
 42
0.625
 43
3.75
 44
1.25
 45
0.0
 46
0.0
 47
0.0
 48
0.0
 49
2.5
140
2.5
141
2.5
142
0.0
143
0.03937007874
144
1.0
145
0.0
146
1.0
147
0.625
148
0.0
 69
0
 70
0
 71
0
 72
0
 73
0
 74
0
 75
0
 76
0
 77
1
 78
8
 79
3
170
0
171
3
172
1
173
0
174
0
175
0
176
0
177
0
178
0
179
2
271
2
272
2
273
2
274
3
275
0
276
0
277
2
278
44
279
0
280
0
281
0
282
0
283
0
284
8
285
0
286
0
288
0
289
3
290
0
371
-2
372
-2
  0
ENDTAB
  0
TABLE
  2
BLOCK_RECORD
  5
9
330
0
100
AcDbSymbolTable
 70
2
  0
BLOCK_RECORD
  5
17
330
9
100
AcDbSymbolTableRecord
100
AcDbBlockTableRecord
  2
*Model_Space
340
1A
 70
0
280
1
281
0
  0
BLOCK_RECORD
  5
1B
330
9
100
AcDbSymbolTableRecord
100
AcDbBlockTableRecord
  2
*Paper_Space
340
1E
 70
0
280
1
281
0
  0
ENDTAB
  0
ENDSEC
  0
SECTION
  2
BLOCKS
  0
BLOCK
  5
18
330
17
100
AcDbEntity
  8
0
100
AcDbBlockBegin
  2
*Model_Space
 70
0
 10
0.0
 20
0.0
 30
0.0
  3
*Model_Space
  1

  0
ENDBLK
  5
19
330
17
100
AcDbEntity
  8
0
100
AcDbBlockEnd
  0
BLOCK
  5
1C
330
1B
100
AcDbEntity
  8
0
100
AcDbBlockBegin
  2
*Paper_Space
 70
0
 10
0.0
 20
0.0
 30
0.0
  3
*Paper_Space
  1

  0
ENDBLK
  5
1D
330
1B
100
AcDbEntity
  8
0
100
AcDbBlockEnd
  0
ENDSEC
  0
SECTION
  2
ENTITIES
  0
POINT
  5
2F
330
17
100
AcDbEntity
  8
0
100
AcDbPoint
 10
3.636634370606666
 20
1.3579515801430264
 30
3.5247794664034755
  0
CIRCLE
  5
30
330
17
100
AcDbEntity
  8
keypoints
100
AcDbCircle
 10
3.636634370606666
 20
1.3579515801430264
 30
3.5247794664034755
 40
0.05
  0
POINT
  5
31
330
17
100
AcDbEntity
  8
0
100
AcDbPoint
 10
2.229303497267078
 20
-0.5068136214641437
 30
3.5029129307801705
  0
CIRCLE
  5
32
330
17
100
AcDbEntity
  8
keypoints
100
AcDbCircle
 10
2.229303497267078
 20
-0.5068136214641437
 30
3.5029129307801705
 40
0.05
  0
POINT
  5
33
330
17
100
AcDbEntity
  8
0
100
AcDbPoint
 10
-2.325165433129101
 20
-0.6941072534548482
 30
3.55539559584495
  0
CIRCLE
  5
34
330
17
100
AcDbEntity
  8
keypoints
100
AcDbCircle
 10
-2.325165433129101
 20
-0.6941072534548482
 30
3.55539559584495
 40
0.05
  0
POINT
  5
35
330
17
100
AcDbEntity
  8
0
100
AcDbPoint
 10
-1.8685833411586013
 20
0.702036305051299
 30
3.531266024176676
  0
CIRCLE
  5
36
330
17
100
AcDbEntity
  8
keypoints
100
AcDbCircle
 10
-1.8685833411586013
 20
0.702036305051299
 30
3.531266024176676
 40
0.05
  0
POINT
  5
37
330
17
100
AcDbEntity
  8
0
100
AcDbPoint
 10
2.7308790672445236
 20
-1.154402922582307
 30
3.568920162595072
  0
CIRCLE
  5
38
330
17
100
AcDbEntity
  8
keypoints
100
AcDbCircle
 10
2.7308790672445236
 20
-1.154402922582307
 30
3.568920162595072
 40
0.05
  0
POINT
  5
39
330
17
100
AcDbEntity
  8
0
100
AcDbPoint
 10
2.8729497593149445
 20
1.2826379107906232
 30
3.569507465552968
  0
CIRCLE
  5
3A
330
17
100
AcDbEntity
  8
keypoints
100
AcDbCircle
 10
2.8729497593149445
 20
1.2826379107906232
 30
3.569507465552968
 40
0.05
  0
POINT
  5
3B
330
17
100
AcDbEntity
  8
0
100
AcDbPoint
 10
-1.475567113355964
 20
-1.194275129454635
 30
3.51149232568103
  0
CIRCLE
  5
3C
330
17
100
AcDbEntity
  8
keypoints
100
AcDbCircle
 10
-1.475567113355964
 20
-1.194275129454635
 30
3.51149232568103
 40
0.05
  0
POINT
  5
3D
330
17
100
AcDbEntity
  8
0
100
AcDbPoint
 10
-1.4195622845272438
 20
2.0065972318803533
 30
3.5163556251711174
  0
CIRCLE
  5
3E
330
17
100
AcDbEntity
  8
keypoints
100
AcDbCircle
 10
-1.4195622845272438
 20
2.0065972318803533
 30
3.5163556251711174
 40
0.05
  0
POINT
  5
3F
330
17
100
AcDbEntity
  8
0
100
AcDbPoint
 10
-4.520961985444424
 20
-0.4451540540155421
 30
3.5884453727062464
  0
CIRCLE
  5
40
330
17
100
AcDbEntity
  8
keypoints
100
AcDbCircle
 10
-4.520961985444424
 20
-0.4451540540155421
 30
3.5884453727062464
 40
0.05
  0
POINT
  5
41
330
17
100
AcDbEntity
  8
0
100
AcDbPoint
 10
3.7794682599630147
 20
2.851133472848191
 30
3.503701480528851
  0
CIRCLE
  5
42
330
17
100
AcDbEntity
  8
keypoints
100
AcDbCircle
 10
3.7794682599630147
 20
2.851133472848191
 30
3.503701480528851
 40
0.05
  0
POINT
  5
43
330
17
100
AcDbEntity
  8
0
100
AcDbPoint
 10
-0.7660644257150657
 20
1.9015455688753462
 30
3.5132138177173284
  0
CIRCLE
  5
44
330
17
100
AcDbEntity
  8
keypoints
100
AcDbCircle
 10
-0.7660644257150657
 20
1.9015455688753462
 30
3.5132138177173284
 40
0.05
  0
POINT
  5
45
330
17
100
AcDbEntity
  8
0
100
AcDbPoint
 10
-4.183146131428584
 20
5.05494173652124
 30
3.53599771267744
  0
CIRCLE
  5
46
330
17
100
AcDbEntity
  8
keypoints
100
AcDbCircle
 10
-4.183146131428584
 20
5.05494173652124
 30
3.53599771267744
 40
0.05
  0
POINT
  5
47
330
17
100
AcDbEntity
  8
0
100
AcDbPoint
 10
-3.1323894529241896
 20
5.003863008414966
 30
3.4960097118751885
  0
CIRCLE
  5
48
330
17
100
AcDbEntity
  8
keypoints
100
AcDbCircle
 10
-3.1323894529241896
 20
5.003863008414966
 30
3.4960097118751885
 40
0.05
  0
POINT
  5
49
330
17
100
AcDbEntity
  8
0
100
AcDbPoint
 10
2.983800976560981
 20
-0.22310505963440952
 30
3.559511951011012
  0
CIRCLE
  5
4A
330
17
100
AcDbEntity
  8
keypoints
100
AcDbCircle
 10
2.983800976560981
 20
-0.22310505963440952
 30
3.559511951011012
 40
0.05
  0
POINT
  5
4B
330
17
100
AcDbEntity
  8
0
100
AcDbPoint
 10
2.438190930762276
 20
-0.017710012531558794
 30
3.559069655572163
  0
CIRCLE
  5
4C
330
17
100
AcDbEntity
  8
keypoints
100
AcDbCircle
 10
2.438190930762276
 20
-0.017710012531558794
 30
3.559069655572163
 40
0.05
  0
POINT
  5
4D
330
17
100
AcDbEntity
  8
0
100
AcDbPoint
 10
2.9620181745423886
 20
0.6784959240177957
 30
3.5817704969951096
  0
CIRCLE
  5
4E
330
17
100
AcDbEntity
  8
keypoints
100
AcDbCircle
 10
2.9620181745423886
 20
0.6784959240177957
 30
3.5817704969951096
 40
0.05
  0
POINT
  5
4F
330
17
100
AcDbEntity
  8
0
100
AcDbPoint
 10
2.9593671328703026
 20
1.1335903917230197
 30
3.5526085640712948
  0
CIRCLE
  5
50
330
17
100
AcDbEntity
  8
keypoints
100
AcDbCircle
 10
2.9593671328703026
 20
1.1335903917230197
 30
3.5526085640712948
 40
0.05
  0
POINT
  5
51
330
17
100
AcDbEntity
  8
0
100
AcDbPoint
 10
3.2670499292596697
 20
1.343965148741225
 30
3.5019389139678085
  0
CIRCLE
  5
52
330
17
100
AcDbEntity
  8
keypoints
100
AcDbCircle
 10
3.2670499292596697
 20
1.343965148741225
 30
3.5019389139678085
 40
0.05
  0
POINT
  5
53
330
17
100
AcDbEntity
  8
0
100
AcDbPoint
 10
3.0896434108000483
 20
1.2003195612069617
 30
3.5563153979998052
  0
CIRCLE
  5
54
330
17
100
AcDbEntity
  8
keypoints
100
AcDbCircle
 10
3.0896434108000483
 20
1.2003195612069617
 30
3.5563153979998052
 40
0.05
  0
POINT
  5
55
330
17
100
AcDbEntity
  8
0
100
AcDbPoint
 10
3.49543351099519
 20
2.231760507849967
 30
3.518099081609442
  0
CIRCLE
  5
56
330
17
100
AcDbEntity
  8
keypoints
100
AcDbCircle
 10
3.49543351099519
 20
2.231760507849967
 30
3.518099081609442
 40
0.05
  0
POINT
  5
57
330
17
100
AcDbEntity
  8
0
100
AcDbPoint
 10
0.28473887950778437
 20
-3.5912756936716406
 30
3.5443494004055625
  0
CIRCLE
  5
58
330
17
100
AcDbEntity
  8
keypoints
100
AcDbCircle
 10
0.28473887950778437
 20
-3.5912756936716406
 30
3.5443494004055625
 40
0.05
  0
POINT
  5
59
330
17
100
AcDbEntity
  8
0
100
AcDbPoint
 10
-0.5017779380381296
 20
-3.452462284154879
 30
3.5718516884918516
  0
CIRCLE
  5
5A
330
17
100
AcDbEntity
  8
keypoints
100
AcDbCircle
 10
-0.5017779380381296
 20
-3.452462284154879
 30
3.5718516884918516
 40
0.05
  0
POINT
  5
5B
330
17
100
AcDbEntity
  8
0
100
AcDbPoint
 10
-1.552743626832217
 20
-1.619751735956126
 30
3.505598596092252
  0
CIRCLE
  5
5C
330
17
100
AcDbEntity
  8
keypoints
100
AcDbCircle
 10
-1.552743626832217
 20
-1.619751735956126
 30
3.505598596092252
 40
0.05
  0
POINT
  5
5D
330
17
100
AcDbEntity
  8
0
100
AcDbPoint
 10
-1.5172691595198362
 20
-1.470385742529707
 30
3.510324612671727
  0
CIRCLE
  5
5E
330
17
100
AcDbEntity
  8
keypoints
100
AcDbCircle
 10
-1.5172691595198362
 20
-1.470385742529707
 30
3.510324612671727
 40
0.05
  0
POINT
  5
5F
330
17
100
AcDbEntity
  8
0
100
AcDbPoint
 10
2.3228337379400394
 20
-0.241864061247818
 30
3.517681922269976
  0
CIRCLE
  5
60
330
17
100
AcDbEntity
  8
keypoints
100
AcDbCircle
 10
2.3228337379400394
 20
-0.241864061247818
 30
3.517681922269976
 40
0.05
  0
POINT
  5
61
330
17
100
AcDbEntity
  8
0
100
AcDbPoint
 10
-1.3447052613617978
 20
-1.1626572590973725
 30
3.524690590180508
  0
CIRCLE
  5
62
330
17
100
AcDbEntity
  8
keypoints
100
AcDbCircle
 10
-1.3447052613617978
 20
-1.1626572590973725
 30
3.524690590180508
 40
0.05
  0
POINT
  5
63
330
17
100
AcDbEntity
  8
0
100
AcDbPoint
 10
-2.5017200071696832
 20
-0.699067879377856
 30
3.5752707026319728
  0
CIRCLE
  5
64
330
17
100
AcDbEntity
  8
keypoints
100
AcDbCircle
 10
-2.5017200071696832
 20
-0.699067879377856
 30
3.5752707026319728
 40
0.05
  0
POINT
  5
65
330
17
100
AcDbEntity
  8
0
100
AcDbPoint
 10
-2.130714780191272
 20
-0.522838059422803
 30
3.4990473452748136
  0
CIRCLE
  5
66
330
17
100
AcDbEntity
  8
keypoints
100
AcDbCircle
 10
-2.130714780191272
 20
-0.522838059422803
 30
3.4990473452748136
 40
0.05
  0
POINT
  5
67
330
17
100
AcDbEntity
  8
0
100
AcDbPoint
 10
-5.7540834636697
 20
1.5427190539588036
 30
3.5345890965061613
  0
CIRCLE
  5
68
330
17
100
AcDbEntity
  8
keypoints
100
AcDbCircle
 10
-5.7540834636697
 20
1.5427190539588036
 30
3.5345890965061613
 40
0.05
  0
POINT
  5
69
330
17
100
AcDbEntity
  8
0
100
AcDbPoint
 10
-5.152150460356934
 20
2.5921598527276215
 30
3.5784862124257755
  0
CIRCLE
  5
6A
330
17
100
AcDbEntity
  8
keypoints
100
AcDbCircle
 10
-5.152150460356934
 20
2.5921598527276215
 30
3.5784862124257755
 40
0.05
  0
POINT
  5
6B
330
17
100
AcDbEntity
  8
0
100
AcDbPoint
 10
-5.449364512883515
 20
2.629829179640101
 30
3.525026331518483
  0
CIRCLE
  5
6C
330
17
100
AcDbEntity
  8
keypoints
100
AcDbCircle
 10
-5.449364512883515
 20
2.629829179640101
 30
3.525026331518483
 40
0.05
  0
POINT
  5
6D
330
17
100
AcDbEntity
  8
0
100
AcDbPoint
 10
-5.820134146418216
 20
1.7910610567738459
 30
3.579663261536289
  0
CIRCLE
  5
6E
330
17
100
AcDbEntity
  8
keypoints
100
AcDbCircle
 10
-5.820134146418216
 20
1.7910610567738459
 30
3.579663261536289
 40
0.05
  0
POINT
  5
6F
330
17
100
AcDbEntity
  8
0
100
AcDbPoint
 10
-5.750890216540828
 20
2.273487666586399
 30
3.556402139485563
  0
CIRCLE
  5
70
330
17
100
AcDbEntity
  8
keypoints
100
AcDbCircle
 10
-5.750890216540828
 20
2.273487666586399
 30
3.556402139485563
 40
0.05
  0
POINT
  5
71
330
17
100
AcDbEntity
  8
0
100
AcDbPoint
 10
-0.9621305228251227
 20
2.5790466038374995
 30
3.5176454082450443
  0
CIRCLE
  5
72
330
17
100
AcDbEntity
  8
keypoints
100
AcDbCircle
 10
-0.9621305228251227
 20
2.5790466038374995
 30
3.5176454082450443
 40
0.05
  0
POINT
  5
73
330
17
100
AcDbEntity
  8
0
100
AcDbPoint
 10
2.894140753365015
 20
-0.717286660255134
 30
3.5175704307023805
  0
CIRCLE
  5
74
330
17
100
AcDbEntity
  8
keypoints
100
AcDbCircle
 10
2.894140753365015
 20
-0.717286660255134
 30
3.5175704307023805
 40
0.05
  0
POINT
  5
75
330
17
100
AcDbEntity
  8
0
100
AcDbPoint
 10
-1.772896174764546
 20
2.3288296020005053
 30
3.5524014421469747
  0
CIRCLE
  5
76
330
17
100
AcDbEntity
  8
keypoints
100
AcDbCircle
 10
-1.772896174764546
 20
2.3288296020005053
 30
3.5524014421469747
 40
0.05
  0
POINT
  5
77
330
17
100
AcDbEntity
  8
0
100
AcDbPoint
 10
3.3889190020915296
 20
1.3393476928527532
 30
3.549854958810918
  0
CIRCLE
  5
78
330
17
100
AcDbEntity
  8
keypoints
100
AcDbCircle
 10
3.3889190020915296
 20
1.3393476928527532
 30
3.549854958810918
 40
0.05
  0
POINT
  5
79
330
17
100
AcDbEntity
  8
0
100
AcDbPoint
 10
2.5969590900733452
 20
1.6799775379919657
 30
3.534292532461515
  0
CIRCLE
  5
7A
330
17
100
AcDbEntity
  8
keypoints
100
AcDbCircle
 10
2.5969590900733452
 20
1.6799775379919657
 30
3.534292532461515
 40
0.05
  0
POINT
  5
7B
330
17
100
AcDbEntity
  8
0
100
AcDbPoint
 10
-0.24947369967927874
 20
-3.51417393227272
 30
3.5300534509743575
  0
CIRCLE
  5
7C
330
17
100
AcDbEntity
  8
keypoints
100
AcDbCircle
 10
-0.24947369967927874
 20
-3.51417393227272
 30
3.5300534509743575
 40
0.05
  0
POINT
  5
7D
330
17
100
AcDbEntity
  8
0
100
AcDbPoint
 10
-0.8630048657746796
 20
-3.377330761871897
 30
3.5620205917485546
  0
CIRCLE
  5
7E
330
17
100
AcDbEntity
  8
keypoints
100
AcDbCircle
 10
-0.8630048657746796
 20
-3.377330761871897
 30
3.5620205917485546
 40
0.05
  0
POINT
  5
7F
330
17
100
AcDbEntity
  8
0
100
AcDbPoint
 10
-5.131014621538494
 20
0.23588058203687323
 30
3.566496319800332
  0
CIRCLE
  5
80
330
17
100
AcDbEntity
  8
keypoints
100
AcDbCircle
 10
-5.131014621538494
 20
0.23588058203687323
 30
3.566496319800332
 40
0.05
  0
POINT
  5
81
330
17
100
AcDbEntity
  8
0
100
AcDbPoint
 10
-1.077452473823287
 20
-0.8193647539708302
 30
3.545308905680571
  0
CIRCLE
  5
82
330
17
100
AcDbEntity
  8
keypoints
100
AcDbCircle
 10
-1.077452473823287
 20
-0.8193647539708302
 30
3.545308905680571
 40
0.05
  0
POINT
  5
83
330
17
100
AcDbEntity
  8
0
100
AcDbPoint
 10
-1.3078238813192717
 20
-0.3210100041365396
 30
3.5800735905711587
  0
CIRCLE
  5
84
330
17
100
AcDbEntity
  8
keypoints
100
AcDbCircle
 10
-1.3078238813192717
 20
-0.3210100041365396
 30
3.5800735905711587
 40
0.05
  0
POINT
  5
85
330
17
100
AcDbEntity
  8
0
100
AcDbPoint
 10
4.205867437085982
 20
4.932482895018937
 30
3.5736413874705333
  0
CIRCLE
  5
86
330
17
100
AcDbEntity
  8
keypoints
100
AcDbCircle
 10
4.205867437085982
 20
4.932482895018937
 30
3.5736413874705333
 40
0.05
  0
POINT
  5
87
330
17
100
AcDbEntity
  8
0
100
AcDbPoint
 10
-4.203268123858624
 20
-0.5071985375601311
 30
3.5801001703714777
  0
CIRCLE
  5
88
330
17
100
AcDbEntity
  8
keypoints
100
AcDbCircle
 10
-4.203268123858624
 20
-0.5071985375601311
 30
3.5801001703714777
 40
0.05
  0
POINT
  5
89
330
17
100
AcDbEntity
  8
0
100
AcDbPoint
 10
-5.086691902989408
 20
0.6282497156570468
 30
3.5701714813161862
  0
CIRCLE
  5
8A
330
17
100
AcDbEntity
  8
keypoints
100
AcDbCircle
 10
-5.086691902989408
 20
0.6282497156570468
 30
3.5701714813161862
 40
0.05
  0
POINT
  5
8B
330
17
100
AcDbEntity
  8
0
100
AcDbPoint
 10
-1.387779022082432
 20
0.9051809109799587
 30
3.5229493802758376
  0
CIRCLE
  5
8C
330
17
100
AcDbEntity
  8
keypoints
100
AcDbCircle
 10
-1.387779022082432
 20
0.9051809109799587
 30
3.5229493802758376
 40
0.05
  0
POINT
  5
8D
330
17
100
AcDbEntity
  8
0
100
AcDbPoint
 10
-5.805736557284025
 20
2.494300469468058
 30
3.5028826285145587
  0
CIRCLE
  5
8E
330
17
100
AcDbEntity
  8
keypoints
100
AcDbCircle
 10
-5.805736557284025
 20
2.494300469468058
 30
3.5028826285145587
 40
0.05
  0
POINT
  5
8F
330
17
100
AcDbEntity
  8
0
100
AcDbPoint
 10
-5.899027212833997
 20
1.4699459691375734
 30
3.500298713745492
  0
CIRCLE
  5
90
330
17
100
AcDbEntity
  8
keypoints
100
AcDbCircle
 10
-5.899027212833997
 20
1.4699459691375734
 30
3.500298713745492
 40
0.05
  0
POINT
  5
91
330
17
100
AcDbEntity
  8
0
100
AcDbPoint
 10
3.6684170873290247
 20
2.522657694200891
 30
3.576662072105033
  0
CIRCLE
  5
92
330
17
100
AcDbEntity
  8
keypoints
100
AcDbCircle
 10
3.6684170873290247
 20
2.522657694200891
 30
3.576662072105033
 40
0.05
  0
POINT
  5
93
330
17
100
AcDbEntity
  8
0
100
AcDbPoint
 10
-5.118361206454567
 20
-0.17089389514613273
 30
3.5544507210639797
  0
CIRCLE
  5
94
330
17
100
AcDbEntity
  8
keypoints
100
AcDbCircle
 10
-5.118361206454567
 20
-0.17089389514613273
 30
3.5544507210639797
 40
0.05
  0
POINT
  5
95
330
17
100
AcDbEntity
  8
0
100
AcDbPoint
 10
4.1832526055302335
 20
4.692811106409454
 30
3.5555218871390073
  0
CIRCLE
  5
96
330
17
100
AcDbEntity
  8
keypoints
100
AcDbCircle
 10
4.1832526055302335
 20
4.692811106409454
 30
3.5555218871390073
 40
0.05
  0
POINT
  5
97
330
17
100
AcDbEntity
  8
0
100
AcDbPoint
 10
3.994074497099409
 20
3.9785326714257225
 30
3.5042054716243713
  0
CIRCLE
  5
98
330
17
100
AcDbEntity
  8
keypoints
100
AcDbCircle
 10
3.994074497099409
 20
3.9785326714257225
 30
3.5042054716243713
 40
0.05
  0
POINT
  5
99
330
17
100
AcDbEntity
  8
0
100
AcDbPoint
 10
4.656033730449619
 20
6.935862324291765
 30
3.503062491312413
  0
CIRCLE
  5
9A
330
17
100
AcDbEntity
  8
keypoints
100
AcDbCircle
 10
4.656033730449619
 20
6.935862324291765
 30
3.503062491312413
 40
0.05
  0
POINT
  5
9B
330
17
100
AcDbEntity
  8
0
100
AcDbPoint
 10
2.83355958776247
 20
4.5858745016318
 30
3.5226379513462933
  0
CIRCLE
  5
9C
330
17
100
AcDbEntity
  8
keypoints
100
AcDbCircle
 10
2.83355958776247
 20
4.5858745016318
 30
3.5226379513462933
 40
0.05
  0
POINT
  5
9D
330
17
100
AcDbEntity
  8
0
100
AcDbPoint
 10
2.2673691246940217
 20
4.989346712787653
 30
3.5028840452589782
  0
CIRCLE
  5
9E
330
17
100
AcDbEntity
  8
keypoints
100
AcDbCircle
 10
2.2673691246940217
 20
4.989346712787653
 30
3.5028840452589782
 40
0.05
  0
POINT
  5
9F
330
17
100
AcDbEntity
  8
0
100
AcDbPoint
 10
4.707927628369755
 20
7.130761931763916
 30
3.511817618565721
  0
CIRCLE
  5
A0
330
17
100
AcDbEntity
  8
keypoints
100
AcDbCircle
 10
4.707927628369755
 20
7.130761931763916
 30
3.511817618565721
 40
0.05
  0
POINT
  5
A1
330
17
100
AcDbEntity
  8
0
100
AcDbPoint
 10
2.145698516087624
 20
-1.0707488412813768
 30
3.537024778131743
  0
CIRCLE
  5
A2
330
17
100
AcDbEntity
  8
keypoints
100
AcDbCircle
 10
2.145698516087624
 20
-1.0707488412813768
 30
3.537024778131743
 40
0.05
  0
POINT
  5
A3
330
17
100
AcDbEntity
  8
0
100
AcDbPoint
 10
-1.1499199789585213
 20
0.869604169554093
 30
3.5483701666177874
  0
CIRCLE
  5
A4
330
17
100
AcDbEntity
  8
keypoints
100
AcDbCircle
 10
-1.1499199789585213
 20
0.869604169554093
 30
3.5483701666177874
 40
0.05
  0
POINT
  5
A5
330
17
100
AcDbEntity
  8
0
100
AcDbPoint
 10
-0.5041711686744095
 20
3.4789477119192673
 30
3.549440326042287
  0
CIRCLE
  5
A6
330
17
100
AcDbEntity
  8
keypoints
100
AcDbCircle
 10
-0.5041711686744095
 20
3.4789477119192673
 30
3.549440326042287
 40
0.05
  0
POINT
  5
A7
330
17
100
AcDbEntity
  8
0
100
AcDbPoint
 10
2.8093171914445274
 20
4.742619770745079
 30
3.522188937417039
  0
CIRCLE
  5
A8
330
17
100
AcDbEntity
  8
keypoints
100
AcDbCircle
 10
2.8093171914445274
 20
4.742619770745079
 30
3.522188937417039
 40
0.05
  0
POINT
  5
A9
330
17
100
AcDbEntity
  8
0
100
AcDbPoint
 10
-1.8012053052639738
 20
4.886178415809664
 30
3.5184891282573
  0
CIRCLE
  5
AA
330
17
100
AcDbEntity
  8
keypoints
100
AcDbCircle
 10
-1.8012053052639738
 20
4.886178415809664
 30
3.5184891282573
 40
0.05
  0
POINT
  5
AB
330
17
100
AcDbEntity
  8
0
100
AcDbPoint
 10
-5.652285400459301
 20
1.172763325197093
 30
3.502005016035733
  0
CIRCLE
  5
AC
330
17
100
AcDbEntity
  8
keypoints
100
AcDbCircle
 10
-5.652285400459301
 20
1.172763325197093
 30
3.502005016035733
 40
0.05
  0
POINT
  5
AD
330
17
100
AcDbEntity
  8
0
100
AcDbPoint
 10
-0.598111173694867
 20
3.3828156590513236
 30
3.4950944713194727
  0
CIRCLE
  5
AE
330
17
100
AcDbEntity
  8
keypoints
100
AcDbCircle
 10
-0.598111173694867
 20
3.3828156590513236
 30
3.4950944713194727
 40
0.05
  0
POINT
  5
AF
330
17
100
AcDbEntity
  8
0
100
AcDbPoint
 10
-0.794059409399348
 20
3.288383681806488
 30
3.5344588403712285
  0
CIRCLE
  5
B0
330
17
100
AcDbEntity
  8
keypoints
100
AcDbCircle
 10
-0.794059409399348
 20
3.288383681806488
 30
3.5344588403712285
 40
0.05
  0
POINT
  5
B1
330
17
100
AcDbEntity
  8
0
100
AcDbPoint
 10
-0.5577571037112897
 20
3.679820406839138
 30
3.5472706830493665
  0
CIRCLE
  5
B2
330
17
100
AcDbEntity
  8
keypoints
100
AcDbCircle
 10
-0.5577571037112897
 20
3.679820406839138
 30
3.5472706830493665
 40
0.05
  0
POINT
  5
B3
330
17
100
AcDbEntity
  8
0
100
AcDbPoint
 10
-0.7659485271621989
 20
4.329835243592399
 30
3.5506130247973995
  0
CIRCLE
  5
B4
330
17
100
AcDbEntity
  8
keypoints
100
AcDbCircle
 10
-0.7659485271621989
 20
4.329835243592399
 30
3.5506130247973995
 40
0.05
  0
POINT
  5
B5
330
17
100
AcDbEntity
  8
0
100
AcDbPoint
 10
-0.8258076144567237
 20
4.063139230173612
 30
3.5368768968622692
  0
CIRCLE
  5
B6
330
17
100
AcDbEntity
  8
keypoints
100
AcDbCircle
 10
-0.8258076144567237
 20
4.063139230173612
 30
3.5368768968622692
 40
0.05
  0
POINT
  5
B7
330
17
100
AcDbEntity
  8
0
100
AcDbPoint
 10
2.7932397870097385
 20
0.22843773067561401
 30
3.5744704725314373
  0
CIRCLE
  5
B8
330
17
100
AcDbEntity
  8
keypoints
100
AcDbCircle
 10
2.7932397870097385
 20
0.22843773067561401
 30
3.5744704725314373
 40
0.05
  0
POINT
  5
B9
330
17
100
AcDbEntity
  8
0
100
AcDbPoint
 10
0.9501077655246146
 20
5.482983043993787
 30
3.5707047082973027
  0
CIRCLE
  5
BA
330
17
100
AcDbEntity
  8
keypoints
100
AcDbCircle
 10
0.9501077655246146
 20
5.482983043993787
 30
3.5707047082973027
 40
0.05
  0
POINT
  5
BB
330
17
100
AcDbEntity
  8
0
100
AcDbPoint
 10
-0.1015847746296823
 20
5.162670514131864
 30
3.5809006566746673
  0
CIRCLE
  5
BC
330
17
100
AcDbEntity
  8
keypoints
100
AcDbCircle
 10
-0.1015847746296823
 20
5.162670514131864
 30
3.5809006566746673
 40
0.05
  0
POINT
  5
BD
330
17
100
AcDbEntity
  8
0
100
AcDbPoint
 10
1.1016587338539372
 20
5.434974769147341
 30
3.5739080762777373
  0
CIRCLE
  5
BE
330
17
100
AcDbEntity
  8
keypoints
100
AcDbCircle
 10
1.1016587338539372
 20
5.434974769147341
 30
3.5739080762777373
 40
0.05
  0
POINT
  5
BF
330
17
100
AcDbEntity
  8
0
100
AcDbPoint
 10
-4.858275646154685
 20
2.7812562360011794
 30
3.544617006869005
  0
CIRCLE
  5
C0
330
17
100
AcDbEntity
  8
keypoints
100
AcDbCircle
 10
-4.858275646154685
 20
2.7812562360011794
 30
3.544617006869005
 40
0.05
  0
POINT
  5
C1
330
17
100
AcDbEntity
  8
0
100
AcDbPoint
 10
-4.8371198395747586
 20
2.976722152105981
 30
3.548265887168009
  0
CIRCLE
  5
C2
330
17
100
AcDbEntity
  8
keypoints
100
AcDbCircle
 10
-4.8371198395747586
 20
2.976722152105981
 30
3.548265887168009
 40
0.05
  0
POINT
  5
C3
330
17
100
AcDbEntity
  8
0
100
AcDbPoint
 10
-4.398757559165698
 20
5.01902706557492
 30
3.533887708793704
  0
CIRCLE
  5
C4
330
17
100
AcDbEntity
  8
keypoints
100
AcDbCircle
 10
-4.398757559165698
 20
5.01902706557492
 30
3.533887708793704
 40
0.05
  0
POINT
  5
C5
330
17
100
AcDbEntity
  8
0
100
AcDbPoint
 10
-3.400744622792866
 20
5.021974341261559
 30
3.567925606450801
  0
CIRCLE
  5
C6
330
17
100
AcDbEntity
  8
keypoints
100
AcDbCircle
 10
-3.400744622792866
 20
5.021974341261559
 30
3.567925606450801
 40
0.05
  0
POINT
  5
C7
330
17
100
AcDbEntity
  8
0
100
AcDbPoint
 10
4.332330177094063
 20
5.386494691645403
 30
3.541721672635579
  0
CIRCLE
  5
C8
330
17
100
AcDbEntity
  8
keypoints
100
AcDbCircle
 10
4.332330177094063
 20
5.386494691645403
 30
3.541721672635579
 40
0.05
  0
POINT
  5
C9
330
17
100
AcDbEntity
  8
0
100
AcDbPoint
 10
-1.7242616769588728
 20
3.277128143853868
 30
3.496683265533194
  0
CIRCLE
  5
CA
330
17
100
AcDbEntity
  8
keypoints
100
AcDbCircle
 10
-1.7242616769588728
 20
3.277128143853868
 30
3.496683265533194
 40
0.05
  0
POINT
  5
CB
330
17
100
AcDbEntity
  8
0
100
AcDbPoint
 10
2.5703416677930098
 20
2.227200127657064
 30
3.5889498080299664
  0
CIRCLE
  5
CC
330
17
100
AcDbEntity
  8
keypoints
100
AcDbCircle
 10
2.5703416677930098
 20
2.227200127657064
 30
3.5889498080299664
 40
0.05
  0
POINT
  5
CD
330
17
100
AcDbEntity
  8
0
100
AcDbPoint
 10
2.1371065970129206
 20
5.163582441949521
 30
3.516812177489709
  0
CIRCLE
  5
CE
330
17
100
AcDbEntity
  8
keypoints
100
AcDbCircle
 10
2.1371065970129206
 20
5.163582441949521
 30
3.516812177489709
 40
0.05
  0
POINT
  5
CF
330
17
100
AcDbEntity
  8
0
100
AcDbPoint
 10
-4.952562224782557
 20
-0.38450728638363807
 30
3.5547432425983296
  0
CIRCLE
  5
D0
330
17
100
AcDbEntity
  8
keypoints
100
AcDbCircle
 10
-4.952562224782557
 20
-0.38450728638363807
 30
3.5547432425983296
 40
0.05
  0
POINT
  5
D1
330
17
100
AcDbEntity
  8
0
100
AcDbPoint
 10
2.5874014061621167
 20
1.8767095569568009
 30
3.5863345330722143
  0
CIRCLE
  5
D2
330
17
100
AcDbEntity
  8
keypoints
100
AcDbCircle
 10
2.5874014061621167
 20
1.8767095569568009
 30
3.5863345330722143
 40
0.05
  0
POINT
  5
D3
330
17
100
AcDbEntity
  8
0
100
AcDbPoint
 10
3.8035876744780173
 20
3.0324577150216845
 30
3.585373728594397
  0
CIRCLE
  5
D4
330
17
100
AcDbEntity
  8
keypoints
100
AcDbCircle
 10
3.8035876744780173
 20
3.0324577150216845
 30
3.585373728594397
 40
0.05
  0
POINT
  5
D5
330
17
100
AcDbEntity
  8
0
100
AcDbPoint
 10
-3.574928314512855
 20
5.055198652575008
 30
3.5552361657154803
  0
CIRCLE
  5
D6
330
17
100
AcDbEntity
  8
keypoints
100
AcDbCircle
 10
-3.574928314512855
 20
5.055198652575008
 30
3.5552361657154803
 40
0.05
  0
POINT
  5
D7
330
17
100
AcDbEntity
  8
0
100
AcDbPoint
 10
-5.1053132572908275
 20
0.03004499127601945
 30
3.5058572666014807
  0
CIRCLE
  5
D8
330
17
100
AcDbEntity
  8
keypoints
100
AcDbCircle
 10
-5.1053132572908275
 20
0.03004499127601945
 30
3.5058572666014807
 40
0.05
  0
POINT
  5
D9
330
17
100
AcDbEntity
  8
0
100
AcDbPoint
 10
-2.9025256490587354
 20
-0.669489669924179
 30
3.57285841529238
  0
CIRCLE
  5
DA
330
17
100
AcDbEntity
  8
keypoints
100
AcDbCircle
 10
-2.9025256490587354
 20
-0.669489669924179
 30
3.57285841529238
 40
0.05
  0
POINT
  5
DB
330
17
100
AcDbEntity
  8
0
100
AcDbPoint
 10
2.5392264918998655
 20
4.769607844514636
 30
3.521487346727248
  0
CIRCLE
  5
DC
330
17
100
AcDbEntity
  8
keypoints
100
AcDbCircle
 10
2.5392264918998655
 20
4.769607844514636
 30
3.521487346727248
 40
0.05
  0
POINT
  5
DD
330
17
100
AcDbEntity
  8
0
100
AcDbPoint
 10
-1.3111980508667815
 20
-0.021446403666490532
 30
3.5327427562017215
  0
CIRCLE
  5
DE
330
17
100
AcDbEntity
  8
keypoints
100
AcDbCircle
 10
-1.3111980508667815
 20
-0.021446403666490532
 30
3.5327427562017215
 40
0.05
  0
POINT
  5
DF
330
17
100
AcDbEntity
  8
0
100
AcDbPoint
 10
-1.4930719645793937
 20
-1.321712546510396
 30
3.51247603102863
  0
CIRCLE
  5
E0
330
17
100
AcDbEntity
  8
keypoints
100
AcDbCircle
 10
-1.4930719645793937
 20
-1.321712546510396
 30
3.51247603102863
 40
0.05
  0
POINT
  5
E1
330
17
100
AcDbEntity
  8
0
100
AcDbPoint
 10
-0.909129617200368
 20
0.6312605724454081
 30
3.5535484814042153
  0
CIRCLE
  5
E2
330
17
100
AcDbEntity
  8
keypoints
100
AcDbCircle
 10
-0.909129617200368
 20
0.6312605724454081
 30
3.5535484814042153
 40
0.05
  0
POINT
  5
E3
330
17
100
AcDbEntity
  8
0
100
AcDbPoint
 10
4.62162053159555
 20
6.737994697381789
 30
3.5596547506411085
  0
CIRCLE
  5
E4
330
17
100
AcDbEntity
  8
keypoints
100
AcDbCircle
 10
4.62162053159555
 20
6.737994697381789
 30
3.5596547506411085
 40
0.05
  0
POINT
  5
E5
330
17
100
AcDbEntity
  8
0
100
AcDbPoint
 10
4.05909729124554
 20
4.282273292516555
 30
3.561088074084669
  0
CIRCLE
  5
E6
330
17
100
AcDbEntity
  8
keypoints
100
AcDbCircle
 10
4.05909729124554
 20
4.282273292516555
 30
3.561088074084669
 40
0.05
  0
POINT
  5
E7
330
17
100
AcDbEntity
  8
0
100
AcDbPoint
 10
4.220031939798482
 20
4.925868664617282
 30
3.5287879879250132
  0
CIRCLE
  5
E8
330
17
100
AcDbEntity
  8
keypoints
100
AcDbCircle
 10
4.220031939798482
 20
4.925868664617282
 30
3.5287879879250132
 40
0.05
  0
POINT
  5
E9
330
17
100
AcDbEntity
  8
0
100
AcDbPoint
 10
1.4417968227036262
 20
5.408754485803895
 30
3.585968887674551
  0
CIRCLE
  5
EA
330
17
100
AcDbEntity
  8
keypoints
100
AcDbCircle
 10
1.4417968227036262
 20
5.408754485803895
 30
3.585968887674551
 40
0.05
  0
POINT
  5
EB
330
17
100
AcDbEntity
  8
0
100
AcDbPoint
 10
-1.9483889358785862
 20
0.5789926921675332
 30
3.5182863158113324
  0
CIRCLE
  5
EC
330
17
100
AcDbEntity
  8
keypoints
100
AcDbCircle
 10
-1.9483889358785862
 20
0.5789926921675332
 30
3.5182863158113324
 40
0.05
  0
POINT
  5
ED
330
17
100
AcDbEntity
  8
0
100
AcDbPoint
 10
0.4201608587881969
 20
5.210040339643404
 30
3.514528704715792
  0
CIRCLE
  5
EE
330
17
100
AcDbEntity
  8
keypoints
100
AcDbCircle
 10
0.4201608587881969
 20
5.210040339643404
 30
3.514528704715792
 40
0.05
  0
POINT
  5
EF
330
17
100
AcDbEntity
  8
0
100
AcDbPoint
 10
3.8460340773633943
 20
3.2823159933038824
 30
3.4924618682290003
  0
CIRCLE
  5
F0
330
17
100
AcDbEntity
  8
keypoints
100
AcDbCircle
 10
3.8460340773633943
 20
3.2823159933038824
 30
3.4924618682290003
 40
0.05
  0
POINT
  5
F1
330
17
100
AcDbEntity
  8
0
100
AcDbPoint
 10
-3.70104121449947
 20
-0.6042868594692938
 30
3.5459366850065117
  0
CIRCLE
  5
F2
330
17
100
AcDbEntity
  8
keypoints
100
AcDbCircle
 10
-3.70104121449947
 20
-0.6042868594692938
 30
3.5459366850065117
 40
0.05
  0
POINT
  5
F3
330
17
100
AcDbEntity
  8
0
100
AcDbPoint
 10
2.1651528214481592
 20
-0.9233899841106605
 30
3.538953550247505
  0
CIRCLE
  5
F4
330
17
100
AcDbEntity
  8
keypoints
100
AcDbCircle
 10
2.1651528214481592
 20
-0.9233899841106605
 30
3.538953550247505
 40
0.05
  0
POINT
  5
F5
330
17
100
AcDbEntity
  8
0
100
AcDbPoint
 10
-1.6279983431001848
 20
-2.2880313958798633
 30
3.527761449227926
  0
CIRCLE
  5
F6
330
17
100
AcDbEntity
  8
keypoints
100
AcDbCircle
 10
-1.6279983431001848
 20
-2.2880313958798633
 30
3.527761449227926
 40
0.05
  0
POINT
  5
F7
330
17
100
AcDbEntity
  8
0
100
AcDbPoint
 10
-2.021012292079862
 20
0.07857756622471146
 30
3.507393732474309
  0
CIRCLE
  5
F8
330
17
100
AcDbEntity
  8
keypoints
100
AcDbCircle
 10
-2.021012292079862
 20
0.07857756622471146
 30
3.507393732474309
 40
0.05
  0
POINT
  5
F9
330
17
100
AcDbEntity
  8
0
100
AcDbPoint
 10
-2.5095057861792323
 20
5.015495095063724
 30
3.5456643933528005
  0
CIRCLE
  5
FA
330
17
100
AcDbEntity
  8
keypoints
100
AcDbCircle
 10
-2.5095057861792323
 20
5.015495095063724
 30
3.5456643933528005
 40
0.05
  0
POINT
  5
FB
330
17
100
AcDbEntity
  8
0
100
AcDbPoint
 10
3.1984363930349256
 20
1.5375598211544883
 30
3.552976374624259
  0
CIRCLE
  5
FC
330
17
100
AcDbEntity
  8
keypoints
100
AcDbCircle
 10
3.1984363930349256
 20
1.5375598211544883
 30
3.552976374624259
 40
0.05
  0
POINT
  5
FD
330
17
100
AcDbEntity
  8
0
100
AcDbPoint
 10
0.09945864744279737
 20
-3.5414229236074917
 30
3.5422516035954366
  0
CIRCLE
  5
FE
330
17
100
AcDbEntity
  8
keypoints
100
AcDbCircle
 10
0.09945864744279737
 20
-3.5414229236074917
 30
3.5422516035954366
 40
0.05
  0
POINT
  5
FF
330
17
100
AcDbEntity
  8
0
100
AcDbPoint
 10
-3.5014191774063073
 20
-0.6038464124477227
 30
3.5021909524340455
  0
CIRCLE
  5
100
330
17
100
AcDbEntity
  8
keypoints
100
AcDbCircle
 10
-3.5014191774063073
 20
-0.6038464124477227
 30
3.5021909524340455
 40
0.05
  0
POINT
  5
101
330
17
100
AcDbEntity
  8
0
100
AcDbPoint
 10
3.9234009090564808
 20
3.6821803622157727
 30
3.502915265934088
  0
CIRCLE
  5
102
330
17
100
AcDbEntity
  8
keypoints
100
AcDbCircle
 10
3.9234009090564808
 20
3.6821803622157727
 30
3.502915265934088
 40
0.05
  0
POINT
  5
103
330
17
100
AcDbEntity
  8
0
100
AcDbPoint
 10
2.6984380546677627
 20
4.68511988445573
 30
3.5715364561956293
  0
CIRCLE
  5
104
330
17
100
AcDbEntity
  8
keypoints
100
AcDbCircle
 10
2.6984380546677627
 20
4.68511988445573
 30
3.5715364561956293
 40
0.05
  0
POINT
  5
105
330
17
100
AcDbEntity
  8
0
100
AcDbPoint
 10
-1.6508702431448044
 20
2.121216751819971
 30
3.495011785356783
  0
CIRCLE
  5
106
330
17
100
AcDbEntity
  8
keypoints
100
AcDbCircle
 10
-1.6508702431448044
 20
2.121216751819971
 30
3.495011785356783
 40
0.05
  0
POINT
  5
107
330
17
100
AcDbEntity
  8
0
100
AcDbPoint
 10
4.549958777309411
 20
6.432669291068739
 30
3.548424512625946
  0
CIRCLE
  5
108
330
17
100
AcDbEntity
  8
keypoints
100
AcDbCircle
 10
4.549958777309411
 20
6.432669291068739
 30
3.548424512625946
 40
0.05
  0
POINT
  5
109
330
17
100
AcDbEntity
  8
0
100
AcDbPoint
 10
0.21193158336835033
 20
5.158385808321537
 30
3.5600435579685294
  0
CIRCLE
  5
10A
330
17
100
AcDbEntity
  8
keypoints
100
AcDbCircle
 10
0.21193158336835033
 20
5.158385808321537
 30
3.5600435579685294
 40
0.05
  0
POINT
  5
10B
330
17
100
AcDbEntity
  8
0
100
AcDbPoint
 10
1.2900952178728187
 20
5.39904099358212
 30
3.5822467657869734
  0
CIRCLE
  5
10C
330
17
100
AcDbEntity
  8
keypoints
100
AcDbCircle
 10
1.2900952178728187
 20
5.39904099358212
 30
3.5822467657869734
 40
0.05
  0
POINT
  5
10D
330
17
100
AcDbEntity
  8
0
100
AcDbPoint
 10
4.039974856510568
 20
1.3361626791052479
 30
3.5721067927612418
  0
CIRCLE
  5
10E
330
17
100
AcDbEntity
  8
keypoints
100
AcDbCircle
 10
4.039974856510568
 20
1.3361626791052479
 30
3.5721067927612418
 40
0.05
  0
POINT
  5
10F
330
17
100
AcDbEntity
  8
0
100
AcDbPoint
 10
-4.802809875226984
 20
-0.40464108674409105
 30
3.560538805757889
  0
CIRCLE
  5
110
330
17
100
AcDbEntity
  8
keypoints
100
AcDbCircle
 10
-4.802809875226984
 20
-0.40464108674409105
 30
3.560538805757889
 40
0.05
  0
POINT
  5
111
330
17
100
AcDbEntity
  8
0
100
AcDbPoint
 10
-1.303372878239798
 20
-0.17080322238529444
 30
3.5810074979680686
  0
CIRCLE
  5
112
330
17
100
AcDbEntity
  8
keypoints
100
AcDbCircle
 10
-1.303372878239798
 20
-0.17080322238529444
 30
3.5810074979680686
 40
0.05
  0
POINT
  5
113
330
17
100
AcDbEntity
  8
0
100
AcDbPoint
 10
-1.3247134230619448
 20
-2.9457879791920654
 30
3.544263993449927
  0
CIRCLE
  5
114
330
17
100
AcDbEntity
  8
keypoints
100
AcDbCircle
 10
-1.3247134230619448
 20
-2.9457879791920654
 30
3.544263993449927
 40
0.05
  0
POINT
  5
115
330
17
100
AcDbEntity
  8
0
100
AcDbPoint
 10
-2.8983977687931493
 20
5.032975281552825
 30
3.538982353122378
  0
CIRCLE
  5
116
330
17
100
AcDbEntity
  8
keypoints
100
AcDbCircle
 10
-2.8983977687931493
 20
5.032975281552825
 30
3.538982353122378
 40
0.05
  0
POINT
  5
117
330
17
100
AcDbEntity
  8
0
100
AcDbPoint
 10
-3.9511511421966827
 20
-0.562519673109587
 30
3.5357283741639876
  0
CIRCLE
  5
118
330
17
100
AcDbEntity
  8
keypoints
100
AcDbCircle
 10
-3.9511511421966827
 20
-0.562519673109587
 30
3.5357283741639876
 40
0.05
  0
POINT
  5
119
330
17
100
AcDbEntity
  8
0
100
AcDbPoint
 10
-1.5992498798122212
 20
-1.8694727091159853
 30
3.5030282700100255
  0
CIRCLE
  5
11A
330
17
100
AcDbEntity
  8
keypoints
100
AcDbCircle
 10
-1.5992498798122212
 20
-1.8694727091159853
 30
3.5030282700100255
 40
0.05
  0
POINT
  5
11B
330
17
100
AcDbEntity
  8
0
100
AcDbPoint
 10
0.7633453888653559
 20
-3.3034935026800136
 30
3.5692705016580524
  0
CIRCLE
  5
11C
330
17
100
AcDbEntity
  8
keypoints
100
AcDbCircle
 10
0.7633453888653559
 20
-3.3034935026800136
 30
3.5692705016580524
 40
0.05
  0
POINT
  5
11D
330
17
100
AcDbEntity
  8
0
100
AcDbPoint
 10
2.179794259580948
 20
-0.9211034930133268
 30
3.540376850811099
  0
CIRCLE
  5
11E
330
17
100
AcDbEntity
  8
keypoints
100
AcDbCircle
 10
2.179794259580948
 20
-0.9211034930133268
 30
3.540376850811099
 40
0.05
  0
POINT
  5
11F
330
17
100
AcDbEntity
  8
0
100
AcDbPoint
 10
-3.3003224547545265
 20
-0.6389710833758031
 30
3.5090536097823253
  0
CIRCLE
  5
120
330
17
100
AcDbEntity
  8
keypoints
100
AcDbCircle
 10
-3.3003224547545265
 20
-0.6389710833758031
 30
3.5090536097823253
 40
0.05
  0
POINT
  5
121
330
17
100
AcDbEntity
  8
0
100
AcDbPoint
 10
1.8525686380287485
 20
5.332323047092273
 30
3.499093164762651
  0
CIRCLE
  5
122
330
17
100
AcDbEntity
  8
keypoints
100
AcDbCircle
 10
1.8525686380287485
 20
5.332323047092273
 30
3.499093164762651
 40
0.05
  0
POINT
  5
123
330
17
100
AcDbEntity
  8
0
100
AcDbPoint
 10
-1.8302856920987454
 20
2.6271093109105452
 30
3.5452391035620083
  0
CIRCLE
  5
124
330
17
100
AcDbEntity
  8
keypoints
100
AcDbCircle
 10
-1.8302856920987454
 20
2.6271093109105452
 30
3.5452391035620083
 40
0.05
  0
POINT
  5
125
330
17
100
AcDbEntity
  8
0
100
AcDbPoint
 10
4.437190712790908
 20
5.780615073661206
 30
3.5399496752640642
  0
CIRCLE
  5
126
330
17
100
AcDbEntity
  8
keypoints
100
AcDbCircle
 10
4.437190712790908
 20
5.780615073661206
 30
3.5399496752640642
 40
0.05
  0
LINE
  5
127
330
17
100
AcDbEntity
  8
lines
100
AcDbLine
 10
3.636634370606666
 20
1.3579515801430264
 30
3.5247794664034755
 11
3.3889190020915296
 21
1.3393476928527532
 31
3.549854958810918
  0
LINE
  5
128
330
17
100
AcDbEntity
  8
lines
100
AcDbLine
 10
3.636634370606666
 20
1.3579515801430264
 30
3.5247794664034755
 11
3.2670499292596697
 21
1.343965148741225
 31
3.5019389139678085
  0
LINE
  5
129
330
17
100
AcDbEntity
  8
lines
100
AcDbLine
 10
2.229303497267078
 20
-0.5068136214641437
 30
3.5029129307801705
 11
2.3228337379400394
 21
-0.241864061247818
 31
3.517681922269976
  0
LINE
  5
12A
330
17
100
AcDbEntity
  8
lines
100
AcDbLine
 10
2.229303497267078
 20
-0.5068136214641437
 30
3.5029129307801705
 11
2.179794259580948
 21
-0.9211034930133268
 31
3.540376850811099
  0
LINE
  5
12B
330
17
100
AcDbEntity
  8
lines
100
AcDbLine
 10
-2.325165433129101
 20
-0.6941072534548482
 30
3.55539559584495
 11
-2.5017200071696832
 21
-0.699067879377856
 31
3.5752707026319728
  0
LINE
  5
12C
330
17
100
AcDbEntity
  8
lines
100
AcDbLine
 10
-2.325165433129101
 20
-0.6941072534548482
 30
3.55539559584495
 11
-2.130714780191272
 21
-0.522838059422803
 31
3.4990473452748136
  0
LINE
  5
12D
330
17
100
AcDbEntity
  8
lines
100
AcDbLine
 10
-1.8685833411586013
 20
0.702036305051299
 30
3.531266024176676
 11
-1.9483889358785862
 21
0.5789926921675332
 31
3.5182863158113324
  0
LINE
  5
12E
330
17
100
AcDbEntity
  8
lines
100
AcDbLine
 10
-1.8685833411586013
 20
0.702036305051299
 30
3.531266024176676
 11
-1.387779022082432
 21
0.9051809109799587
 31
3.5229493802758376
  0
LINE
  5
12F
330
17
100
AcDbEntity
  8
lines
100
AcDbLine
 10
2.7308790672445236
 20
-1.154402922582307
 30
3.568920162595072
 11
2.894140753365015
 21
-0.717286660255134
 31
3.5175704307023805
  0
LINE
  5
130
330
17
100
AcDbEntity
  8
lines
100
AcDbLine
 10
2.7308790672445236
 20
-1.154402922582307
 30
3.568920162595072
 11
2.145698516087624
 21
-1.0707488412813768
 31
3.537024778131743
  0
LINE
  5
131
330
17
100
AcDbEntity
  8
lines
100
AcDbLine
 10
2.8729497593149445
 20
1.2826379107906232
 30
3.569507465552968
 11
2.9593671328703026
 21
1.1335903917230197
 31
3.5526085640712948
  0
LINE
  5
132
330
17
100
AcDbEntity
  8
lines
100
AcDbLine
 10
2.8729497593149445
 20
1.2826379107906232
 30
3.569507465552968
 11
3.0896434108000483
 21
1.2003195612069617
 31
3.5563153979998052
  0
LINE
  5
133
330
17
100
AcDbEntity
  8
lines
100
AcDbLine
 10
-1.475567113355964
 20
-1.194275129454635
 30
3.51149232568103
 11
-1.4930719645793937
 21
-1.321712546510396
 31
3.51247603102863
  0
LINE
  5
134
330
17
100
AcDbEntity
  8
lines
100
AcDbLine
 10
-1.475567113355964
 20
-1.194275129454635
 30
3.51149232568103
 11
-1.3447052613617978
 21
-1.1626572590973725
 31
3.524690590180508
  0
LINE
  5
135
330
17
100
AcDbEntity
  8
lines
100
AcDbLine
 10
-1.4195622845272438
 20
2.0065972318803533
 30
3.5163556251711174
 11
-1.6508702431448044
 21
2.121216751819971
 31
3.495011785356783
  0
LINE
  5
136
330
17
100
AcDbEntity
  8
lines
100
AcDbLine
 10
-1.4195622845272438
 20
2.0065972318803533
 30
3.5163556251711174
 11
-1.772896174764546
 21
2.3288296020005053
 31
3.5524014421469747
  0
LINE
  5
137
330
17
100
AcDbEntity
  8
lines
100
AcDbLine
 10
-4.520961985444424
 20
-0.4451540540155421
 30
3.5884453727062464
 11
-4.802809875226984
 21
-0.40464108674409105
 31
3.560538805757889
  0
LINE
  5
138
330
17
100
AcDbEntity
  8
lines
100
AcDbLine
 10
-4.520961985444424
 20
-0.4451540540155421
 30
3.5884453727062464
 11
-4.203268123858624
 21
-0.5071985375601311
 31
3.5801001703714777
  0
LINE
  5
139
330
17
100
AcDbEntity
  8
lines
100
AcDbLine
 10
3.7794682599630147
 20
2.851133472848191
 30
3.503701480528851
 11
3.8035876744780173
 21
3.0324577150216845
 31
3.585373728594397
  0
LINE
  5
13A
330
17
100
AcDbEntity
  8
lines
100
AcDbLine
 10
3.7794682599630147
 20
2.851133472848191
 30
3.503701480528851
 11
3.6684170873290247
 21
2.522657694200891
 31
3.576662072105033
  0
LINE
  5
13B
330
17
100
AcDbEntity
  8
lines
100
AcDbLine
 10
-0.7660644257150657
 20
1.9015455688753462
 30
3.5132138177173284
 11
-0.9621305228251227
 21
2.5790466038374995
 31
3.5176454082450443
  0
LINE
  5
13C
330
17
100
AcDbEntity
  8
lines
100
AcDbLine
 10
-4.183146131428584
 20
5.05494173652124
 30
3.53599771267744
 11
-4.398757559165698
 21
5.01902706557492
 31
3.533887708793704
  0
LINE
  5
13D
330
17
100
AcDbEntity
  8
lines
100
AcDbLine
 10
-4.183146131428584
 20
5.05494173652124
 30
3.53599771267744
 11
-3.574928314512855
 21
5.055198652575008
 31
3.5552361657154803
  0
LINE
  5
13E
330
17
100
AcDbEntity
  8
lines
100
AcDbLine
 10
-3.1323894529241896
 20
5.003863008414966
 30
3.4960097118751885
 11
-2.8983977687931493
 21
5.032975281552825
 31
3.538982353122378
  0
LINE
  5
13F
330
17
100
AcDbEntity
  8
lines
100
AcDbLine
 10
-3.1323894529241896
 20
5.003863008414966
 30
3.4960097118751885
 11
-3.400744622792866
 21
5.021974341261559
 31
3.567925606450801
  0
LINE
  5
140
330
17
100
AcDbEntity
  8
lines
100
AcDbLine
 10
2.983800976560981
 20
-0.22310505963440952
 30
3.559511951011012
 11
2.7932397870097385
 21
0.22843773067561401
 31
3.5744704725314373
  0
LINE
  5
141
330
17
100
AcDbEntity
  8
lines
100
AcDbLine
 10
2.983800976560981
 20
-0.22310505963440952
 30
3.559511951011012
 11
2.894140753365015
 21
-0.717286660255134
 31
3.5175704307023805
  0
LINE
  5
142
330
17
100
AcDbEntity
  8
lines
100
AcDbLine
 10
2.438190930762276
 20
-0.017710012531558794
 30
3.559069655572163
 11
2.3228337379400394
 21
-0.241864061247818
 31
3.517681922269976
  0
LINE
  5
143
330
17
100
AcDbEntity
  8
lines
100
AcDbLine
 10
2.438190930762276
 20
-0.017710012531558794
 30
3.559069655572163
 11
2.7932397870097385
 21
0.22843773067561401
 31
3.5744704725314373
  0
LINE
  5
144
330
17
100
AcDbEntity
  8
lines
100
AcDbLine
 10
2.9620181745423886
 20
0.6784959240177957
 30
3.5817704969951096
 11
2.9593671328703026
 21
1.1335903917230197
 31
3.5526085640712948
  0
LINE
  5
145
330
17
100
AcDbEntity
  8
lines
100
AcDbLine
 10
2.9620181745423886
 20
0.6784959240177957
 30
3.5817704969951096
 11
2.7932397870097385
 21
0.22843773067561401
 31
3.5744704725314373
  0
LINE
  5
146
330
17
100
AcDbEntity
  8
lines
100
AcDbLine
 10
2.9593671328703026
 20
1.1335903917230197
 30
3.5526085640712948
 11
3.0896434108000483
 21
1.2003195612069617
 31
3.5563153979998052
  0
LINE
  5
147
330
17
100
AcDbEntity
  8
lines
100
AcDbLine
 10
3.2670499292596697
 20
1.343965148741225
 30
3.5019389139678085
 11
3.3889190020915296
 21
1.3393476928527532
 31
3.549854958810918
  0
LINE
  5
148
330
17
100
AcDbEntity
  8
lines
100
AcDbLine
 10
3.2670499292596697
 20
1.343965148741225
 30
3.5019389139678085
 11
3.1984363930349256
 21
1.5375598211544883
 31
3.552976374624259
  0
LINE
  5
149
330
17
100
AcDbEntity
  8
lines
100
AcDbLine
 10
3.49543351099519
 20
2.231760507849967
 30
3.518099081609442
 11
3.6684170873290247
 21
2.522657694200891
 31
3.576662072105033
  0
LINE
  5
14A
330
17
100
AcDbEntity
  8
lines
100
AcDbLine
 10
0.28473887950778437
 20
-3.5912756936716406
 30
3.5443494004055625
 11
0.09945864744279737
 21
-3.5414229236074917
 31
3.5422516035954366
  0
LINE
  5
14B
330
17
100
AcDbEntity
  8
lines
100
AcDbLine
 10
0.28473887950778437
 20
-3.5912756936716406
 30
3.5443494004055625
 11
-0.24947369967927874
 21
-3.51417393227272
 31
3.5300534509743575
  0
LINE
  5
14C
330
17
100
AcDbEntity
  8
lines
100
AcDbLine
 10
-0.5017779380381296
 20
-3.452462284154879
 30
3.5718516884918516
 11
-0.24947369967927874
 21
-3.51417393227272
 31
3.5300534509743575
  0
LINE
  5
14D
330
17
100
AcDbEntity
  8
lines
100
AcDbLine
 10
-0.5017779380381296
 20
-3.452462284154879
 30
3.5718516884918516
 11
-0.8630048657746796
 21
-3.377330761871897
 31
3.5620205917485546
  0
LINE
  5
14E
330
17
100
AcDbEntity
  8
lines
100
AcDbLine
 10
-1.552743626832217
 20
-1.619751735956126
 30
3.505598596092252
 11
-1.5172691595198362
 21
-1.470385742529707
 31
3.510324612671727
  0
LINE
  5
14F
330
17
100
AcDbEntity
  8
lines
100
AcDbLine
 10
-1.552743626832217
 20
-1.619751735956126
 30
3.505598596092252
 11
-1.5992498798122212
 21
-1.8694727091159853
 31
3.5030282700100255
  0
LINE
  5
150
330
17
100
AcDbEntity
  8
lines
100
AcDbLine
 10
-1.5172691595198362
 20
-1.470385742529707
 30
3.510324612671727
 11
-1.4930719645793937
 21
-1.321712546510396
 31
3.51247603102863
  0
LINE
  5
151
330
17
100
AcDbEntity
  8
lines
100
AcDbLine
 10
-1.3447052613617978
 20
-1.1626572590973725
 30
3.524690590180508
 11
-1.4930719645793937
 21
-1.321712546510396
 31
3.51247603102863
  0
LINE
  5
152
330
17
100
AcDbEntity
  8
lines
100
AcDbLine
 10
-2.5017200071696832
 20
-0.699067879377856
 30
3.5752707026319728
 11
-2.9025256490587354
 21
-0.669489669924179
 31
3.57285841529238
  0
LINE
  5
153
330
17
100
AcDbEntity
  8
lines
100
AcDbLine
 10
-5.7540834636697
 20
1.5427190539588036
 30
3.5345890965061613
 11
-5.899027212833997
 21
1.4699459691375734
 31
3.500298713745492
  0
LINE
  5
154
330
17
100
AcDbEntity
  8
lines
100
AcDbLine
 10
-5.7540834636697
 20
1.5427190539588036
 30
3.5345890965061613
 11
-5.820134146418216
 21
1.7910610567738459
 31
3.579663261536289
  0
LINE
  5
155
330
17
100
AcDbEntity
  8
lines
100
AcDbLine
 10
-5.152150460356934
 20
2.5921598527276215
 30
3.5784862124257755
 11
-5.449364512883515
 21
2.629829179640101
 31
3.525026331518483
  0
LINE
  5
156
330
17
100
AcDbEntity
  8
lines
100
AcDbLine
 10
-5.152150460356934
 20
2.5921598527276215
 30
3.5784862124257755
 11
-4.858275646154685
 21
2.7812562360011794
 31
3.544617006869005
  0
LINE
  5
157
330
17
100
AcDbEntity
  8
lines
100
AcDbLine
 10
-5.449364512883515
 20
2.629829179640101
 30
3.525026331518483
 11
-5.805736557284025
 21
2.494300469468058
 31
3.5028826285145587
  0
LINE
  5
158
330
17
100
AcDbEntity
  8
lines
100
AcDbLine
 10
-5.820134146418216
 20
1.7910610567738459
 30
3.579663261536289
 11
-5.899027212833997
 21
1.4699459691375734
 31
3.500298713745492
  0
LINE
  5
159
330
17
100
AcDbEntity
  8
lines
100
AcDbLine
 10
-5.750890216540828
 20
2.273487666586399
 30
3.556402139485563
 11
-5.805736557284025
 21
2.494300469468058
 31
3.5028826285145587
  0
LINE
  5
15A
330
17
100
AcDbEntity
  8
lines
100
AcDbLine
 10
-0.9621305228251227
 20
2.5790466038374995
 30
3.5176454082450443
 11
-0.794059409399348
 21
3.288383681806488
 31
3.5344588403712285
  0
LINE
  5
15B
330
17
100
AcDbEntity
  8
lines
100
AcDbLine
 10
-1.772896174764546
 20
2.3288296020005053
 30
3.5524014421469747
 11
-1.6508702431448044
 21
2.121216751819971
 31
3.495011785356783
  0
LINE
  5
15C
330
17
100
AcDbEntity
  8
lines
100
AcDbLine
 10
-1.772896174764546
 20
2.3288296020005053
 30
3.5524014421469747
 11
-1.8302856920987454
 21
2.6271093109105452
 31
3.5452391035620083
  0
LINE
  5
15D
330
17
100
AcDbEntity
  8
lines
100
AcDbLine
 10
2.5969590900733452
 20
1.6799775379919657
 30
3.534292532461515
 11
2.5874014061621167
 21
1.8767095569568009
 31
3.5863345330722143
  0
LINE
  5
15E
330
17
100
AcDbEntity
  8
lines
100
AcDbLine
 10
-0.24947369967927874
 20
-3.51417393227272
 30
3.5300534509743575
 11
0.09945864744279737
 21
-3.5414229236074917
 31
3.5422516035954366
  0
LINE
  5
15F
330
17
100
AcDbEntity
  8
lines
100
AcDbLine
 10
-5.131014621538494
 20
0.23588058203687323
 30
3.566496319800332
 11
-5.1053132572908275
 21
0.03004499127601945
 31
3.5058572666014807
  0
LINE
  5
160
330
17
100
AcDbEntity
  8
lines
100
AcDbLine
 10
-5.131014621538494
 20
0.23588058203687323
 30
3.566496319800332
 11
-5.086691902989408
 21
0.6282497156570468
 31
3.5701714813161862
  0
LINE
  5
161
330
17
100
AcDbEntity
  8
lines
100
AcDbLine
 10
-1.3078238813192717
 20
-0.3210100041365396
 30
3.5800735905711587
 11
-1.303372878239798
 21
-0.17080322238529444
 31
3.5810074979680686
  0
LINE
  5
162
330
17
100
AcDbEntity
  8
lines
100
AcDbLine
 10
-1.3078238813192717
 20
-0.3210100041365396
 30
3.5800735905711587
 11
-1.3111980508667815
 21
-0.021446403666490532
 31
3.5327427562017215
  0
LINE
  5
163
330
17
100
AcDbEntity
  8
lines
100
AcDbLine
 10
4.205867437085982
 20
4.932482895018937
 30
3.5736413874705333
 11
4.220031939798482
 21
4.925868664617282
 31
3.5287879879250132
  0
LINE
  5
164
330
17
100
AcDbEntity
  8
lines
100
AcDbLine
 10
4.205867437085982
 20
4.932482895018937
 30
3.5736413874705333
 11
4.1832526055302335
 21
4.692811106409454
 31
3.5555218871390073
  0
LINE
  5
165
330
17
100
AcDbEntity
  8
lines
100
AcDbLine
 10
-4.203268123858624
 20
-0.5071985375601311
 30
3.5801001703714777
 11
-3.9511511421966827
 21
-0.562519673109587
 31
3.5357283741639876
  0
LINE
  5
166
330
17
100
AcDbEntity
  8
lines
100
AcDbLine
 10
-5.086691902989408
 20
0.6282497156570468
 30
3.5701714813161862
 11
-5.1053132572908275
 21
0.03004499127601945
 31
3.5058572666014807
  0
LINE
  5
167
330
17
100
AcDbEntity
  8
lines
100
AcDbLine
 10
-1.387779022082432
 20
0.9051809109799587
 30
3.5229493802758376
 11
-1.1499199789585213
 21
0.869604169554093
 31
3.5483701666177874
  0
LINE
  5
168
330
17
100
AcDbEntity
  8
lines
100
AcDbLine
 10
-5.118361206454567
 20
-0.17089389514613273
 30
3.5544507210639797
 11
-5.1053132572908275
 21
0.03004499127601945
 31
3.5058572666014807
  0
LINE
  5
169
330
17
100
AcDbEntity
  8
lines
100
AcDbLine
 10
-5.118361206454567
 20
-0.17089389514613273
 30
3.5544507210639797
 11
-4.952562224782557
 21
-0.38450728638363807
 31
3.5547432425983296
  0
LINE
  5
16A
330
17
100
AcDbEntity
  8
lines
100
AcDbLine
 10
4.1832526055302335
 20
4.692811106409454
 30
3.5555218871390073
 11
4.220031939798482
 21
4.925868664617282
 31
3.5287879879250132
  0
LINE
  5
16B
330
17
100
AcDbEntity
  8
lines
100
AcDbLine
 10
3.994074497099409
 20
3.9785326714257225
 30
3.5042054716243713
 11
3.9234009090564808
 21
3.6821803622157727
 31
3.502915265934088
  0
LINE
  5
16C
330
17
100
AcDbEntity
  8
lines
100
AcDbLine
 10
3.994074497099409
 20
3.9785326714257225
 30
3.5042054716243713
 11
4.05909729124554
 21
4.282273292516555
 31
3.561088074084669
  0
LINE
  5
16D
330
17
100
AcDbEntity
  8
lines
100
AcDbLine
 10
4.656033730449619
 20
6.935862324291765
 30
3.503062491312413
 11
4.707927628369755
 21
7.130761931763916
 31
3.511817618565721
  0
LINE
  5
16E
330
17
100
AcDbEntity
  8
lines
100
AcDbLine
 10
4.656033730449619
 20
6.935862324291765
 30
3.503062491312413
 11
4.62162053159555
 21
6.737994697381789
 31
3.5596547506411085
  0
LINE
  5
16F
330
17
100
AcDbEntity
  8
lines
100
AcDbLine
 10
2.83355958776247
 20
4.5858745016318
 30
3.5226379513462933
 11
2.8093171914445274
 21
4.742619770745079
 31
3.522188937417039
  0
LINE
  5
170
330
17
100
AcDbEntity
  8
lines
100
AcDbLine
 10
2.83355958776247
 20
4.5858745016318
 30
3.5226379513462933
 11
2.6984380546677627
 21
4.68511988445573
 31
3.5715364561956293
  0
LINE
  5
171
330
17
100
AcDbEntity
  8
lines
100
AcDbLine
 10
2.2673691246940217
 20
4.989346712787653
 30
3.5028840452589782
 11
2.1371065970129206
 21
5.163582441949521
 31
3.516812177489709
  0
LINE
  5
172
330
17
100
AcDbEntity
  8
lines
100
AcDbLine
 10
2.2673691246940217
 20
4.989346712787653
 30
3.5028840452589782
 11
2.5392264918998655
 21
4.769607844514636
 31
3.521487346727248
  0
LINE
  5
173
330
17
100
AcDbEntity
  8
lines
100
AcDbLine
 10
4.707927628369755
 20
7.130761931763916
 30
3.511817618565721
 11
4.62162053159555
 21
6.737994697381789
 31
3.5596547506411085
  0
LINE
  5
174
330
17
100
AcDbEntity
  8
lines
100
AcDbLine
 10
2.145698516087624
 20
-1.0707488412813768
 30
3.537024778131743
 11
2.1651528214481592
 21
-0.9233899841106605
 31
3.538953550247505
  0
LINE
  5
175
330
17
100
AcDbEntity
  8
lines
100
AcDbLine
 10
2.145698516087624
 20
-1.0707488412813768
 30
3.537024778131743
 11
2.179794259580948
 21
-0.9211034930133268
 31
3.540376850811099
  0
LINE
  5
176
330
17
100
AcDbEntity
  8
lines
100
AcDbLine
 10
-1.1499199789585213
 20
0.869604169554093
 30
3.5483701666177874
 11
-0.909129617200368
 21
0.6312605724454081
 31
3.5535484814042153
  0
LINE
  5
177
330
17
100
AcDbEntity
  8
lines
100
AcDbLine
 10
-0.5041711686744095
 20
3.4789477119192673
 30
3.549440326042287
 11
-0.598111173694867
 21
3.3828156590513236
 31
3.4950944713194727
  0
LINE
  5
178
330
17
100
AcDbEntity
  8
lines
100
AcDbLine
 10
-0.5041711686744095
 20
3.4789477119192673
 30
3.549440326042287
 11
-0.5577571037112897
 21
3.679820406839138
 31
3.5472706830493665
  0
LINE
  5
179
330
17
100
AcDbEntity
  8
lines
100
AcDbLine
 10
2.8093171914445274
 20
4.742619770745079
 30
3.522188937417039
 11
2.6984380546677627
 21
4.68511988445573
 31
3.5715364561956293
  0
LINE
  5
17A
330
17
100
AcDbEntity
  8
lines
100
AcDbLine
 10
-1.8012053052639738
 20
4.886178415809664
 30
3.5184891282573
 11
-2.5095057861792323
 21
5.015495095063724
 31
3.5456643933528005
  0
LINE
  5
17B
330
17
100
AcDbEntity
  8
lines
100
AcDbLine
 10
-0.598111173694867
 20
3.3828156590513236
 30
3.4950944713194727
 11
-0.794059409399348
 21
3.288383681806488
 31
3.5344588403712285
  0
LINE
  5
17C
330
17
100
AcDbEntity
  8
lines
100
AcDbLine
 10
-0.7659485271621989
 20
4.329835243592399
 30
3.5506130247973995
 11
-0.8258076144567237
 21
4.063139230173612
 31
3.5368768968622692
  0
LINE
  5
17D
330
17
100
AcDbEntity
  8
lines
100
AcDbLine
 10
0.9501077655246146
 20
5.482983043993787
 30
3.5707047082973027
 11
1.1016587338539372
 21
5.434974769147341
 31
3.5739080762777373
  0
LINE
  5
17E
330
17
100
AcDbEntity
  8
lines
100
AcDbLine
 10
0.9501077655246146
 20
5.482983043993787
 30
3.5707047082973027
 11
1.2900952178728187
 21
5.39904099358212
 31
3.5822467657869734
  0
LINE
  5
17F
330
17
100
AcDbEntity
  8
lines
100
AcDbLine
 10
-0.1015847746296823
 20
5.162670514131864
 30
3.5809006566746673
 11
0.21193158336835033
 21
5.158385808321537
 31
3.5600435579685294
  0
LINE
  5
180
330
17
100
AcDbEntity
  8
lines
100
AcDbLine
 10
-0.1015847746296823
 20
5.162670514131864
 30
3.5809006566746673
 11
0.4201608587881969
 21
5.210040339643404
 31
3.514528704715792
  0
LINE
  5
181
330
17
100
AcDbEntity
  8
lines
100
AcDbLine
 10
1.1016587338539372
 20
5.434974769147341
 30
3.5739080762777373
 11
1.2900952178728187
 21
5.39904099358212
 31
3.5822467657869734
  0
LINE
  5
182
330
17
100
AcDbEntity
  8
lines
100
AcDbLine
 10
-4.858275646154685
 20
2.7812562360011794
 30
3.544617006869005
 11
-4.8371198395747586
 21
2.976722152105981
 31
3.548265887168009
  0
LINE
  5
183
330
17
100
AcDbEntity
  8
lines
100
AcDbLine
 10
-4.398757559165698
 20
5.01902706557492
 30
3.533887708793704
 11
-3.574928314512855
 21
5.055198652575008
 31
3.5552361657154803
  0
LINE
  5
184
330
17
100
AcDbEntity
  8
lines
100
AcDbLine
 10
-3.400744622792866
 20
5.021974341261559
 30
3.567925606450801
 11
-3.574928314512855
 21
5.055198652575008
 31
3.5552361657154803
  0
LINE
  5
185
330
17
100
AcDbEntity
  8
lines
100
AcDbLine
 10
4.332330177094063
 20
5.386494691645403
 30
3.541721672635579
 11
4.437190712790908
 21
5.780615073661206
 31
3.5399496752640642
  0
LINE
  5
186
330
17
100
AcDbEntity
  8
lines
100
AcDbLine
 10
-1.7242616769588728
 20
3.277128143853868
 30
3.496683265533194
 11
-1.8302856920987454
 21
2.6271093109105452
 31
3.5452391035620083
  0
LINE
  5
187
330
17
100
AcDbEntity
  8
lines
100
AcDbLine
 10
2.5703416677930098
 20
2.227200127657064
 30
3.5889498080299664
 11
2.5874014061621167
 21
1.8767095569568009
 31
3.5863345330722143
  0
LINE
  5
188
330
17
100
AcDbEntity
  8
lines
100
AcDbLine
 10
2.1371065970129206
 20
5.163582441949521
 30
3.516812177489709
 11
1.8525686380287485
 21
5.332323047092273
 31
3.499093164762651
  0
LINE
  5
189
330
17
100
AcDbEntity
  8
lines
100
AcDbLine
 10
-4.952562224782557
 20
-0.38450728638363807
 30
3.5547432425983296
 11
-4.802809875226984
 21
-0.40464108674409105
 31
3.560538805757889
  0
LINE
  5
18A
330
17
100
AcDbEntity
  8
lines
100
AcDbLine
 10
3.8035876744780173
 20
3.0324577150216845
 30
3.585373728594397
 11
3.8460340773633943
 21
3.2823159933038824
 31
3.4924618682290003
  0
LINE
  5
18B
330
17
100
AcDbEntity
  8
lines
100
AcDbLine
 10
-2.9025256490587354
 20
-0.669489669924179
 30
3.57285841529238
 11
-3.3003224547545265
 21
-0.6389710833758031
 31
3.5090536097823253
  0
LINE
  5
18C
330
17
100
AcDbEntity
  8
lines
100
AcDbLine
 10
2.5392264918998655
 20
4.769607844514636
 30
3.521487346727248
 11
2.6984380546677627
 21
4.68511988445573
 31
3.5715364561956293
  0
LINE
  5
18D
330
17
100
AcDbEntity
  8
lines
100
AcDbLine
 10
-1.3111980508667815
 20
-0.021446403666490532
 30
3.5327427562017215
 11
-1.303372878239798
 21
-0.17080322238529444
 31
3.5810074979680686
  0
LINE
  5
18E
330
17
100
AcDbEntity
  8
lines
100
AcDbLine
 10
4.62162053159555
 20
6.737994697381789
 30
3.5596547506411085
 11
4.549958777309411
 21
6.432669291068739
 31
3.548424512625946
  0
LINE
  5
18F
330
17
100
AcDbEntity
  8
lines
100
AcDbLine
 10
1.4417968227036262
 20
5.408754485803895
 30
3.585968887674551
 11
1.2900952178728187
 21
5.39904099358212
 31
3.5822467657869734
  0
LINE
  5
190
330
17
100
AcDbEntity
  8
lines
100
AcDbLine
 10
-1.9483889358785862
 20
0.5789926921675332
 30
3.5182863158113324
 11
-2.021012292079862
 21
0.07857756622471146
 31
3.507393732474309
  0
LINE
  5
191
330
17
100
AcDbEntity
  8
lines
100
AcDbLine
 10
0.4201608587881969
 20
5.210040339643404
 30
3.514528704715792
 11
0.21193158336835033
 21
5.158385808321537
 31
3.5600435579685294
  0
LINE
  5
192
330
17
100
AcDbEntity
  8
lines
100
AcDbLine
 10
3.8460340773633943
 20
3.2823159933038824
 30
3.4924618682290003
 11
3.9234009090564808
 21
3.6821803622157727
 31
3.502915265934088
  0
LINE
  5
193
330
17
100
AcDbEntity
  8
lines
100
AcDbLine
 10
-3.70104121449947
 20
-0.6042868594692938
 30
3.5459366850065117
 11
-3.5014191774063073
 21
-0.6038464124477227
 31
3.5021909524340455
  0
LINE
  5
194
330
17
100
AcDbEntity
  8
lines
100
AcDbLine
 10
-3.70104121449947
 20
-0.6042868594692938
 30
3.5459366850065117
 11
-3.9511511421966827
 21
-0.562519673109587
 31
3.5357283741639876
  0
LINE
  5
195
330
17
100
AcDbEntity
  8
lines
100
AcDbLine
 10
2.1651528214481592
 20
-0.9233899841106605
 30
3.538953550247505
 11
2.179794259580948
 21
-0.9211034930133268
 31
3.540376850811099
  0
LINE
  5
196
330
17
100
AcDbEntity
  8
lines
100
AcDbLine
 10
-1.6279983431001848
 20
-2.2880313958798633
 30
3.527761449227926
 11
-1.5992498798122212
 21
-1.8694727091159853
 31
3.5030282700100255
  0
LINE
  5
197
330
17
100
AcDbEntity
  8
lines
100
AcDbLine
 10
-2.5095057861792323
 20
5.015495095063724
 30
3.5456643933528005
 11
-2.8983977687931493
 21
5.032975281552825
 31
3.538982353122378
  0
LINE
  5
198
330
17
100
AcDbEntity
  8
lines
100
AcDbLine
 10
-3.5014191774063073
 20
-0.6038464124477227
 30
3.5021909524340455
 11
-3.3003224547545265
 21
-0.6389710833758031
 31
3.5090536097823253
  0
ENDSEC
  0
SECTION
  2
OBJECTS
  0
DICTIONARY
  5
A
330
0
100
AcDbDictionary
281
1
  3
ACAD_COLOR
350
B
  3
ACAD_GROUP
350
C
  3
ACAD_LAYOUT
350
D
  3
ACAD_MATERIAL
350
E
  3
ACAD_MLEADERSTYLE
350
F
  3
ACAD_MLINESTYLE
350
10
  3
ACAD_PLOTSETTINGS
350
11
  3
ACAD_PLOTSTYLENAME
350
12
  3
ACAD_SCALELIST
350
14
  3
ACAD_TABLESTYLE
350
15
  3
ACAD_VISUALSTYLE
350
16
  3
EZDXF_META
350
2D
  0
DICTIONARY
  5
B
330
A
100
AcDbDictionary
281
1
  0
DICTIONARY
  5
C
330
A
100
AcDbDictionary
281
1
  0
DICTIONARY
  5
D
330
A
100
AcDbDictionary
281
1
  3
Model
350
1A
  3
Layout1
350
1E
  0
DICTIONARY
  5
E
330
A
100
AcDbDictionary
281
1
  3
ByBlock
350
1F
  3
ByLayer
350
20
  3
Global
350
21
  0
DICTIONARY
  5
F
330
A
100
AcDbDictionary
281
1
  3
Standard
350
2C
  0
DICTIONARY
  5
10
330
A
100
AcDbDictionary
281
1
  3
Standard
350
22
  0
DICTIONARY
  5
11
330
A
100
AcDbDictionary
281
1
  0
ACDBDICTIONARYWDFLT
  5
12
330
A
100
AcDbDictionary
281
1
  3
Normal
350
13
100
AcDbDictionaryWithDefault
340
13
  0
ACDBPLACEHOLDER
  5
13
330
12
  0
DICTIONARY
  5
14
330
A
100
AcDbDictionary
281
1
  0
DICTIONARY
  5
15
330
A
100
AcDbDictionary
281
1
  0
DICTIONARY
  5
16
330
A
100
AcDbDictionary
281
1
  0
LAYOUT
  5
1A
330
D
100
AcDbPlotSettings
  1

  4
A3
  6

 40
7.5
 41
20.0
 42
7.5
 43
20.0
 44
420.0
 45
297.0
 46
0.0
 47
0.0
 48
0.0
 49
0.0
140
0.0
141
0.0
142
1.0
143
1.0
 70
1024
 72
1
 73
0
 74
5
  7

 75
16
 76
0
 77
2
 78
300
147
1.0
148
0.0
149
0.0
100
AcDbLayout
  1
Model
 70
1
 71
0
 10
0.0
 20
0.0
 11
420.0
 21
297.0
 12
0.0
 22
0.0
 32
0.0
 14
1e+20
 24
1e+20
 34
1e+20
 15
-1e+20
 25
-1e+20
 35
-1e+20
146
0.0
 13
0.0
 23
0.0
 33
0.0
 16
1.0
 26
0.0
 36
0.0
 17
0.0
 27
1.0
 37
0.0
 76
1
330
17
  0
LAYOUT
  5
1E
330
D
100
AcDbPlotSettings
  1

  4
A3
  6

 40
7.5
 41
20.0
 42
7.5
 43
20.0
 44
420.0
 45
297.0
 46
0.0
 47
0.0
 48
0.0
 49
0.0
140
0.0
141
0.0
142
1.0
143
1.0
 70
0
 72
1
 73
0
 74
5
  7

 75
16
 76
0
 77
2
 78
300
147
1.0
148
0.0
149
0.0
100
AcDbLayout
  1
Layout1
 70
1
 71
1
 10
0.0
 20
0.0
 11
420.0
 21
297.0
 12
0.0
 22
0.0
 32
0.0
 14
1e+20
 24
1e+20
 34
1e+20
 15
-1e+20
 25
-1e+20
 35
-1e+20
146
0.0
 13
0.0
 23
0.0
 33
0.0
 16
1.0
 26
0.0
 36
0.0
 17
0.0
 27
1.0
 37
0.0
 76
1
330
1B
  0
MATERIAL
  5
1F
102
{ACAD_REACTORS
330
E
102
}
330
E
100
AcDbMaterial
  1
ByBlock
  2

 70
0
 40
1.0
 71
1
 41
1.0
 91
-1023410177
 42
1.0
 72
1
  3

 73
1
 74
1
 75
1
 44
0.5
 73
0
 45
1.0
 46
1.0
 77
1
  4

 78
1
 79
1
170
1
 48
1.0
171
1
  6

172
1
173
1
174
1
140
1.0
141
1.0
175
1
  7

176
1
177
1
178
1
143
1.0
179
1
  8

270
1
271
1
272
1
145
1.0
146
1.0
273
1
  9

274
1
275
1
276
1
 42
1.0
 72
1
  3

 73
1
 74
1
 75
1
 94
63
  0
MATERIAL
  5
20
102
{ACAD_REACTORS
330
E
102
}
330
E
100
AcDbMaterial
  1
ByLayer
  2

 70
0
 40
1.0
 71
1
 41
1.0
 91
-1023410177
 42
1.0
 72
1
  3

 73
1
 74
1
 75
1
 44
0.5
 73
0
 45
1.0
 46
1.0
 77
1
  4

 78
1
 79
1
170
1
 48
1.0
171
1
  6

172
1
173
1
174
1
140
1.0
141
1.0
175
1
  7

176
1
177
1
178
1
143
1.0
179
1
  8

270
1
271
1
272
1
145
1.0
146
1.0
273
1
  9

274
1
275
1
276
1
 42
1.0
 72
1
  3

 73
1
 74
1
 75
1
 94
63
  0
MATERIAL
  5
21
102
{ACAD_REACTORS
330
E
102
}
330
E
100
AcDbMaterial
  1
Global
  2

 70
0
 40
1.0
 71
1
 41
1.0
 91
-1023410177
 42
1.0
 72
1
  3

 73
1
 74
1
 75
1
 44
0.5
 73
0
 45
1.0
 46
1.0
 77
1
  4

 78
1
 79
1
170
1
 48
1.0
171
1
  6

172
1
173
1
174
1
140
1.0
141
1.0
175
1
  7

176
1
177
1
178
1
143
1.0
179
1
  8

270
1
271
1
272
1
145
1.0
146
1.0
273
1
  9

274
1
275
1
276
1
 42
1.0
 72
1
  3

 73
1
 74
1
 75
1
 94
63
  0
MLINESTYLE
  5
22
102
{ACAD_REACTORS
330
10
102
}
330
10
100
AcDbMlineStyle
  2
Standard
 70
0
  3

 62
256
 51
90.0
 52
90.0
 71
2
 49
0.5
 62
256
  6
BYLAYER
 49
-0.5
 62
256
  6
BYLAYER
  0
MLEADERSTYLE
  5
2C
102
{ACAD_REACTORS
330
F
102
}
330
F
100
AcDbMLeaderStyle
179
2
170
2
171
1
172
0
 90
2
 40
0.0
 41
0.0
173
1
 91
-1056964608
 92
-2
290
1
 42
2.0
291
1
 43
8.0
  3
Standard
 44
4.0
300

342
29
174
1
175
1
176
0
178
1
 93
-1056964608
 45
4.0
292
0
297
0
 46
4.0
 94
-1056964608
 47
1.0
 49
1.0
140
1.0
294
1
141
0.0
177
0
142
1.0
295
0
296
0
143
3.75
271
0
272
9
273
9
  0
DICTIONARY
  5
2D
330
A
100
AcDbDictionary
280
1
281
1
  3
CREATED_BY_EZDXF
350
2E
  3
WRITTEN_BY_EZDXF
350
19E
  0
DICTIONARYVAR
  5
2E
330
2D
100
DictionaryVariables
280
0
  1
1.4.3 @ 2026-07-28T07:28:53.308358+00:00
  0
DICTIONARYVAR
  5
19E
330
2D
100
DictionaryVariables
280
0
  1
1.4.3 @ 2026-07-28T07:28:53.312622+00:00
  0
ENDSEC
  0
EOF
